<svg width="944" height="377" fill="none" xmlns="http://www.w3.org/2000/svg"><path d="M12.921 183h9.216c.72 0 1.296-.288 1.584-1.008l3.888-9.288h22.68l3.96 9.288c.288.72.792 1.008 1.584 1.008h9.144c.936 0 1.44-.648 1.008-1.584l-21.24-47.808c-.288-.72-.792-1.008-1.584-1.008h-8.424c-.72 0-1.224.36-1.512 1.008l-21.384 47.808c-.36.936.072 1.584 1.08 1.584zm18.504-19.584l7.488-17.928 7.632 17.928h-15.12zm103.537 18.36l-.648-5.976c-.072-.936-.648-1.224-1.584-1.152-.864.216-1.44.216-2.16.216-1.512 0-2.376-.936-2.376-2.736v-41.04c0-.864-.504-1.368-1.368-1.368h-8.136c-.864 0-1.368.504-1.368 1.368v18.936c-2.952-2.16-6.336-3.096-10.008-3.096-11.16 0-18.936 7.632-18.936 18.648 0 10.944 7.776 18.576 18.936 18.576 4.824 0 8.784-1.512 11.952-4.536 1.512 2.88 4.824 4.536 9.072 4.536 1.8 0 3.6-.288 5.544-.864.864-.216 1.224-.72 1.08-1.512zm-26.712-6.048c-5.472 0-9.288-4.176-9.288-10.152 0-6.048 3.816-10.224 9.288-10.224 5.4 0 9.072 4.176 9.072 10.224 0 5.976-3.672 10.152-9.072 10.152zm51.188 8.424c8.136 0 14.616-3.672 17.064-9.648.36-.864-.144-1.44-1.152-1.44h-8.064c-.72 0-1.152.288-1.728.72-1.224 1.368-3.384 2.16-5.904 2.16-4.752 0-8.352-2.664-9.504-6.984h25.848c.792 0 1.368-.36 1.512-1.224 0-.792.072-1.656.072-2.448 0-10.944-7.128-18.36-18.792-18.36-11.448 0-19.152 7.416-19.152 18.648 0 11.16 7.992 18.576 19.8 18.576zm-9.36-21.6c.648-4.536 4.248-7.632 9-7.632 4.824 0 7.992 3.168 8.208 7.632h-17.208zm45.966 21.6c1.728 0 3.528-.288 5.472-.864.864-.216 1.224-.72 1.152-1.512l-.72-5.976c-.072-.936-.648-1.224-1.512-1.152-.936.216-1.512.216-2.16.216-1.584 0-2.448-.936-2.448-2.736v-41.04c0-.864-.504-1.368-1.368-1.368h-8.064c-.864 0-1.368.504-1.368 1.368v44.496c0 5.256 4.32 8.568 11.016 8.568zm18.361-42.48c3.6 0 6.408-2.592 6.408-5.976s-2.808-5.904-6.408-5.904c-3.6 0-6.408 2.52-6.408 5.904s2.808 5.976 6.408 5.976zm5.616 42.48c1.728 0 3.528-.288 5.472-.864.864-.216 1.224-.72 1.152-1.512l-.72-5.976c-.072-.936-.648-1.224-1.512-1.152-.936.216-1.512.216-2.16.216-1.584 0-2.448-.936-2.448-2.736v-22.68c0-.864-.504-1.368-1.368-1.368h-8.064c-.864 0-1.368.504-1.368 1.368v26.136c0 5.256 4.32 8.568 11.016 8.568zm49.265-36.072h-7.92c-.864 0-1.368.504-1.368 1.368v.792c-2.88-2.232-6.408-3.312-10.224-3.312-11.088 0-18.936 7.704-18.936 18.504 0 10.872 7.848 18.576 18.936 18.576 3.6 0 7.128-.936 10.008-3.096v3.024c0 4.968-3.312 8.208-8.496 8.208-4.176 0-7.344-1.8-8.28-4.68-.36-.72-.792-1.08-1.584-1.08h-8.064c-.936 0-1.512.504-1.296 1.368 1.44 7.992 8.928 13.176 19.296 13.176 11.52 0 19.296-6.84 19.296-17.064v-34.416c0-.864-.576-1.368-1.368-1.368zm-18.576 27.432c-5.4 0-9.288-4.104-9.288-10.08 0-5.904 3.888-10.08 9.288-10.08 5.328 0 9.072 4.176 9.072 10.08 0 5.976-3.744 10.08-9.072 10.08zm66.327 8.64c1.8 0 3.528-.288 5.544-.864.864-.216 1.224-.72 1.08-1.512l-.648-5.976c-.072-.936-.648-1.224-1.584-1.152-.864.216-1.44.216-2.16.216-1.512 0-2.376-.936-2.376-2.736v-9.288c0-9.576-6.264-15.912-15.624-15.912-4.248 0-7.92 1.152-10.8 3.096v-18.936c0-.864-.504-1.368-1.368-1.368h-8.064c-.864 0-1.368.504-1.368 1.368v50.544c0 .864.504 1.368 1.368 1.368h8.064c.864 0 1.368-.504 1.368-1.368V163.92c0-4.752 3.168-7.776 7.992-7.776 4.608 0 7.56 3.24 7.56 8.136v11.304c0 5.256 4.32 8.568 11.016 8.568zm31.21 0c2.232 0 5.544-.432 8.424-1.152.864-.288 1.152-.792 1.08-1.584l-.936-6.192c-.144-.792-.72-1.224-1.584-1.08-1.728.432-3.816.648-5.4.648-3.6 0-5.976-2.232-5.976-5.904v-12.096h11.304c.792 0 1.368-.504 1.368-1.368v-5.976c0-.864-.576-1.368-1.368-1.368h-11.304v-9.144c0-.864-.504-1.368-1.368-1.368h-8.064c-.864 0-1.368.504-1.368 1.368v9.144h-6.624c-.864 0-1.368.504-1.368 1.368v5.976c0 .864.504 1.368 1.368 1.368h6.624v12.456c0 9.216 5.832 14.904 15.192 14.904zM370.592 183h8.136c.792 0 1.368-.504 1.368-1.368v-24.84h12.024c.792 0 1.368-.504 1.368-1.368v-5.976c0-.864-.576-1.368-1.368-1.368h-12.024v-4.176c0-3.816 2.808-6.192 6.984-6.192 1.584 0 3.96.288 5.544.72.864.216 1.44-.288 1.584-1.152l.936-5.976c.144-.864-.216-1.296-1.008-1.512-2.736-.864-6.336-1.224-8.784-1.224-9.936 0-16.128 5.904-16.128 15.336v4.176h-7.92c-.864 0-1.368.504-1.368 1.368v5.976c0 .864.504 1.368 1.368 1.368h7.92v24.84c0 .864.576 1.368 1.368 1.368zm70.827-1.224l-.648-5.976c-.144-.936-.72-1.224-1.584-1.152-.936.216-1.512.216-2.232.216-1.512 0-2.376-.936-2.376-2.808v-22.608c0-.864-.576-1.368-1.368-1.368h-8.136c-.792 0-1.368.504-1.368 1.368v17.712c0 4.752-3.096 7.776-7.92 7.776-4.608 0-7.56-3.24-7.56-8.136v-17.352c0-.864-.504-1.368-1.368-1.368h-8.064c-.864 0-1.368.504-1.368 1.368v18.792c0 9.576 6.192 15.912 15.552 15.912 5.112 0 9.36-1.512 12.24-4.176 1.656 2.592 5.04 4.176 9.648 4.176 1.728 0 3.456-.288 5.472-.864.792-.216 1.152-.72 1.08-1.512zm17.383 2.376c1.728 0 3.528-.288 5.472-.864.864-.216 1.224-.72 1.152-1.512l-.72-5.976c-.072-.936-.648-1.224-1.512-1.152-.936.216-1.512.216-2.16.216-1.584 0-2.448-.936-2.448-2.736v-41.04c0-.864-.504-1.368-1.368-1.368h-8.064c-.864 0-1.368.504-1.368 1.368v44.496c0 5.256 4.32 8.568 11.016 8.568zm49.456 0c8.136 0 14.616-3.672 17.064-9.648.36-.864-.144-1.44-1.152-1.44h-8.064c-.72 0-1.152.288-1.728.72-1.224 1.368-3.384 2.16-5.904 2.16-4.752 0-8.352-2.664-9.504-6.984h25.848c.792 0 1.368-.36 1.512-1.224 0-.792.072-1.656.072-2.448 0-10.944-7.128-18.36-18.792-18.36-11.448 0-19.152 7.416-19.152 18.648 0 11.16 7.992 18.576 19.8 18.576zm-9.36-21.6c.648-4.536 4.248-7.632 9-7.632 4.824 0 7.992 3.168 8.208 7.632h-17.208zM530.841 183h8.928c.792 0 1.224-.216 1.728-.864l7.704-10.008 7.632 10.008c.432.648.864.864 1.656.864h8.928c1.08 0 1.512-.72.864-1.584l-12.024-15.84 12.024-15.84c.648-.936.288-1.656-.864-1.656h-9.432c-.72 0-1.224.216-1.656.864l-7.2 9.36-7.056-9.36c-.432-.648-.936-.864-1.656-.864h-9.576c-1.08 0-1.44.72-.792 1.656l11.952 15.768-12.096 15.912c-.648.864-.216 1.584.936 1.584zm67.415-36.072c-4.392 0-8.64 1.512-11.808 4.608-1.44-2.808-4.608-4.608-8.712-4.608-1.656 0-3.528.216-5.184.864-.792.288-1.08.72-1.08 1.584v5.904c0 .936.648 1.152 1.584 1.152.432-.072 1.152-.216 1.584-.216 2.016 0 2.808.864 2.808 2.808v39.384c0 .792.504 1.296 1.368 1.296h8.064c.864 0 1.368-.504 1.368-1.296v-17.352c2.952 2.16 6.408 3.096 10.008 3.096 11.232 0 19.008-7.632 19.008-18.576 0-11.016-7.776-18.648-19.008-18.648zm-.864 28.8c-5.4 0-9.144-4.176-9.144-10.152 0-6.048 3.744-10.224 9.144-10.224s9.288 4.176 9.288 10.224c0 5.976-3.888 10.152-9.288 10.152zm45.374 8.424c8.136 0 14.616-3.672 17.064-9.648.36-.864-.144-1.44-1.152-1.44h-8.064c-.72 0-1.152.288-1.728.72-1.224 1.368-3.384 2.16-5.904 2.16-4.752 0-8.352-2.664-9.504-6.984h25.848c.792 0 1.368-.36 1.512-1.224 0-.792.072-1.656.072-2.448 0-10.944-7.128-18.36-18.792-18.36-11.448 0-19.152 7.416-19.152 18.648 0 11.16 7.992 18.576 19.8 18.576zm-9.36-21.6c.648-4.536 4.248-7.632 9-7.632 4.824 0 7.992 3.168 8.208 7.632h-17.208zm63.894-14.976c-1.296-.432-3.24-.648-4.968-.648-4.752 0-8.856 1.728-11.736 4.896-1.368-3.024-4.536-4.896-8.712-4.896-1.656 0-3.528.288-5.184.864-.792.288-1.08.72-1.08 1.584v5.904c0 .936.648 1.152 1.584 1.152.432-.072 1.152-.216 1.584-.216 2.016 0 2.808.864 2.808 2.808v22.608c0 .864.504 1.368 1.368 1.368h8.064c.864 0 1.368-.504 1.368-1.368v-15.48c0-5.904 4.032-9.36 9.504-9.36 1.368 0 2.88.144 3.96.36.864.144 1.44-.216 1.584-1.08l.936-6.912c.072-.792-.216-1.368-1.08-1.584zm12.878-5.904c3.6 0 6.408-2.592 6.408-5.976s-2.808-5.904-6.408-5.904c-3.6 0-6.408 2.52-6.408 5.904s2.808 5.976 6.408 5.976zm5.616 42.48c1.728 0 3.528-.288 5.472-.864.864-.216 1.224-.72 1.152-1.512l-.72-5.976c-.072-.936-.648-1.224-1.512-1.152-.936.216-1.512.216-2.16.216-1.584 0-2.448-.936-2.448-2.736v-22.68c0-.864-.504-1.368-1.368-1.368h-8.064c-.864 0-1.368.504-1.368 1.368v26.136c0 5.256 4.32 8.568 11.016 8.568zm30.402 0c8.136 0 14.616-3.672 17.064-9.648.36-.864-.144-1.44-1.152-1.44h-8.064c-.72 0-1.152.288-1.728.72-1.224 1.368-3.384 2.16-5.904 2.16-4.752 0-8.352-2.664-9.504-6.984h25.848c.792 0 1.368-.36 1.512-1.224 0-.792.072-1.656.072-2.448 0-10.944-7.128-18.36-18.792-18.36-11.448 0-19.152 7.416-19.152 18.648 0 11.16 7.992 18.576 19.8 18.576zm-9.36-21.6c.648-4.536 4.248-7.632 9-7.632 4.824 0 7.992 3.168 8.208 7.632h-17.208zm82.182 19.224l-.648-5.976c-.072-.936-.648-1.224-1.584-1.152-.864.216-1.44.216-2.16.216-1.512 0-2.376-.936-2.376-2.736v-9.288c0-9.576-6.264-15.912-15.696-15.912-5.256 0-9.792 1.656-12.6 4.464-1.584-2.736-4.608-4.464-8.64-4.464-1.656 0-3.528.216-5.184.864-.792.288-1.08.72-1.08 1.584v5.904c0 .936.648 1.152 1.584 1.152.432-.072 1.152-.216 1.584-.216 2.016 0 2.808.864 2.808 2.808v22.608c0 .864.504 1.368 1.368 1.368h8.064c.864 0 1.368-.504 1.368-1.368V163.92c0-4.752 3.24-7.776 7.992-7.776 4.608 0 7.56 3.24 7.56 8.136v11.304c0 5.256 4.32 8.568 11.016 8.568 1.8 0 3.528-.288 5.544-.864.864-.216 1.224-.72 1.08-1.512zm23.645 2.376c9.576 0 16.632-5.112 18.144-13.032.144-.864-.36-1.44-1.224-1.44h-7.704c-.792 0-1.152.432-1.512 1.152-1.008 2.88-3.96 4.608-7.704 4.608-5.688 0-9.432-3.888-9.432-9.864 0-5.976 3.744-9.936 9.432-9.936 3.744 0 6.696 1.8 7.704 4.608.36.792.72 1.152 1.512 1.152h7.704c.864 0 1.368-.504 1.224-1.44-1.512-7.92-8.568-13.032-18.144-13.032-11.88 0-19.8 7.416-19.8 18.648 0 11.16 7.92 18.576 19.8 18.576zm43.665 0c8.136 0 14.616-3.672 17.064-9.648.36-.864-.144-1.44-1.152-1.44h-8.064c-.72 0-1.152.288-1.728.72-1.224 1.368-3.384 2.16-5.904 2.16-4.752 0-8.352-2.664-9.504-6.984h25.848c.792 0 1.368-.36 1.512-1.224 0-.792.072-1.656.072-2.448 0-10.944-7.128-18.36-18.792-18.36-11.448 0-19.152 7.416-19.152 18.648 0 11.16 7.992 18.576 19.8 18.576zm-9.36-21.6c.648-4.536 4.248-7.632 9-7.632 4.824 0 7.992 3.168 8.208 7.632h-17.208zm-656.903 55.12c3.6 0 6.408-2.592 6.408-5.976s-2.808-5.904-6.408-5.904c-3.6 0-6.408 2.52-6.408 5.904s2.808 5.976 6.408 5.976zm5.616 42.48c1.728 0 3.528-.288 5.472-.864.864-.216 1.224-.72 1.152-1.512l-.72-5.976c-.072-.936-.648-1.224-1.512-1.152-.936.216-1.512.216-2.16.216-1.584 0-2.448-.936-2.448-2.736v-22.68c0-.864-.504-1.368-1.368-1.368h-8.064c-.864 0-1.368.504-1.368 1.368v26.136c0 5.256 4.32 8.568 11.016 8.568zm59.489-2.376l-.648-5.976c-.072-.936-.648-1.224-1.584-1.152-.864.216-1.44.216-2.16.216-1.512 0-2.376-.936-2.376-2.736v-9.288c0-9.576-6.264-15.912-15.696-15.912-5.256 0-9.792 1.656-12.6 4.464-1.584-2.736-4.608-4.464-8.64-4.464-1.656 0-3.528.216-5.184.864-.792.288-1.08.72-1.08 1.584v5.904c0 .936.648 1.152 1.584 1.152.432-.072 1.152-.216 1.584-.216 2.016 0 2.808.864 2.808 2.808v22.608c0 .864.504 1.368 1.368 1.368h8.064c.864 0 1.368-.504 1.368-1.368V239.92c0-4.752 3.24-7.776 7.992-7.776 4.608 0 7.56 3.24 7.56 8.136v11.304c0 5.256 4.32 8.568 11.016 8.568 1.8 0 3.528-.288 5.544-.864.864-.216 1.224-.72 1.08-1.512zm42.842 2.376c8.136 0 14.616-3.672 17.064-9.648.36-.864-.144-1.44-1.152-1.44h-8.064c-.72 0-1.152.288-1.728.72-1.224 1.368-3.384 2.16-5.904 2.16-4.752 0-8.352-2.664-9.504-6.984h25.848c.792 0 1.368-.36 1.512-1.224 0-.792.072-1.656.072-2.448 0-10.944-7.128-18.36-18.792-18.36-11.448 0-19.152 7.416-19.152 18.648 0 11.16 7.992 18.576 19.8 18.576zm-9.36-21.6c.648-4.536 4.248-7.632 9-7.632 4.824 0 7.992 3.168 8.208 7.632h-17.208zm57.27 21.6c11.16 0 19.08-7.848 19.08-19.08 0-4.968-1.008-10.224-2.88-15.768-.288-.792-.864-1.224-1.656-1.224h-7.92c-1.008 0-1.44.648-1.152 1.584 1.656 5.256 2.808 10.584 2.808 15.192 0 5.976-3.384 10.08-8.28 10.08-4.752 0-8.28-2.448-8.28-8.136v-10.296c0-5.976-3.816-9.504-10.224-9.576-1.944 0-3.816.288-5.472.864-.792.288-1.08.72-1.08 1.584v5.904c0 .936.648 1.152 1.584 1.152.432-.072 1.152-.216 1.584-.216 2.016 0 2.808.864 2.808 2.808v8.712c0 10.224 8.856 16.416 19.08 16.416zm45.606 0c8.136 0 14.616-3.672 17.064-9.648.36-.864-.144-1.44-1.152-1.44h-8.064c-.72 0-1.152.288-1.728.72-1.224 1.368-3.384 2.16-5.904 2.16-4.752 0-8.352-2.664-9.504-6.984h25.848c.792 0 1.368-.36 1.512-1.224 0-.792.072-1.656.072-2.448 0-10.944-7.128-18.36-18.792-18.36-11.448 0-19.152 7.416-19.152 18.648 0 11.16 7.992 18.576 19.8 18.576zm-9.36-21.6c.648-4.536 4.248-7.632 9-7.632 4.824 0 7.992 3.168 8.208 7.632h-17.208zm63.894-14.976c-1.296-.432-3.24-.648-4.968-.648-4.752 0-8.856 1.728-11.736 4.896-1.368-3.024-4.536-4.896-8.712-4.896-1.656 0-3.528.288-5.184.864-.792.288-1.08.72-1.08 1.584v5.904c0 .936.648 1.152 1.584 1.152.432-.072 1.152-.216 1.584-.216 2.016 0 2.808.864 2.808 2.808v22.608c0 .864.504 1.368 1.368 1.368h8.064c.864 0 1.368-.504 1.368-1.368v-15.48c0-5.904 4.032-9.36 9.504-9.36 1.368 0 2.88.144 3.96.36.864.144 1.44-.216 1.584-1.08l.936-6.912c.072-.792-.216-1.368-1.08-1.584zm25.334 53.352c11.736 0 19.008-6.912 19.008-16.992v-34.488c0-.864-.576-1.368-1.368-1.368H510.9c-.864 0-1.368.504-1.368 1.368v17.568c0 4.68-3.168 7.704-7.92 7.704-4.608 0-7.56-3.168-7.56-8.064v-17.208c0-.864-.504-1.368-1.368-1.368h-8.064c-.864 0-1.368.504-1.368 1.368v18.648c0 9.504 6.192 15.912 15.552 15.912 4.176 0 7.92-1.08 10.728-3.024v3.168c0 5.328-3.6 7.992-8.136 7.992-4.392 0-7.056-2.016-8.064-4.68-.36-.72-.72-1.08-1.512-1.08h-8.208c-.864 0-1.368.504-1.296 1.368.936 7.92 8.568 13.176 19.08 13.176zm67.147-54c-3.6 0-6.984.936-9.936 3.024v-18.864c0-.864-.504-1.368-1.368-1.368h-8.136c-.864 0-1.368.504-1.368 1.368v50.544c0 .864.504 1.368 1.368 1.368h7.92c.864 0 1.44-.504 1.44-1.368v-.648c2.88 2.16 6.336 3.168 10.08 3.168 11.232 0 19.008-7.632 19.008-18.576 0-11.016-7.776-18.648-19.008-18.648zm-.864 28.8c-5.4 0-9.144-4.176-9.144-10.152 0-6.048 3.744-10.224 9.144-10.224s9.288 4.176 9.288 10.224c0 5.976-3.888 10.152-9.288 10.152zm32.636-34.056c3.6 0 6.408-2.592 6.408-5.976s-2.808-5.904-6.408-5.904c-3.6 0-6.408 2.52-6.408 5.904s2.808 5.976 6.408 5.976zm5.616 42.48c1.728 0 3.528-.288 5.472-.864.864-.216 1.224-.72 1.152-1.512l-.72-5.976c-.072-.936-.648-1.224-1.512-1.152-.936.216-1.512.216-2.16.216-1.584 0-2.448-.936-2.448-2.736v-22.68c0-.864-.504-1.368-1.368-1.368h-8.064c-.864 0-1.368.504-1.368 1.368v26.136c0 5.256 4.32 8.568 11.016 8.568zm31.617 0c2.232 0 5.544-.432 8.424-1.152.864-.288 1.152-.792 1.08-1.584l-.936-6.192c-.144-.792-.72-1.224-1.584-1.08-1.728.432-3.816.648-5.4.648-3.6 0-5.976-2.232-5.976-5.904v-12.096h11.304c.792 0 1.368-.504 1.368-1.368v-5.976c0-.864-.576-1.368-1.368-1.368h-11.304v-9.144c0-.864-.504-1.368-1.368-1.368h-8.064c-.864 0-1.368.504-1.368 1.368v9.144h-6.624c-.864 0-1.368.504-1.368 1.368v5.976c0 .864.504 1.368 1.368 1.368h6.624v12.456c0 9.216 5.832 14.904 15.192 14.904zm33.941 0c8.136 0 14.616-3.672 17.064-9.648.36-.864-.144-1.44-1.152-1.44h-8.064c-.72 0-1.152.288-1.728.72-1.224 1.368-3.384 2.16-5.904 2.16-4.752 0-8.352-2.664-9.504-6.984h25.848c.792 0 1.368-.36 1.512-1.224 0-.792.072-1.656.072-2.448 0-10.944-7.128-18.36-18.792-18.36-11.448 0-19.152 7.416-19.152 18.648 0 11.16 7.992 18.576 19.8 18.576zm-9.36-21.6c.648-4.536 4.248-7.632 9-7.632 4.824 0 7.992 3.168 8.208 7.632h-17.208zm37.428 21.6c3.312 0 5.976-2.448 5.976-5.616 0-3.096-2.664-5.616-5.976-5.616s-6.048 2.52-6.048 5.616c0 3.168 2.736 5.616 6.048 5.616zm41.376-.221c4.822-.236 8.69-3.218 11.071-7.337 2.608-4.554 3.246-9.984 3.854-15.184a3117.42 3117.42 0 0 1-3.043-.248c-.259 9.488 7.135 18.389 16.329 19.793.041-1.041.081-2.082.148-3.128-6.012-.4-9.314 5.405-11.147 10.423-2.541 6.943-4.509 14.165-6.736 21.187.988.088 1.977.175 2.985.232a110.881 110.881 0 0 0-2.388-14.31c-1.07-4.624-2.296-9.469-4.389-13.728-.722-1.451-2.982-.707-2.578.89 1.173 4.604 2.857 9.082 3.926 13.706a111.656 111.656 0 0 1 2.382 14.031c.172 1.643 2.539 1.631 2.986.232 2.009-6.42 4.013-12.868 6.048-19.294 1.292-4.047 3.619-10.613 8.757-10.268 1.966.123 2.071-2.83.148-3.128-7.515-1.114-13.612-8.647-13.428-16.39.067-2.023-2.803-2.221-3.043-.248-.942 7.973-2.807 18.973-12.086 20.49-1.2.177-1.077 2.331.204 2.279zm-13.145 23.875c.828 3.642.013 7.293-1.911 10.32-1.677 2.672-4.789 5.566-8.147 5.628-1.933.039-2.5 2.608-.591 3.441 6.721 2.977 8.224 12.021 9.213 18.482.272 1.848 2.93 1.921 3.434.286 2.275-7.315 6.82-13.505 12.943-17.791 1.169-.813.4-2.593-.678-3.083-5.713-2.557-9.801-8.642-10.033-14.97-.043-2.284-3.483-2.597-3.414-.318.204 8.038 5.153 15.466 12.417 18.701l-.677-3.083c-6.588 4.628-11.474 11.47-13.928 19.323 1.152.085 2.309.197 3.434.287-1.221-8.009-3.53-17.653-11.664-21.167-.049 1.127-.092 2.282-.141 3.409 4.208-1.345 7.741-3.425 10.115-7.35 2.213-3.67 2.957-8.258 1.775-12.53-.39-1.406-2.465-1.032-2.147.415zm-552.813-24.533c.592 2.603.009 5.212-1.365 7.376-1.2 1.91-3.424 3.978-5.823 4.023-1.382.027-1.788 1.864-.423 2.459 4.804 2.127 5.878 8.592 6.585 13.21.194 1.321 2.094 1.373 2.454.204 1.626-5.228 4.874-9.652 9.251-12.716.836-.581.286-1.853-.485-2.204-4.083-1.827-7.005-6.176-7.17-10.699-.032-1.632-2.49-1.856-2.44-.228.145 5.746 3.683 11.055 8.875 13.367l-.485-2.204c-4.708 3.308-8.201 8.199-9.954 13.812.823.06 1.65.14 2.454.204-.873-5.724-2.523-12.617-8.337-15.128-.035.805-.066 1.63-.1 2.436 3.007-.961 5.533-2.448 7.229-5.253 1.582-2.624 2.114-5.903 1.269-8.956-.279-1.005-1.762-.738-1.535.297zM163.498 61.261c1.261 8.166-3.054 16.097-10.301 19.115-1.469.613-.413 2.943 1.049 2.656 1.426-.255 2.606 1.861 3.225 2.902a48.521 48.521 0 0 1 3.205 6.171c1.837 4.19 3.055 8.661 3.704 13.168.213 1.55 2.81 1.352 2.66-.212-.651-7.865 2.264-15.524 7.932-20.567.835-.746.149-2.142-.881-2.255-2.323-.212-4.53-1.376-6.217-3.123-1.778-1.841-2.568-4-3.161-6.436-.299-1.275-2.143-1.087-2.154.19-.071 2.98 1.631 6.02 3.691 8.099 2.151 2.173 4.91 3.583 7.877 3.88-.299-.743-.577-1.49-.881-2.255-6.143 5.36-9.545 13.825-8.871 22.31.896-.065 1.786-.152 2.661-.213a54.383 54.383 0 0 0-4.648-15.408c-1.081-2.255-2.263-4.556-3.789-6.548-1.259-1.635-3.008-2.835-5.05-2.462.359.89.691 1.765 1.049 2.656 8.014-3.332 12.833-13.23 10.736-22.063-.3-1.275-2.035-.834-1.836.395zm364.805 59.517c.506-12.312 4.726-24.116 11.854-33.691 3.57-4.766 7.67-9.11 12.468-12.607a51.169 51.169 0 0 1 7.488-4.641c2.316-1.186 5.204-2.572 7.946-1.991 3.212.643 4.421 4.314 5.291 7.137.871 2.822 1.586 5.733 1.913 8.701.634 5.565.203 11.651-3.193 16.088-1.175 1.538-2.984 3.528-4.722 1.597-1.402-1.552-1.961-4.082-1.827-6.092.319-6.01 4.28-11.444 8.109-15.48 5.209-5.488 11.474-9.989 17.69-14.195a177.317 177.317 0 0 1 22.015-12.676c3.198-1.563.178-6.489-2.991-4.98-8.148 3.925-15.95 8.416-23.368 13.603-6.445 4.503-13.023 9.323-18.285 15.248-4.449 5.001-8.823 11.957-8.55 19.218.195 5.448 3.941 12.858 10.206 11.601 6.697-1.327 9.63-10.435 10.187-16.555.617-6.84-.852-14.486-3.614-20.844-7.451-16.994-27.314-.664-34.604 7.121-10.765 11.491-17.218 27.232-17.687 43.53-.015 2.261 3.6 2.278 3.674-.092zM178.836 224.76c-8.232-2.885-17.273-3.158-25.748-.905-4.224 1.137-8.335 2.737-12.106 5.026a40.61 40.61 0 0 0-5.349 3.785c-1.49 1.236-3.288 2.802-3.751 4.785-.567 2.313 1.469 4.081 3.053 5.401 1.583 1.32 3.272 2.56 5.119 3.555 3.455 1.881 7.58 3.186 11.535 2.08 1.371-.382 3.233-1.07 2.501-2.736-.587-1.342-2.074-2.377-3.434-2.814-4.04-1.36-8.824-.138-12.649 1.362-5.203 2.042-10.084 5.047-14.756 8.097a140.738 140.738 0 0 0-15.089 11.382c-2.01 1.726-4.312-1.58-2.347-3.301 5.082-4.413 10.429-8.447 16.115-12.043 4.937-3.125 10.123-6.255 15.629-8.218 4.65-1.661 10.558-2.761 15.237-.678 3.514 1.556 7.222 5.997 4.468 9.852-2.931 4.124-9.807 3.698-13.993 2.468-4.677-1.379-9.24-4.361-12.561-7.869-8.854-9.424 7.971-18.414 15.321-21.243 10.85-4.18 23.161-4.368 33.996-.415 1.488.581.387 3-1.191 2.429z" fill="#fff"/><path d="M685.19 281.201c-11.157-1.738-22.105-3.619-33.466-5.148a978.942 978.942 0 0 0-34.26-3.954 1152.599 1152.599 0 0 0-71.139-4.707c-48.133-1.73-97.327-.842-146.198 2.747a1277.511 1277.511 0 0 0-40.299 3.578c-6.853.73-13.704 1.493-20.55 2.321-7.064.84-14.213 1.489-21.112 2.615-6.827 1.122-5.173 6.367 2.038 5.55 11.897-1.353 23.54-3.249 35.439-4.57 11.897-1.354 23.806-2.512 35.797-3.543a1358.234 1358.234 0 0 1 72.004-4.194 1326.305 1326.305 0 0 1 142.093 3.295c12.851.983 25.497 2.175 38.152 3.497 13.168 1.39 26.406 2.743 39.102 4.686 3.008.446 5.481-1.699 2.399-2.173zm-40.502-213.13c.428-4.873.45-10.078 1.571-14.859 1.098-4.735 1.277-9.912 1.739-14.795.909-9.913 1.84-19.872 2.75-29.785-1.452-.163-2.87-.336-4.321-.499 2.71 16.554 8.311 32.519 16.461 47.313l3.406-3.003a364.215 364.215 0 0 1-31.611-25.579c-.239 1.373-.511 2.757-.75 4.13 11.795-2.654 23.731-4.664 35.8-5.95-.653-1.403-1.34-2.796-1.994-4.2l-14.372 19.009c-4.702 6.27-9.987 12.338-14.002 19.123-1.299 2.16 1.972 4.244 3.578 2.563 2.695-2.822 4.928-6.035 7.296-9.175 2.368-3.14 4.714-6.236 7.082-9.377 4.714-6.236 9.428-12.471 14.13-18.742 1.151-1.503.199-4.457-1.994-4.2a329.448 329.448 0 0 0-37.056 6.263c-1.779.398-2.069 2.934-.75 4.13a364.842 364.842 0 0 0 31.701 25.515c2.171 1.545 4.798-.49 3.406-3.003-7.772-13.994-13.13-29.232-15.906-44.886-.193-1.125-.862-2.026-2.046-2.157-.993-.113-2.2.566-2.275 1.659-.786 9.952-1.528 19.928-2.314 29.88-.192 2.391-.318 4.762-.477 7.143-.159 2.38-.518 4.823-.409 7.235.179 5.258-.434 10.455-.858 15.67-.159 1.501 2.101 2.102 2.215.576zm267.706 71.912a443.144 443.144 0 0 0 6.639-5.904c2.179-1.973 4.54-3.853 6.564-5.965 1.35-1.401-.62-3.262-2.094-2.107-2.296 1.823-4.385 3.992-6.54 5.978-2.169 2.01-4.339 4.02-6.479 6.062-1.277 1.224.59 3.071 1.91 1.936zm5.096 12.229c3.181-.407 6.366-.795 9.566-1.009a97.922 97.922 0 0 1 4.837-.191c1.47-.022 3.243.288 4.628-.248.948-.368.613-1.637-.143-1.976-.776-.334-1.645-.257-2.468-.248-.745.013-1.47.022-2.211.054-1.64.056-3.291.154-4.931.308-3.245.283-6.475.739-9.644 1.497-1.186.259-.824 1.955.366 1.813z" fill="#fff"/></svg>