<svg width="944" height="377" viewBox="0 0 944 377" fill="none" xmlns="http://www.w3.org/2000/svg">
<path d="M12.9212 183H22.1372C22.8572 183 23.4332 182.712 23.7212 181.992L27.6092 172.704H50.2892L54.2492 181.992C54.5372 182.712 55.0412 183 55.8332 183H64.9772C65.9132 183 66.4172 182.352 65.9852 181.416L44.7452 133.608C44.4572 132.888 43.9532 132.6 43.1612 132.6H34.7372C34.0172 132.6 33.5132 132.96 33.2252 133.608L11.8412 181.416C11.4812 182.352 11.9132 183 12.9212 183ZM31.4252 163.416L38.9132 145.488L46.5452 163.416H31.4252ZM134.962 181.776L134.314 175.8C134.242 174.864 133.666 174.576 132.73 174.648C131.866 174.864 131.29 174.864 130.57 174.864C129.058 174.864 128.194 173.928 128.194 172.128V131.088C128.194 130.224 127.69 129.72 126.826 129.72H118.69C117.826 129.72 117.322 130.224 117.322 131.088V150.024C114.37 147.864 110.986 146.928 107.314 146.928C96.1543 146.928 88.3783 154.56 88.3783 165.576C88.3783 176.52 96.1543 184.152 107.314 184.152C112.138 184.152 116.098 182.64 119.266 179.616C120.778 182.496 124.09 184.152 128.338 184.152C130.138 184.152 131.938 183.864 133.882 183.288C134.746 183.072 135.106 182.568 134.962 181.776ZM108.25 175.728C102.778 175.728 98.9623 171.552 98.9623 165.576C98.9623 159.528 102.778 155.352 108.25 155.352C113.65 155.352 117.322 159.528 117.322 165.576C117.322 171.552 113.65 175.728 108.25 175.728ZM159.438 184.152C167.574 184.152 174.054 180.48 176.502 174.504C176.862 173.64 176.358 173.064 175.35 173.064H167.286C166.566 173.064 166.134 173.352 165.558 173.784C164.334 175.152 162.174 175.944 159.654 175.944C154.902 175.944 151.302 173.28 150.15 168.96H175.998C176.79 168.96 177.366 168.6 177.51 167.736C177.51 166.944 177.582 166.08 177.582 165.288C177.582 154.344 170.454 146.928 158.79 146.928C147.342 146.928 139.638 154.344 139.638 165.576C139.638 176.736 147.63 184.152 159.438 184.152ZM150.078 162.552C150.726 158.016 154.326 154.92 159.078 154.92C163.902 154.92 167.07 158.088 167.286 162.552H150.078ZM196.044 184.152C197.772 184.152 199.572 183.864 201.516 183.288C202.38 183.072 202.74 182.568 202.668 181.776L201.948 175.8C201.876 174.864 201.3 174.576 200.436 174.648C199.5 174.864 198.924 174.864 198.276 174.864C196.692 174.864 195.828 173.928 195.828 172.128V131.088C195.828 130.224 195.324 129.72 194.46 129.72H186.396C185.532 129.72 185.028 130.224 185.028 131.088V175.584C185.028 180.84 189.348 184.152 196.044 184.152ZM214.405 141.672C218.005 141.672 220.813 139.08 220.813 135.696C220.813 132.312 218.005 129.792 214.405 129.792C210.805 129.792 207.997 132.312 207.997 135.696C207.997 139.08 210.805 141.672 214.405 141.672ZM220.021 184.152C221.749 184.152 223.549 183.864 225.493 183.288C226.357 183.072 226.717 182.568 226.645 181.776L225.925 175.8C225.853 174.864 225.277 174.576 224.413 174.648C223.477 174.864 222.901 174.864 222.253 174.864C220.669 174.864 219.805 173.928 219.805 172.128V149.448C219.805 148.584 219.301 148.08 218.437 148.08H210.373C209.509 148.08 209.005 148.584 209.005 149.448V175.584C209.005 180.84 213.325 184.152 220.021 184.152ZM269.286 148.08H261.366C260.502 148.08 259.998 148.584 259.998 149.448V150.24C257.118 148.008 253.59 146.928 249.774 146.928C238.686 146.928 230.838 154.632 230.838 165.432C230.838 176.304 238.686 184.008 249.774 184.008C253.374 184.008 256.902 183.072 259.782 180.912V183.936C259.782 188.904 256.47 192.144 251.286 192.144C247.11 192.144 243.942 190.344 243.006 187.464C242.646 186.744 242.214 186.384 241.422 186.384H233.358C232.422 186.384 231.846 186.888 232.062 187.752C233.502 195.744 240.99 200.928 251.358 200.928C262.878 200.928 270.654 194.088 270.654 183.864V149.448C270.654 148.584 270.078 148.08 269.286 148.08ZM250.71 175.512C245.31 175.512 241.422 171.408 241.422 165.432C241.422 159.528 245.31 155.352 250.71 155.352C256.038 155.352 259.782 159.528 259.782 165.432C259.782 171.408 256.038 175.512 250.71 175.512ZM317.037 184.152C318.837 184.152 320.565 183.864 322.581 183.288C323.445 183.072 323.805 182.568 323.661 181.776L323.013 175.8C322.941 174.864 322.365 174.576 321.429 174.648C320.565 174.864 319.989 174.864 319.269 174.864C317.757 174.864 316.893 173.928 316.893 172.128V162.84C316.893 153.264 310.629 146.928 301.269 146.928C297.021 146.928 293.349 148.08 290.469 150.024V131.088C290.469 130.224 289.965 129.72 289.101 129.72H281.037C280.173 129.72 279.669 130.224 279.669 131.088V181.632C279.669 182.496 280.173 183 281.037 183H289.101C289.965 183 290.469 182.496 290.469 181.632V163.92C290.469 159.168 293.637 156.144 298.461 156.144C303.069 156.144 306.021 159.384 306.021 164.28V175.584C306.021 180.84 310.341 184.152 317.037 184.152ZM348.247 184.152C350.479 184.152 353.791 183.72 356.671 183C357.535 182.712 357.823 182.208 357.751 181.416L356.815 175.224C356.671 174.432 356.095 174 355.231 174.144C353.503 174.576 351.415 174.792 349.831 174.792C346.231 174.792 343.855 172.56 343.855 168.888V156.792H355.159C355.951 156.792 356.527 156.288 356.527 155.424V149.448C356.527 148.584 355.951 148.08 355.159 148.08H343.855V138.936C343.855 138.072 343.351 137.568 342.487 137.568H334.423C333.559 137.568 333.055 138.072 333.055 138.936V148.08H326.431C325.567 148.08 325.063 148.584 325.063 149.448V155.424C325.063 156.288 325.567 156.792 326.431 156.792H333.055V169.248C333.055 178.464 338.887 184.152 348.247 184.152ZM370.592 183H378.728C379.52 183 380.096 182.496 380.096 181.632V156.792H392.12C392.912 156.792 393.488 156.288 393.488 155.424V149.448C393.488 148.584 392.912 148.08 392.12 148.08H380.096V143.904C380.096 140.088 382.904 137.712 387.08 137.712C388.664 137.712 391.04 138 392.624 138.432C393.488 138.648 394.064 138.144 394.208 137.28L395.144 131.304C395.288 130.44 394.928 130.008 394.136 129.792C391.4 128.928 387.8 128.568 385.352 128.568C375.416 128.568 369.224 134.472 369.224 143.904V148.08H361.304C360.44 148.08 359.936 148.584 359.936 149.448V155.424C359.936 156.288 360.44 156.792 361.304 156.792H369.224V181.632C369.224 182.496 369.8 183 370.592 183ZM441.419 181.776L440.771 175.8C440.627 174.864 440.051 174.576 439.187 174.648C438.251 174.864 437.675 174.864 436.955 174.864C435.443 174.864 434.579 173.928 434.579 172.056V149.448C434.579 148.584 434.003 148.08 433.211 148.08H425.075C424.283 148.08 423.707 148.584 423.707 149.448V167.16C423.707 171.912 420.611 174.936 415.787 174.936C411.179 174.936 408.227 171.696 408.227 166.8V149.448C408.227 148.584 407.723 148.08 406.859 148.08H398.795C397.931 148.08 397.427 148.584 397.427 149.448V168.24C397.427 177.816 403.619 184.152 412.979 184.152C418.091 184.152 422.339 182.64 425.219 179.976C426.875 182.568 430.259 184.152 434.867 184.152C436.595 184.152 438.323 183.864 440.339 183.288C441.131 183.072 441.491 182.568 441.419 181.776ZM458.802 184.152C460.53 184.152 462.33 183.864 464.274 183.288C465.138 183.072 465.498 182.568 465.426 181.776L464.706 175.8C464.634 174.864 464.058 174.576 463.194 174.648C462.258 174.864 461.682 174.864 461.034 174.864C459.45 174.864 458.586 173.928 458.586 172.128V131.088C458.586 130.224 458.082 129.72 457.218 129.72H449.154C448.29 129.72 447.786 130.224 447.786 131.088V175.584C447.786 180.84 452.106 184.152 458.802 184.152ZM508.258 184.152C516.394 184.152 522.874 180.48 525.322 174.504C525.682 173.64 525.178 173.064 524.17 173.064H516.106C515.386 173.064 514.954 173.352 514.378 173.784C513.154 175.152 510.994 175.944 508.474 175.944C503.722 175.944 500.122 173.28 498.97 168.96H524.818C525.61 168.96 526.186 168.6 526.33 167.736C526.33 166.944 526.402 166.08 526.402 165.288C526.402 154.344 519.274 146.928 507.61 146.928C496.162 146.928 488.458 154.344 488.458 165.576C488.458 176.736 496.45 184.152 508.258 184.152ZM498.898 162.552C499.546 158.016 503.146 154.92 507.898 154.92C512.722 154.92 515.89 158.088 516.106 162.552H498.898ZM530.841 183H539.769C540.561 183 540.993 182.784 541.497 182.136L549.201 172.128L556.833 182.136C557.265 182.784 557.697 183 558.489 183H567.417C568.497 183 568.929 182.28 568.281 181.416L556.257 165.576L568.281 149.736C568.929 148.8 568.569 148.08 567.417 148.08H557.985C557.265 148.08 556.761 148.296 556.329 148.944L549.129 158.304L542.073 148.944C541.641 148.296 541.137 148.08 540.417 148.08H530.841C529.761 148.08 529.401 148.8 530.049 149.736L542.001 165.504L529.905 181.416C529.257 182.28 529.689 183 530.841 183ZM598.256 146.928C593.864 146.928 589.616 148.44 586.448 151.536C585.008 148.728 581.84 146.928 577.736 146.928C576.08 146.928 574.208 147.144 572.552 147.792C571.76 148.08 571.472 148.512 571.472 149.376V155.28C571.472 156.216 572.12 156.432 573.056 156.432C573.488 156.36 574.208 156.216 574.64 156.216C576.656 156.216 577.448 157.08 577.448 159.024V198.408C577.448 199.2 577.952 199.704 578.816 199.704H586.88C587.744 199.704 588.248 199.2 588.248 198.408V181.056C591.2 183.216 594.656 184.152 598.256 184.152C609.488 184.152 617.264 176.52 617.264 165.576C617.264 154.56 609.488 146.928 598.256 146.928ZM597.392 175.728C591.992 175.728 588.248 171.552 588.248 165.576C588.248 159.528 591.992 155.352 597.392 155.352C602.792 155.352 606.68 159.528 606.68 165.576C606.68 171.552 602.792 175.728 597.392 175.728ZM642.766 184.152C650.902 184.152 657.382 180.48 659.83 174.504C660.19 173.64 659.686 173.064 658.678 173.064H650.614C649.894 173.064 649.462 173.352 648.886 173.784C647.662 175.152 645.502 175.944 642.982 175.944C638.23 175.944 634.63 173.28 633.478 168.96H659.326C660.118 168.96 660.694 168.6 660.838 167.736C660.838 166.944 660.91 166.08 660.91 165.288C660.91 154.344 653.782 146.928 642.118 146.928C630.67 146.928 622.966 154.344 622.966 165.576C622.966 176.736 630.958 184.152 642.766 184.152ZM633.406 162.552C634.054 158.016 637.654 154.92 642.406 154.92C647.23 154.92 650.398 158.088 650.614 162.552H633.406ZM697.3 147.576C696.004 147.144 694.06 146.928 692.332 146.928C687.58 146.928 683.476 148.656 680.596 151.824C679.228 148.8 676.06 146.928 671.884 146.928C670.228 146.928 668.356 147.216 666.7 147.792C665.908 148.08 665.62 148.512 665.62 149.376V155.28C665.62 156.216 666.268 156.432 667.204 156.432C667.636 156.36 668.356 156.216 668.788 156.216C670.804 156.216 671.596 157.08 671.596 159.024V181.632C671.596 182.496 672.1 183 672.964 183H681.028C681.892 183 682.396 182.496 682.396 181.632V166.152C682.396 160.248 686.428 156.792 691.9 156.792C693.268 156.792 694.78 156.936 695.86 157.152C696.724 157.296 697.3 156.936 697.444 156.072L698.38 149.16C698.452 148.368 698.164 147.792 697.3 147.576ZM710.178 141.672C713.778 141.672 716.586 139.08 716.586 135.696C716.586 132.312 713.778 129.792 710.178 129.792C706.578 129.792 703.77 132.312 703.77 135.696C703.77 139.08 706.578 141.672 710.178 141.672ZM715.794 184.152C717.522 184.152 719.322 183.864 721.266 183.288C722.13 183.072 722.49 182.568 722.418 181.776L721.698 175.8C721.626 174.864 721.05 174.576 720.186 174.648C719.25 174.864 718.674 174.864 718.026 174.864C716.442 174.864 715.578 173.928 715.578 172.128V149.448C715.578 148.584 715.074 148.08 714.21 148.08H706.146C705.282 148.08 704.778 148.584 704.778 149.448V175.584C704.778 180.84 709.098 184.152 715.794 184.152ZM746.196 184.152C754.332 184.152 760.812 180.48 763.26 174.504C763.62 173.64 763.116 173.064 762.108 173.064H754.044C753.324 173.064 752.892 173.352 752.316 173.784C751.092 175.152 748.932 175.944 746.412 175.944C741.66 175.944 738.06 173.28 736.908 168.96H762.756C763.548 168.96 764.124 168.6 764.268 167.736C764.268 166.944 764.34 166.08 764.34 165.288C764.34 154.344 757.212 146.928 745.548 146.928C734.1 146.928 726.396 154.344 726.396 165.576C726.396 176.736 734.388 184.152 746.196 184.152ZM736.836 162.552C737.484 158.016 741.084 154.92 745.836 154.92C750.66 154.92 753.828 158.088 754.044 162.552H736.836ZM819.018 181.776L818.37 175.8C818.298 174.864 817.722 174.576 816.786 174.648C815.922 174.864 815.346 174.864 814.626 174.864C813.114 174.864 812.25 173.928 812.25 172.128V162.84C812.25 153.264 805.986 146.928 796.554 146.928C791.298 146.928 786.762 148.584 783.954 151.392C782.37 148.656 779.346 146.928 775.314 146.928C773.658 146.928 771.786 147.144 770.13 147.792C769.338 148.08 769.05 148.512 769.05 149.376V155.28C769.05 156.216 769.698 156.432 770.634 156.432C771.066 156.36 771.786 156.216 772.218 156.216C774.234 156.216 775.026 157.08 775.026 159.024V181.632C775.026 182.496 775.53 183 776.394 183H784.458C785.322 183 785.826 182.496 785.826 181.632V163.92C785.826 159.168 789.066 156.144 793.818 156.144C798.426 156.144 801.378 159.384 801.378 164.28V175.584C801.378 180.84 805.698 184.152 812.394 184.152C814.194 184.152 815.922 183.864 817.938 183.288C818.802 183.072 819.162 182.568 819.018 181.776ZM842.663 184.152C852.239 184.152 859.295 179.04 860.807 171.12C860.951 170.256 860.447 169.68 859.583 169.68H851.879C851.087 169.68 850.727 170.112 850.367 170.832C849.359 173.712 846.407 175.44 842.663 175.44C836.975 175.44 833.231 171.552 833.231 165.576C833.231 159.6 836.975 155.64 842.663 155.64C846.407 155.64 849.359 157.44 850.367 160.248C850.727 161.04 851.087 161.4 851.879 161.4H859.583C860.447 161.4 860.951 160.896 860.807 159.96C859.295 152.04 852.239 146.928 842.663 146.928C830.783 146.928 822.863 154.344 822.863 165.576C822.863 176.736 830.783 184.152 842.663 184.152ZM886.328 184.152C894.464 184.152 900.944 180.48 903.392 174.504C903.752 173.64 903.248 173.064 902.24 173.064H894.176C893.456 173.064 893.024 173.352 892.448 173.784C891.224 175.152 889.064 175.944 886.544 175.944C881.792 175.944 878.192 173.28 877.04 168.96H902.888C903.68 168.96 904.256 168.6 904.4 167.736C904.4 166.944 904.472 166.08 904.472 165.288C904.472 154.344 897.344 146.928 885.68 146.928C874.232 146.928 866.528 154.344 866.528 165.576C866.528 176.736 874.52 184.152 886.328 184.152ZM876.968 162.552C877.616 158.016 881.216 154.92 885.968 154.92C890.792 154.92 893.96 158.088 894.176 162.552H876.968ZM220.065 217.672C223.665 217.672 226.473 215.08 226.473 211.696C226.473 208.312 223.665 205.792 220.065 205.792C216.465 205.792 213.657 208.312 213.657 211.696C213.657 215.08 216.465 217.672 220.065 217.672ZM225.681 260.152C227.409 260.152 229.209 259.864 231.153 259.288C232.017 259.072 232.377 258.568 232.305 257.776L231.585 251.8C231.513 250.864 230.937 250.576 230.073 250.648C229.137 250.864 228.561 250.864 227.913 250.864C226.329 250.864 225.465 249.928 225.465 248.128V225.448C225.465 224.584 224.961 224.08 224.097 224.08H216.033C215.169 224.08 214.665 224.584 214.665 225.448V251.584C214.665 256.84 218.985 260.152 225.681 260.152ZM285.17 257.776L284.522 251.8C284.45 250.864 283.874 250.576 282.938 250.648C282.074 250.864 281.498 250.864 280.778 250.864C279.266 250.864 278.402 249.928 278.402 248.128V238.84C278.402 229.264 272.138 222.928 262.706 222.928C257.45 222.928 252.914 224.584 250.106 227.392C248.522 224.656 245.498 222.928 241.466 222.928C239.81 222.928 237.938 223.144 236.282 223.792C235.49 224.08 235.202 224.512 235.202 225.376V231.28C235.202 232.216 235.85 232.432 236.786 232.432C237.218 232.36 237.938 232.216 238.37 232.216C240.386 232.216 241.178 233.08 241.178 235.024V257.632C241.178 258.496 241.682 259 242.546 259H250.61C251.474 259 251.978 258.496 251.978 257.632V239.92C251.978 235.168 255.218 232.144 259.97 232.144C264.578 232.144 267.53 235.384 267.53 240.28V251.584C267.53 256.84 271.85 260.152 278.546 260.152C280.346 260.152 282.074 259.864 284.09 259.288C284.954 259.072 285.314 258.568 285.17 257.776ZM328.012 260.152C336.148 260.152 342.628 256.48 345.076 250.504C345.436 249.64 344.932 249.064 343.924 249.064H335.86C335.14 249.064 334.708 249.352 334.132 249.784C332.908 251.152 330.748 251.944 328.228 251.944C323.476 251.944 319.876 249.28 318.724 244.96H344.572C345.364 244.96 345.94 244.6 346.084 243.736C346.084 242.944 346.156 242.08 346.156 241.288C346.156 230.344 339.028 222.928 327.364 222.928C315.916 222.928 308.212 230.344 308.212 241.576C308.212 252.736 316.204 260.152 328.012 260.152ZM318.652 238.552C319.3 234.016 322.9 230.92 327.652 230.92C332.476 230.92 335.644 234.088 335.86 238.552H318.652ZM375.922 260.152C387.082 260.152 395.002 252.304 395.002 241.072C395.002 236.104 393.994 230.848 392.122 225.304C391.834 224.512 391.258 224.08 390.466 224.08H382.546C381.538 224.08 381.106 224.728 381.394 225.664C383.05 230.92 384.202 236.248 384.202 240.856C384.202 246.832 380.818 250.936 375.922 250.936C371.17 250.936 367.642 248.488 367.642 242.8V232.504C367.642 226.528 363.826 223 357.418 222.928C355.474 222.928 353.602 223.216 351.946 223.792C351.154 224.08 350.866 224.512 350.866 225.376V231.28C350.866 232.216 351.514 232.432 352.45 232.432C352.882 232.36 353.602 232.216 354.034 232.216C356.05 232.216 356.842 233.08 356.842 235.024V243.736C356.842 253.96 365.698 260.152 375.922 260.152ZM421.528 260.152C429.664 260.152 436.144 256.48 438.592 250.504C438.952 249.64 438.448 249.064 437.44 249.064H429.376C428.656 249.064 428.224 249.352 427.648 249.784C426.424 251.152 424.264 251.944 421.744 251.944C416.992 251.944 413.392 249.28 412.24 244.96H438.088C438.88 244.96 439.456 244.6 439.6 243.736C439.6 242.944 439.672 242.08 439.672 241.288C439.672 230.344 432.544 222.928 420.88 222.928C409.432 222.928 401.728 230.344 401.728 241.576C401.728 252.736 409.72 260.152 421.528 260.152ZM412.168 238.552C412.816 234.016 416.416 230.92 421.168 230.92C425.992 230.92 429.16 234.088 429.376 238.552H412.168ZM476.062 223.576C474.766 223.144 472.822 222.928 471.094 222.928C466.342 222.928 462.238 224.656 459.358 227.824C457.99 224.8 454.822 222.928 450.646 222.928C448.99 222.928 447.118 223.216 445.462 223.792C444.67 224.08 444.382 224.512 444.382 225.376V231.28C444.382 232.216 445.03 232.432 445.966 232.432C446.398 232.36 447.118 232.216 447.55 232.216C449.566 232.216 450.358 233.08 450.358 235.024V257.632C450.358 258.496 450.862 259 451.726 259H459.79C460.654 259 461.158 258.496 461.158 257.632V242.152C461.158 236.248 465.19 232.792 470.662 232.792C472.03 232.792 473.542 232.936 474.622 233.152C475.486 233.296 476.062 232.936 476.206 232.072L477.142 225.16C477.214 224.368 476.926 223.792 476.062 223.576ZM501.396 276.928C513.132 276.928 520.404 270.016 520.404 259.936V225.448C520.404 224.584 519.828 224.08 519.036 224.08H510.9C510.036 224.08 509.532 224.584 509.532 225.448V243.016C509.532 247.696 506.364 250.72 501.612 250.72C497.004 250.72 494.052 247.552 494.052 242.656V225.448C494.052 224.584 493.548 224.08 492.684 224.08H484.62C483.756 224.08 483.252 224.584 483.252 225.448V244.096C483.252 253.6 489.444 260.008 498.804 260.008C502.98 260.008 506.724 258.928 509.532 256.984V260.152C509.532 265.48 505.932 268.144 501.396 268.144C497.004 268.144 494.34 266.128 493.332 263.464C492.972 262.744 492.612 262.384 491.82 262.384H483.612C482.748 262.384 482.244 262.888 482.316 263.752C483.252 271.672 490.884 276.928 501.396 276.928ZM568.543 222.928C564.943 222.928 561.559 223.864 558.607 225.952V207.088C558.607 206.224 558.103 205.72 557.239 205.72H549.103C548.239 205.72 547.735 206.224 547.735 207.088V257.632C547.735 258.496 548.239 259 549.103 259H557.023C557.887 259 558.463 258.496 558.463 257.632V256.984C561.343 259.144 564.799 260.152 568.543 260.152C579.775 260.152 587.551 252.52 587.551 241.576C587.551 230.56 579.775 222.928 568.543 222.928ZM567.679 251.728C562.279 251.728 558.535 247.552 558.535 241.576C558.535 235.528 562.279 231.352 567.679 231.352C573.079 231.352 576.967 235.528 576.967 241.576C576.967 247.552 573.079 251.728 567.679 251.728ZM600.315 217.672C603.915 217.672 606.723 215.08 606.723 211.696C606.723 208.312 603.915 205.792 600.315 205.792C596.715 205.792 593.907 208.312 593.907 211.696C593.907 215.08 596.715 217.672 600.315 217.672ZM605.931 260.152C607.659 260.152 609.459 259.864 611.403 259.288C612.267 259.072 612.627 258.568 612.555 257.776L611.835 251.8C611.763 250.864 611.187 250.576 610.323 250.648C609.387 250.864 608.811 250.864 608.163 250.864C606.579 250.864 605.715 249.928 605.715 248.128V225.448C605.715 224.584 605.211 224.08 604.347 224.08H596.283C595.419 224.08 594.915 224.584 594.915 225.448V251.584C594.915 256.84 599.235 260.152 605.931 260.152ZM637.548 260.152C639.78 260.152 643.092 259.72 645.972 259C646.836 258.712 647.124 258.208 647.052 257.416L646.116 251.224C645.972 250.432 645.396 250 644.532 250.144C642.804 250.576 640.716 250.792 639.132 250.792C635.532 250.792 633.156 248.56 633.156 244.888V232.792H644.46C645.252 232.792 645.828 232.288 645.828 231.424V225.448C645.828 224.584 645.252 224.08 644.46 224.08H633.156V214.936C633.156 214.072 632.652 213.568 631.788 213.568H623.724C622.86 213.568 622.356 214.072 622.356 214.936V224.08H615.732C614.868 224.08 614.364 224.584 614.364 225.448V231.424C614.364 232.288 614.868 232.792 615.732 232.792H622.356V245.248C622.356 254.464 628.188 260.152 637.548 260.152ZM671.489 260.152C679.625 260.152 686.105 256.48 688.553 250.504C688.913 249.64 688.409 249.064 687.401 249.064H679.337C678.617 249.064 678.185 249.352 677.609 249.784C676.385 251.152 674.225 251.944 671.705 251.944C666.953 251.944 663.353 249.28 662.201 244.96H688.049C688.841 244.96 689.417 244.6 689.561 243.736C689.561 242.944 689.633 242.08 689.633 241.288C689.633 230.344 682.505 222.928 670.841 222.928C659.393 222.928 651.689 230.344 651.689 241.576C651.689 252.736 659.681 260.152 671.489 260.152ZM662.129 238.552C662.777 234.016 666.377 230.92 671.129 230.92C675.953 230.92 679.121 234.088 679.337 238.552H662.129ZM699.557 260.152C702.869 260.152 705.533 257.704 705.533 254.536C705.533 251.44 702.869 248.92 699.557 248.92C696.245 248.92 693.509 251.44 693.509 254.536C693.509 257.704 696.245 260.152 699.557 260.152Z" fill="white"/>
<path d="M740.933 259.931C745.755 259.695 749.623 256.713 752.004 252.594C754.612 248.04 755.25 242.61 755.858 237.41C754.844 237.328 753.829 237.245 752.815 237.162C752.556 246.65 759.95 255.551 769.144 256.955C769.185 255.914 769.225 254.873 769.292 253.827C763.28 253.427 759.978 259.232 758.145 264.25C755.604 271.193 753.636 278.415 751.409 285.437C752.397 285.525 753.386 285.612 754.394 285.669C753.907 280.876 753.124 276.085 752.006 271.359C750.936 266.735 749.71 261.89 747.617 257.631C746.895 256.18 744.635 256.924 745.039 258.521C746.212 263.125 747.896 267.603 748.965 272.227C750.06 276.846 750.851 281.551 751.347 286.258C751.519 287.901 753.886 287.889 754.333 286.49C756.342 280.07 758.346 273.622 760.381 267.196C761.673 263.149 764 256.583 769.138 256.928C771.104 257.051 771.209 254.098 769.286 253.8C761.771 252.686 755.674 245.153 755.858 237.41C755.925 235.387 753.055 235.189 752.815 237.162C751.873 245.135 750.008 256.135 740.729 257.652C739.529 257.829 739.652 259.983 740.933 259.931Z" fill="white"/>
<path d="M727.788 283.806C728.616 287.448 727.801 291.099 725.877 294.126C724.2 296.798 721.088 299.692 717.73 299.754C715.797 299.793 715.23 302.362 717.139 303.195C723.86 306.172 725.363 315.216 726.352 321.677C726.624 323.525 729.282 323.598 729.786 321.963C732.061 314.648 736.606 308.458 742.729 304.172C743.898 303.359 743.129 301.579 742.051 301.089C736.338 298.532 732.25 292.447 732.018 286.119C731.975 283.835 728.535 283.522 728.604 285.801C728.808 293.839 733.757 301.267 741.021 304.502C740.797 303.483 740.568 302.438 740.344 301.419C733.756 306.047 728.87 312.889 726.416 320.742C727.568 320.827 728.725 320.939 729.85 321.029C728.629 313.02 726.32 303.376 718.186 299.862C718.137 300.989 718.094 302.144 718.045 303.271C722.253 301.926 725.786 299.846 728.16 295.921C730.373 292.251 731.117 287.663 729.935 283.391C729.545 281.985 727.47 282.359 727.788 283.806Z" fill="white"/>
<path d="M174.975 259.273C175.567 261.876 174.984 264.485 173.61 266.649C172.41 268.559 170.186 270.627 167.787 270.672C166.405 270.699 165.999 272.536 167.364 273.131C172.168 275.258 173.242 281.723 173.949 286.341C174.143 287.662 176.043 287.714 176.403 286.545C178.029 281.317 181.277 276.893 185.654 273.829C186.49 273.248 185.94 271.976 185.169 271.625C181.086 269.798 178.164 265.449 177.999 260.926C177.967 259.294 175.509 259.07 175.559 260.698C175.704 266.444 179.242 271.753 184.434 274.065C184.273 273.337 184.109 272.59 183.949 271.861C179.241 275.169 175.748 280.06 173.995 285.673C174.818 285.733 175.645 285.813 176.449 285.877C175.576 280.153 173.926 273.26 168.112 270.749C168.077 271.554 168.046 272.379 168.012 273.185C171.019 272.224 173.545 270.737 175.241 267.932C176.823 265.308 177.355 262.029 176.51 258.976C176.231 257.971 174.748 258.238 174.975 259.273Z" fill="white"/>
<path d="M163.498 61.261C164.759 69.4271 160.444 77.3584 153.197 80.3761C151.728 80.9888 152.784 83.319 154.246 83.0321C155.672 82.7767 156.852 84.8934 157.471 85.9336C158.68 87.9045 159.759 89.9747 160.676 92.1051C162.513 96.2955 163.731 100.766 164.38 105.273C164.593 106.823 167.19 106.625 167.04 105.061C166.389 97.1957 169.304 89.537 174.972 84.4937C175.807 83.7476 175.121 82.3522 174.091 82.2394C171.768 82.0275 169.561 80.8629 167.874 79.1165C166.096 77.275 165.306 75.1158 164.713 72.6801C164.414 71.4051 162.57 71.5935 162.559 72.8699C162.488 75.8504 164.19 78.8904 166.25 80.9686C168.401 83.1421 171.16 84.5516 174.127 84.8483C173.828 84.1058 173.55 83.3584 173.246 82.594C167.103 87.9542 163.701 96.4186 164.375 104.904C165.271 104.839 166.161 104.752 167.036 104.691C166.272 99.3763 164.686 94.1558 162.388 89.2832C161.307 87.0282 160.125 84.7267 158.599 82.7353C157.34 81.0997 155.591 79.9001 153.549 80.2727C153.908 81.1637 154.24 82.0377 154.598 82.9287C162.612 79.5975 167.431 69.6985 165.334 60.8659C165.034 59.5909 163.299 60.0325 163.498 61.261Z" fill="white"/>
<path d="M528.303 120.778C528.809 108.466 533.029 96.6618 540.157 87.0866C543.727 82.3208 547.827 77.9771 552.625 74.4802C554.997 72.7155 557.517 71.1464 560.113 69.8388C562.429 68.6534 565.317 67.2673 568.059 67.848C571.271 68.4909 572.48 72.1625 573.35 74.9848C574.221 77.8071 574.936 80.7178 575.263 83.686C575.897 89.2512 575.466 95.3375 572.07 99.7744C570.895 101.312 569.086 103.302 567.348 101.371C565.946 99.819 565.387 97.2893 565.521 95.2788C565.84 89.2698 569.801 83.835 573.63 79.799C578.839 74.3114 585.104 69.81 591.32 65.6039C598.367 60.8456 605.705 56.6203 613.335 52.928C616.533 51.3649 613.513 46.4394 610.344 47.9478C602.196 51.8732 594.394 56.364 586.976 61.5509C580.531 66.0536 573.953 70.874 568.691 76.7988C564.242 81.8004 559.868 88.7562 560.141 96.0169C560.336 101.465 564.082 108.875 570.347 107.618C577.044 106.291 579.977 97.1832 580.534 91.0633C581.151 84.2221 579.682 76.5769 576.92 70.219C569.469 53.2251 549.606 69.5548 542.316 77.3401C531.551 88.8311 525.098 104.572 524.629 120.87C524.614 123.131 528.229 123.148 528.303 120.778Z" fill="white"/>
<path d="M178.836 224.76C170.604 221.875 161.563 221.602 153.088 223.855C148.864 224.992 144.753 226.592 140.982 228.881C139.094 230.003 137.29 231.275 135.633 232.666C134.143 233.902 132.345 235.468 131.882 237.451C131.315 239.764 133.351 241.532 134.935 242.852C136.518 244.172 138.207 245.412 140.054 246.407C143.509 248.288 147.634 249.593 151.589 248.487C152.96 248.105 154.822 247.417 154.09 245.751C153.503 244.409 152.016 243.374 150.656 242.937C146.616 241.577 141.832 242.799 138.007 244.299C132.804 246.341 127.923 249.346 123.251 252.396C117.961 255.856 112.931 259.65 108.162 263.778C106.152 265.504 103.85 262.198 105.815 260.477C110.897 256.064 116.244 252.03 121.93 248.434C126.867 245.309 132.053 242.179 137.559 240.216C142.209 238.555 148.117 237.455 152.796 239.538C156.31 241.094 160.018 245.535 157.264 249.39C154.333 253.514 147.457 253.088 143.271 251.858C138.594 250.479 134.031 247.497 130.71 243.989C121.856 234.565 138.681 225.575 146.031 222.746C156.881 218.566 169.192 218.378 180.027 222.331C181.515 222.912 180.414 225.331 178.836 224.76Z" fill="white"/>
<path d="M685.19 281.201C674.033 279.463 663.085 277.582 651.724 276.053C640.437 274.552 629.017 273.223 617.464 272.099C594.141 269.83 570.426 268.239 546.325 267.392C498.192 265.662 448.998 266.55 400.127 270.139C386.681 271.125 373.175 272.311 359.828 273.717C352.975 274.447 346.124 275.21 339.278 276.038C332.214 276.878 325.065 277.527 318.166 278.653C311.339 279.775 312.993 285.02 320.204 284.203C332.101 282.85 343.744 280.954 355.643 279.633C367.54 278.279 379.449 277.121 391.44 276.09C415.352 274.063 439.376 272.653 463.444 271.896C511.438 270.423 559.172 271.62 605.537 275.191C618.388 276.174 631.034 277.366 643.689 278.688C656.857 280.078 670.095 281.431 682.791 283.374C685.799 283.82 688.272 281.675 685.19 281.201Z" fill="white"/>
<path d="M644.688 68.0701C645.116 63.198 645.138 57.9928 646.259 53.2124C647.357 48.4769 647.536 43.2997 647.998 38.4173C648.907 28.5038 649.838 18.5453 650.748 8.6317C649.296 8.46904 647.878 8.29608 646.427 8.13341C649.137 24.6868 654.738 40.6519 662.888 55.4462C664.023 54.4453 665.159 53.4443 666.294 52.4433C655.3 44.5295 644.755 35.98 634.683 26.864C634.444 28.2374 634.172 29.6211 633.933 30.9946C645.728 28.3404 657.664 26.3304 669.733 25.044C669.08 23.6407 668.393 22.2478 667.739 20.8445C662.949 27.1805 658.158 33.5166 653.367 39.8526C648.665 46.1231 643.38 52.1914 639.365 58.9758C638.066 61.1358 641.337 63.2202 642.943 61.5385C645.638 58.7173 647.871 55.5039 650.239 52.3635C652.607 49.2231 654.953 46.1277 657.321 42.9873C662.035 36.7514 666.749 30.5156 671.451 24.2451C672.602 22.7423 671.65 19.7878 669.457 20.0456C656.977 21.4211 644.596 23.5304 632.401 26.3082C630.622 26.7055 630.332 29.2417 631.651 30.4388C641.758 39.5446 652.324 48.0492 663.352 55.9527C665.523 57.498 668.15 55.4623 666.758 52.9497C658.986 38.9558 653.628 23.7181 650.852 8.06435C650.659 6.93907 649.99 6.03762 648.806 5.90674C647.813 5.79362 646.606 6.47255 646.531 7.56605C645.745 17.518 645.003 27.4942 644.217 37.4461C644.025 39.8372 643.899 42.2077 643.74 44.5885C643.581 46.9693 643.222 49.4119 643.331 51.8244C643.51 57.0821 642.897 62.279 642.473 67.4937C642.314 68.9954 644.574 69.5961 644.688 68.0701Z" fill="white"/>
<path d="M912.394 139.983C914.619 138.038 916.84 136.075 919.033 134.079C921.212 132.106 923.573 130.226 925.597 128.114C926.947 126.713 924.977 124.852 923.503 126.007C921.207 127.83 919.118 129.999 916.963 131.985C914.794 133.995 912.624 136.005 910.484 138.047C909.207 139.271 911.074 141.118 912.394 139.983Z" fill="white"/>
<path d="M917.49 152.212C920.671 151.805 923.856 151.417 927.056 151.203C928.666 151.094 930.287 151.041 931.893 151.012C933.363 150.99 935.136 151.3 936.521 150.764C937.469 150.396 937.134 149.127 936.378 148.788C935.602 148.454 934.733 148.531 933.91 148.54C933.165 148.553 932.44 148.562 931.699 148.594C930.059 148.65 928.408 148.748 926.768 148.902C923.523 149.185 920.293 149.641 917.124 150.399C915.938 150.658 916.3 152.354 917.49 152.212Z" fill="white"/>
</svg>
