<svg width="349" height="230" fill="none" xmlns="http://www.w3.org/2000/svg"><path d="M36.314 117h5.376c.42 0 .756-.168.924-.588l2.268-5.418h13.23l2.31 5.418c.168.42.462.588.924.588h5.334c.546 0 .84-.378.588-.924l-12.39-27.888c-.168-.42-.462-.588-.924-.588H49.04c-.42 0-.714.21-.882.588l-12.474 27.888c-.21.546.042.924.63.924zm10.794-11.424l4.368-10.458 4.452 10.458h-8.82zm60.396 10.71l-.378-3.486c-.042-.546-.378-.714-.924-.672-.504.126-.84.126-1.26.126-.882 0-1.386-.546-1.386-1.596v-23.94c0-.504-.294-.798-.798-.798h-4.746c-.504 0-.798.294-.798.798v11.046c-1.722-1.26-3.696-1.806-5.838-1.806-6.51 0-11.046 4.452-11.046 10.878 0 6.384 4.536 10.836 11.046 10.836 2.814 0 5.124-.882 6.972-2.646.882 1.68 2.814 2.646 5.292 2.646 1.05 0 2.1-.168 3.234-.504.504-.126.714-.42.63-.882zm-15.582-3.528c-3.192 0-5.418-2.436-5.418-5.922 0-3.528 2.226-5.964 5.418-5.964 3.15 0 5.292 2.436 5.292 5.964 0 3.486-2.142 5.922-5.292 5.922zm29.86 4.914c4.746 0 8.526-2.142 9.954-5.628.21-.504-.084-.84-.672-.84h-4.704c-.42 0-.672.168-1.008.42-.714.798-1.974 1.26-3.444 1.26-2.772 0-4.872-1.554-5.544-4.074h15.078c.462 0 .798-.21.882-.714 0-.462.042-.966.042-1.428 0-6.384-4.158-10.71-10.962-10.71-6.678 0-11.172 4.326-11.172 10.878 0 6.51 4.662 10.836 11.55 10.836zm-5.46-12.6c.378-2.646 2.478-4.452 5.25-4.452 2.814 0 4.662 1.848 4.788 4.452h-10.038zm26.813 12.6c1.008 0 2.058-.168 3.192-.504.504-.126.714-.42.672-.882l-.42-3.486c-.042-.546-.378-.714-.882-.672-.546.126-.882.126-1.26.126-.924 0-1.428-.546-1.428-1.596v-23.94c0-.504-.294-.798-.798-.798h-4.704c-.504 0-.798.294-.798.798v25.956c0 3.066 2.52 4.998 6.426 4.998zm10.711-24.78c2.1 0 3.738-1.512 3.738-3.486 0-1.974-1.638-3.444-3.738-3.444s-3.738 1.47-3.738 3.444 1.638 3.486 3.738 3.486zm3.276 24.78c1.008 0 2.058-.168 3.192-.504.504-.126.714-.42.672-.882l-.42-3.486c-.042-.546-.378-.714-.882-.672-.546.126-.882.126-1.26.126-.924 0-1.428-.546-1.428-1.596v-13.23c0-.504-.294-.798-.798-.798h-4.704c-.504 0-.798.294-.798.798v15.246c0 3.066 2.52 4.998 6.426 4.998zM185.86 96.63h-4.62c-.504 0-.798.294-.798.798v.462c-1.68-1.302-3.738-1.932-5.964-1.932-6.468 0-11.046 4.494-11.046 10.794 0 6.342 4.578 10.836 11.046 10.836 2.1 0 4.158-.546 5.838-1.806v1.764c0 2.898-1.932 4.788-4.956 4.788-2.436 0-4.284-1.05-4.83-2.73-.21-.42-.462-.63-.924-.63h-4.704c-.546 0-.882.294-.756.798.84 4.662 5.208 7.686 11.256 7.686 6.72 0 11.256-3.99 11.256-9.954V97.428c0-.504-.336-.798-.798-.798zm-10.836 16.002c-3.15 0-5.418-2.394-5.418-5.88 0-3.444 2.268-5.88 5.418-5.88 3.108 0 5.292 2.436 5.292 5.88 0 3.486-2.184 5.88-5.292 5.88zm38.691 5.04c1.05 0 2.058-.168 3.234-.504.504-.126.714-.42.63-.882l-.378-3.486c-.042-.546-.378-.714-.924-.672-.504.126-.84.126-1.26.126-.882 0-1.386-.546-1.386-1.596v-5.418c0-5.586-3.654-9.282-9.114-9.282-2.478 0-4.62.672-6.3 1.806V86.718c0-.504-.294-.798-.798-.798h-4.704c-.504 0-.798.294-.798.798v29.484c0 .504.294.798.798.798h4.704c.504 0 .798-.294.798-.798V105.87c0-2.772 1.848-4.536 4.662-4.536 2.688 0 4.41 1.89 4.41 4.746v6.594c0 3.066 2.52 4.998 6.426 4.998zm18.206 0c1.302 0 3.234-.252 4.914-.672.504-.168.672-.462.63-.924l-.546-3.612c-.084-.462-.42-.714-.924-.63a14.003 14.003 0 0 1-3.15.378c-2.1 0-3.486-1.302-3.486-3.444v-7.056h6.594c.462 0 .798-.294.798-.798v-3.486c0-.504-.336-.798-.798-.798h-6.594v-5.334c0-.504-.294-.798-.798-.798h-4.704c-.504 0-.798.294-.798.798v5.334h-3.864c-.504 0-.798.294-.798.798v3.486c0 .504.294.798.798.798h3.864v7.266c0 5.376 3.402 8.694 8.862 8.694zm13.034-.672h4.746c.462 0 .798-.294.798-.798v-14.49h7.014c.462 0 .798-.294.798-.798v-3.486c0-.504-.336-.798-.798-.798h-7.014v-2.436c0-2.226 1.638-3.612 4.074-3.612.924 0 2.31.168 3.234.42.504.126.84-.168.924-.672l.546-3.486c.084-.504-.126-.756-.588-.882-1.596-.504-3.696-.714-5.124-.714-5.796 0-9.408 3.444-9.408 8.946v2.436h-4.62c-.504 0-.798.294-.798.798v3.486c0 .504.294.798.798.798h4.62v14.49c0 .504.336.798.798.798zm41.316-.714l-.378-3.486c-.084-.546-.42-.714-.924-.672-.546.126-.882.126-1.302.126-.882 0-1.386-.546-1.386-1.638V97.428c0-.504-.336-.798-.798-.798h-4.746c-.462 0-.798.294-.798.798v10.332c0 2.772-1.806 4.536-4.62 4.536-2.688 0-4.41-1.89-4.41-4.746V97.428c0-.504-.294-.798-.798-.798h-4.704c-.504 0-.798.294-.798.798v10.962c0 5.586 3.612 9.282 9.072 9.282 2.982 0 5.46-.882 7.14-2.436.966 1.512 2.94 2.436 5.628 2.436 1.008 0 2.016-.168 3.192-.504.462-.126.672-.42.63-.882zm10.14 1.386c1.008 0 2.058-.168 3.192-.504.504-.126.714-.42.672-.882l-.42-3.486c-.042-.546-.378-.714-.882-.672-.546.126-.882.126-1.26.126-.924 0-1.428-.546-1.428-1.596v-23.94c0-.504-.294-.798-.798-.798h-4.704c-.504 0-.798.294-.798.798v25.956c0 3.066 2.52 4.998 6.426 4.998zm-265.663 42c4.746 0 8.526-2.142 9.954-5.628.21-.504-.084-.84-.672-.84h-4.704c-.42 0-.672.168-1.008.42-.714.798-1.974 1.26-3.444 1.26-2.772 0-4.872-1.554-5.544-4.074h15.078c.462 0 .798-.21.882-.714 0-.462.042-.966.042-1.428 0-6.384-4.158-10.71-10.962-10.71-6.678 0-11.172 4.326-11.172 10.878 0 6.51 4.662 10.836 11.55 10.836zm-5.46-12.6c.378-2.646 2.478-4.452 5.25-4.452 2.814 0 4.662 1.848 4.788 4.452H25.288zM43.92 159h5.208c.462 0 .714-.126 1.008-.504l4.494-5.838 4.452 5.838c.252.378.504.504.966.504h5.208c.63 0 .882-.42.504-.924l-7.014-9.24 7.014-9.24c.378-.546.168-.966-.504-.966h-5.502c-.42 0-.714.126-.966.504l-4.2 5.46-4.116-5.46c-.252-.378-.546-.504-.966-.504h-5.586c-.63 0-.84.42-.462.966l6.972 9.198-7.056 9.282c-.378.504-.126.924.546.924zm39.325-21.042c-2.562 0-5.04.882-6.888 2.688-.84-1.638-2.688-2.688-5.082-2.688-.966 0-2.058.126-3.024.504-.462.168-.63.42-.63.924v3.444c0 .546.378.672.924.672.252-.042.672-.126.924-.126 1.176 0 1.638.504 1.638 1.638v22.974c0 .462.294.756.798.756h4.704c.504 0 .798-.294.798-.756v-10.122c1.722 1.26 3.738 1.806 5.838 1.806 6.552 0 11.088-4.452 11.088-10.836 0-6.426-4.536-10.878-11.088-10.878zm-.504 16.8c-3.15 0-5.334-2.436-5.334-5.922 0-3.528 2.184-5.964 5.334-5.964 3.15 0 5.418 2.436 5.418 5.964 0 3.486-2.268 5.922-5.418 5.922zm26.468 4.914c4.746 0 8.526-2.142 9.954-5.628.21-.504-.084-.84-.672-.84h-4.704c-.42 0-.672.168-1.008.42-.714.798-1.974 1.26-3.444 1.26-2.772 0-4.872-1.554-5.544-4.074h15.078c.462 0 .798-.21.882-.714 0-.462.042-.966.042-1.428 0-6.384-4.158-10.71-10.962-10.71-6.678 0-11.171 4.326-11.171 10.878 0 6.51 4.661 10.836 11.549 10.836zm-5.46-12.6c.378-2.646 2.478-4.452 5.25-4.452 2.814 0 4.662 1.848 4.788 4.452H103.75zm37.272-8.736c-.756-.252-1.89-.378-2.898-.378-2.772 0-5.166 1.008-6.846 2.856-.798-1.764-2.646-2.856-5.082-2.856-.966 0-2.058.168-3.024.504-.462.168-.63.42-.63.924v3.444c0 .546.378.672.924.672.252-.042.672-.126.924-.126 1.176 0 1.638.504 1.638 1.638v13.188c0 .504.294.798.798.798h4.704c.504 0 .798-.294.798-.798v-9.03c0-3.444 2.352-5.46 5.544-5.46.798 0 1.68.084 2.31.21.504.084.84-.126.924-.63l.546-4.032c.042-.462-.126-.798-.63-.924zm7.512-3.444c2.1 0 3.738-1.512 3.738-3.486 0-1.974-1.638-3.444-3.738-3.444s-3.738 1.47-3.738 3.444 1.638 3.486 3.738 3.486zm3.276 24.78c1.008 0 2.058-.168 3.192-.504.504-.126.714-.42.672-.882l-.42-3.486c-.042-.546-.378-.714-.882-.672-.546.126-.882.126-1.26.126-.924 0-1.428-.546-1.428-1.596v-13.23c0-.504-.294-.798-.798-.798h-4.704c-.504 0-.798.294-.798.798v15.246c0 3.066 2.52 4.998 6.426 4.998zm17.734 0c4.746 0 8.526-2.142 9.954-5.628.21-.504-.084-.84-.672-.84h-4.704c-.42 0-.672.168-1.008.42-.714.798-1.974 1.26-3.444 1.26-2.772 0-4.872-1.554-5.544-4.074h15.078c.462 0 .798-.21.882-.714 0-.462.042-.966.042-1.428 0-6.384-4.158-10.71-10.962-10.71-6.678 0-11.172 4.326-11.172 10.878 0 6.51 4.662 10.836 11.55 10.836zm-5.46-12.6c.378-2.646 2.478-4.452 5.25-4.452 2.814 0 4.662 1.848 4.788 4.452h-10.038zm47.94 11.214l-.378-3.486c-.042-.546-.378-.714-.924-.672-.504.126-.84.126-1.26.126-.882 0-1.386-.546-1.386-1.596v-5.418c0-5.586-3.654-9.282-9.156-9.282-3.066 0-5.712.966-7.35 2.604-.924-1.596-2.688-2.604-5.04-2.604-.966 0-2.058.126-3.024.504-.462.168-.63.42-.63.924v3.444c0 .546.378.672.924.672.252-.042.672-.126.924-.126 1.176 0 1.638.504 1.638 1.638v13.188c0 .504.294.798.798.798h4.704c.504 0 .798-.294.798-.798V147.87c0-2.772 1.89-4.536 4.662-4.536 2.688 0 4.41 1.89 4.41 4.746v6.594c0 3.066 2.52 4.998 6.426 4.998 1.05 0 2.058-.168 3.234-.504.504-.126.714-.42.63-.882zm13.793 1.386c5.586 0 9.702-2.982 10.584-7.602.084-.504-.21-.84-.714-.84h-4.494c-.462 0-.672.252-.882.672-.588 1.68-2.31 2.688-4.494 2.688-3.318 0-5.502-2.268-5.502-5.754 0-3.486 2.184-5.796 5.502-5.796 2.184 0 3.906 1.05 4.494 2.688.21.462.42.672.882.672h4.494c.504 0 .798-.294.714-.84-.882-4.62-4.998-7.602-10.584-7.602-6.93 0-11.55 4.326-11.55 10.878 0 6.51 4.62 10.836 11.55 10.836zm25.472 0c4.746 0 8.526-2.142 9.954-5.628.21-.504-.084-.84-.672-.84h-4.704c-.42 0-.672.168-1.008.42-.714.798-1.974 1.26-3.444 1.26-2.772 0-4.872-1.554-5.544-4.074h15.078c.462 0 .798-.21.882-.714 0-.462.042-.966.042-1.428 0-6.384-4.158-10.71-10.962-10.71-6.678 0-11.172 4.326-11.172 10.878 0 6.51 4.662 10.836 11.55 10.836zm-5.46-12.6c.378-2.646 2.478-4.452 5.25-4.452 2.814 0 4.662 1.848 4.788 4.452h-10.038zm33.914-12.18c2.1 0 3.738-1.512 3.738-3.486 0-1.974-1.638-3.444-3.738-3.444s-3.738 1.47-3.738 3.444 1.638 3.486 3.738 3.486zm3.276 24.78c1.008 0 2.058-.168 3.192-.504.504-.126.714-.42.672-.882l-.42-3.486c-.042-.546-.378-.714-.882-.672-.546.126-.882.126-1.26.126-.924 0-1.428-.546-1.428-1.596v-13.23c0-.504-.294-.798-.798-.798h-4.704c-.504 0-.798.294-.798.798v15.246c0 3.066 2.52 4.998 6.426 4.998zm34.702-1.386l-.378-3.486c-.042-.546-.378-.714-.924-.672-.504.126-.84.126-1.26.126-.882 0-1.386-.546-1.386-1.596v-5.418c0-5.586-3.654-9.282-9.156-9.282-3.066 0-5.712.966-7.35 2.604-.924-1.596-2.688-2.604-5.04-2.604-.966 0-2.058.126-3.024.504-.462.168-.63.42-.63.924v3.444c0 .546.378.672.924.672.252-.042.672-.126.924-.126 1.176 0 1.638.504 1.638 1.638v13.188c0 .504.294.798.798.798h4.704c.504 0 .798-.294.798-.798V147.87c0-2.772 1.89-4.536 4.662-4.536 2.688 0 4.41 1.89 4.41 4.746v6.594c0 3.066 2.52 4.998 6.426 4.998 1.05 0 2.058-.168 3.234-.504.504-.126.714-.42.63-.882zM69.323 201.672c4.746 0 8.526-2.142 9.954-5.628.21-.504-.084-.84-.672-.84H73.9c-.42 0-.672.168-1.008.42-.714.798-1.974 1.26-3.444 1.26-2.772 0-4.872-1.554-5.544-4.074h15.078c.462 0 .798-.21.882-.714 0-.462.042-.966.042-1.428 0-6.384-4.158-10.71-10.962-10.71-6.678 0-11.172 4.326-11.172 10.878 0 6.51 4.662 10.836 11.55 10.836zm-5.46-12.6c.378-2.646 2.478-4.452 5.25-4.452 2.814 0 4.662 1.848 4.788 4.452H63.863zm33.407 12.6c6.51 0 11.13-4.578 11.13-11.13 0-2.898-.588-5.964-1.68-9.198-.168-.462-.504-.714-.966-.714h-4.62c-.588 0-.84.378-.672.924.966 3.066 1.638 6.174 1.638 8.862 0 3.486-1.974 5.88-4.83 5.88-2.771 0-4.83-1.428-4.83-4.746v-6.006c0-3.486-2.225-5.544-5.963-5.586-1.135 0-2.227.168-3.193.504-.462.168-.63.42-.63.924v3.444c0 .546.379.672.925.672.252-.042.672-.126.924-.126 1.175 0 1.638.504 1.638 1.638v5.082c0 5.964 5.165 9.576 11.13 9.576zm26.604 0c4.746 0 8.526-2.142 9.954-5.628.21-.504-.084-.84-.672-.84h-4.704c-.42 0-.672.168-1.008.42-.714.798-1.974 1.26-3.444 1.26-2.772 0-4.872-1.554-5.544-4.074h15.078c.462 0 .798-.21.882-.714 0-.462.042-.966.042-1.428 0-6.384-4.158-10.71-10.962-10.71-6.678 0-11.172 4.326-11.172 10.878 0 6.51 4.662 10.836 11.55 10.836zm-5.46-12.6c.378-2.646 2.478-4.452 5.25-4.452 2.814 0 4.662 1.848 4.788 4.452h-10.038zm37.271-8.736c-.756-.252-1.89-.378-2.898-.378-2.772 0-5.166 1.008-6.846 2.856-.798-1.764-2.646-2.856-5.082-2.856-.966 0-2.058.168-3.024.504-.462.168-.63.42-.63.924v3.444c0 .546.378.672.924.672.252-.042.672-.126.924-.126 1.176 0 1.638.504 1.638 1.638v13.188c0 .504.294.798.798.798h4.704c.504 0 .798-.294.798-.798v-9.03c0-3.444 2.352-5.46 5.544-5.46.798 0 1.68.084 2.31.21.504.084.84-.126.924-.63l.546-4.032c.042-.462-.126-.798-.63-.924zm14.778 31.122c6.846 0 11.088-4.032 11.088-9.912v-20.118c0-.504-.336-.798-.798-.798h-4.746c-.504 0-.798.294-.798.798v10.248c0 2.73-1.848 4.494-4.62 4.494-2.688 0-4.41-1.848-4.41-4.704v-10.038c0-.504-.294-.798-.798-.798h-4.704c-.504 0-.798.294-.798.798v10.878c0 5.544 3.612 9.282 9.072 9.282 2.436 0 4.62-.63 6.258-1.764v1.848c0 3.108-2.1 4.662-4.746 4.662-2.562 0-4.116-1.176-4.704-2.73-.21-.42-.42-.63-.882-.63h-4.788c-.504 0-.798.294-.756.798.546 4.62 4.998 7.686 11.13 7.686zm39.17-31.5c-2.1 0-4.074.546-5.796 1.764v-11.004c0-.504-.294-.798-.798-.798h-4.746c-.504 0-.798.294-.798.798v29.484c0 .504.294.798.798.798h4.62c.504 0 .84-.294.84-.798v-.378c1.68 1.26 3.696 1.848 5.88 1.848 6.552 0 11.088-4.452 11.088-10.836 0-6.426-4.536-10.878-11.088-10.878zm-.504 16.8c-3.15 0-5.334-2.436-5.334-5.922 0-3.528 2.184-5.964 5.334-5.964 3.15 0 5.418 2.436 5.418 5.964 0 3.486-2.268 5.922-5.418 5.922zm19.037-19.866c2.1 0 3.738-1.512 3.738-3.486 0-1.974-1.638-3.444-3.738-3.444s-3.738 1.47-3.738 3.444 1.638 3.486 3.738 3.486zm3.276 24.78c1.008 0 2.058-.168 3.192-.504.504-.126.714-.42.672-.882l-.42-3.486c-.042-.546-.378-.714-.882-.672-.546.126-.882.126-1.26.126-.924 0-1.428-.546-1.428-1.596v-13.23c0-.504-.294-.798-.798-.798h-4.704c-.504 0-.798.294-.798.798v15.246c0 3.066 2.52 4.998 6.426 4.998zm18.443 0c1.302 0 3.234-.252 4.914-.672.504-.168.672-.462.63-.924l-.546-3.612c-.084-.462-.42-.714-.924-.63a14.003 14.003 0 0 1-3.15.378c-2.1 0-3.486-1.302-3.486-3.444v-7.056h6.594c.462 0 .798-.294.798-.798v-3.486c0-.504-.336-.798-.798-.798h-6.594v-5.334c0-.504-.294-.798-.798-.798h-4.704c-.504 0-.798.294-.798.798v5.334h-3.864c-.504 0-.798.294-.798.798v3.486c0 .504.294.798.798.798h3.864v7.266c0 5.376 3.402 8.694 8.862 8.694zm19.799 0c4.746 0 8.526-2.142 9.954-5.628.21-.504-.084-.84-.672-.84h-4.704c-.42 0-.672.168-1.008.42-.714.798-1.974 1.26-3.444 1.26-2.772 0-4.872-1.554-5.544-4.074h15.078c.462 0 .798-.21.882-.714 0-.462.042-.966.042-1.428 0-6.384-4.158-10.71-10.962-10.71-6.678 0-11.172 4.326-11.172 10.878 0 6.51 4.662 10.836 11.55 10.836zm-5.46-12.6c.378-2.646 2.478-4.452 5.25-4.452 2.814 0 4.662 1.848 4.788 4.452h-10.038zm21.834 12.6c1.932 0 3.486-1.428 3.486-3.276 0-1.806-1.554-3.276-3.486-3.276-1.932 0-3.528 1.47-3.528 3.276 0 1.848 1.596 3.276 3.528 3.276zM76.557 26.394c1.43 8.226-2.547 16.103-9.492 18.985-1.408.586-.326 2.947 1.084 2.689 1.375-.227 2.573 1.922 3.199 2.98a52.035 52.035 0 0 1 3.263 6.262c1.887 4.245 3.181 8.76 3.925 13.299.247 1.56 2.758 1.414 2.573-.16-.833-7.91 1.797-15.542 7.16-20.49.789-.733.088-2.148-.912-2.283-2.256-.26-4.425-1.474-6.104-3.262-1.77-1.886-2.59-4.07-3.227-6.528-.323-1.286-2.104-1.135-2.082.147.008 2.991 1.734 6.079 3.784 8.208 2.14 2.226 4.848 3.698 7.73 4.056-.308-.752-.596-1.508-.91-2.282-5.816 5.258-8.896 13.688-8.025 22.223.866-.048 1.726-.117 2.572-.16-.876-5.352-2.546-10.627-4.897-15.567-1.105-2.286-2.31-4.622-3.84-6.652-1.26-1.669-2.986-2.909-4.955-2.576.37.902.715 1.786 1.085 2.688 7.679-3.181 12.095-13.024 9.837-21.936-.323-1.286-1.992-.878-1.768.36zm99.621 48.245c.101-7.817 2.5-15.261 6.73-21.248 2.119-2.98 4.572-5.684 7.47-7.84a29.358 29.358 0 0 1 4.536-2.847c1.407-.722 3.164-1.563 4.865-1.156 1.99.453 2.798 2.803 3.383 4.609.585 1.805 1.076 3.665 1.328 5.556.487 3.546.325 7.408-1.692 10.18-.698.962-1.779 2.202-2.884.95-.89-1.005-1.278-2.62-1.23-3.897.093-3.814 2.442-7.214 4.733-9.726 3.117-3.416 6.902-6.19 10.662-8.778a101.678 101.678 0 0 1 13.353-7.753c1.945-.949-.001-4.12-1.929-3.206-4.955 2.383-9.688 5.13-14.172 8.323-3.895 2.773-7.867 5.746-11.01 9.44-2.656 3.117-5.233 7.477-4.941 12.096.213 3.465 2.65 8.226 6.49 7.513 4.106-.751 5.757-6.5 5.996-10.38.263-4.34-.773-9.22-2.584-13.298-4.885-10.903-16.85-.798-21.21 4.05-6.439 7.154-10.147 17.069-10.157 27.42.029 1.437 2.258 1.498 2.263-.008zm72.044-32.632c.175-3.035.098-6.284.695-9.252.584-2.94.603-6.169.798-9.21.379-6.174.771-12.376 1.15-18.55-.884-.123-1.747-.25-2.631-.373 1.933 10.37 5.611 20.414 10.815 29.762l2.016-1.826a239.815 239.815 0 0 1-19.634-16.411c-.121.854-.262 1.714-.383 2.568a182.019 182.019 0 0 1 21.627-3.21c-.421-.884-.863-1.764-1.284-2.649l-8.392 11.661c-2.745 3.848-5.847 7.56-8.166 11.738-.751 1.33 1.271 2.677 2.216 1.65 1.587-1.723 2.887-3.697 4.269-5.623 1.383-1.927 2.753-3.826 4.135-5.752 2.753-3.826 5.505-7.651 8.25-11.499.673-.921.044-2.779-1.283-2.649a190.196 190.196 0 0 0-22.383 3.386c-1.073.223-1.205 1.802-.383 2.567a240.05 240.05 0 0 0 19.686 16.372c1.345.995 2.904-.238 2.015-1.826a96.428 96.428 0 0 1-10.436-28.24c-.137-.704-.559-1.277-1.28-1.375-.605-.085-1.325.322-1.352 1.004-.304 6.2-.58 12.416-.884 18.616-.075 1.49-.11 2.968-.165 4.451-.055 1.484-.231 3.003-.122 4.51.2 3.285-.082 6.52-.248 9.768-.071.935 1.312 1.342 1.354.392z" fill="#fff"/><path d="M283.866 215.532c-6.871-1.167-13.614-2.426-20.609-3.459a580.573 580.573 0 0 0-21.091-2.693 678.508 678.508 0 0 0-43.776-3.331 787.918 787.918 0 0 0-89.897 1.162 744.876 744.876 0 0 0-24.765 2.139c-4.211.442-8.42.905-12.627 1.411-4.34.512-8.732.901-12.97 1.598-4.192.695-3.147 4.084 1.283 3.588 7.31-.823 14.46-1.998 21.77-2.8 7.31-.823 14.629-1.52 21.998-2.135a795.491 795.491 0 0 1 44.26-2.404c29.508-.75 58.871.221 87.405 2.717 7.909.687 15.693 1.508 23.482 2.413 8.106.952 16.255 1.88 24.073 3.185 1.852.301 3.362-1.072 1.464-1.391zm24.528-139.787a442.602 442.602 0 0 0 6.639-5.904c2.179-1.973 4.54-3.853 6.564-5.965 1.35-1.401-.62-3.262-2.094-2.108-2.296 1.824-4.385 3.992-6.54 5.979-2.169 2.01-4.339 4.02-6.479 6.062-1.277 1.223.59 3.07 1.91 1.936zm5.097 12.228c3.181-.407 6.366-.795 9.566-1.01a98.698 98.698 0 0 1 4.836-.19c1.47-.022 3.243.288 4.629-.248.948-.368.613-1.637-.144-1.976-.775-.335-1.644-.257-2.468-.248-.744.013-1.47.022-2.21.053-1.64.057-3.291.154-4.931.309-3.246.282-6.476.739-9.645 1.497-1.186.26-.823 1.955.367 1.813zM47.498 195.816c.387 1.588.083 3.168-.694 4.467-.677 1.147-1.955 2.378-3.367 2.377-.813 0-1.024 1.112-.212 1.49 2.859 1.349 3.588 5.291 4.072 8.106.134.805 1.254.859 1.448.153.879-3.159 2.725-5.81 5.255-7.621.483-.344.141-1.124-.318-1.346-2.43-1.158-4.215-3.836-4.38-6.587-.042-.992-1.493-1.157-1.44-.166.172 3.494 2.333 6.762 5.423 8.228l-.318-1.345c-2.721 1.955-4.704 4.887-5.652 8.278.485.047.973.105 1.447.153-.6-3.489-1.673-7.698-5.132-9.293-.009.49-.015.991-.023 1.48 1.756-.549 3.22-1.423 4.176-3.108.892-1.576 1.157-3.563.614-5.429-.18-.614-1.048-.469-.899.163zm-1.715-16.655c-4.929-1.701-10.357-1.825-15.458-.432-2.543.703-5.02 1.685-7.296 3.079a24.934 24.934 0 0 0-3.232 2.302c-.902.751-1.99 1.701-2.278 2.897-.352 1.395.862 2.451 1.806 3.238.944.788 1.952 1.527 3.056 2.118 2.065 1.117 4.535 1.885 6.916 1.201.825-.236 1.947-.658 1.516-1.658-.345-.805-1.233-1.422-2.047-1.679-2.42-.801-5.299-.044-7.604.876-3.135 1.252-6.082 3.083-8.903 4.939a86.542 86.542 0 0 0-9.121 6.918c-1.216 1.048-2.581-.932-1.392-1.976 3.075-2.68 6.307-5.132 9.74-7.321 2.98-1.903 6.111-3.81 9.428-5.016 2.801-1.021 6.355-1.709 9.154-.475 2.102.921 4.306 3.578 2.633 5.911-1.782 2.496-5.91 2.269-8.417 1.547-2.802-.809-5.526-2.584-7.502-4.682-5.269-5.634 4.881-11.12 9.31-12.856 6.538-2.564 13.932-2.731 20.419-.399.89.344.216 1.805-.728 1.468zm283.84-19.064c2.503-.076 4.474-1.639 5.657-3.827 1.296-2.419 1.556-5.328 1.804-8.115l-1.585-.165c-.01 5.094 3.949 9.951 8.745 10.799.008-.559.015-1.117.036-1.679-3.129-.276-4.769 2.808-5.656 5.484-1.23 3.703-2.158 7.562-3.223 11.311.515.057 1.03.115 1.554.155a62.583 62.583 0 0 0-1.428-7.71c-.617-2.495-1.317-5.11-2.46-7.419-.395-.787-1.56-.41-1.328.452.669 2.485 1.603 4.907 2.219 7.401a63.063 63.063 0 0 1 1.421 7.562c.111.884 1.341.902 1.555.155.96-3.428 1.917-6.871 2.89-10.301.619-2.161 1.742-5.664 4.417-5.425 1.023.085 1.039-1.499.036-1.679-3.92-.676-7.187-4.784-7.193-8.941.009-1.087-1.486-1.223-1.585-.165-.384 4.273-1.21 10.162-6.012 10.882-.621.082-.529 1.241.136 1.225zm-7.431 12.802c.479 1.967.102 3.921-.859 5.529-.838 1.419-2.42 2.943-4.167 2.941-1.006.001-1.267 1.377-.263 1.844 3.539 1.67 4.44 6.548 5.04 10.031.166.997 1.551 1.063 1.792.19 1.088-3.91 3.372-7.19 6.503-9.432.598-.425.174-1.39-.394-1.664-3.007-1.434-5.216-4.747-5.42-8.152-.053-1.228-1.847-1.432-1.781-.206.212 4.324 2.886 8.368 6.711 10.182l-.394-1.664c-3.368 2.42-5.822 6.048-6.995 10.244.6.058 1.204.13 1.791.19-.742-4.319-2.071-9.527-6.352-11.5-.01.606-.017 1.226-.028 1.831 2.173-.679 3.985-1.761 5.169-3.847 1.104-1.95 1.431-4.409.759-6.718-.222-.759-1.297-.58-1.112.201z" fill="#fff"/></svg>