<svg width="349" height="230" viewBox="0 0 349 230" fill="none" xmlns="http://www.w3.org/2000/svg">
<path d="M36.3137 117H41.6897C42.1097 117 42.4457 116.832 42.6137 116.412L44.8817 110.994H58.1117L60.4217 116.412C60.5897 116.832 60.8837 117 61.3457 117H66.6797C67.2257 117 67.5197 116.622 67.2677 116.076L54.8777 88.188C54.7097 87.768 54.4157 87.6 53.9537 87.6H49.0397C48.6197 87.6 48.3257 87.81 48.1577 88.188L35.6837 116.076C35.4737 116.622 35.7257 117 36.3137 117ZM47.1077 105.576L51.4757 95.118L55.9277 105.576H47.1077ZM107.504 116.286L107.126 112.8C107.084 112.254 106.748 112.086 106.202 112.128C105.698 112.254 105.362 112.254 104.942 112.254C104.06 112.254 103.556 111.708 103.556 110.658V86.718C103.556 86.214 103.262 85.92 102.758 85.92H98.0124C97.5084 85.92 97.2144 86.214 97.2144 86.718V97.764C95.4924 96.504 93.5184 95.958 91.3764 95.958C84.8664 95.958 80.3304 100.41 80.3304 106.836C80.3304 113.22 84.8664 117.672 91.3764 117.672C94.1904 117.672 96.5004 116.79 98.3484 115.026C99.2304 116.706 101.162 117.672 103.64 117.672C104.69 117.672 105.74 117.504 106.874 117.168C107.378 117.042 107.588 116.748 107.504 116.286ZM91.9224 112.758C88.7304 112.758 86.5044 110.322 86.5044 106.836C86.5044 103.308 88.7304 100.872 91.9224 100.872C95.0724 100.872 97.2144 103.308 97.2144 106.836C97.2144 110.322 95.0724 112.758 91.9224 112.758ZM121.782 117.672C126.528 117.672 130.308 115.53 131.736 112.044C131.946 111.54 131.652 111.204 131.064 111.204H126.36C125.94 111.204 125.688 111.372 125.352 111.624C124.638 112.422 123.378 112.884 121.908 112.884C119.136 112.884 117.036 111.33 116.364 108.81H131.442C131.904 108.81 132.24 108.6 132.324 108.096C132.324 107.634 132.366 107.13 132.366 106.668C132.366 100.284 128.208 95.958 121.404 95.958C114.726 95.958 110.232 100.284 110.232 106.836C110.232 113.346 114.894 117.672 121.782 117.672ZM116.322 105.072C116.7 102.426 118.8 100.62 121.572 100.62C124.386 100.62 126.234 102.468 126.36 105.072H116.322ZM143.135 117.672C144.143 117.672 145.193 117.504 146.327 117.168C146.831 117.042 147.041 116.748 146.999 116.286L146.579 112.8C146.537 112.254 146.201 112.086 145.697 112.128C145.151 112.254 144.815 112.254 144.437 112.254C143.513 112.254 143.009 111.708 143.009 110.658V86.718C143.009 86.214 142.715 85.92 142.211 85.92H137.507C137.003 85.92 136.709 86.214 136.709 86.718V112.674C136.709 115.74 139.229 117.672 143.135 117.672ZM153.846 92.892C155.946 92.892 157.584 91.38 157.584 89.406C157.584 87.432 155.946 85.962 153.846 85.962C151.746 85.962 150.108 87.432 150.108 89.406C150.108 91.38 151.746 92.892 153.846 92.892ZM157.122 117.672C158.13 117.672 159.18 117.504 160.314 117.168C160.818 117.042 161.028 116.748 160.986 116.286L160.566 112.8C160.524 112.254 160.188 112.086 159.684 112.128C159.138 112.254 158.802 112.254 158.424 112.254C157.5 112.254 156.996 111.708 156.996 110.658V97.428C156.996 96.924 156.702 96.63 156.198 96.63H151.494C150.99 96.63 150.696 96.924 150.696 97.428V112.674C150.696 115.74 153.216 117.672 157.122 117.672ZM185.86 96.63H181.24C180.736 96.63 180.442 96.924 180.442 97.428V97.89C178.762 96.588 176.704 95.958 174.478 95.958C168.01 95.958 163.432 100.452 163.432 106.752C163.432 113.094 168.01 117.588 174.478 117.588C176.578 117.588 178.636 117.042 180.316 115.782V117.546C180.316 120.444 178.384 122.334 175.36 122.334C172.924 122.334 171.076 121.284 170.53 119.604C170.32 119.184 170.068 118.974 169.606 118.974H164.902C164.356 118.974 164.02 119.268 164.146 119.772C164.986 124.434 169.354 127.458 175.402 127.458C182.122 127.458 186.658 123.468 186.658 117.504V97.428C186.658 96.924 186.322 96.63 185.86 96.63ZM175.024 112.632C171.874 112.632 169.606 110.238 169.606 106.752C169.606 103.308 171.874 100.872 175.024 100.872C178.132 100.872 180.316 103.308 180.316 106.752C180.316 110.238 178.132 112.632 175.024 112.632ZM213.715 117.672C214.765 117.672 215.773 117.504 216.949 117.168C217.453 117.042 217.663 116.748 217.579 116.286L217.201 112.8C217.159 112.254 216.823 112.086 216.277 112.128C215.773 112.254 215.437 112.254 215.017 112.254C214.135 112.254 213.631 111.708 213.631 110.658V105.24C213.631 99.654 209.977 95.958 204.517 95.958C202.039 95.958 199.897 96.63 198.217 97.764V86.718C198.217 86.214 197.923 85.92 197.419 85.92H192.715C192.211 85.92 191.917 86.214 191.917 86.718V116.202C191.917 116.706 192.211 117 192.715 117H197.419C197.923 117 198.217 116.706 198.217 116.202V105.87C198.217 103.098 200.065 101.334 202.879 101.334C205.567 101.334 207.289 103.224 207.289 106.08V112.674C207.289 115.74 209.809 117.672 213.715 117.672ZM231.921 117.672C233.223 117.672 235.155 117.42 236.835 117C237.339 116.832 237.507 116.538 237.465 116.076L236.919 112.464C236.835 112.002 236.499 111.75 235.995 111.834C234.987 112.086 233.769 112.212 232.845 112.212C230.745 112.212 229.359 110.91 229.359 108.768V101.712H235.953C236.415 101.712 236.751 101.418 236.751 100.914V97.428C236.751 96.924 236.415 96.63 235.953 96.63H229.359V91.296C229.359 90.792 229.065 90.498 228.561 90.498H223.857C223.353 90.498 223.059 90.792 223.059 91.296V96.63H219.195C218.691 96.63 218.397 96.924 218.397 97.428V100.914C218.397 101.418 218.691 101.712 219.195 101.712H223.059V108.978C223.059 114.354 226.461 117.672 231.921 117.672ZM244.955 117H249.701C250.163 117 250.499 116.706 250.499 116.202V101.712H257.513C257.975 101.712 258.311 101.418 258.311 100.914V97.428C258.311 96.924 257.975 96.63 257.513 96.63H250.499V94.194C250.499 91.968 252.137 90.582 254.573 90.582C255.497 90.582 256.883 90.75 257.807 91.002C258.311 91.128 258.647 90.834 258.731 90.33L259.277 86.844C259.361 86.34 259.151 86.088 258.689 85.962C257.093 85.458 254.993 85.248 253.565 85.248C247.769 85.248 244.157 88.692 244.157 94.194V96.63H239.537C239.033 96.63 238.739 96.924 238.739 97.428V100.914C238.739 101.418 239.033 101.712 239.537 101.712H244.157V116.202C244.157 116.706 244.493 117 244.955 117ZM286.271 116.286L285.893 112.8C285.809 112.254 285.473 112.086 284.969 112.128C284.423 112.254 284.087 112.254 283.667 112.254C282.785 112.254 282.281 111.708 282.281 110.616V97.428C282.281 96.924 281.945 96.63 281.483 96.63H276.737C276.275 96.63 275.939 96.924 275.939 97.428V107.76C275.939 110.532 274.133 112.296 271.319 112.296C268.631 112.296 266.909 110.406 266.909 107.55V97.428C266.909 96.924 266.615 96.63 266.111 96.63H261.407C260.903 96.63 260.609 96.924 260.609 97.428V108.39C260.609 113.976 264.221 117.672 269.681 117.672C272.663 117.672 275.141 116.79 276.821 115.236C277.787 116.748 279.761 117.672 282.449 117.672C283.457 117.672 284.465 117.504 285.641 117.168C286.103 117.042 286.313 116.748 286.271 116.286ZM296.411 117.672C297.419 117.672 298.469 117.504 299.603 117.168C300.107 117.042 300.317 116.748 300.275 116.286L299.855 112.8C299.813 112.254 299.477 112.086 298.973 112.128C298.427 112.254 298.091 112.254 297.713 112.254C296.789 112.254 296.285 111.708 296.285 110.658V86.718C296.285 86.214 295.991 85.92 295.487 85.92H290.783C290.279 85.92 289.985 86.214 289.985 86.718V112.674C289.985 115.74 292.505 117.672 296.411 117.672ZM30.7476 159.672C35.4936 159.672 39.2736 157.53 40.7016 154.044C40.9116 153.54 40.6176 153.204 40.0296 153.204H35.3256C34.9056 153.204 34.6536 153.372 34.3176 153.624C33.6036 154.422 32.3436 154.884 30.8736 154.884C28.1016 154.884 26.0016 153.33 25.3296 150.81H40.4076C40.8696 150.81 41.2056 150.6 41.2896 150.096C41.2896 149.634 41.3316 149.13 41.3316 148.668C41.3316 142.284 37.1736 137.958 30.3696 137.958C23.6916 137.958 19.1976 142.284 19.1976 148.836C19.1976 155.346 23.8596 159.672 30.7476 159.672ZM25.2876 147.072C25.6656 144.426 27.7656 142.62 30.5376 142.62C33.3516 142.62 35.1996 144.468 35.3256 147.072H25.2876ZM43.9211 159H49.1291C49.5911 159 49.8431 158.874 50.1371 158.496L54.6311 152.658L59.0831 158.496C59.3351 158.874 59.5871 159 60.0491 159H65.2571C65.8871 159 66.1391 158.58 65.7611 158.076L58.7471 148.836L65.7611 139.596C66.1391 139.05 65.9291 138.63 65.2571 138.63H59.7551C59.3351 138.63 59.0411 138.756 58.7891 139.134L54.5891 144.594L50.4731 139.134C50.2211 138.756 49.9271 138.63 49.5071 138.63H43.9211C43.2911 138.63 43.0811 139.05 43.4591 139.596L50.4311 148.794L43.3751 158.076C42.9971 158.58 43.2491 159 43.9211 159ZM83.2463 137.958C80.6843 137.958 78.2063 138.84 76.3583 140.646C75.5183 139.008 73.6703 137.958 71.2763 137.958C70.3103 137.958 69.2183 138.084 68.2523 138.462C67.7903 138.63 67.6223 138.882 67.6223 139.386V142.83C67.6223 143.376 68.0003 143.502 68.5463 143.502C68.7983 143.46 69.2183 143.376 69.4703 143.376C70.6463 143.376 71.1083 143.88 71.1083 145.014V167.988C71.1083 168.45 71.4023 168.744 71.9063 168.744H76.6103C77.1143 168.744 77.4083 168.45 77.4083 167.988V157.866C79.1303 159.126 81.1463 159.672 83.2463 159.672C89.7983 159.672 94.3343 155.22 94.3343 148.836C94.3343 142.41 89.7983 137.958 83.2463 137.958ZM82.7423 154.758C79.5923 154.758 77.4083 152.322 77.4083 148.836C77.4083 145.308 79.5923 142.872 82.7423 142.872C85.8923 142.872 88.1603 145.308 88.1603 148.836C88.1603 152.322 85.8923 154.758 82.7423 154.758ZM109.21 159.672C113.956 159.672 117.736 157.53 119.164 154.044C119.374 153.54 119.08 153.204 118.492 153.204H113.788C113.368 153.204 113.116 153.372 112.78 153.624C112.066 154.422 110.806 154.884 109.336 154.884C106.564 154.884 104.464 153.33 103.792 150.81H118.87C119.332 150.81 119.668 150.6 119.752 150.096C119.752 149.634 119.794 149.13 119.794 148.668C119.794 142.284 115.636 137.958 108.832 137.958C102.154 137.958 97.6605 142.284 97.6605 148.836C97.6605 155.346 102.322 159.672 109.21 159.672ZM103.75 147.072C104.128 144.426 106.228 142.62 109 142.62C111.814 142.62 113.662 144.468 113.788 147.072H103.75ZM141.022 138.336C140.266 138.084 139.132 137.958 138.124 137.958C135.352 137.958 132.958 138.966 131.278 140.814C130.48 139.05 128.632 137.958 126.196 137.958C125.23 137.958 124.138 138.126 123.172 138.462C122.71 138.63 122.542 138.882 122.542 139.386V142.83C122.542 143.376 122.92 143.502 123.466 143.502C123.718 143.46 124.138 143.376 124.39 143.376C125.566 143.376 126.028 143.88 126.028 145.014V158.202C126.028 158.706 126.322 159 126.826 159H131.53C132.034 159 132.328 158.706 132.328 158.202V149.172C132.328 145.728 134.68 143.712 137.872 143.712C138.67 143.712 139.552 143.796 140.182 143.922C140.686 144.006 141.022 143.796 141.106 143.292L141.652 139.26C141.694 138.798 141.526 138.462 141.022 138.336ZM148.534 134.892C150.634 134.892 152.272 133.38 152.272 131.406C152.272 129.432 150.634 127.962 148.534 127.962C146.434 127.962 144.796 129.432 144.796 131.406C144.796 133.38 146.434 134.892 148.534 134.892ZM151.81 159.672C152.818 159.672 153.868 159.504 155.002 159.168C155.506 159.042 155.716 158.748 155.674 158.286L155.254 154.8C155.212 154.254 154.876 154.086 154.372 154.128C153.826 154.254 153.49 154.254 153.112 154.254C152.188 154.254 151.684 153.708 151.684 152.658V139.428C151.684 138.924 151.39 138.63 150.886 138.63H146.182C145.678 138.63 145.384 138.924 145.384 139.428V154.674C145.384 157.74 147.904 159.672 151.81 159.672ZM169.544 159.672C174.29 159.672 178.07 157.53 179.498 154.044C179.708 153.54 179.414 153.204 178.826 153.204H174.122C173.702 153.204 173.45 153.372 173.114 153.624C172.4 154.422 171.14 154.884 169.67 154.884C166.898 154.884 164.798 153.33 164.126 150.81H179.204C179.666 150.81 180.002 150.6 180.086 150.096C180.086 149.634 180.128 149.13 180.128 148.668C180.128 142.284 175.97 137.958 169.166 137.958C162.488 137.958 157.994 142.284 157.994 148.836C157.994 155.346 162.656 159.672 169.544 159.672ZM164.084 147.072C164.462 144.426 166.562 142.62 169.334 142.62C172.148 142.62 173.996 144.468 174.122 147.072H164.084ZM212.024 158.286L211.646 154.8C211.604 154.254 211.268 154.086 210.722 154.128C210.218 154.254 209.882 154.254 209.462 154.254C208.58 154.254 208.076 153.708 208.076 152.658V147.24C208.076 141.654 204.422 137.958 198.92 137.958C195.854 137.958 193.208 138.924 191.57 140.562C190.646 138.966 188.882 137.958 186.53 137.958C185.564 137.958 184.472 138.084 183.506 138.462C183.044 138.63 182.876 138.882 182.876 139.386V142.83C182.876 143.376 183.254 143.502 183.8 143.502C184.052 143.46 184.472 143.376 184.724 143.376C185.9 143.376 186.362 143.88 186.362 145.014V158.202C186.362 158.706 186.656 159 187.16 159H191.864C192.368 159 192.662 158.706 192.662 158.202V147.87C192.662 145.098 194.552 143.334 197.324 143.334C200.012 143.334 201.734 145.224 201.734 148.08V154.674C201.734 157.74 204.254 159.672 208.16 159.672C209.21 159.672 210.218 159.504 211.394 159.168C211.898 159.042 212.108 158.748 212.024 158.286ZM225.817 159.672C231.403 159.672 235.519 156.69 236.401 152.07C236.485 151.566 236.191 151.23 235.687 151.23H231.193C230.731 151.23 230.521 151.482 230.311 151.902C229.723 153.582 228.001 154.59 225.817 154.59C222.499 154.59 220.315 152.322 220.315 148.836C220.315 145.35 222.499 143.04 225.817 143.04C228.001 143.04 229.723 144.09 230.311 145.728C230.521 146.19 230.731 146.4 231.193 146.4H235.687C236.191 146.4 236.485 146.106 236.401 145.56C235.519 140.94 231.403 137.958 225.817 137.958C218.887 137.958 214.267 142.284 214.267 148.836C214.267 155.346 218.887 159.672 225.817 159.672ZM251.289 159.672C256.035 159.672 259.815 157.53 261.243 154.044C261.453 153.54 261.159 153.204 260.571 153.204H255.867C255.447 153.204 255.195 153.372 254.859 153.624C254.145 154.422 252.885 154.884 251.415 154.884C248.643 154.884 246.543 153.33 245.871 150.81H260.949C261.411 150.81 261.747 150.6 261.831 150.096C261.831 149.634 261.873 149.13 261.873 148.668C261.873 142.284 257.715 137.958 250.911 137.958C244.233 137.958 239.739 142.284 239.739 148.836C239.739 155.346 244.401 159.672 251.289 159.672ZM245.829 147.072C246.207 144.426 248.307 142.62 251.079 142.62C253.893 142.62 255.741 144.468 255.867 147.072H245.829ZM279.743 134.892C281.843 134.892 283.481 133.38 283.481 131.406C283.481 129.432 281.843 127.962 279.743 127.962C277.643 127.962 276.005 129.432 276.005 131.406C276.005 133.38 277.643 134.892 279.743 134.892ZM283.019 159.672C284.027 159.672 285.077 159.504 286.211 159.168C286.715 159.042 286.925 158.748 286.883 158.286L286.463 154.8C286.421 154.254 286.085 154.086 285.581 154.128C285.035 154.254 284.699 154.254 284.321 154.254C283.397 154.254 282.893 153.708 282.893 152.658V139.428C282.893 138.924 282.599 138.63 282.095 138.63H277.391C276.887 138.63 276.593 138.924 276.593 139.428V154.674C276.593 157.74 279.113 159.672 283.019 159.672ZM317.721 158.286L317.343 154.8C317.301 154.254 316.965 154.086 316.419 154.128C315.915 154.254 315.579 154.254 315.159 154.254C314.277 154.254 313.773 153.708 313.773 152.658V147.24C313.773 141.654 310.119 137.958 304.617 137.958C301.551 137.958 298.905 138.924 297.267 140.562C296.343 138.966 294.579 137.958 292.227 137.958C291.261 137.958 290.169 138.084 289.203 138.462C288.741 138.63 288.573 138.882 288.573 139.386V142.83C288.573 143.376 288.951 143.502 289.497 143.502C289.749 143.46 290.169 143.376 290.421 143.376C291.597 143.376 292.059 143.88 292.059 145.014V158.202C292.059 158.706 292.353 159 292.857 159H297.561C298.065 159 298.359 158.706 298.359 158.202V147.87C298.359 145.098 300.249 143.334 303.021 143.334C305.709 143.334 307.431 145.224 307.431 148.08V154.674C307.431 157.74 309.951 159.672 313.857 159.672C314.907 159.672 315.915 159.504 317.091 159.168C317.595 159.042 317.805 158.748 317.721 158.286ZM69.3228 201.672C74.0688 201.672 77.8488 199.53 79.2768 196.044C79.4868 195.54 79.1928 195.204 78.6048 195.204H73.9008C73.4808 195.204 73.2288 195.372 72.8928 195.624C72.1788 196.422 70.9188 196.884 69.4488 196.884C66.6768 196.884 64.5768 195.33 63.9048 192.81H78.9828C79.4448 192.81 79.7808 192.6 79.8648 192.096C79.8648 191.634 79.9068 191.13 79.9068 190.668C79.9068 184.284 75.7488 179.958 68.9448 179.958C62.2668 179.958 57.7728 184.284 57.7728 190.836C57.7728 197.346 62.4348 201.672 69.3228 201.672ZM63.8628 189.072C64.2408 186.426 66.3408 184.62 69.1128 184.62C71.9268 184.62 73.7748 186.468 73.9008 189.072H63.8628ZM97.2705 201.672C103.78 201.672 108.4 197.094 108.4 190.542C108.4 187.644 107.812 184.578 106.72 181.344C106.552 180.882 106.216 180.63 105.754 180.63H101.134C100.546 180.63 100.294 181.008 100.462 181.554C101.428 184.62 102.1 187.728 102.1 190.416C102.1 193.902 100.126 196.296 97.2705 196.296C94.4985 196.296 92.4405 194.868 92.4405 191.55V185.544C92.4405 182.058 90.2145 180 86.4765 179.958C85.3425 179.958 84.2505 180.126 83.2845 180.462C82.8225 180.63 82.6545 180.882 82.6545 181.386V184.83C82.6545 185.376 83.0325 185.502 83.5785 185.502C83.8305 185.46 84.2505 185.376 84.5025 185.376C85.6785 185.376 86.1405 185.88 86.1405 187.014V192.096C86.1405 198.06 91.3065 201.672 97.2705 201.672ZM123.874 201.672C128.62 201.672 132.4 199.53 133.828 196.044C134.038 195.54 133.744 195.204 133.156 195.204H128.452C128.032 195.204 127.78 195.372 127.444 195.624C126.73 196.422 125.47 196.884 124 196.884C121.228 196.884 119.128 195.33 118.456 192.81H133.534C133.996 192.81 134.332 192.6 134.416 192.096C134.416 191.634 134.458 191.13 134.458 190.668C134.458 184.284 130.3 179.958 123.496 179.958C116.818 179.958 112.324 184.284 112.324 190.836C112.324 197.346 116.986 201.672 123.874 201.672ZM118.414 189.072C118.792 186.426 120.892 184.62 123.664 184.62C126.478 184.62 128.326 186.468 128.452 189.072H118.414ZM155.685 180.336C154.929 180.084 153.795 179.958 152.787 179.958C150.015 179.958 147.621 180.966 145.941 182.814C145.143 181.05 143.295 179.958 140.859 179.958C139.893 179.958 138.801 180.126 137.835 180.462C137.373 180.63 137.205 180.882 137.205 181.386V184.83C137.205 185.376 137.583 185.502 138.129 185.502C138.381 185.46 138.801 185.376 139.053 185.376C140.229 185.376 140.691 185.88 140.691 187.014V200.202C140.691 200.706 140.985 201 141.489 201H146.193C146.697 201 146.991 200.706 146.991 200.202V191.172C146.991 187.728 149.343 185.712 152.535 185.712C153.333 185.712 154.215 185.796 154.845 185.922C155.349 186.006 155.685 185.796 155.769 185.292L156.315 181.26C156.357 180.798 156.189 180.462 155.685 180.336ZM170.463 211.458C177.309 211.458 181.551 207.426 181.551 201.546V181.428C181.551 180.924 181.215 180.63 180.753 180.63H176.007C175.503 180.63 175.209 180.924 175.209 181.428V191.676C175.209 194.406 173.361 196.17 170.589 196.17C167.901 196.17 166.179 194.322 166.179 191.466V181.428C166.179 180.924 165.885 180.63 165.381 180.63H160.677C160.173 180.63 159.879 180.924 159.879 181.428V192.306C159.879 197.85 163.491 201.588 168.951 201.588C171.387 201.588 173.571 200.958 175.209 199.824V201.672C175.209 204.78 173.109 206.334 170.463 206.334C167.901 206.334 166.347 205.158 165.759 203.604C165.549 203.184 165.339 202.974 164.877 202.974H160.089C159.585 202.974 159.291 203.268 159.333 203.772C159.879 208.392 164.331 211.458 170.463 211.458ZM209.633 179.958C207.533 179.958 205.559 180.504 203.837 181.722V170.718C203.837 170.214 203.543 169.92 203.039 169.92H198.293C197.789 169.92 197.495 170.214 197.495 170.718V200.202C197.495 200.706 197.789 201 198.293 201H202.913C203.417 201 203.753 200.706 203.753 200.202V199.824C205.433 201.084 207.449 201.672 209.633 201.672C216.185 201.672 220.721 197.22 220.721 190.836C220.721 184.41 216.185 179.958 209.633 179.958ZM209.129 196.758C205.979 196.758 203.795 194.322 203.795 190.836C203.795 187.308 205.979 184.872 209.129 184.872C212.279 184.872 214.547 187.308 214.547 190.836C214.547 194.322 212.279 196.758 209.129 196.758ZM228.166 176.892C230.266 176.892 231.904 175.38 231.904 173.406C231.904 171.432 230.266 169.962 228.166 169.962C226.066 169.962 224.428 171.432 224.428 173.406C224.428 175.38 226.066 176.892 228.166 176.892ZM231.442 201.672C232.45 201.672 233.5 201.504 234.634 201.168C235.138 201.042 235.348 200.748 235.306 200.286L234.886 196.8C234.844 196.254 234.508 196.086 234.004 196.128C233.458 196.254 233.122 196.254 232.744 196.254C231.82 196.254 231.316 195.708 231.316 194.658V181.428C231.316 180.924 231.022 180.63 230.518 180.63H225.814C225.31 180.63 225.016 180.924 225.016 181.428V196.674C225.016 199.74 227.536 201.672 231.442 201.672ZM249.885 201.672C251.187 201.672 253.119 201.42 254.799 201C255.303 200.832 255.471 200.538 255.429 200.076L254.883 196.464C254.799 196.002 254.463 195.75 253.959 195.834C252.951 196.086 251.733 196.212 250.809 196.212C248.709 196.212 247.323 194.91 247.323 192.768V185.712H253.917C254.379 185.712 254.715 185.418 254.715 184.914V181.428C254.715 180.924 254.379 180.63 253.917 180.63H247.323V175.296C247.323 174.792 247.029 174.498 246.525 174.498H241.821C241.317 174.498 241.023 174.792 241.023 175.296V180.63H237.159C236.655 180.63 236.361 180.924 236.361 181.428V184.914C236.361 185.418 236.655 185.712 237.159 185.712H241.023V192.978C241.023 198.354 244.425 201.672 249.885 201.672ZM269.684 201.672C274.43 201.672 278.21 199.53 279.638 196.044C279.848 195.54 279.554 195.204 278.966 195.204H274.262C273.842 195.204 273.59 195.372 273.254 195.624C272.54 196.422 271.28 196.884 269.81 196.884C267.038 196.884 264.938 195.33 264.266 192.81H279.344C279.806 192.81 280.142 192.6 280.226 192.096C280.226 191.634 280.268 191.13 280.268 190.668C280.268 184.284 276.11 179.958 269.306 179.958C262.628 179.958 258.134 184.284 258.134 190.836C258.134 197.346 262.796 201.672 269.684 201.672ZM264.224 189.072C264.602 186.426 266.702 184.62 269.474 184.62C272.288 184.62 274.136 186.468 274.262 189.072H264.224ZM286.058 201.672C287.99 201.672 289.544 200.244 289.544 198.396C289.544 196.59 287.99 195.12 286.058 195.12C284.126 195.12 282.53 196.59 282.53 198.396C282.53 200.244 284.126 201.672 286.058 201.672Z" fill="white"/>
<path d="M76.5568 26.3944C77.9878 34.6204 74.0095 42.4969 67.0649 45.3794C65.6569 45.9647 66.7394 48.3263 68.1492 48.068C69.5244 47.8405 70.7216 49.9902 71.3477 51.0473C72.5702 53.0512 73.6686 55.152 74.6108 57.3101C76.4978 61.5554 77.7923 66.0693 78.5362 70.6088C78.7826 72.1691 81.2942 72.0231 81.1087 70.4497C80.2763 62.5384 82.9056 54.9071 88.2681 49.9583C89.058 49.2261 88.3575 47.8108 87.357 47.6765C85.101 47.4164 82.9324 46.2019 81.2533 44.4138C79.4838 42.5284 78.6631 40.344 78.0263 37.886C77.7033 36.5996 75.9219 36.7512 75.9436 38.0327C75.9516 41.0243 77.6785 44.1117 79.7276 46.2406C81.8671 48.467 84.5761 49.9387 87.4586 50.2971C87.1501 49.5454 86.8619 48.7893 86.5475 48.0154C80.7318 53.2728 77.652 61.7032 78.5226 70.2376C79.3888 70.1904 80.2491 70.1212 81.095 70.0785C80.219 64.7257 78.5494 59.4511 76.1977 54.5112C75.0925 52.2247 73.8884 49.8895 72.3586 47.8586C71.0975 46.1905 69.3721 44.9503 67.4034 45.2828C67.7736 46.1849 68.1175 47.0692 68.4877 47.9713C76.1667 44.7896 80.5833 34.9474 78.3254 26.0351C78.0024 24.7486 76.3326 25.1567 76.5568 26.3944Z" fill="white"/>
<path d="M176.178 74.6394C176.279 66.8216 178.678 59.3779 182.908 53.3907C185.027 50.411 187.48 47.7068 190.378 45.5505C191.81 44.4616 193.336 43.4991 194.914 42.7038C196.321 41.9823 198.078 41.1412 199.779 41.548C201.769 42.0008 202.577 44.351 203.162 46.1566C203.747 47.9623 204.238 49.8221 204.49 51.713C204.977 55.2586 204.815 59.1208 202.798 61.8938C202.1 62.8548 201.019 64.0946 199.914 62.8432C199.024 61.8378 198.636 60.2224 198.684 58.9465C198.777 55.1319 201.126 51.7324 203.417 49.2201C206.534 45.8043 210.319 43.0298 214.079 40.4422C218.341 37.5151 222.792 34.9309 227.432 32.6894C229.377 31.74 227.431 28.5681 225.503 29.483C220.548 31.8655 215.815 34.6122 211.331 37.8065C207.436 40.5794 203.464 43.5524 200.321 47.2454C197.665 50.3628 195.088 54.7233 195.38 59.3415C195.593 62.8068 198.03 67.5678 201.87 66.8547C205.976 66.104 207.627 60.3559 207.866 56.4741C208.129 52.1348 207.093 47.2557 205.282 43.177C200.397 32.274 188.432 42.3786 184.072 47.2261C177.633 54.3808 173.925 64.2958 173.915 74.6474C173.944 76.084 176.173 76.1449 176.178 74.6394Z" fill="white"/>
<path d="M248.222 42.0065C248.397 38.9717 248.32 35.7232 248.917 32.7554C249.501 29.8153 249.52 26.5865 249.715 23.5458C250.094 17.3712 250.486 11.1688 250.865 4.99422C249.981 4.87221 249.118 4.74425 248.234 4.62224C250.167 14.9921 253.845 25.0356 259.049 34.3843C259.721 33.7756 260.393 33.1669 261.065 32.5581C254.254 27.4637 247.704 21.9788 241.431 16.147C241.31 17.0008 241.169 17.8606 241.048 18.7145C248.161 17.2244 255.372 16.1382 262.675 15.5057C262.254 14.6206 261.812 13.7415 261.391 12.8565C258.594 16.7434 255.796 20.6304 252.999 24.5174C250.254 28.3646 247.152 32.0776 244.833 36.2553C244.082 37.5851 246.104 38.9322 247.049 37.9053C248.636 36.1825 249.936 34.2084 251.318 32.2818C252.701 30.3551 254.071 28.4563 255.453 26.5296C258.206 22.7041 260.958 18.8786 263.703 15.0313C264.376 14.1096 263.747 12.2522 262.42 12.3821C254.869 13.0645 247.39 14.2063 240.037 15.7679C238.964 15.9908 238.832 17.5696 239.654 18.3354C245.947 24.1613 252.509 29.6184 259.34 34.7069C260.685 35.7021 262.244 34.4686 261.355 32.8808C256.394 24.0369 252.876 14.4509 250.919 4.64158C250.782 3.93653 250.36 3.36445 249.639 3.26607C249.034 3.18144 248.314 3.58817 248.287 4.2696C247.983 10.4699 247.707 16.686 247.403 22.8863C247.328 24.3759 247.293 25.8537 247.238 27.3374C247.183 28.8211 247.007 30.3405 247.116 31.8478C247.316 35.1319 247.034 38.3668 246.868 41.6155C246.797 42.5505 248.18 42.9573 248.222 42.0065Z" fill="white"/>
<path d="M283.866 215.532C276.995 214.365 270.252 213.106 263.257 212.073C256.308 211.058 249.277 210.154 242.166 209.38C227.81 207.82 213.217 206.695 198.39 206.049C168.779 204.732 138.529 205.1 108.493 207.211C100.228 207.79 91.9281 208.499 83.7275 209.35C79.5168 209.792 75.3076 210.255 71.1014 210.761C66.7617 211.273 62.3686 211.662 58.1314 212.359C53.9387 213.054 54.984 216.443 59.4141 215.947C66.7236 215.124 73.874 213.949 81.1849 213.147C88.4943 212.324 95.8127 211.627 103.182 211.012C117.876 209.805 132.644 208.996 147.442 208.608C176.95 207.858 206.313 208.829 234.847 211.325C242.756 212.012 250.54 212.833 258.329 213.738C266.435 214.69 274.584 215.618 282.402 216.923C284.254 217.224 285.764 215.851 283.866 215.532Z" fill="white"/>
<path d="M308.394 75.7448C310.619 73.8 312.84 71.8365 315.033 69.8406C317.212 67.868 319.573 65.9878 321.597 63.8761C322.947 62.4745 320.977 60.6137 319.503 61.7684C317.207 63.5922 315.118 65.7603 312.963 67.7467C310.794 69.7566 308.624 71.7664 306.484 73.8088C305.207 75.0323 307.074 76.8798 308.394 75.7448Z" fill="white"/>
<path d="M313.491 87.9729C316.672 87.566 319.857 87.1779 323.057 86.9636C324.666 86.8546 326.287 86.8022 327.893 86.7725C329.363 86.7506 331.136 87.0607 332.522 86.5251C333.47 86.1567 333.135 84.8877 332.378 84.5492C331.603 84.2144 330.734 84.2917 329.91 84.301C329.166 84.3138 328.44 84.3228 327.7 84.3545C326.06 84.4107 324.409 84.5085 322.769 84.663C319.523 84.9454 316.293 85.4016 313.124 86.1599C311.938 86.4192 312.301 88.1151 313.491 87.9729Z" fill="white"/>
<path d="M47.4982 195.816C47.8851 197.404 47.581 198.984 46.8042 200.283C46.1269 201.43 44.8486 202.661 43.437 202.66C42.6242 202.66 42.4127 203.772 43.2246 204.15C46.084 205.499 46.8126 209.441 47.2975 212.256C47.4314 213.061 48.5506 213.115 48.745 212.409C49.624 209.25 51.47 206.599 54.0001 204.788C54.4834 204.444 54.141 203.664 53.6821 203.442C51.2517 202.284 49.467 199.606 49.3022 196.855C49.2595 195.863 47.8092 195.698 47.8627 196.689C48.0338 200.183 50.1952 203.451 53.2854 204.917C53.1803 204.472 53.0725 204.016 52.9674 203.572C50.2457 205.527 48.2629 208.459 47.3145 211.85C47.7997 211.897 48.2877 211.955 48.762 212.003C48.1629 208.514 47.0889 204.305 43.6296 202.71C43.6211 203.2 43.6153 203.701 43.6068 204.19C45.3626 203.641 46.8269 202.767 47.7834 201.082C48.6754 199.506 48.9396 197.519 48.3969 195.653C48.2179 195.039 47.3489 195.184 47.4982 195.816Z" fill="white"/>
<path d="M45.7829 179.161C40.8542 177.46 35.4259 177.336 30.325 178.729C27.7819 179.432 25.3048 180.414 23.0285 181.808C21.8892 182.492 20.7988 183.265 19.7968 184.11C18.8954 184.861 17.8074 185.811 17.5191 187.007C17.1669 188.402 18.3806 189.458 19.3247 190.245C20.2688 191.033 21.2767 191.772 22.3805 192.363C24.4457 193.48 26.9163 194.248 29.2974 193.564C30.1222 193.328 31.2441 192.906 30.8131 191.906C30.4679 191.101 29.5801 190.484 28.7656 190.227C26.3466 189.426 23.4672 190.183 21.162 191.103C18.0269 192.355 15.0803 194.186 12.2588 196.042C9.06406 198.148 6.02372 200.454 3.1378 202.96C1.92204 204.008 0.556964 202.028 1.74573 200.984C4.82078 198.304 8.0527 195.852 11.4856 193.663C14.4666 191.76 17.5974 189.853 20.914 188.647C23.7151 187.626 27.2692 186.938 30.0682 188.172C32.1705 189.093 34.3742 191.75 32.7008 194.083C30.9192 196.579 26.7916 196.352 24.2842 195.63C21.4824 194.821 18.7576 193.046 16.7816 190.948C11.5131 185.314 21.6635 179.828 26.0923 178.092C32.6299 175.528 40.0243 175.361 46.5107 177.693C47.4012 178.037 46.7274 179.498 45.7829 179.161Z" fill="white"/>
<path d="M329.623 160.097C332.126 160.021 334.097 158.458 335.28 156.27C336.576 153.851 336.836 150.942 337.084 148.155C336.556 148.1 336.028 148.045 335.499 147.99C335.489 153.084 339.448 157.941 344.244 158.789C344.252 158.23 344.259 157.672 344.28 157.11C341.151 156.834 339.511 159.918 338.624 162.594C337.394 166.297 336.466 170.156 335.401 173.905C335.916 173.962 336.431 174.02 336.955 174.06C336.64 171.481 336.17 168.9 335.527 166.35C334.91 163.855 334.21 161.24 333.067 158.931C332.672 158.144 331.507 158.521 331.739 159.383C332.408 161.868 333.342 164.29 333.958 166.784C334.588 169.277 335.06 171.812 335.379 174.346C335.49 175.23 336.72 175.248 336.934 174.501C337.894 171.073 338.851 167.63 339.824 164.2C340.443 162.039 341.566 158.536 344.241 158.775C345.264 158.86 345.28 157.276 344.277 157.096C340.357 156.42 337.09 152.312 337.084 148.155C337.093 147.068 335.598 146.932 335.499 147.99C335.115 152.263 334.289 158.152 329.487 158.872C328.866 158.954 328.958 160.113 329.623 160.097Z" fill="white"/>
<path d="M322.192 172.899C322.671 174.866 322.294 176.82 321.333 178.428C320.495 179.847 318.913 181.371 317.166 181.369C316.16 181.37 315.899 182.746 316.903 183.213C320.442 184.883 321.343 189.761 321.943 193.244C322.109 194.241 323.494 194.307 323.735 193.434C324.823 189.524 327.107 186.244 330.238 184.002C330.836 183.577 330.412 182.612 329.844 182.338C326.837 180.904 324.628 177.591 324.424 174.186C324.371 172.958 322.577 172.754 322.643 173.98C322.855 178.304 325.529 182.348 329.354 184.162C329.224 183.612 329.09 183.048 328.96 182.498C325.592 184.918 323.138 188.546 321.965 192.742C322.565 192.8 323.169 192.872 323.756 192.932C323.014 188.613 321.685 183.405 317.404 181.432C317.394 182.038 317.387 182.658 317.376 183.263C319.549 182.584 321.361 181.502 322.545 179.416C323.649 177.466 323.976 175.007 323.304 172.698C323.082 171.939 322.007 172.118 322.192 172.899Z" fill="white"/>
</svg>
