<svg width="299" height="167" viewBox="0 0 299 167" fill="none" xmlns="http://www.w3.org/2000/svg">
<path d="M212.165 73.5003C187.068 64.8971 162.056 55.8962 136.372 48.9346C111.742 42.2656 86.0022 37.2657 60.5649 36.4849C51.0155 36.1942 41.4131 36.3425 32.4957 39.0941C26.0135 41.0802 19.5529 44.2828 15.6953 49.3176C12.0154 54.0785 11.9435 59.8802 15.2088 65.1767C20.0721 73.0967 30.2562 78.3 38.7307 82.7258C59.6014 93.5851 82.5113 100.652 104.979 108.11C130.278 116.513 155.857 123.972 181.803 130.262C193.03 132.985 204.338 135.518 215.674 137.918C223.651 139.607 231.688 141.205 239.809 142.024C254.834 143.578 273.019 142.823 280.802 130.171C285.541 122.484 283.978 113.289 278.837 105.552C273.125 96.9332 263.456 90.8004 254.478 84.9868C234.289 71.8483 212.192 61.318 188.958 53.5247C183.297 51.6335 177.541 49.9994 171.764 48.4647C169.534 47.8884 168.999 50.7877 171.133 51.4472C193.62 58.2513 215.54 66.9782 235.848 78.2376C246.017 83.8878 255.741 90.1363 264.942 96.9666C272.172 102.375 278.539 109.783 279.312 118.187C279.973 125.425 275.74 132.043 268.835 135.463C262.691 138.49 255.194 139.049 248.096 138.862C240.205 138.646 232.328 137.428 224.545 135.953C215.769 134.268 207.05 132.318 198.33 130.368C173.324 124.727 148.538 118.233 124.112 110.603C112.855 107.077 101.647 103.318 90.4321 99.5935C79.4772 95.9583 68.5816 92.2317 57.9478 87.8335C47.6365 83.6074 37.2396 78.8438 28.0815 72.7497C22.3863 68.947 15.7302 63.2788 16.2658 56.6058C16.7014 51.158 21.6712 47.0858 26.6135 44.462C32.7446 41.1204 40.1047 39.3202 47.4964 38.877C71.6714 37.5207 96.6539 41.3907 120.429 46.6324C145.571 52.1981 169.982 60.2751 194.274 68.5349C200.036 70.5165 205.843 72.4732 211.604 74.4549C212.347 74.7159 212.908 73.7613 212.165 73.5003Z" fill="#66C1EA"/>
<path d="M59.2272 49.973L59.1808 50.1425L59.4109 50.0233L59.5804 50.0697C63.8189 51.2303 65.9132 53.2516 65.8631 56.1337L65.7664 56.4869C65.2403 58.4083 62.0786 60.0638 56.2812 61.4531C55.8102 61.3242 55.5271 61.434 55.4316 61.7825L55.3349 62.1357L55.1513 62.0854L55.1918 62.6584C54.6012 64.8154 54.3954 66.7132 54.5745 68.3518C54.3578 69.143 53.6215 69.7615 52.3654 70.2073L51.8427 70.0642C51.2587 69.9043 51.1621 68.8704 51.5529 66.9625L51.8797 66.4901L51.7702 65.5033L52.2763 64.3205C52.645 62.2344 52.7138 61.0585 52.4828 60.7928L52.9831 60.3526L53.0128 58.8572L53.4964 57.0912C53.7197 53.9831 53.5312 51.9166 52.931 50.8916L53.1708 50.0157C53.3952 49.1962 55.414 49.182 59.2272 49.973ZM57.2018 51.8788C57.1502 52.0672 56.7325 52.2059 55.9487 52.2951L55.9023 52.4646L56.2721 53.8872L55.8486 54.7129L56.1384 57.8146L55.9186 57.9518L55.8722 58.1214L55.8747 59.4434C59.6854 58.4314 62.0543 57.379 62.9813 56.2862L63.0277 56.1167C63.3578 54.9111 62.1175 53.6906 59.3069 52.4552L59.0909 52.5783L58.2473 52.1651L57.3249 52.0948L57.2018 51.8788ZM70.9923 59.2999L71.1759 59.3502C71.6229 59.4928 71.9653 61.3483 72.2032 64.9168L72.5706 65.0173L74.4695 62.4086C76.0643 61.5392 77.1396 61.1805 77.6953 61.3327C79.2686 62.2799 79.9882 62.9984 79.8541 63.4881C79.1981 64.2198 78.597 64.5108 78.0507 64.3612L77.3663 63.9764C76.3397 63.6953 74.831 65.3781 72.8402 69.0248L72.2908 71.031L71.139 71.6876C71.0049 72.1774 70.7542 72.372 70.3869 72.2714L69.6522 72.0703C69.4921 72.0264 69.5401 70.6676 69.7964 67.9939C69.8947 64.7504 69.7534 62.1602 69.3725 60.2233L69.4731 59.8559L70.9923 59.2999ZM90.0572 64.9302C92.1859 65.5131 93.3702 67.4371 93.6101 70.7023L93.4786 71.1827C93.1743 72.2941 92.1383 72.7496 90.3707 72.5491L89.2545 72.2435C88.7177 72.0965 88.4776 71.9194 88.5343 71.7122L88.0255 71.7399L86.7824 71.2325L86.3917 72.6594C86.8138 75.2962 87.9291 76.8621 89.7376 77.3573C91.8484 76.9329 93.1603 76.3201 93.6733 75.5189C94.0679 75.7789 94.3112 76.129 94.4033 76.5693L94.3607 76.7247C92.3591 79.2648 90.002 80.1635 87.2893 79.4207C85.7965 78.4753 84.782 77.1698 84.2458 75.5043C84.0124 74.2861 83.8563 72.3601 83.7776 69.7262C83.4883 69.5255 83.4159 69.1614 83.5603 68.634C83.6789 68.2007 84.0587 67.8491 84.6997 67.5791C85.1484 65.9402 86.9343 65.0572 90.0572 64.9302ZM87.5438 67.8415L87.5013 67.9969C87.3852 68.4207 88.4279 68.9948 90.6292 69.719L90.8033 69.0833C90.6414 68.2694 90.1889 67.6292 89.446 67.1625C88.9185 67.0181 88.2845 67.2444 87.5438 67.8415ZM102.313 70.4123C102.802 72.1763 102.852 73.7695 102.462 75.1917C102.352 75.5967 102.4 75.8276 102.607 75.8844C103.833 74.3268 104.98 73.1168 106.046 72.2546L106.851 72.3081C108.081 73.3636 108.525 74.5178 108.182 75.7705L108.506 76.3606L108.661 76.4031C110.641 74.8694 111.918 74.1812 112.492 74.3385L112.944 74.4623C113.989 75.8218 114.372 77.0149 114.09 78.0415C114.288 78.0957 114.189 79.0506 113.792 80.9062L114.152 81.9768L114.067 82.2876C113.441 82.8351 112.813 83.1493 112.184 83.23L111.421 83.0211C111.261 82.9773 111.103 82.5544 110.948 81.7526L111.072 81.3005C111.484 79.7934 111.586 78.6265 111.377 77.7998L110.925 77.676C110.24 77.9237 109.342 78.817 108.232 80.3559C107.808 80.2398 107.282 80.369 106.653 80.7435L105.395 80.5663L105.296 80.3722L105.629 79.1571C105.816 77.0315 105.787 75.9351 105.543 75.8681L105.387 75.8255L103.118 78.7884C102.868 79.7021 101.921 80.3692 100.277 80.7898L99.8244 80.666L99.3832 79.8921L99.7585 78.5217L100.358 72.1704L100.486 71.7042C100.856 70.6108 101.465 70.1802 102.313 70.4123ZM124.962 71.6627C125.546 71.8226 125.957 72.2996 126.195 73.0938L126.056 73.6025C125.771 74.051 124.846 74.3395 123.282 74.4682L122.943 74.3753L122.697 73.9434L123.065 72.6012C123.698 71.8027 124.331 71.4899 124.962 71.6627ZM122.231 77.643C122.984 77.8493 123.097 79.2117 122.57 81.7301L122.354 81.8533L122.307 82.0228C121.884 83.5675 121.864 84.9542 122.247 86.1828L122.2 86.3523C121.891 87.4826 121.062 87.8633 119.716 87.4945L119.546 87.4481C119.148 86.6811 119.19 85.4217 119.669 83.6698L119.469 83.0683L120.01 81.7584L120.166 80.5252L120.475 80.063L120.719 78.5048L120.812 78.1657C120.989 77.8499 121.462 77.6756 122.231 77.643ZM131.247 77.9854L131.996 79.2992L131.73 79.7126C130.957 83.2774 130.669 85.4766 130.866 86.3102L131.318 86.434C133.491 85.8546 135.009 83.992 135.87 80.8461L135.838 80.3514C135.998 79.7674 136.422 79.5696 137.11 79.7579L137.562 79.8817C137.882 79.9693 137.952 80.6769 137.77 82.0043L137.59 82.1069L137.548 82.2623C137.329 85.0577 137.455 86.5199 137.926 86.6488L139.862 87.1788L139.717 88.263C138.756 88.6277 137.89 88.7044 137.118 88.4929C136.458 88.3124 135.628 87.6649 134.627 86.5504C132.645 87.9111 131.116 88.4444 130.043 88.1504C128.564 87.7455 128.054 86.7048 128.513 85.0282C128.391 84.9947 128.514 83.9704 128.884 81.9555L129.025 81.9941L128.926 81.8C129.682 79.0403 130.404 77.7546 131.091 77.9428L131.247 77.9854ZM146.795 82.5921C147.284 84.3561 147.334 85.9492 146.944 87.3715C146.833 87.7765 146.881 88.0074 147.089 88.0641C148.315 86.5065 149.461 85.2966 150.528 84.4343L151.333 84.4878C152.563 85.5434 153.006 86.6976 152.663 87.9503L152.988 88.5403L153.143 88.5829C155.122 87.0492 156.399 86.361 156.974 86.5183L157.426 86.6421C158.471 88.0015 158.853 89.1946 158.572 90.2213C158.77 90.2754 158.671 91.2303 158.274 93.086L158.634 94.1565L158.549 94.4674C157.923 95.0149 157.295 95.329 156.665 95.4098L155.903 95.2008C155.742 95.157 155.585 94.7342 155.43 93.9323L155.554 93.4802C155.966 91.9732 156.068 90.8063 155.859 89.9796L155.407 89.8558C154.721 90.1035 153.824 90.9967 152.714 92.5356C152.29 92.4196 151.764 92.5488 151.135 92.9233L149.877 92.746L149.778 92.5519L150.111 91.3369C150.298 89.2112 150.269 88.1149 150.024 88.0478L149.869 88.0053L147.6 90.9682C147.349 91.8818 146.402 92.5489 144.758 92.9695L144.306 92.8457L143.865 92.0719L144.24 90.7014L144.84 84.3502L144.968 83.884C145.338 82.7906 145.947 82.3599 146.795 82.5921ZM186.662 86.0663C189.591 86.8684 190.831 88.0888 190.383 89.7277C190.072 89.6426 189.67 89.7249 189.176 89.9745L189.006 89.928L187.69 89.188L185.938 88.7083L185.282 88.3312L182.374 87.9146L181.764 87.3679C181.666 87.7258 181.382 87.8403 180.911 87.7114L180.712 89.1604L180.044 90.8761C179.754 92.3053 179.68 93.0393 179.821 93.078L183.533 93.3348L184.005 93.6616L185.161 93.5986L185.115 93.7681L185.345 93.6488L185.684 93.7417C186.27 93.9324 186.534 94.1314 186.477 94.3386L186.697 94.2014L188.11 94.5882L189.202 94.705C190.061 95.2643 190.468 95.6287 190.421 95.7982C190.187 96.6554 189.24 96.8972 187.58 96.5238L186.737 96.1106C186.651 96.4214 185.767 96.4325 184.085 96.1438L184.135 95.9602L179.185 96.1235L178.848 97.3526L178.824 98.1055L178.608 98.2286L178.558 98.4123C178.405 100.153 178.526 101.32 178.921 101.914L178.681 102.79L177.454 103.775L176.578 103.535C176.362 103.476 176.043 102.568 175.622 100.813L175.766 100.29L176.889 93.4142L177.363 92.4048L177.226 92.185L177.276 92.0013L177.506 91.8821L177.556 91.6984L177.566 90.9417L178.445 89.117C178.686 87.7956 178.619 86.8915 178.246 86.4046L178.39 85.8819C178.66 84.8929 181.418 84.9544 186.662 86.0663ZM196.825 93.7548L197.009 93.8051C197.456 93.9477 197.798 95.8032 198.036 99.3716L198.404 99.4722L200.302 96.8635C201.897 95.9941 202.973 95.6354 203.528 95.7876C205.102 96.7348 205.821 97.4532 205.687 97.943C205.031 98.6747 204.43 98.9657 203.884 98.8161L203.199 98.4313C202.173 98.1502 200.664 99.833 198.673 103.48L198.124 105.486L196.972 106.143C196.838 106.632 196.587 106.827 196.22 106.726L195.485 106.525C195.325 106.481 195.373 105.123 195.629 102.449C195.728 99.2053 195.586 96.6151 195.206 94.6781L195.306 94.3108L196.825 93.7548ZM211.637 99.9975L212.386 101.311L212.121 101.725C211.347 105.289 211.059 107.489 211.256 108.322L211.708 108.446C213.882 107.867 215.399 106.004 216.261 102.858L216.229 102.363C216.389 101.78 216.813 101.582 217.5 101.77L217.952 101.894C218.272 101.981 218.342 102.689 218.161 104.016L217.981 104.119L217.938 104.274C217.72 107.07 217.846 108.532 218.317 108.661L220.252 109.191L220.107 110.275C219.147 110.64 218.28 110.716 217.508 110.505C216.849 110.324 216.019 109.677 215.018 108.562C213.035 109.923 211.507 110.457 210.433 110.162C208.954 109.758 208.445 108.717 208.904 107.04C208.781 107.007 208.905 105.983 209.274 103.968L209.415 104.006L209.317 103.812C210.072 101.052 210.794 99.7666 211.482 99.9549L211.637 99.9975ZM229.591 100.312C230.175 100.472 230.586 100.949 230.824 101.743L230.685 102.251C230.4 102.7 229.476 102.989 227.911 103.117L227.572 103.024L227.326 102.592L227.694 101.25C228.327 100.452 228.96 100.139 229.591 100.312ZM226.86 106.292C227.613 106.498 227.726 107.861 227.199 110.379L226.983 110.502L226.936 110.672C226.513 112.216 226.493 113.603 226.876 114.832L226.829 115.001C226.52 116.132 225.692 116.512 224.345 116.143L224.175 116.097C223.778 115.33 223.819 114.071 224.298 112.319L224.099 111.717L224.639 110.407L224.795 109.174L225.104 108.712L225.348 107.154L225.441 106.815C225.619 106.499 226.092 106.325 226.86 106.292ZM238.626 101.525C239.559 101.78 239.842 102.577 239.476 103.914L239.447 104.575C239.092 105.095 238.767 105.892 238.473 106.966L238.586 107.164L240.056 107.232L240.79 107.6C240.857 107.355 241.974 107.327 244.14 107.515L244.45 107.6L244.902 108.392L244.817 108.703C244.647 109.325 244.354 109.579 243.94 109.465L243.827 109.267L243.671 109.225C240.734 109.635 238.724 109.692 237.641 109.396L237.245 109.622L237.16 109.932L236.327 112.362C235.837 114.152 235.794 115.917 236.199 117.658L236.82 117.828L237.399 118.154C237.905 118.231 238.418 117.982 238.94 117.406L240.58 116.853L241.047 116.981L241.272 117.376L241.187 117.687C240.916 118.676 239.339 119.576 236.454 120.386L235.677 120.173C233.718 119.636 233.091 117.47 233.796 113.674L234.307 111.809L235.182 109.224L235.069 109.026L233.953 108.887L233.642 108.802C233.472 108.756 233.35 108.388 233.276 107.699C233.557 106.673 234.328 106.276 235.591 106.511L236.057 106.638C236.359 106.053 236.599 105.785 236.778 105.834L236.793 105.169L237.285 103.983L237.725 101.764L238.626 101.525ZM253.751 109.175L254.599 109.407L255.215 110.487L255.176 110.628C254.793 111.435 254.253 111.742 253.556 111.552L252.645 110.998C250.761 111.222 249.655 111.931 249.328 113.127L249.173 113.693C249.459 115.239 250.408 116.764 252.021 118.269C252.418 119.036 252.559 119.632 252.443 120.055L252.365 120.338C251.487 121.586 250.249 122.411 248.65 122.814C247.393 123.077 246.468 123.128 245.875 122.965L245.451 122.849C245.206 122.782 245.065 122.187 245.029 121.063C245.091 120.837 245.605 120.623 246.571 120.422L246.854 120.499L247.804 120.912C249.062 120.497 249.816 120.146 250.066 119.86L247.513 116.427C246.896 115.722 246.7 114.959 246.924 114.14C246.764 114.096 246.735 113.835 246.835 113.356L247.106 112.367C247.454 111.096 248.984 109.945 251.696 108.916L253.751 109.175Z" fill="#66C1EA"/>
<path d="M59.2272 49.973L59.7094 50.105L59.85 49.5915L59.3287 49.4834L59.2272 49.973ZM59.1808 50.1425L58.6985 50.0105L58.3969 51.1119L59.4108 50.5865L59.1808 50.1425ZM59.4109 50.0233L59.5429 49.541L59.3544 49.4894L59.1808 49.5794L59.4109 50.0233ZM65.8631 56.1337L66.3454 56.2657L66.362 56.2051L66.3631 56.1424L65.8631 56.1337ZM56.2812 61.4531L56.1491 61.9354L56.2729 61.9693L56.3977 61.9394L56.2812 61.4531ZM55.3349 62.1357L55.2029 62.6179L55.6851 62.75L55.8172 62.2677L55.3349 62.1357ZM55.1513 62.0854L55.2833 61.6031L54.6027 61.4168L54.6525 62.1207L55.1513 62.0854ZM55.1918 62.6584L55.674 62.7905L55.6966 62.7082L55.6905 62.6231L55.1918 62.6584ZM54.5745 68.3518L55.0567 68.4839L55.0819 68.3921L55.0715 68.2975L54.5745 68.3518ZM52.3654 70.2073L52.2334 70.6896L52.3847 70.731L52.5326 70.6785L52.3654 70.2073ZM51.5529 66.9625L51.1417 66.6781L51.0835 66.7621L51.063 66.8622L51.5529 66.9625ZM51.8797 66.4901L52.2909 66.7745L52.3972 66.6207L52.3766 66.4349L51.8797 66.4901ZM51.7702 65.5033L51.3105 65.3066L51.2587 65.4276L51.2732 65.5584L51.7702 65.5033ZM52.2763 64.3205L52.736 64.5172L52.7586 64.4643L52.7687 64.4075L52.2763 64.3205ZM52.4828 60.7928L52.1525 60.4174L51.7795 60.7457L52.1055 61.1208L52.4828 60.7928ZM52.9831 60.3526L53.3134 60.728L53.4786 60.5826L53.483 60.3626L52.9831 60.3526ZM53.0128 58.8572L52.5306 58.7252L52.5142 58.7851L52.5129 58.8472L53.0128 58.8572ZM53.4964 57.0912L53.9787 57.2232L53.9916 57.1759L53.9951 57.127L53.4964 57.0912ZM52.931 50.8916L52.4487 50.7596L52.3931 50.9626L52.4995 51.1443L52.931 50.8916ZM57.2018 51.8788L57.6361 51.6312L57.0383 50.5825L56.7195 51.7468L57.2018 51.8788ZM55.9487 52.2951L55.8922 51.7983L55.5559 51.8365L55.4665 52.163L55.9487 52.2951ZM55.9023 52.4646L55.42 52.3326L55.3848 52.4613L55.4184 52.5904L55.9023 52.4646ZM56.2721 53.8872L56.717 54.1154L56.804 53.9459L56.7561 53.7614L56.2721 53.8872ZM55.8486 54.7129L55.4037 54.4847L55.3372 54.6143L55.3508 54.7594L55.8486 54.7129ZM56.1384 57.8146L56.4032 58.2387L56.665 58.0753L56.6362 57.7681L56.1384 57.8146ZM55.9186 57.9518L55.6538 57.5277L55.488 57.6312L55.4363 57.8198L55.9186 57.9518ZM55.8722 58.1214L55.3899 57.9893L55.372 58.0546L55.3722 58.1223L55.8722 58.1214ZM55.8747 59.4434L55.3747 59.4443L55.3759 60.0932L56.003 59.9266L55.8747 59.4434ZM62.9813 56.2862L63.3626 56.6097L63.4343 56.5251L63.4635 56.4183L62.9813 56.2862ZM59.3069 52.4552L59.5081 51.9975L59.2778 51.8963L59.0593 52.0208L59.3069 52.4552ZM59.0909 52.5783L58.871 53.0274L59.1087 53.1438L59.3386 53.0127L59.0909 52.5783ZM58.2473 52.1651L58.4672 51.7161L58.381 51.6738L58.2853 51.6665L58.2473 52.1651ZM57.3249 52.0948L56.8905 52.3424L57.0221 52.5731L57.2869 52.5933L57.3249 52.0948ZM58.7449 49.8409L58.6985 50.0105L59.663 50.2746L59.7094 50.105L58.7449 49.8409ZM59.4108 50.5865L59.6409 50.4672L59.1808 49.5794L58.9507 49.6986L59.4108 50.5865ZM59.2788 50.5055L59.4483 50.552L59.7124 49.5875L59.5429 49.541L59.2788 50.5055ZM59.4483 50.552C61.5246 51.1205 63.019 51.8857 63.9827 52.8159C64.9312 53.7313 65.3858 54.8242 65.3632 56.125L66.3631 56.1424C66.3905 54.5611 65.823 53.2023 64.6772 52.0964C63.5467 51.0052 61.8747 50.1795 59.7124 49.5875L59.4483 50.552ZM65.3809 56.0016L65.2842 56.3548L66.2487 56.6189L66.3454 56.2657L65.3809 56.0016ZM65.2842 56.3548C65.078 57.1079 64.3165 57.9161 62.7686 58.7266C61.2405 59.5267 59.0462 60.2763 56.1647 60.9669L56.3977 61.9394C59.3136 61.2406 61.5988 60.4678 63.2324 59.6125C64.8462 58.7676 65.9287 57.7873 66.2487 56.6189L65.2842 56.3548ZM56.4132 60.9709C56.1324 60.894 55.8206 60.8618 55.5349 60.9726C55.2164 61.096 55.03 61.3561 54.9494 61.6504L55.9139 61.9145C55.923 61.8813 55.9303 61.8766 55.9239 61.8843C55.9155 61.8945 55.9035 61.9022 55.8963 61.905C55.8925 61.9064 55.9068 61.8999 55.9505 61.901C55.9946 61.9021 56.0596 61.9109 56.1491 61.9354L56.4132 60.9709ZM54.9494 61.6504L54.8527 62.0036L55.8172 62.2677L55.9139 61.9145L54.9494 61.6504ZM55.467 61.6534L55.2833 61.6031L55.0192 62.5676L55.2029 62.6179L55.467 61.6534ZM54.6525 62.1207L54.693 62.6937L55.6905 62.6231L55.65 62.0501L54.6525 62.1207ZM54.7095 62.5264C54.1079 64.7237 53.8896 66.687 54.0774 68.4061L55.0715 68.2975C54.9013 66.7393 55.0945 64.907 55.674 62.7905L54.7095 62.5264ZM54.0922 68.2198C53.9404 68.7743 53.3979 69.3103 52.1982 69.7361L52.5326 70.6785C53.8451 70.2127 54.7753 69.5117 55.0567 68.4839L54.0922 68.2198ZM52.4975 69.7251L51.9747 69.582L51.7106 70.5465L52.2334 70.6896L52.4975 69.7251ZM51.9747 69.582C51.9742 69.5818 51.9595 69.5837 51.9304 69.5328C51.8939 69.4687 51.8507 69.3429 51.8301 69.1223C51.7888 68.6802 51.8502 68.0029 52.0427 67.0628L51.063 66.8622C50.8648 67.83 50.7791 68.6236 50.8344 69.2154C50.8868 69.776 51.0961 70.3782 51.7106 70.5465L51.9747 69.582ZM51.9641 67.247L52.2909 66.7745L51.4685 66.2056L51.1417 66.6781L51.9641 67.247ZM52.3766 66.4349L52.2671 65.4481L51.2732 65.5584L51.3827 66.5452L52.3766 66.4349ZM52.2299 65.7L52.736 64.5172L51.8166 64.1238L51.3105 65.3066L52.2299 65.7ZM52.7687 64.4075C52.9542 63.3579 53.0675 62.5201 53.1036 61.9033C53.1216 61.5961 53.1215 61.3272 53.0967 61.1069C53.075 60.9132 53.0251 60.6545 52.8602 60.4648L52.1055 61.1208C52.0561 61.064 52.0843 61.0519 52.103 61.2186C52.1188 61.3587 52.1217 61.564 52.1053 61.8448C52.0726 62.4039 51.9671 63.1971 51.7839 64.2335L52.7687 64.4075ZM52.8132 61.1682L53.3134 60.728L52.6528 59.9773L52.1525 60.4174L52.8132 61.1682ZM53.483 60.3626L53.5127 58.8672L52.5129 58.8472L52.4832 60.3427L53.483 60.3626ZM53.4951 58.9892L53.9787 57.2232L53.0142 56.9591L52.5306 58.7252L53.4951 58.9892ZM53.9951 57.127C54.1078 55.5579 54.118 54.2349 54.0204 53.1648C53.9238 52.1052 53.7177 51.2457 53.3624 50.639L52.4995 51.1443C52.7445 51.5626 52.9327 52.2488 53.0246 53.2557C53.1154 54.2521 53.1082 55.5164 52.9977 57.0553L53.9951 57.127ZM53.4132 51.0237L53.6531 50.1477L52.6886 49.8836L52.4487 50.7596L53.4132 51.0237ZM53.6531 50.1477C53.6544 50.1429 53.657 50.133 53.6773 50.1144C53.7015 50.0921 53.7524 50.0569 53.8497 50.0208C54.0506 49.9461 54.3759 49.8938 54.8567 49.8904C55.8118 49.8837 57.228 50.0689 59.1256 50.4626L59.3287 49.4834C57.4132 49.0861 55.9133 48.8829 54.8497 48.8904C54.3211 48.8942 53.8613 48.9496 53.5014 49.0834C53.1361 49.2192 52.8029 49.4662 52.6886 49.8836L53.6531 50.1477ZM56.7195 51.7468C56.7342 51.6933 56.7584 51.655 56.7773 51.6317C56.7866 51.6203 56.7946 51.6124 56.7999 51.6077C56.8052 51.6029 56.8084 51.6007 56.8085 51.6006C56.8087 51.6005 56.8065 51.602 56.8014 51.6048C56.7964 51.6077 56.7891 51.6115 56.779 51.6161C56.7587 51.6256 56.7303 51.637 56.6922 51.6497C56.5323 51.7028 56.2722 51.7551 55.8922 51.7983L56.0052 52.7919C56.409 52.746 56.7496 52.6843 57.0075 52.5987C57.1358 52.556 57.2671 52.4999 57.3804 52.421C57.4917 52.3434 57.6287 52.2129 57.684 52.0108L56.7195 51.7468ZM55.4665 52.163L55.42 52.3326L56.3845 52.5967L56.431 52.4271L55.4665 52.163ZM55.4184 52.5904L55.7882 54.013L56.7561 53.7614L56.3862 52.3388L55.4184 52.5904ZM55.8273 53.659L55.4037 54.4847L56.2935 54.9411L56.717 54.1154L55.8273 53.659ZM55.3508 54.7594L55.6406 57.8611L56.6362 57.7681L56.3465 54.6664L55.3508 54.7594ZM55.8736 57.3904L55.6538 57.5277L56.1834 58.3759L56.4032 58.2387L55.8736 57.3904ZM55.4363 57.8198L55.3899 57.9893L56.3544 58.2534L56.4008 58.0839L55.4363 57.8198ZM55.3722 58.1223L55.3747 59.4443L56.3747 59.4424L56.3722 58.1204L55.3722 58.1223ZM56.003 59.9266C57.9222 59.417 59.4948 58.893 60.7124 58.3521C61.9186 57.8162 62.8256 57.2427 63.3626 56.6097L62.6 55.9628C62.21 56.4225 61.469 56.9217 60.3064 57.4382C59.1551 57.9496 57.6379 58.4578 55.7463 58.9601L56.003 59.9266ZM63.4635 56.4183L63.5099 56.2487L62.5454 55.9846L62.499 56.1542L63.4635 56.4183ZM63.5099 56.2487C63.7407 55.4058 63.388 54.6218 62.6958 53.9407C62.0113 53.2671 60.9332 52.6238 59.5081 51.9975L59.1057 52.913C60.4913 53.5219 61.4386 54.1066 61.9944 54.6535C62.5425 55.1928 62.6448 55.6219 62.5454 55.9846L63.5099 56.2487ZM59.0593 52.0208L58.8433 52.144L59.3386 53.0127L59.5545 52.8896L59.0593 52.0208ZM59.3109 52.1293L58.4672 51.7161L58.0273 52.6141L58.871 53.0274L59.3109 52.1293ZM58.2853 51.6665L57.3629 51.5962L57.2869 52.5933L58.2093 52.6636L58.2853 51.6665ZM57.7593 51.8471L57.6361 51.6312L56.7674 52.1264L56.8905 52.3424L57.7593 51.8471ZM70.9923 59.2999L71.1243 58.8176L70.9703 58.7755L70.8204 58.8303L70.9923 59.2999ZM71.1759 59.3502L71.3279 58.8738L71.318 58.8707L71.308 58.8679L71.1759 59.3502ZM72.2032 64.9168L71.7043 64.95L71.728 65.305L72.0712 65.399L72.2032 64.9168ZM72.5706 65.0173L72.4385 65.4996L72.7716 65.5908L72.9748 65.3116L72.5706 65.0173ZM74.4695 62.4086L74.2302 61.9696L74.1314 62.0235L74.0653 62.1144L74.4695 62.4086ZM77.6953 61.3327L77.9532 60.9043L77.894 60.8687L77.8274 60.8505L77.6953 61.3327ZM79.8541 63.4881L80.2264 63.8219L80.3052 63.734L80.3364 63.6202L79.8541 63.4881ZM78.0507 64.3612L77.8056 64.7971L77.8593 64.8272L77.9187 64.8435L78.0507 64.3612ZM77.3663 63.9764L77.6114 63.5406L77.5577 63.5104L77.4984 63.4942L77.3663 63.9764ZM72.8402 69.0248L72.4013 68.7852L72.3733 68.8364L72.3579 68.8927L72.8402 69.0248ZM72.2908 71.031L72.5385 71.4654L72.7184 71.3628L72.7731 71.163L72.2908 71.031ZM71.139 71.6876L70.8914 71.2532L70.7115 71.3558L70.6568 71.5556L71.139 71.6876ZM69.7964 67.9939L70.2941 68.0416L70.2956 68.0253L70.2961 68.009L69.7964 67.9939ZM69.3725 60.2233L68.8903 60.0912L68.8593 60.2045L68.8819 60.3197L69.3725 60.2233ZM69.4731 59.8559L69.3013 59.3864L69.059 59.4751L68.9909 59.7239L69.4731 59.8559ZM70.8602 59.7821L71.0439 59.8324L71.308 58.8679L71.1243 58.8176L70.8602 59.7821ZM71.0239 59.8265C70.94 59.7997 70.9159 59.7531 70.9362 59.7806C70.9536 59.8042 70.9858 59.859 71.0265 59.962C71.1077 60.1674 71.1928 60.4875 71.2763 60.9395C71.4421 61.8383 71.5858 63.1713 71.7043 64.95L72.7021 64.8835C72.5828 63.0938 72.4362 61.7148 72.2597 60.758C72.1719 60.2824 72.0728 59.8887 71.9566 59.5946C71.8986 59.4479 71.8289 59.3064 71.7411 59.1873C71.6562 59.0721 71.5236 58.9363 71.3279 58.8738L71.0239 59.8265ZM72.0712 65.399L72.4385 65.4996L72.7026 64.5351L72.3353 64.4345L72.0712 65.399ZM72.9748 65.3116L74.8738 62.7029L74.0653 62.1144L72.1663 64.7231L72.9748 65.3116ZM74.7088 62.8476C75.4938 62.4197 76.1322 62.128 76.6303 61.9619C77.1497 61.7886 77.4362 61.7802 77.5633 61.815L77.8274 60.8505C77.3987 60.7331 76.8697 60.8279 76.3139 61.0133C75.7367 61.2058 75.0401 61.5281 74.2302 61.9696L74.7088 62.8476ZM77.4374 61.7611C78.2124 62.2276 78.7448 62.6194 79.0617 62.9358C79.2203 63.0941 79.305 63.2142 79.3447 63.296C79.3823 63.3737 79.3643 63.3836 79.3719 63.3561L80.3364 63.6202C80.411 63.3477 80.3533 63.0842 80.2446 62.8599C80.1378 62.6396 79.9695 62.4291 79.7683 62.2281C79.3656 61.826 78.7515 61.385 77.9532 60.9043L77.4374 61.7611ZM79.4818 63.1544C78.8551 63.8534 78.4391 63.9492 78.1828 63.879L77.9187 64.8435C78.7549 65.0725 79.5411 64.5862 80.2264 63.8219L79.4818 63.1544ZM78.2958 63.9254L77.6114 63.5406L77.1213 64.4122L77.8056 64.7971L78.2958 63.9254ZM77.4984 63.4942C77.0762 63.3786 76.653 63.4812 76.264 63.6962C75.8787 63.9093 75.4885 64.2522 75.0925 64.6939C74.2993 65.5786 73.4025 66.9511 72.4013 68.7852L73.279 69.2643C74.2686 67.4517 75.1216 66.1595 75.8371 65.3614C76.1954 64.9617 76.4994 64.7088 76.7479 64.5714C76.9928 64.436 77.1431 64.4337 77.2343 64.4586L77.4984 63.4942ZM72.3579 68.8927L71.8086 70.8989L72.7731 71.163L73.3224 69.1568L72.3579 68.8927ZM72.0432 70.5966L70.8914 71.2532L71.3867 72.122L72.5385 71.4654L72.0432 70.5966ZM70.6568 71.5556C70.6311 71.6494 70.604 71.7133 70.5808 71.7545C70.5578 71.7953 70.543 71.8066 70.5438 71.8059C70.5475 71.8031 70.5569 71.7985 70.5653 71.7972C70.5706 71.7964 70.5577 71.7998 70.5189 71.7892L70.2548 72.7537C70.5562 72.8362 70.8818 72.8095 71.157 72.5959C71.4055 72.403 71.5415 72.1109 71.6213 71.8197L70.6568 71.5556ZM70.5189 71.7892L69.7842 71.588L69.5201 72.5525L70.2548 72.7537L70.5189 71.7892ZM69.7842 71.588C69.9399 71.6306 70.0186 71.7349 70.045 71.7759C70.0732 71.8198 70.0821 71.8528 70.0821 71.8529C70.0827 71.8549 70.0757 71.8274 70.0695 71.751C70.0579 71.605 70.056 71.3706 70.0678 71.0359C70.0913 70.3721 70.1662 69.3761 70.2941 68.0416L69.2986 67.9462C69.1703 69.2854 69.093 70.3057 69.0685 71.0006C69.0563 71.3453 69.0564 71.6259 69.0727 71.8306C69.0806 71.9295 69.0941 72.0363 69.1217 72.1315C69.1352 72.1781 69.1592 72.2474 69.2042 72.3174C69.2474 72.3843 69.3445 72.5044 69.5201 72.5525L69.7842 71.588ZM70.2961 68.009C70.395 64.7488 70.2544 62.1163 69.8631 60.1268L68.8819 60.3197C69.2525 62.2041 69.3944 64.752 69.2966 67.9787L70.2961 68.009ZM69.8548 60.3553L69.9554 59.988L68.9909 59.7239L68.8903 60.0912L69.8548 60.3553ZM69.645 60.3255L71.1641 59.7694L70.8204 58.8303L69.3013 59.3864L69.645 60.3255ZM90.0572 64.9302L90.1892 64.4479L90.1144 64.4275L90.0369 64.4306L90.0572 64.9302ZM93.6101 70.7023L94.0924 70.8344L94.1151 70.7514L94.1088 70.6657L93.6101 70.7023ZM90.3707 72.5491L90.2386 73.0313L90.2759 73.0416L90.3143 73.0459L90.3707 72.5491ZM88.5343 71.7122L89.0166 71.8442L89.1998 71.1751L88.5071 71.2129L88.5343 71.7122ZM88.0255 71.7399L87.8366 72.2028L87.9406 72.2453L88.0528 72.2392L88.0255 71.7399ZM86.7824 71.2325L86.9714 70.7695L86.4491 70.5564L86.3002 71.1004L86.7824 71.2325ZM86.3917 72.6594L85.9094 72.5274L85.8809 72.6317L85.898 72.7385L86.3917 72.6594ZM89.7376 77.3573L89.6055 77.8395L89.7199 77.8709L89.8361 77.8475L89.7376 77.3573ZM93.6733 75.5189L93.9484 75.1014L93.5254 74.8228L93.2523 75.2493L93.6733 75.5189ZM94.4033 76.5693L94.8855 76.7014L94.9174 76.585L94.8927 76.467L94.4033 76.5693ZM94.3607 76.7247L94.7535 77.0342L94.8162 76.9546L94.843 76.8568L94.3607 76.7247ZM87.2893 79.4207L87.0218 79.8431L87.085 79.8832L87.1573 79.9029L87.2893 79.4207ZM84.2458 75.5043L83.7548 75.5984L83.7605 75.6284L83.7699 75.6575L84.2458 75.5043ZM83.7776 69.7262L84.2774 69.7113L84.2698 69.4592L84.0626 69.3154L83.7776 69.7262ZM84.6997 67.5791L84.8938 68.0399L85.1177 67.9455L85.1819 67.7111L84.6997 67.5791ZM87.5438 67.8415L87.23 67.4522L87.1043 67.5536L87.0616 67.7094L87.5438 67.8415ZM90.6292 69.719L90.4729 70.194L90.9725 70.3584L91.1114 69.8511L90.6292 69.719ZM90.8033 69.0833L91.2855 69.2153L91.3167 69.1015L91.2937 68.9857L90.8033 69.0833ZM89.446 67.1625L89.7119 66.7391L89.6493 66.6998L89.578 66.6802L89.446 67.1625ZM89.9251 65.4124C90.864 65.6695 91.5887 66.2156 92.1161 67.0725C92.6517 67.9425 92.9949 69.1529 93.1115 70.739L94.1088 70.6657C93.9854 68.9865 93.6165 67.6022 92.9677 66.5483C92.3109 65.4811 91.379 64.7737 90.1892 64.4479L89.9251 65.4124ZM93.1279 70.5703L92.9963 71.0506L93.9608 71.3147L94.0924 70.8344L93.1279 70.5703ZM92.9963 71.0506C92.8831 71.4641 92.6492 71.7344 92.2721 71.9002C91.8687 72.0775 91.2687 72.1478 90.427 72.0523L90.3143 73.0459C91.2403 73.1509 92.0421 73.0937 92.6746 72.8156C93.3335 72.5259 93.7697 72.0127 93.9608 71.3147L92.9963 71.0506ZM90.5027 72.0669L89.3866 71.7612L89.1225 72.7257L90.2386 73.0313L90.5027 72.0669ZM89.3866 71.7612C89.2668 71.7284 89.1724 71.6963 89.1 71.6661C89.0261 71.6353 88.9862 71.611 88.9687 71.598C88.9497 71.584 88.975 71.5969 88.9987 71.6466C89.028 71.708 89.0338 71.7814 89.0166 71.8442L88.0521 71.5801C88.0065 71.7465 88.021 71.9198 88.0961 72.0772C88.1657 72.2231 88.2739 72.3282 88.375 72.4028C88.5706 72.5471 88.837 72.6476 89.1225 72.7257L89.3866 71.7612ZM88.5071 71.2129L87.9983 71.2406L88.0528 72.2392L88.5615 72.2114L88.5071 71.2129ZM88.2145 71.277L86.9714 70.7695L86.5934 71.6954L87.8366 72.2028L88.2145 71.277ZM86.3002 71.1004L85.9094 72.5274L86.8739 72.7915L87.2647 71.3645L86.3002 71.1004ZM85.898 72.7385C86.3359 75.4735 87.5296 77.2711 89.6055 77.8395L89.8696 76.875C88.3286 76.4531 87.2918 75.1188 86.8854 72.5804L85.898 72.7385ZM89.8361 77.8475C90.9136 77.6308 91.8113 77.3617 92.5162 77.0324C93.2164 76.7054 93.7668 76.3003 94.0944 75.7886L93.2523 75.2493C93.0669 75.5388 92.7048 75.8406 92.093 76.1264C91.486 76.4099 90.6724 76.6593 89.639 76.8671L89.8361 77.8475ZM93.3983 75.9365C93.6888 76.1278 93.8503 76.3676 93.9139 76.6716L94.8927 76.467C94.7722 75.8903 94.4471 75.4299 93.9484 75.1014L93.3983 75.9365ZM93.9211 76.4373L93.8785 76.5927L94.843 76.8568L94.8855 76.7014L93.9211 76.4373ZM93.968 76.4153C93.0077 77.634 91.9869 78.4273 90.9135 78.8366C89.8454 79.2438 88.6876 79.2852 87.4214 78.9385L87.1573 79.9029C88.6036 80.299 89.9807 80.2624 91.2698 79.771C92.5535 79.2816 93.7122 78.3556 94.7535 77.0342L93.968 76.4153ZM87.5568 78.9983C86.1618 78.1148 85.2217 76.9041 84.7218 75.351L83.7699 75.6575C84.3423 77.4356 85.4312 78.8358 87.0218 79.8431L87.5568 78.9983ZM84.7369 75.4102C84.5114 74.2336 84.356 72.3412 84.2774 69.7113L83.2778 69.7412C83.3566 72.3789 83.5133 74.3386 83.7548 75.5984L84.7369 75.4102ZM84.0626 69.3154C84.0307 69.2933 84.0091 69.2677 83.9967 69.2051C83.9811 69.1266 83.9819 68.9876 84.0425 68.766L83.0781 68.5019C82.9138 69.1017 82.9384 69.7526 83.4926 70.1371L84.0626 69.3154ZM84.0425 68.766C84.1025 68.5471 84.3156 68.2834 84.8938 68.0399L84.5055 67.1183C83.8019 67.4147 83.2554 67.8543 83.0781 68.5019L84.0425 68.766ZM85.1819 67.7111C85.362 67.0536 85.8081 66.5261 86.5972 66.1359C87.4018 65.7381 88.5505 65.4919 90.0775 65.4298L90.0369 64.4306C88.441 64.4955 87.1352 64.7543 86.154 65.2395C85.1573 65.7323 84.4861 66.4657 84.2174 67.447L85.1819 67.7111ZM87.0616 67.7094L87.019 67.8648L87.9835 68.1289L88.0261 67.9735L87.0616 67.7094ZM87.019 67.8648C86.9229 68.2159 87.1 68.5054 87.2651 68.6832C87.4346 68.8657 87.6771 69.0303 87.9551 69.1833C88.5182 69.4934 89.3649 69.8295 90.4729 70.194L90.7855 69.2441C89.6921 68.8844 88.9169 68.5713 88.4374 68.3073C88.194 68.1733 88.0601 68.0697 87.9979 68.0027C87.9313 67.931 88.0216 67.9898 87.9835 68.1289L87.019 67.8648ZM91.1114 69.8511L91.2855 69.2153L90.321 68.9512L90.147 69.587L91.1114 69.8511ZM91.2937 68.9857C91.1033 68.0286 90.5638 67.2742 89.7119 66.7391L89.18 67.5859C89.814 67.9841 90.1795 68.5103 90.3129 69.1808L91.2937 68.9857ZM89.578 66.6802C88.8101 66.47 88.0052 66.8273 87.23 67.4522L87.8577 68.2307C88.5637 67.6615 89.0269 67.5661 89.3139 67.6447L89.578 66.6802ZM102.313 70.4123L102.795 70.2787L102.719 70.0051L102.445 69.9301L102.313 70.4123ZM102.607 75.8844L102.475 76.3666L102.795 76.4542L103 76.1937L102.607 75.8844ZM106.046 72.2546L106.079 71.7557L105.884 71.7427L105.732 71.8658L106.046 72.2546ZM106.851 72.3081L107.177 71.9287L107.051 71.8202L106.885 71.8091L106.851 72.3081ZM108.182 75.7705L107.699 75.6385L107.646 75.8339L107.743 76.0114L108.182 75.7705ZM108.506 76.3606L108.068 76.6015L108.17 76.7869L108.374 76.8428L108.506 76.3606ZM108.661 76.4031L108.529 76.8854L108.77 76.9513L108.968 76.7983L108.661 76.4031ZM112.944 74.4623L113.341 74.1576L113.238 74.0244L113.076 73.9801L112.944 74.4623ZM114.09 78.0415L113.608 77.9095L113.476 78.3917L113.958 78.5238L114.09 78.0415ZM113.792 80.9062L113.303 80.8017L113.274 80.9357L113.318 81.0656L113.792 80.9062ZM114.152 81.9768L114.634 82.1088L114.674 81.9619L114.626 81.8174L114.152 81.9768ZM114.067 82.2876L114.396 82.6639L114.509 82.5648L114.549 82.4197L114.067 82.2876ZM112.184 83.23L112.052 83.7122L112.148 83.7387L112.247 83.7259L112.184 83.23ZM110.948 81.7526L110.466 81.6205L110.435 81.733L110.457 81.8475L110.948 81.7526ZM111.377 77.7998L111.862 77.6773L111.791 77.3946L111.509 77.3176L111.377 77.7998ZM110.925 77.676L111.057 77.1938L110.904 77.1519L110.755 77.2058L110.925 77.676ZM108.232 80.3559L108.1 80.8381L108.435 80.9297L108.638 80.6483L108.232 80.3559ZM106.653 80.7435L106.583 81.2386L106.757 81.2632L106.909 81.1732L106.653 80.7435ZM105.395 80.5663L104.95 80.7929L105.068 81.025L105.325 81.0614L105.395 80.5663ZM105.296 80.3722L104.814 80.2401L104.763 80.4266L104.851 80.5988L105.296 80.3722ZM105.629 79.1571L106.111 79.2892L106.123 79.2458L106.127 79.201L105.629 79.1571ZM105.387 75.8255L105.519 75.3433L105.195 75.2544L104.99 75.5215L105.387 75.8255ZM103.118 78.7884L102.721 78.4844L102.661 78.562L102.636 78.6564L103.118 78.7884ZM100.277 80.7898L100.144 81.272L100.272 81.307L100.4 81.2742L100.277 80.7898ZM99.8244 80.666L99.39 80.9136L99.4926 81.0935L99.6924 81.1482L99.8244 80.666ZM99.3832 79.8921L98.901 79.7601L98.8463 79.9598L98.9489 80.1397L99.3832 79.8921ZM99.7585 78.5217L100.241 78.6537L100.252 78.6119L100.256 78.5687L99.7585 78.5217ZM100.358 72.1704L99.8762 72.0384L99.8648 72.0802L99.8607 72.1234L100.358 72.1704ZM100.486 71.7042L100.013 71.5438L100.008 71.5579L100.004 71.5722L100.486 71.7042ZM101.831 70.5459C102.302 72.2438 102.341 73.7431 101.98 75.0597L102.945 75.3238C103.363 73.7959 103.302 72.1088 102.795 70.2787L101.831 70.5459ZM101.98 75.0597C101.918 75.2877 101.878 75.5388 101.926 75.7708C101.952 75.8947 102.006 76.0267 102.107 76.1411C102.211 76.2579 102.341 76.3299 102.475 76.3666L102.739 75.4021C102.769 75.4104 102.815 75.4324 102.855 75.4772C102.893 75.5197 102.903 75.5581 102.905 75.5666C102.906 75.5726 102.902 75.5576 102.907 75.5119C102.911 75.4676 102.922 75.4058 102.945 75.3238L101.98 75.0597ZM103 76.1937C104.212 74.6536 105.333 73.4743 106.36 72.6434L105.732 71.8658C104.626 72.7594 103.454 73.9999 102.214 75.5751L103 76.1937ZM106.013 72.7535L106.818 72.807L106.885 71.8091L106.079 71.7557L106.013 72.7535ZM106.526 72.6874C107.097 73.1775 107.455 73.6653 107.64 74.1447C107.821 74.617 107.844 75.1094 107.699 75.6385L108.664 75.9026C108.862 75.179 108.835 74.4679 108.573 73.7861C108.314 73.1113 107.836 72.4942 107.177 71.9287L106.526 72.6874ZM107.743 76.0114L108.068 76.6015L108.944 76.1196L108.62 75.5296L107.743 76.0114ZM108.374 76.8428L108.529 76.8854L108.793 75.9209L108.638 75.8783L108.374 76.8428ZM108.968 76.7983C109.949 76.0381 110.738 75.5018 111.341 75.1768C111.643 75.0142 111.883 74.9125 112.067 74.8597C112.26 74.8046 112.344 74.8163 112.36 74.8208L112.624 73.8563C112.353 73.7821 112.062 73.8209 111.792 73.8984C111.513 73.9783 111.203 74.1151 110.866 74.2965C110.192 74.6597 109.353 75.2344 108.355 76.0079L108.968 76.7983ZM112.36 74.8208L112.812 74.9446L113.076 73.9801L112.624 73.8563L112.36 74.8208ZM112.548 74.7671C113.556 76.0786 113.828 77.1071 113.608 77.9095L114.573 78.1736C114.915 76.9226 114.423 75.565 113.341 74.1576L112.548 74.7671ZM113.958 78.5238C113.778 78.4745 113.708 78.3399 113.693 78.3062C113.678 78.2708 113.681 78.2594 113.685 78.2995C113.693 78.3747 113.691 78.5172 113.667 78.7465C113.62 79.1965 113.501 79.878 113.303 80.8017L114.281 81.0108C114.48 80.0788 114.609 79.355 114.661 78.8501C114.687 78.602 114.698 78.3796 114.681 78.2025C114.672 78.1166 114.654 78.0071 114.608 77.9019C114.562 77.7984 114.452 77.6221 114.222 77.5593L113.958 78.5238ZM113.318 81.0656L113.678 82.1361L114.626 81.8174L114.266 80.7469L113.318 81.0656ZM113.67 81.8447L113.585 82.1556L114.549 82.4197L114.634 82.1088L113.67 81.8447ZM113.738 81.9113C113.164 82.4135 112.625 82.6693 112.12 82.7341L112.247 83.7259C113.002 83.6292 113.718 83.2568 114.396 82.6639L113.738 81.9113ZM112.316 82.7477L111.553 82.5388L111.289 83.5033L112.052 83.7122L112.316 82.7477ZM111.553 82.5388C111.684 82.5748 111.73 82.6589 111.714 82.6358C111.707 82.6244 111.684 82.5841 111.651 82.4965C111.587 82.3238 111.515 82.0494 111.439 81.6576L110.457 81.8475C110.536 82.2576 110.621 82.5955 110.714 82.8457C110.76 82.9695 110.816 83.0933 110.888 83.1985C110.952 83.2921 111.077 83.4455 111.289 83.5033L111.553 82.5388ZM111.43 81.8846L111.554 81.4325L110.59 81.1684L110.466 81.6205L111.43 81.8846ZM111.554 81.4325C111.973 79.9011 112.103 78.6317 111.862 77.6773L110.893 77.9224C111.069 78.6214 110.996 79.6858 110.59 81.1684L111.554 81.4325ZM111.509 77.3176L111.057 77.1938L110.793 78.1583L111.245 78.2821L111.509 77.3176ZM110.755 77.2058C110.311 77.3664 109.853 77.7118 109.385 78.1773C108.91 78.6501 108.39 79.2816 107.827 80.0634L108.638 80.6483C109.184 79.8912 109.668 79.3067 110.09 78.8862C110.52 78.4584 110.854 78.2333 111.095 78.1463L110.755 77.2058ZM108.364 79.8736C107.745 79.704 107.069 79.9139 106.397 80.3139L106.909 81.1732C107.495 80.8241 107.872 80.7756 108.1 80.8381L108.364 79.8736ZM106.723 80.2484L105.465 80.0712L105.325 81.0614L106.583 81.2386L106.723 80.2484ZM105.841 80.3396L105.742 80.1455L104.851 80.5988L104.95 80.7929L105.841 80.3396ZM105.779 80.5042L106.111 79.2892L105.147 79.0251L104.814 80.2401L105.779 80.5042ZM106.127 79.201C106.221 78.1334 106.263 77.3049 106.248 76.7275C106.24 76.4425 106.218 76.1923 106.172 75.9968C106.15 75.9004 106.115 75.7894 106.055 75.6879C105.997 75.5886 105.88 75.4421 105.675 75.3858L105.411 76.3503C105.266 76.3108 105.204 76.2132 105.193 76.195C105.181 76.1746 105.188 76.1769 105.199 76.2259C105.221 76.3212 105.241 76.4906 105.248 76.7538C105.262 77.2727 105.224 78.0552 105.131 79.1133L106.127 79.201ZM105.675 75.3858L105.519 75.3433L105.255 76.3078L105.411 76.3503L105.675 75.3858ZM104.99 75.5215L102.721 78.4844L103.515 79.0924L105.784 76.1295L104.99 75.5215ZM102.636 78.6564C102.461 79.2928 101.761 79.8939 100.153 80.3054L100.4 81.2742C102.08 80.8445 103.274 80.1113 103.6 78.9205L102.636 78.6564ZM100.409 80.3075L99.9565 80.1837L99.6924 81.1482L100.144 81.272L100.409 80.3075ZM100.259 80.4183L99.8176 79.6445L98.9489 80.1397L99.39 80.9136L100.259 80.4183ZM99.8655 80.0242L100.241 78.6537L99.2762 78.3896L98.901 79.7601L99.8655 80.0242ZM100.256 78.5687L100.856 72.2175L99.8607 72.1234L99.2607 78.4746L100.256 78.5687ZM100.841 72.3025L100.968 71.8362L100.004 71.5722L99.8762 72.0384L100.841 72.3025ZM100.96 71.8646C101.128 71.3667 101.327 71.0985 101.509 70.9694C101.669 70.8563 101.873 70.8102 102.181 70.8946L102.445 69.9301C101.906 69.7823 101.381 69.8355 100.932 70.1529C100.505 70.4545 100.214 70.9483 100.013 71.5438L100.96 71.8646ZM126.195 73.0938L126.677 73.2259L126.715 73.0876L126.674 72.9502L126.195 73.0938ZM126.056 73.6025L126.478 73.8705L126.518 73.807L126.538 73.7345L126.056 73.6025ZM123.282 74.4682L123.15 74.9504L123.235 74.9737L123.323 74.9665L123.282 74.4682ZM122.943 74.3753L122.509 74.6229L122.611 74.8029L122.811 74.8576L122.943 74.3753ZM122.697 73.9434L122.215 73.8113L122.16 74.0111L122.263 74.191L122.697 73.9434ZM123.065 72.6012L122.673 72.2903L122.609 72.3705L122.582 72.4691L123.065 72.6012ZM122.231 77.643L122.363 77.1608L122.288 77.1401L122.21 77.1435L122.231 77.643ZM122.57 81.7301L122.817 82.1645L123.013 82.053L123.059 81.8327L122.57 81.7301ZM122.354 81.8533L122.106 81.4189L121.926 81.5215L121.871 81.7212L122.354 81.8533ZM122.247 86.1828L122.729 86.3148L122.767 86.1738L122.724 86.0342L122.247 86.1828ZM119.546 87.4481L119.102 87.6782L119.203 87.8725L119.414 87.9303L119.546 87.4481ZM119.669 83.6698L120.152 83.8018L120.192 83.6558L120.144 83.5121L119.669 83.6698ZM119.469 83.0683L119.007 82.8775L118.936 83.0494L118.995 83.2259L119.469 83.0683ZM120.01 81.7584L120.473 81.9492L120.498 81.8873L120.506 81.8209L120.01 81.7584ZM120.166 80.5252L119.75 80.2474L119.684 80.3456L119.67 80.4627L120.166 80.5252ZM120.475 80.063L120.89 80.3408L120.952 80.2492L120.969 80.1405L120.475 80.063ZM120.719 78.5048L120.237 78.3728L120.229 78.3997L120.225 78.4274L120.719 78.5048ZM120.812 78.1657L120.376 77.9207L120.346 77.9743L120.33 78.0337L120.812 78.1657ZM124.83 72.1449C125.189 72.2433 125.507 72.5406 125.716 73.2375L126.674 72.9502C126.407 72.0586 125.902 71.4018 125.094 71.1804L124.83 72.1449ZM125.713 72.9618L125.573 73.4704L126.538 73.7345L126.677 73.2259L125.713 72.9618ZM125.634 73.3344C125.589 73.4044 125.432 73.5432 125 73.678C124.587 73.8067 124.006 73.9069 123.241 73.9698L123.323 74.9665C124.122 74.9008 124.786 74.7924 125.298 74.6326C125.79 74.4788 126.237 74.249 126.478 73.8705L125.634 73.3344ZM123.414 73.9859L123.075 73.8931L122.811 74.8576L123.15 74.9504L123.414 73.9859ZM123.378 74.1277L123.131 73.6958L122.263 74.191L122.509 74.6229L123.378 74.1277ZM123.179 74.0754L123.547 72.7332L122.582 72.4691L122.215 73.8113L123.179 74.0754ZM123.456 72.912C124.044 72.1715 124.49 72.0518 124.83 72.1449L125.094 71.1804C124.172 70.9279 123.353 71.4339 122.673 72.2903L123.456 72.912ZM122.099 78.1253C122.146 78.1381 122.329 78.2165 122.382 78.8608C122.433 79.4686 122.341 80.3818 122.08 81.6276L123.059 81.8327C123.326 80.56 123.441 79.5329 123.379 78.7782C123.319 78.0602 123.069 77.3542 122.363 77.1608L122.099 78.1253ZM122.322 81.2958L122.106 81.4189L122.601 82.2876L122.817 82.1645L122.322 81.2958ZM121.871 81.7212L121.825 81.8908L122.79 82.1549L122.836 81.9853L121.871 81.7212ZM121.825 81.8908C121.383 83.5051 121.352 84.9916 121.769 86.3314L122.724 86.0342C122.376 84.9167 122.386 83.63 122.79 82.1549L121.825 81.8908ZM121.764 86.0507L121.718 86.2203L122.682 86.4844L122.729 86.3148L121.764 86.0507ZM121.718 86.2203C121.59 86.6867 121.381 86.9194 121.138 87.0313C120.875 87.1523 120.465 87.1814 119.848 87.0123L119.583 87.9768C120.313 88.1764 120.991 88.1996 121.556 87.9399C122.141 87.671 122.501 87.1482 122.682 86.4844L121.718 86.2203ZM119.848 87.0123L119.678 86.9658L119.414 87.9303L119.583 87.9768L119.848 87.0123ZM119.99 87.218C119.845 86.9375 119.759 86.5254 119.778 85.9446C119.797 85.367 119.918 84.655 120.152 83.8018L119.187 83.5377C118.941 84.4364 118.801 85.2301 118.779 85.912C118.757 86.5906 118.85 87.1917 119.102 87.6782L119.99 87.218ZM120.144 83.5121L119.944 82.9107L118.995 83.2259L119.195 83.8274L120.144 83.5121ZM119.932 83.2591L120.473 81.9492L119.548 81.5675L119.007 82.8775L119.932 83.2591ZM120.506 81.8209L120.662 80.5877L119.67 80.4627L119.514 81.6959L120.506 81.8209ZM120.582 80.803L120.89 80.3408L120.059 79.7852L119.75 80.2474L120.582 80.803ZM120.969 80.1405L121.213 78.5823L120.225 78.4274L119.981 79.9855L120.969 80.1405ZM121.201 78.6369L121.294 78.2978L120.33 78.0337L120.237 78.3728L121.201 78.6369ZM121.248 78.4108C121.259 78.3906 121.304 78.3293 121.473 78.2673C121.642 78.2049 121.895 78.1577 122.252 78.1426L122.21 77.1435C121.798 77.1609 121.431 77.2171 121.127 77.329C120.822 77.4412 120.542 77.625 120.376 77.9207L121.248 78.4108ZM131.247 77.9854L131.681 77.7378L131.578 77.5578L131.379 77.5031L131.247 77.9854ZM131.996 79.2992L132.416 79.569L132.58 79.3144L132.43 79.0515L131.996 79.2992ZM131.73 79.7126L131.31 79.4427L131.261 79.5185L131.242 79.6066L131.73 79.7126ZM130.866 86.3102L130.379 86.4252L130.447 86.7141L130.733 86.7925L130.866 86.3102ZM131.318 86.434L131.186 86.9162L131.316 86.9519L131.446 86.9171L131.318 86.434ZM135.87 80.8461L136.352 80.9781L136.374 80.8975L136.369 80.8142L135.87 80.8461ZM135.838 80.3514L135.356 80.2194L135.334 80.2999L135.339 80.3833L135.838 80.3514ZM137.77 82.0043L138.018 82.4386L138.232 82.3164L138.266 82.0719L137.77 82.0043ZM137.59 82.1069L137.343 81.6725L137.163 81.7751L137.108 81.9748L137.59 82.1069ZM137.548 82.2623L137.066 82.1302L137.053 82.176L137.049 82.2233L137.548 82.2623ZM139.862 87.1788L140.357 87.2451L140.415 86.812L139.994 86.6966L139.862 87.1788ZM139.717 88.263L139.894 88.7304L140.173 88.6246L140.212 88.3293L139.717 88.263ZM134.627 86.5504L134.999 86.2163L134.706 85.8899L134.344 86.1382L134.627 86.5504ZM128.513 85.0282L128.995 85.1603L129.127 84.678L128.645 84.546L128.513 85.0282ZM128.884 81.9555L129.016 81.4732L128.49 81.3293L128.392 81.8653L128.884 81.9555ZM129.025 81.9941L128.893 82.4764L129.983 82.7749L129.471 81.7675L129.025 81.9941ZM128.926 81.8L128.444 81.668L128.393 81.8544L128.481 82.0267L128.926 81.8ZM130.812 78.233L131.561 79.5468L132.43 79.0515L131.681 77.7378L130.812 78.233ZM131.575 79.0293L131.31 79.4427L132.151 79.9825L132.416 79.569L131.575 79.0293ZM131.242 79.6066C130.854 81.3951 130.585 82.8513 130.438 83.9706C130.295 85.0639 130.257 85.9079 130.379 86.4252L131.352 86.1952C131.277 85.8789 131.285 85.2065 131.43 84.1006C131.571 83.0207 131.834 81.5949 132.219 79.8186L131.242 79.6066ZM130.733 86.7925L131.186 86.9162L131.45 85.9518L130.998 85.828L130.733 86.7925ZM131.446 86.9171C133.863 86.2731 135.467 84.2107 136.352 80.9781L135.388 80.714C134.55 83.7733 133.12 85.4362 131.189 85.9509L131.446 86.9171ZM136.369 80.8142L136.337 80.3195L135.339 80.3833L135.371 80.878L136.369 80.8142ZM136.321 80.4835C136.374 80.2883 136.446 80.2377 136.488 80.2181C136.548 80.1898 136.691 80.1615 136.978 80.2401L137.242 79.2756C136.841 79.1659 136.428 79.1424 136.065 79.312C135.683 79.4903 135.463 79.8306 135.356 80.2194L136.321 80.4835ZM136.978 80.2401L137.43 80.3639L137.694 79.3994L137.242 79.2756L136.978 80.2401ZM137.43 80.3639C137.329 80.3364 137.298 80.2678 137.306 80.2837C137.317 80.3068 137.342 80.378 137.356 80.527C137.385 80.8216 137.364 81.284 137.275 81.9366L138.266 82.0719C138.358 81.3972 138.392 80.8421 138.352 80.4292C138.332 80.2244 138.29 80.0193 138.204 79.8436C138.114 79.6607 137.954 79.4708 137.694 79.3994L137.43 80.3639ZM137.523 81.5699L137.343 81.6725L137.838 82.5412L138.018 82.4386L137.523 81.5699ZM137.108 81.9748L137.066 82.1302L138.03 82.3943L138.073 82.2389L137.108 81.9748ZM137.049 82.2233C136.939 83.6284 136.914 84.7256 136.98 85.4984C137.013 85.8816 137.071 86.2163 137.17 86.4778C137.26 86.7182 137.436 87.0331 137.794 87.1311L138.058 86.1666C138.181 86.2001 138.165 86.2838 138.106 86.1265C138.055 85.9902 138.007 85.7604 137.977 85.4125C137.917 84.7231 137.938 83.6915 138.046 82.3013L137.049 82.2233ZM137.794 87.1311L139.73 87.6611L139.994 86.6966L138.058 86.1666L137.794 87.1311ZM139.366 87.1125L139.221 88.1967L140.212 88.3293L140.357 87.2451L139.366 87.1125ZM139.539 87.7956C138.65 88.1334 137.894 88.1872 137.25 88.0107L136.985 88.9752C137.886 89.2216 138.863 89.1221 139.894 88.7304L139.539 87.7956ZM137.25 88.0107C136.742 87.8718 135.996 87.3263 134.999 86.2163L134.255 86.8845C135.26 88.0035 136.174 88.753 136.985 88.9752L137.25 88.0107ZM134.344 86.1382C133.374 86.8043 132.537 87.252 131.829 87.4989C131.12 87.7466 130.579 87.7788 130.175 87.6682L129.911 88.6327C130.58 88.816 131.341 88.7286 132.159 88.443C132.98 88.1565 133.898 87.6572 134.91 86.9626L134.344 86.1382ZM130.175 87.6682C129.527 87.4907 129.173 87.1994 129 86.8462C128.82 86.4787 128.782 85.9381 128.995 85.1603L128.031 84.8962C127.785 85.7949 127.772 86.613 128.102 87.2862C128.439 87.9737 129.08 88.4053 129.911 88.6327L130.175 87.6682ZM128.645 84.546C128.81 84.5911 128.894 84.7046 128.925 84.7586C128.957 84.8125 128.966 84.8557 128.967 84.8633C128.971 84.8808 128.967 84.8726 128.967 84.8178C128.968 84.7162 128.98 84.5459 129.01 84.2947C129.07 83.7984 129.191 83.0508 129.376 82.0456L128.392 81.8653C128.207 82.8751 128.081 83.6471 128.018 84.175C127.986 84.436 127.968 84.654 127.967 84.8168C127.967 84.8942 127.971 84.9873 127.99 85.0751C127.999 85.1179 128.018 85.1885 128.061 85.2621C128.104 85.3357 128.201 85.4612 128.381 85.5105L128.645 84.546ZM128.752 82.4377L128.893 82.4764L129.157 81.5119L129.016 81.4732L128.752 82.4377ZM129.471 81.7675L129.372 81.5734L128.481 82.0267L128.579 82.2208L129.471 81.7675ZM129.409 81.9321C129.784 80.5621 130.14 79.5987 130.47 79.0107C130.637 78.7143 130.776 78.5507 130.876 78.4725C130.923 78.436 130.95 78.4272 130.957 78.4254C130.96 78.4245 130.958 78.4248 130.959 78.4251L131.223 77.4606C130.861 77.3614 130.528 77.4766 130.262 77.6835C130.01 77.8797 129.793 78.1747 129.598 78.5212C129.207 79.2189 128.825 80.2783 128.444 81.668L129.409 81.9321ZM130.959 78.4251L131.114 78.4676L131.379 77.5031L131.223 77.4606L130.959 78.4251ZM146.795 82.5921L147.277 82.4585L147.201 82.1848L146.927 82.1098L146.795 82.5921ZM147.089 88.0641L146.957 88.5464L147.276 88.6339L147.482 88.3734L147.089 88.0641ZM150.528 84.4343L150.561 83.9354L150.366 83.9224L150.213 84.0455L150.528 84.4343ZM151.333 84.4878L151.659 84.1084L151.533 83.9999L151.366 83.9889L151.333 84.4878ZM152.663 87.9503L152.181 87.8182L152.128 88.0137L152.225 88.1912L152.663 87.9503ZM152.988 88.5403L152.55 88.7812L152.652 88.9667L152.856 89.0226L152.988 88.5403ZM153.143 88.5829L153.011 89.0651L153.252 89.1311L153.449 88.9781L153.143 88.5829ZM157.426 86.6421L157.822 86.3373L157.72 86.2042L157.558 86.1598L157.426 86.6421ZM158.572 90.2213L158.09 90.0892L157.958 90.5715L158.44 90.7035L158.572 90.2213ZM158.274 93.086L157.785 92.9814L157.756 93.1154L157.8 93.2453L158.274 93.086ZM158.634 94.1565L159.116 94.2886L159.156 94.1416L159.108 93.9972L158.634 94.1565ZM158.549 94.4674L158.878 94.8437L158.991 94.7446L159.031 94.5994L158.549 94.4674ZM156.665 95.4098L156.533 95.892L156.63 95.9184L156.729 95.9057L156.665 95.4098ZM155.43 93.9323L154.948 93.8003L154.917 93.9128L154.939 94.0273L155.43 93.9323ZM155.859 89.9796L156.344 89.857L156.272 89.5743L155.991 89.4973L155.859 89.9796ZM155.407 89.8558L155.539 89.3735L155.386 89.3317L155.237 89.3855L155.407 89.8558ZM152.714 92.5356L152.582 93.0179L152.917 93.1095L153.119 92.8281L152.714 92.5356ZM151.135 92.9233L151.065 93.4184L151.239 93.443L151.39 93.3529L151.135 92.9233ZM149.877 92.746L149.431 92.9727L149.549 93.2048L149.807 93.2411L149.877 92.746ZM149.778 92.5519L149.296 92.4199L149.245 92.6063L149.333 92.7786L149.778 92.5519ZM150.111 91.3369L150.593 91.4689L150.605 91.4255L150.609 91.3807L150.111 91.3369ZM149.869 88.0053L150.001 87.523L149.677 87.4342L149.472 87.7012L149.869 88.0053ZM147.6 90.9682L147.203 90.6642L147.143 90.7418L147.117 90.8361L147.6 90.9682ZM144.758 92.9695L144.626 93.4518L144.754 93.4867L144.882 93.4539L144.758 92.9695ZM144.306 92.8457L143.872 93.0934L143.974 93.2733L144.174 93.328L144.306 92.8457ZM143.865 92.0719L143.383 91.9398L143.328 92.1396L143.431 92.3195L143.865 92.0719ZM144.24 90.7014L144.723 90.8335L144.734 90.7916L144.738 90.7484L144.24 90.7014ZM144.84 84.3502L144.358 84.2181L144.347 84.26L144.342 84.3032L144.84 84.3502ZM144.968 83.884L144.494 83.7236L144.49 83.7376L144.486 83.7519L144.968 83.884ZM146.313 82.7256C146.784 84.4236 146.822 85.9229 146.462 87.2394L147.426 87.5035C147.845 85.9756 147.784 84.2886 147.277 82.4585L146.313 82.7256ZM146.462 87.2394C146.4 87.4674 146.359 87.7186 146.408 87.9505C146.434 88.0744 146.488 88.2065 146.589 88.3209C146.693 88.4376 146.823 88.5097 146.957 88.5464L147.221 87.5819C147.251 87.5902 147.297 87.6121 147.337 87.6569C147.375 87.6995 147.385 87.7378 147.387 87.7463C147.388 87.7524 147.384 87.7373 147.388 87.6917C147.393 87.6474 147.404 87.5855 147.426 87.5035L146.462 87.2394ZM147.482 88.3734C148.694 86.8334 149.815 85.6541 150.842 84.8231L150.213 84.0455C149.108 84.9391 147.936 86.1797 146.696 87.7548L147.482 88.3734ZM150.495 84.9332L151.3 84.9867L151.366 83.9889L150.561 83.9354L150.495 84.9332ZM151.008 84.8672C151.578 85.3572 151.937 85.845 152.121 86.3244C152.303 86.7968 152.326 87.2891 152.181 87.8182L153.146 88.0823C153.344 87.3587 153.317 86.6476 153.055 85.9658C152.796 85.2911 152.318 84.674 151.659 84.1084L151.008 84.8672ZM152.225 88.1912L152.55 88.7812L153.426 88.2994L153.101 87.7094L152.225 88.1912ZM152.856 89.0226L153.011 89.0651L153.275 88.1006L153.12 88.0581L152.856 89.0226ZM153.449 88.9781C154.431 88.2179 155.219 87.6816 155.822 87.3566C156.124 87.1939 156.365 87.0923 156.549 87.0395C156.741 86.9843 156.825 86.996 156.842 87.0005L157.106 86.036C156.835 85.9619 156.544 86.0006 156.273 86.0782C155.995 86.1581 155.685 86.2949 155.348 86.4763C154.674 86.8395 153.835 87.4142 152.837 88.1876L153.449 88.9781ZM156.842 87.0005L157.294 87.1243L157.558 86.1598L157.106 86.036L156.842 87.0005ZM157.03 86.9468C158.038 88.2584 158.31 89.2869 158.09 90.0892L159.054 90.3533C159.397 89.1023 158.904 87.7447 157.822 86.3373L157.03 86.9468ZM158.44 90.7035C158.26 90.6542 158.19 90.5196 158.175 90.486C158.159 90.4506 158.163 90.4391 158.167 90.4793C158.174 90.5545 158.173 90.6969 158.149 90.9263C158.102 91.3763 157.982 92.0577 157.785 92.9814L158.763 93.1905C158.962 92.2586 159.091 91.5348 159.143 91.0299C159.169 90.7818 159.18 90.5593 159.162 90.3823C159.154 90.2963 159.136 90.1869 159.09 90.0817C159.044 89.9782 158.934 89.8019 158.704 89.739L158.44 90.7035ZM157.8 93.2453L158.16 94.3159L159.108 93.9972L158.748 92.9266L157.8 93.2453ZM158.151 94.0245L158.066 94.3353L159.031 94.5994L159.116 94.2886L158.151 94.0245ZM158.219 94.0911C157.645 94.5932 157.107 94.8491 156.602 94.9138L156.729 95.9057C157.483 95.809 158.2 95.4366 158.878 94.8437L158.219 94.0911ZM156.798 94.9275L156.035 94.7186L155.771 95.6831L156.533 95.892L156.798 94.9275ZM156.035 94.7186C156.166 94.7546 156.212 94.8387 156.196 94.8155C156.188 94.8041 156.165 94.7638 156.133 94.6762C156.068 94.5035 155.996 94.2291 155.921 93.8374L154.939 94.0273C155.018 94.4373 155.103 94.7753 155.196 95.0255C155.242 95.1493 155.298 95.273 155.37 95.3783C155.433 95.4718 155.559 95.6252 155.771 95.6831L156.035 94.7186ZM155.912 94.0644L156.036 93.6123L155.071 93.3482L154.948 93.8003L155.912 94.0644ZM156.036 93.6123C156.455 92.0808 156.585 90.8114 156.344 89.857L155.374 90.1021C155.551 90.8012 155.477 91.8655 155.071 93.3482L156.036 93.6123ZM155.991 89.4973L155.539 89.3735L155.275 90.338L155.727 90.4618L155.991 89.4973ZM155.237 89.3855C154.792 89.5462 154.335 89.8915 153.867 90.3571C153.392 90.8298 152.872 91.4614 152.308 92.2431L153.119 92.8281C153.666 92.071 154.15 91.4865 154.572 91.0659C155.002 90.6382 155.336 90.4131 155.577 90.326L155.237 89.3855ZM152.846 92.0534C152.226 91.8837 151.551 92.0937 150.879 92.4937L151.39 93.3529C151.977 93.0039 152.354 92.9554 152.582 93.0179L152.846 92.0534ZM151.204 92.4282L149.947 92.2509L149.807 93.2411L151.065 93.4184L151.204 92.4282ZM150.323 92.5193L150.224 92.3252L149.333 92.7786L149.431 92.9727L150.323 92.5193ZM150.261 92.684L150.593 91.4689L149.629 91.2048L149.296 92.4199L150.261 92.684ZM150.609 91.3807C150.703 90.3131 150.745 89.4847 150.729 88.9072C150.722 88.6222 150.7 88.3721 150.654 88.1766C150.632 88.0801 150.597 87.9692 150.537 87.8676C150.479 87.7684 150.362 87.6218 150.156 87.5656L149.892 88.5301C149.748 88.4906 149.686 88.393 149.675 88.3748C149.663 88.3543 149.669 88.3567 149.681 88.4056C149.703 88.501 149.723 88.6703 149.73 88.9335C149.743 89.4524 149.706 90.235 149.613 91.293L150.609 91.3807ZM150.156 87.5656L150.001 87.523L149.737 88.4875L149.892 88.5301L150.156 87.5656ZM149.472 87.7012L147.203 90.6642L147.997 91.2722L150.266 88.3093L149.472 87.7012ZM147.117 90.8361C146.943 91.4726 146.243 92.0736 144.634 92.4851L144.882 93.4539C146.562 93.0243 147.756 92.2911 148.082 91.1002L147.117 90.8361ZM144.89 92.4873L144.438 92.3635L144.174 93.328L144.626 93.4518L144.89 92.4873ZM144.741 92.5981L144.299 91.8242L143.431 92.3195L143.872 93.0934L144.741 92.5981ZM144.347 92.2039L144.723 90.8335L143.758 90.5694L143.383 91.9398L144.347 92.2039ZM144.738 90.7484L145.338 84.3972L144.342 84.3032L143.742 90.6544L144.738 90.7484ZM145.323 84.4822L145.45 84.016L144.486 83.7519L144.358 84.2181L145.323 84.4822ZM145.441 84.0443C145.61 83.5464 145.808 83.2783 145.991 83.1492C146.151 83.036 146.355 82.9899 146.663 83.0743L146.927 82.1098C146.387 81.9621 145.863 82.0153 145.414 82.3327C144.987 82.6342 144.696 83.1281 144.494 83.7236L145.441 84.0443ZM186.662 86.0663L186.794 85.584L186.78 85.5802L186.766 85.5772L186.662 86.0663ZM190.383 89.7277L190.251 90.21L190.733 90.342L190.865 89.8598L190.383 89.7277ZM189.176 89.9745L189.044 90.4567L189.23 90.5076L189.402 90.4207L189.176 89.9745ZM189.006 89.928L188.761 90.3639L188.815 90.394L188.874 90.4103L189.006 89.928ZM187.69 89.188L187.935 88.7522L187.882 88.722L187.822 88.7057L187.69 89.188ZM185.938 88.7083L185.689 89.1418L185.745 89.1736L185.806 89.1905L185.938 88.7083ZM185.282 88.3312L185.531 87.8977L185.448 87.8499L185.353 87.8362L185.282 88.3312ZM182.374 87.9146L182.04 88.2868L182.153 88.388L182.303 88.4095L182.374 87.9146ZM181.764 87.3679L182.098 86.9956L181.496 86.4556L181.282 87.2359L181.764 87.3679ZM180.911 87.7114L181.043 87.2291L180.493 87.0786L180.416 87.6432L180.911 87.7114ZM180.712 89.1604L181.178 89.3416L181.199 89.2868L181.207 89.2285L180.712 89.1604ZM180.044 90.8761L179.578 90.6949L179.563 90.7348L179.554 90.7767L180.044 90.8761ZM179.821 93.078L179.689 93.5602L179.737 93.5733L179.787 93.5768L179.821 93.078ZM183.533 93.3348L183.817 92.9236L183.704 92.8455L183.567 92.836L183.533 93.3348ZM184.005 93.6616L183.721 94.0728L183.861 94.1702L184.032 94.1609L184.005 93.6616ZM185.161 93.5986L185.644 93.7306L185.827 93.0615L185.134 93.0993L185.161 93.5986ZM185.115 93.7681L184.633 93.636L184.331 94.7375L185.345 94.212L185.115 93.7681ZM185.345 93.6488L185.477 93.1666L185.289 93.115L185.115 93.2049L185.345 93.6488ZM185.684 93.7417L185.839 93.2663L185.828 93.2626L185.816 93.2594L185.684 93.7417ZM186.477 94.3386L185.995 94.2066L185.658 95.44L186.742 94.7627L186.477 94.3386ZM186.697 94.2014L186.829 93.7191L186.618 93.6613L186.433 93.7772L186.697 94.2014ZM188.11 94.5882L187.978 95.0705L188.017 95.0811L188.057 95.0854L188.11 94.5882ZM189.202 94.705L189.475 94.2859L189.374 94.2205L189.255 94.2078L189.202 94.705ZM187.58 96.5238L187.36 96.9728L187.413 96.9987L187.47 97.0116L187.58 96.5238ZM186.737 96.1106L186.956 95.6615L186.414 95.3957L186.254 95.9785L186.737 96.1106ZM184.085 96.1438L183.602 96.0118L183.457 96.5435L184 96.6366L184.085 96.1438ZM184.135 95.9602L184.617 96.0922L184.796 95.4381L184.119 95.4605L184.135 95.9602ZM179.185 96.1235L179.168 95.6237L178.8 95.6359L178.702 95.9914L179.185 96.1235ZM178.848 97.3526L178.366 97.2206L178.35 97.2777L178.348 97.3368L178.848 97.3526ZM178.824 98.1055L179.072 98.5399L179.315 98.4012L179.324 98.1213L178.824 98.1055ZM178.608 98.2286L178.361 97.7942L178.181 97.8968L178.126 98.0966L178.608 98.2286ZM178.558 98.4123L178.076 98.2802L178.064 98.3237L178.06 98.3686L178.558 98.4123ZM178.921 101.914L179.403 102.046L179.463 101.826L179.337 101.637L178.921 101.914ZM178.681 102.79L178.994 103.179L179.12 103.078L179.163 102.922L178.681 102.79ZM177.454 103.775L177.322 104.257L177.568 104.325L177.767 104.165L177.454 103.775ZM175.622 100.813L175.14 100.681L175.106 100.805L175.136 100.93L175.622 100.813ZM175.766 100.29L176.248 100.422L176.255 100.397L176.259 100.371L175.766 100.29ZM176.889 93.4142L176.436 93.2017L176.407 93.2648L176.396 93.3336L176.889 93.4142ZM177.363 92.4048L177.815 92.6173L177.931 92.3709L177.787 92.14L177.363 92.4048ZM177.226 92.185L176.743 92.053L176.686 92.2641L176.801 92.4498L177.226 92.185ZM177.276 92.0013L177.046 91.5574L176.851 91.6581L176.794 91.8693L177.276 92.0013ZM177.506 91.8821L177.736 92.326L177.93 92.2253L177.988 92.0141L177.506 91.8821ZM177.556 91.6984L178.039 91.8305L178.055 91.7688L178.056 91.7049L177.556 91.6984ZM177.566 90.9417L177.116 90.7247L177.067 90.8245L177.066 90.9353L177.566 90.9417ZM178.445 89.117L178.896 89.334L178.925 89.273L178.937 89.2064L178.445 89.117ZM178.246 86.4046L177.764 86.2726L177.699 86.5118L177.849 86.7087L178.246 86.4046ZM186.53 86.5485C187.965 86.9416 188.909 87.4188 189.438 87.9396C189.697 88.1939 189.849 88.4512 189.921 88.7104C189.992 88.969 189.992 89.26 189.9 89.5957L190.865 89.8598C190.997 89.376 191.011 88.8999 190.884 88.4436C190.758 87.988 190.501 87.5827 190.14 87.2268C189.429 86.5271 188.288 85.9931 186.794 85.584L186.53 86.5485ZM190.515 89.2455C190.024 89.1111 189.482 89.2596 188.95 89.5283L189.402 90.4207C189.858 90.1901 190.12 90.1742 190.251 90.21L190.515 89.2455ZM189.308 89.4922L189.139 89.4458L188.874 90.4103L189.044 90.4567L189.308 89.4922ZM189.252 89.4922L187.935 88.7522L187.445 89.6238L188.761 90.3639L189.252 89.4922ZM187.822 88.7057L186.07 88.226L185.806 89.1905L187.558 89.6702L187.822 88.7057ZM186.188 88.2748L185.531 87.8977L185.033 88.7647L185.689 89.1418L186.188 88.2748ZM185.353 87.8362L182.445 87.4196L182.303 88.4095L185.211 88.8261L185.353 87.8362ZM182.708 87.5423L182.098 86.9956L181.431 87.7402L182.04 88.2868L182.708 87.5423ZM181.282 87.2359C181.272 87.2731 181.263 87.2813 181.267 87.2761C181.274 87.2684 181.284 87.2612 181.291 87.2584C181.295 87.2568 181.281 87.2633 181.239 87.2625C181.196 87.2617 181.132 87.2534 181.043 87.2291L180.779 88.1936C181.062 88.2711 181.376 88.302 181.664 88.1861C181.982 88.058 182.166 87.7942 182.247 87.5L181.282 87.2359ZM180.416 87.6432L180.216 89.0922L181.207 89.2285L181.406 87.7795L180.416 87.6432ZM180.246 88.9791L179.578 90.6949L180.51 91.0573L181.178 89.3416L180.246 88.9791ZM179.554 90.7767C179.409 91.4951 179.313 92.0556 179.274 92.4481C179.254 92.6402 179.245 92.8175 179.258 92.9617C179.264 93.0309 179.277 93.1262 179.316 93.221C179.352 93.3084 179.453 93.4956 179.689 93.5602L179.953 92.5957C180.154 92.6507 180.227 92.8065 180.241 92.8407C180.258 92.8824 180.256 92.9029 180.254 92.8755C180.25 92.8265 180.251 92.7238 180.268 92.5489C180.303 92.2074 180.39 91.6864 180.534 90.9756L179.554 90.7767ZM179.787 93.5768L183.498 93.8336L183.567 92.836L179.856 92.5792L179.787 93.5768ZM183.248 93.746L183.721 94.0728L184.289 93.2504L183.817 92.9236L183.248 93.746ZM184.032 94.1609L185.189 94.0978L185.134 93.0993L183.978 93.1624L184.032 94.1609ZM184.679 93.4665L184.633 93.636L185.597 93.9001L185.644 93.7306L184.679 93.4665ZM185.345 94.212L185.575 94.0928L185.115 93.2049L184.885 93.3242L185.345 94.212ZM185.213 94.1311L185.552 94.2239L185.816 93.2594L185.477 93.1666L185.213 94.1311ZM185.529 94.2171C185.807 94.3075 185.956 94.3845 186.021 94.4335C186.052 94.4567 186.035 94.4526 186.015 94.4124C185.988 94.3596 185.974 94.283 185.995 94.2066L186.96 94.4707C187.069 94.07 186.817 93.7805 186.622 93.6344C186.423 93.4845 186.147 93.3667 185.839 93.2663L185.529 94.2171ZM186.742 94.7627L186.962 94.6255L186.433 93.7772L186.213 93.9145L186.742 94.7627ZM186.565 94.6836L187.978 95.0705L188.242 94.106L186.829 93.7191L186.565 94.6836ZM188.057 95.0854L189.149 95.2021L189.255 94.2078L188.163 94.0911L188.057 95.0854ZM188.929 95.124C189.353 95.3996 189.643 95.6139 189.818 95.77C189.907 95.8499 189.945 95.897 189.957 95.9141C189.983 95.9532 189.89 95.845 189.939 95.6662L190.904 95.9303C190.976 95.6667 190.85 95.4494 190.786 95.355C190.707 95.2386 190.599 95.1279 190.485 95.0255C190.253 94.8172 189.911 94.5697 189.475 94.2859L188.929 95.124ZM189.939 95.6662C189.875 95.9013 189.732 96.0562 189.411 96.138C189.052 96.2299 188.492 96.2164 187.69 96.036L187.47 97.0116C188.328 97.2046 189.072 97.2569 189.659 97.1069C190.285 96.9469 190.733 96.5523 190.904 95.9303L189.939 95.6662ZM187.8 96.0748L186.956 95.6615L186.517 96.5596L187.36 96.9728L187.8 96.0748ZM186.254 95.9785C186.298 95.8172 186.424 95.7936 186.365 95.813C186.316 95.8293 186.205 95.8495 186.003 95.852C185.608 95.857 185.003 95.794 184.169 95.651L184 96.6366C184.849 96.7823 185.527 96.8581 186.016 96.852C186.257 96.8489 186.488 96.8261 186.681 96.762C186.864 96.7009 187.132 96.5593 187.219 96.2426L186.254 95.9785ZM184.567 96.2759L184.617 96.0922L183.653 95.8281L183.602 96.0118L184.567 96.2759ZM184.119 95.4605L179.168 95.6237L179.201 96.6232L184.152 96.4599L184.119 95.4605ZM178.702 95.9914L178.366 97.2206L179.33 97.4847L179.667 96.2555L178.702 95.9914ZM178.348 97.3368L178.325 98.0896L179.324 98.1213L179.348 97.3685L178.348 97.3368ZM178.577 97.6711L178.361 97.7942L178.856 98.663L179.072 98.5399L178.577 97.6711ZM178.126 98.0966L178.076 98.2802L179.04 98.5443L179.091 98.3606L178.126 98.0966ZM178.06 98.3686C177.982 99.2567 177.972 100.018 178.037 100.644C178.101 101.262 178.242 101.796 178.504 102.19L179.337 101.637C179.205 101.438 179.088 101.09 179.032 100.541C178.976 100.001 178.981 99.3081 179.056 98.4559L178.06 98.3686ZM178.438 101.782L178.199 102.658L179.163 102.922L179.403 102.046L178.438 101.782ZM178.368 102.4L177.141 103.385L177.767 104.165L178.994 103.179L178.368 102.4ZM177.586 103.293L176.71 103.053L176.446 104.017L177.322 104.257L177.586 103.293ZM176.71 103.053C176.767 103.068 176.807 103.093 176.829 103.108C176.851 103.124 176.863 103.137 176.865 103.14C176.869 103.144 176.858 103.132 176.834 103.089C176.787 103.005 176.725 102.861 176.649 102.645C176.498 102.215 176.318 101.569 176.109 100.697L175.136 100.93C175.348 101.812 175.537 102.498 175.705 102.976C175.788 103.213 175.872 103.417 175.959 103.574C176.002 103.652 176.055 103.734 176.119 103.806C176.178 103.872 176.285 103.973 176.446 104.017L176.71 103.053ZM176.105 100.945L176.248 100.422L175.283 100.158L175.14 100.681L176.105 100.945ZM176.259 100.371L177.382 93.4948L176.396 93.3336L175.272 100.21L176.259 100.371ZM177.342 93.6266L177.815 92.6173L176.91 92.1924L176.436 93.2017L177.342 93.6266ZM177.787 92.14L177.65 91.9202L176.801 92.4498L176.939 92.6696L177.787 92.14ZM177.708 92.3171L177.758 92.1334L176.794 91.8693L176.743 92.053L177.708 92.3171ZM177.506 92.4453L177.736 92.326L177.276 91.4382L177.046 91.5574L177.506 92.4453ZM177.988 92.0141L178.039 91.8305L177.074 91.5664L177.024 91.75L177.988 92.0141ZM178.056 91.7049L178.066 90.9482L177.066 90.9353L177.056 91.692L178.056 91.7049ZM178.016 91.1588L178.896 89.334L177.995 88.8999L177.116 90.7247L178.016 91.1588ZM178.937 89.2064C179.062 88.5221 179.112 87.9204 179.075 87.4113C179.037 86.9059 178.911 86.4501 178.643 86.1006L177.849 86.7087C177.955 86.8461 178.048 87.0858 178.077 87.4845C178.106 87.8794 178.069 88.3905 177.953 89.0275L178.937 89.2064ZM178.729 86.5367L178.872 86.0139L177.907 85.7499L177.764 86.2726L178.729 86.5367ZM178.872 86.0139C178.873 86.0086 178.896 85.9098 179.205 85.8152C179.508 85.7223 179.98 85.6712 180.65 85.6861C181.98 85.7158 183.944 86.0011 186.558 86.5554L186.766 85.5772C184.136 85.0196 182.099 84.7182 180.672 84.6864C179.963 84.6706 179.366 84.72 178.912 84.859C178.464 84.9963 178.041 85.2607 177.907 85.7499L178.872 86.0139ZM196.825 93.7548L196.957 93.2725L196.803 93.2303L196.653 93.2852L196.825 93.7548ZM197.009 93.8051L197.161 93.3287L197.151 93.3256L197.141 93.3228L197.009 93.8051ZM198.036 99.3716L197.537 99.4049L197.561 99.7599L197.904 99.8539L198.036 99.3716ZM198.404 99.4722L198.272 99.9545L198.605 100.046L198.808 99.7665L198.404 99.4722ZM200.302 96.8635L200.063 96.4245L199.964 96.4784L199.898 96.5693L200.302 96.8635ZM203.528 95.7876L203.786 95.3592L203.727 95.3236L203.66 95.3054L203.528 95.7876ZM205.687 97.943L206.059 98.2768L206.138 98.1889L206.169 98.0751L205.687 97.943ZM203.884 98.8161L203.639 99.2519L203.692 99.2821L203.752 99.2984L203.884 98.8161ZM203.199 98.4313L203.444 97.9955L203.391 97.9653L203.331 97.949L203.199 98.4313ZM198.673 103.48L198.234 103.24L198.206 103.291L198.191 103.348L198.673 103.48ZM198.124 105.486L198.371 105.92L198.551 105.818L198.606 105.618L198.124 105.486ZM196.972 106.143L196.724 105.708L196.544 105.811L196.49 106.01L196.972 106.143ZM195.629 102.449L196.127 102.496L196.129 102.48L196.129 102.464L195.629 102.449ZM195.206 94.6781L194.723 94.5461L194.692 94.6594L194.715 94.7746L195.206 94.6781ZM195.306 94.3108L195.134 93.8413L194.892 93.9299L194.824 94.1788L195.306 94.3108ZM196.693 94.237L196.877 94.2873L197.141 93.3228L196.957 93.2725L196.693 94.237ZM196.857 94.2814C196.773 94.2546 196.749 94.208 196.769 94.2355C196.787 94.2591 196.819 94.3139 196.859 94.4169C196.941 94.6223 197.026 94.9423 197.109 95.3944C197.275 96.2932 197.419 97.6262 197.537 99.4049L198.535 99.3384C198.416 97.5487 198.269 96.1697 198.093 95.2129C198.005 94.7372 197.906 94.3436 197.79 94.0495C197.732 93.9028 197.662 93.7612 197.574 93.6421C197.489 93.527 197.357 93.3912 197.161 93.3287L196.857 94.2814ZM197.904 99.8539L198.272 99.9545L198.536 98.99L198.168 98.8894L197.904 99.8539ZM198.808 99.7665L200.707 97.1578L199.898 96.5693L197.999 99.178L198.808 99.7665ZM200.542 97.3025C201.327 96.8746 201.965 96.5829 202.463 96.4168C202.983 96.2435 203.269 96.2351 203.396 96.2698L203.66 95.3054C203.232 95.188 202.703 95.2828 202.147 95.4681C201.57 95.6607 200.873 95.983 200.063 96.4245L200.542 97.3025ZM203.27 96.216C204.045 96.6825 204.578 97.0743 204.895 97.3907C205.053 97.549 205.138 97.6691 205.178 97.7508C205.215 97.8286 205.197 97.8385 205.205 97.811L206.169 98.0751C206.244 97.8026 206.186 97.5391 206.078 97.3148C205.971 97.0945 205.803 96.884 205.601 96.683C205.199 96.2809 204.585 95.8398 203.786 95.3592L203.27 96.216ZM205.315 97.6093C204.688 98.3082 204.272 98.4041 204.016 98.3339L203.752 99.2984C204.588 99.5274 205.374 99.0411 206.059 98.2768L205.315 97.6093ZM204.129 98.3803L203.444 97.9955L202.954 98.8671L203.639 99.2519L204.129 98.3803ZM203.331 97.949C202.909 97.8335 202.486 97.9361 202.097 98.1511C201.712 98.3641 201.321 98.7071 200.925 99.1488C200.132 100.033 199.236 101.406 198.234 103.24L199.112 103.719C200.102 101.907 200.955 100.614 201.67 99.8163C202.028 99.4166 202.332 99.1636 202.581 99.0263C202.826 98.8909 202.976 98.8886 203.067 98.9135L203.331 97.949ZM198.191 103.348L197.642 105.354L198.606 105.618L199.155 103.612L198.191 103.348ZM197.876 105.052L196.724 105.708L197.22 106.577L198.371 105.92L197.876 105.052ZM196.49 106.01C196.464 106.104 196.437 106.168 196.414 106.209C196.391 106.25 196.376 106.261 196.377 106.261C196.38 106.258 196.39 106.253 196.398 106.252C196.404 106.251 196.391 106.255 196.352 106.244L196.088 107.209C196.389 107.291 196.715 107.264 196.99 107.051C197.238 106.858 197.375 106.566 197.454 106.275L196.49 106.01ZM196.352 106.244L195.617 106.043L195.353 107.007L196.088 107.209L196.352 106.244ZM195.617 106.043C195.773 106.086 195.852 106.19 195.878 106.231C195.906 106.275 195.915 106.308 195.915 106.308C195.916 106.31 195.909 106.282 195.903 106.206C195.891 106.06 195.889 105.826 195.901 105.491C195.924 104.827 195.999 103.831 196.127 102.496L195.132 102.401C195.003 103.74 194.926 104.761 194.901 105.455C194.889 105.8 194.889 106.081 194.906 106.286C194.914 106.384 194.927 106.491 194.955 106.586C194.968 106.633 194.992 106.702 195.037 106.772C195.08 106.839 195.177 106.959 195.353 107.007L195.617 106.043ZM196.129 102.464C196.228 99.2036 196.087 96.5712 195.696 94.5817L194.715 94.7746C195.085 96.6589 195.227 99.2069 195.13 102.434L196.129 102.464ZM195.688 94.8102L195.788 94.4429L194.824 94.1788L194.723 94.5461L195.688 94.8102ZM195.478 94.7803L196.997 94.2243L196.653 93.2852L195.134 93.8413L195.478 94.7803ZM211.637 99.9975L212.071 99.7498L211.969 99.5699L211.769 99.5152L211.637 99.9975ZM212.386 101.311L212.807 101.581L212.97 101.326L212.82 101.064L212.386 101.311ZM212.121 101.725L211.7 101.455L211.651 101.531L211.632 101.619L212.121 101.725ZM211.256 108.322L210.769 108.437L210.838 108.726L211.124 108.805L211.256 108.322ZM211.708 108.446L211.576 108.928L211.706 108.964L211.837 108.929L211.708 108.446ZM216.261 102.858L216.743 102.99L216.765 102.91L216.759 102.826L216.261 102.858ZM216.229 102.363L215.747 102.231L215.725 102.312L215.73 102.395L216.229 102.363ZM218.161 104.016L218.408 104.451L218.623 104.328L218.656 104.084L218.161 104.016ZM217.981 104.119L217.733 103.685L217.553 103.787L217.499 103.987L217.981 104.119ZM217.938 104.274L217.456 104.142L217.443 104.188L217.44 104.235L217.938 104.274ZM220.252 109.191L220.748 109.257L220.806 108.824L220.384 108.709L220.252 109.191ZM220.107 110.275L220.285 110.742L220.563 110.637L220.603 110.341L220.107 110.275ZM215.018 108.562L215.39 108.228L215.096 107.902L214.735 108.15L215.018 108.562ZM208.904 107.04L209.386 107.172L209.518 106.69L209.036 106.558L208.904 107.04ZM209.274 103.968L209.406 103.485L208.881 103.341L208.782 103.877L209.274 103.968ZM209.415 104.006L209.283 104.488L210.374 104.787L209.861 103.78L209.415 104.006ZM209.317 103.812L208.834 103.68L208.783 103.867L208.871 104.039L209.317 103.812ZM211.203 100.245L211.952 101.559L212.82 101.064L212.071 99.7498L211.203 100.245ZM211.965 101.041L211.7 101.455L212.542 101.995L212.807 101.581L211.965 101.041ZM211.632 101.619C211.244 103.407 210.975 104.863 210.829 105.983C210.685 107.076 210.647 107.92 210.769 108.437L211.743 108.207C211.668 107.891 211.675 107.219 211.82 106.113C211.962 105.033 212.224 103.607 212.61 101.831L211.632 101.619ZM211.124 108.805L211.576 108.928L211.84 107.964L211.388 107.84L211.124 108.805ZM211.837 108.929C214.253 108.285 215.858 106.223 216.743 102.99L215.778 102.726C214.941 105.785 213.51 107.448 211.579 107.963L211.837 108.929ZM216.759 102.826L216.728 102.332L215.73 102.395L215.762 102.89L216.759 102.826ZM216.711 102.496C216.765 102.3 216.836 102.25 216.878 102.23C216.939 102.202 217.081 102.174 217.368 102.252L217.632 101.288C217.232 101.178 216.818 101.154 216.455 101.324C216.073 101.502 215.853 101.843 215.747 102.231L216.711 102.496ZM217.368 102.252L217.82 102.376L218.084 101.411L217.632 101.288L217.368 102.252ZM217.82 102.376C217.72 102.348 217.689 102.28 217.696 102.296C217.708 102.319 217.732 102.39 217.747 102.539C217.776 102.834 217.754 103.296 217.665 103.949L218.656 104.084C218.748 103.409 218.783 102.854 218.742 102.441C218.722 102.236 218.68 102.031 218.594 101.856C218.505 101.673 218.345 101.483 218.084 101.411L217.82 102.376ZM217.913 103.582L217.733 103.685L218.228 104.553L218.408 104.451L217.913 103.582ZM217.499 103.987L217.456 104.142L218.42 104.406L218.463 104.251L217.499 103.987ZM217.44 104.235C217.33 105.641 217.304 106.738 217.371 107.511C217.404 107.894 217.462 108.228 217.56 108.49C217.65 108.73 217.827 109.045 218.185 109.143L218.449 108.179C218.571 108.212 218.555 108.296 218.496 108.139C218.445 108.002 218.397 107.773 218.367 107.425C218.308 106.735 218.328 105.704 218.437 104.313L217.44 104.235ZM218.185 109.143L220.12 109.673L220.384 108.709L218.449 108.179L218.185 109.143ZM219.757 109.125L219.612 110.209L220.603 110.341L220.748 109.257L219.757 109.125ZM219.93 109.808C219.04 110.145 218.285 110.199 217.64 110.023L217.376 110.987C218.276 111.234 219.253 111.134 220.285 110.742L219.93 109.808ZM217.64 110.023C217.133 109.884 216.386 109.338 215.39 108.228L214.646 108.897C215.651 110.016 216.565 110.765 217.376 110.987L217.64 110.023ZM214.735 108.15C213.764 108.816 212.927 109.264 212.22 109.511C211.51 109.759 210.969 109.791 210.565 109.68L210.301 110.645C210.971 110.828 211.731 110.741 212.549 110.455C213.37 110.169 214.289 109.669 215.3 108.975L214.735 108.15ZM210.565 109.68C209.917 109.503 209.564 109.212 209.391 108.858C209.211 108.491 209.173 107.95 209.386 107.172L208.421 106.908C208.175 107.807 208.163 108.625 208.493 109.298C208.83 109.986 209.471 110.417 210.301 110.645L210.565 109.68ZM209.036 106.558C209.2 106.603 209.284 106.717 209.316 106.771C209.347 106.825 209.356 106.868 209.358 106.875C209.362 106.893 209.358 106.885 209.358 106.83C209.358 106.728 209.371 106.558 209.401 106.307C209.461 105.81 209.582 105.063 209.766 104.058L208.782 103.877C208.597 104.887 208.472 105.659 208.408 106.187C208.377 106.448 208.358 106.666 208.358 106.829C208.358 106.906 208.362 106.999 208.381 107.087C208.39 107.13 208.409 107.201 208.452 107.274C208.494 107.348 208.592 107.473 208.772 107.523L209.036 106.558ZM209.142 104.45L209.283 104.488L209.548 103.524L209.406 103.485L209.142 104.45ZM209.861 103.78L209.762 103.585L208.871 104.039L208.97 104.233L209.861 103.78ZM209.799 103.944C210.174 102.574 210.531 101.611 210.861 101.023C211.027 100.726 211.166 100.563 211.267 100.485C211.314 100.448 211.341 100.439 211.347 100.437C211.351 100.437 211.349 100.437 211.35 100.437L211.614 99.4727C211.252 99.3735 210.918 99.4887 210.652 99.6956C210.4 99.8918 210.183 100.187 209.989 100.533C209.597 101.231 209.215 102.29 208.834 103.68L209.799 103.944ZM211.35 100.437L211.505 100.48L211.769 99.5152L211.614 99.4727L211.35 100.437ZM230.824 101.743L231.306 101.875L231.344 101.737L231.303 101.599L230.824 101.743ZM230.685 102.251L231.107 102.519L231.147 102.456L231.167 102.383L230.685 102.251ZM227.911 103.117L227.779 103.599L227.864 103.623L227.952 103.615L227.911 103.117ZM227.572 103.024L227.138 103.272L227.241 103.452L227.44 103.507L227.572 103.024ZM227.326 102.592L226.844 102.46L226.789 102.66L226.892 102.84L227.326 102.592ZM227.694 101.25L227.302 100.939L227.238 101.019L227.211 101.118L227.694 101.25ZM226.86 106.292L226.992 105.81L226.917 105.789L226.839 105.792L226.86 106.292ZM227.199 110.379L227.446 110.813L227.642 110.702L227.688 110.482L227.199 110.379ZM226.983 110.502L226.735 110.068L226.555 110.17L226.501 110.37L226.983 110.502ZM226.876 114.832L227.358 114.964L227.396 114.823L227.353 114.683L226.876 114.832ZM224.175 116.097L223.731 116.327L223.832 116.521L224.043 116.579L224.175 116.097ZM224.298 112.319L224.781 112.451L224.821 112.305L224.773 112.161L224.298 112.319ZM224.099 111.717L223.636 111.526L223.565 111.698L223.624 111.875L224.099 111.717ZM224.639 110.407L225.102 110.598L225.127 110.536L225.136 110.47L224.639 110.407ZM224.795 109.174L224.379 108.896L224.314 108.995L224.299 109.112L224.795 109.174ZM225.104 108.712L225.519 108.99L225.581 108.898L225.598 108.789L225.104 108.712ZM225.348 107.154L224.866 107.022L224.858 107.049L224.854 107.076L225.348 107.154ZM225.441 106.815L225.005 106.57L224.975 106.623L224.959 106.683L225.441 106.815ZM229.459 100.794C229.818 100.892 230.136 101.19 230.345 101.886L231.303 101.599C231.036 100.708 230.532 100.051 229.723 99.8294L229.459 100.794ZM230.342 101.611L230.203 102.119L231.167 102.383L231.306 101.875L230.342 101.611ZM230.263 101.983C230.218 102.053 230.061 102.192 229.629 102.327C229.217 102.456 228.635 102.556 227.87 102.619L227.952 103.615C228.752 103.55 229.415 103.441 229.927 103.282C230.42 103.128 230.867 102.898 231.107 102.519L230.263 101.983ZM228.043 102.635L227.704 102.542L227.44 103.507L227.779 103.599L228.043 102.635ZM228.007 102.777L227.76 102.345L226.892 102.84L227.138 103.272L228.007 102.777ZM227.808 102.724L228.176 101.382L227.211 101.118L226.844 102.46L227.808 102.724ZM228.085 101.561C228.673 100.82 229.119 100.701 229.459 100.794L229.723 99.8294C228.801 99.5769 227.982 100.083 227.302 100.939L228.085 101.561ZM226.728 106.774C226.775 106.787 226.958 106.865 227.011 107.51C227.062 108.118 226.97 109.031 226.709 110.277L227.688 110.482C227.955 109.209 228.071 108.182 228.008 107.427C227.948 106.709 227.698 106.003 226.992 105.81L226.728 106.774ZM226.951 109.945L226.735 110.068L227.23 110.937L227.446 110.813L226.951 109.945ZM226.501 110.37L226.454 110.54L227.419 110.804L227.465 110.634L226.501 110.37ZM226.454 110.54C226.012 112.154 225.981 113.641 226.398 114.98L227.353 114.683C227.005 113.566 227.015 112.279 227.419 110.804L226.454 110.54ZM226.393 114.7L226.347 114.869L227.311 115.133L227.358 114.964L226.393 114.7ZM226.347 114.869C226.219 115.336 226.01 115.568 225.767 115.68C225.504 115.801 225.094 115.83 224.477 115.661L224.213 116.626C224.942 116.825 225.62 116.849 226.185 116.589C226.77 116.32 227.13 115.797 227.311 115.133L226.347 114.869ZM224.477 115.661L224.307 115.615L224.043 116.579L224.213 116.626L224.477 115.661ZM224.619 115.867C224.474 115.586 224.389 115.174 224.408 114.594C224.426 114.016 224.547 113.304 224.781 112.451L223.816 112.187C223.57 113.085 223.43 113.879 223.408 114.561C223.386 115.24 223.479 115.841 223.731 116.327L224.619 115.867ZM224.773 112.161L224.573 111.56L223.624 111.875L223.824 112.476L224.773 112.161ZM224.561 111.908L225.102 110.598L224.177 110.217L223.636 111.526L224.561 111.908ZM225.136 110.47L225.291 109.237L224.299 109.112L224.143 110.345L225.136 110.47ZM225.211 109.452L225.519 108.99L224.688 108.434L224.379 108.896L225.211 109.452ZM225.598 108.789L225.842 107.231L224.854 107.076L224.61 108.634L225.598 108.789ZM225.83 107.286L225.923 106.947L224.959 106.683L224.866 107.022L225.83 107.286ZM225.877 107.06C225.888 107.04 225.933 106.978 226.102 106.916C226.271 106.854 226.524 106.807 226.881 106.792L226.839 105.792C226.427 105.81 226.06 105.866 225.756 105.978C225.451 106.09 225.171 106.274 225.005 106.57L225.877 107.06ZM238.626 101.525L238.758 101.043L238.628 101.007L238.498 101.042L238.626 101.525ZM239.476 103.914L238.993 103.782L238.979 103.836L238.976 103.892L239.476 103.914ZM239.447 104.575L239.86 104.856L239.94 104.739L239.946 104.597L239.447 104.575ZM238.473 106.966L237.991 106.834L237.936 107.034L238.039 107.214L238.473 106.966ZM238.586 107.164L238.152 107.411L238.288 107.651L238.563 107.663L238.586 107.164ZM240.056 107.232L240.28 106.785L240.185 106.738L240.079 106.733L240.056 107.232ZM240.79 107.6L240.566 108.047L241.111 108.321L241.272 107.732L240.79 107.6ZM244.14 107.515L244.272 107.033L244.228 107.021L244.183 107.017L244.14 107.515ZM244.45 107.6L244.885 107.353L244.782 107.173L244.582 107.118L244.45 107.6ZM244.902 108.392L245.384 108.524L245.439 108.324L245.336 108.144L244.902 108.392ZM243.94 109.465L243.505 109.713L243.608 109.893L243.808 109.947L243.94 109.465ZM243.827 109.267L244.261 109.02L244.159 108.84L243.959 108.785L243.827 109.267ZM243.671 109.225L243.804 108.742L243.704 108.715L243.602 108.729L243.671 109.225ZM237.641 109.396L237.773 108.914L237.573 108.859L237.393 108.961L237.641 109.396ZM237.245 109.622L236.997 109.187L236.817 109.29L236.762 109.489L237.245 109.622ZM237.16 109.932L237.633 110.094L237.638 110.08L237.642 110.064L237.16 109.932ZM236.327 112.362L235.854 112.2L235.849 112.215L235.845 112.23L236.327 112.362ZM236.199 117.658L235.711 117.771L235.779 118.061L236.066 118.14L236.199 117.658ZM236.82 117.828L237.065 117.392L237.012 117.362L236.952 117.346L236.82 117.828ZM237.399 118.154L237.154 118.59L237.233 118.634L237.323 118.648L237.399 118.154ZM238.94 117.406L238.781 116.933L238.657 116.974L238.57 117.07L238.94 117.406ZM240.58 116.853L240.712 116.371L240.565 116.33L240.421 116.379L240.58 116.853ZM241.047 116.981L241.481 116.733L241.378 116.553L241.179 116.498L241.047 116.981ZM241.272 117.376L241.755 117.509L241.809 117.309L241.707 117.129L241.272 117.376ZM236.454 120.386L236.322 120.868L236.456 120.905L236.589 120.867L236.454 120.386ZM233.796 113.674L233.314 113.542L233.308 113.562L233.305 113.583L233.796 113.674ZM234.307 111.809L233.833 111.649L233.829 111.663L233.825 111.677L234.307 111.809ZM235.182 109.224L235.655 109.384L235.727 109.171L235.616 108.976L235.182 109.224ZM235.069 109.026L235.503 108.778L235.379 108.56L235.131 108.53L235.069 109.026ZM233.953 108.887L233.821 109.369L233.855 109.379L233.891 109.383L233.953 108.887ZM233.276 107.699L232.793 107.567L232.768 107.659L232.778 107.753L233.276 107.699ZM235.591 106.511L235.723 106.028L235.702 106.023L235.682 106.019L235.591 106.511ZM236.057 106.638L235.925 107.121L236.315 107.228L236.501 106.868L236.057 106.638ZM236.778 105.834L236.646 106.316L237.264 106.485L237.278 105.845L236.778 105.834ZM236.793 105.169L236.331 104.978L236.295 105.064L236.293 105.158L236.793 105.169ZM237.285 103.983L237.747 104.174L237.766 104.129L237.776 104.08L237.285 103.983ZM237.725 101.764L237.597 101.281L237.296 101.361L237.235 101.667L237.725 101.764ZM238.494 102.007C238.829 102.099 238.989 102.261 239.067 102.481C239.159 102.739 239.165 103.155 238.993 103.782L239.958 104.046C240.152 103.336 240.201 102.685 240.009 102.146C239.804 101.57 239.356 101.207 238.758 101.043L238.494 102.007ZM238.976 103.892L238.947 104.553L239.946 104.597L239.975 103.936L238.976 103.892ZM239.034 104.293C238.632 104.881 238.29 105.741 237.991 106.834L238.955 107.098C239.244 106.043 239.551 105.309 239.86 104.856L239.034 104.293ZM238.039 107.214L238.152 107.411L239.02 106.916L238.907 106.718L238.039 107.214ZM238.563 107.663L240.032 107.732L240.079 106.733L238.609 106.664L238.563 107.663ZM239.832 107.679L240.566 108.047L241.014 107.153L240.28 106.785L239.832 107.679ZM241.272 107.732C241.232 107.88 241.132 107.942 241.115 107.951C241.095 107.963 241.099 107.956 241.15 107.944C241.248 107.922 241.422 107.902 241.691 107.895C242.22 107.882 243.018 107.92 244.096 108.013L244.183 107.017C243.095 106.922 242.252 106.881 241.665 106.895C241.375 106.903 241.122 106.924 240.925 106.97C240.827 106.993 240.716 107.027 240.614 107.086C240.515 107.143 240.365 107.26 240.308 107.468L241.272 107.732ZM244.008 107.997L244.318 108.082L244.582 107.118L244.272 107.033L244.008 107.997ZM244.016 107.848L244.467 108.64L245.336 108.144L244.885 107.353L244.016 107.848ZM244.42 108.26L244.334 108.571L245.299 108.835L245.384 108.524L244.42 108.26ZM244.334 108.571C244.26 108.843 244.179 108.95 244.142 108.982C244.134 108.989 244.131 108.991 244.13 108.991C244.13 108.991 244.13 108.991 244.13 108.991C244.13 108.991 244.13 108.991 244.13 108.991C244.13 108.991 244.126 108.992 244.118 108.991C244.109 108.991 244.094 108.989 244.072 108.983L243.808 109.947C244.155 110.043 244.51 109.987 244.798 109.737C245.053 109.515 245.203 109.184 245.299 108.835L244.334 108.571ZM244.374 109.217L244.261 109.02L243.393 109.515L243.505 109.713L244.374 109.217ZM243.959 108.785L243.804 108.742L243.539 109.707L243.695 109.749L243.959 108.785ZM243.602 108.729C242.144 108.933 240.927 109.048 239.947 109.076C238.958 109.104 238.243 109.042 237.773 108.914L237.509 109.878C238.121 110.046 238.953 110.104 239.975 110.075C241.005 110.046 242.261 109.927 243.741 109.72L243.602 108.729ZM237.393 108.961L236.997 109.187L237.492 110.056L237.888 109.83L237.393 108.961ZM236.762 109.489L236.677 109.8L237.642 110.064L237.727 109.754L236.762 109.489ZM236.687 109.77L235.854 112.2L236.8 112.524L237.633 110.094L236.687 109.77ZM235.845 112.23C235.334 114.097 235.288 115.946 235.711 117.771L236.686 117.545C236.301 115.888 236.341 114.207 236.809 112.494L235.845 112.23ZM236.066 118.14L236.688 118.31L236.952 117.346L236.331 117.176L236.066 118.14ZM236.575 118.264L237.154 118.59L237.644 117.718L237.065 117.392L236.575 118.264ZM237.323 118.648C238.069 118.762 238.738 118.374 239.311 117.742L238.57 117.07C238.099 117.59 237.74 117.7 237.475 117.66L237.323 118.648ZM239.1 117.88L240.74 117.327L240.421 116.379L238.781 116.933L239.1 117.88ZM240.448 117.335L240.915 117.463L241.179 116.498L240.712 116.371L240.448 117.335ZM240.612 117.228L240.838 117.624L241.707 117.129L241.481 116.733L240.612 117.228ZM240.79 117.244L240.705 117.555L241.669 117.819L241.755 117.509L240.79 117.244ZM240.705 117.555C240.623 117.853 240.309 118.239 239.553 118.669C238.815 119.09 237.744 119.504 236.319 119.904L236.589 120.867C238.049 120.457 239.209 120.017 240.048 119.538C240.871 119.069 241.48 118.51 241.669 117.819L240.705 117.555ZM236.586 119.903L235.809 119.691L235.545 120.655L236.322 120.868L236.586 119.903ZM235.809 119.691C235.018 119.474 234.489 118.945 234.218 118.007C233.936 117.034 233.941 115.634 234.288 113.765L233.305 113.583C232.947 115.51 232.912 117.091 233.257 118.285C233.613 119.513 234.376 120.335 235.545 120.655L235.809 119.691ZM234.278 113.806L234.789 111.941L233.825 111.677L233.314 113.542L234.278 113.806ZM234.78 111.969L235.655 109.384L234.708 109.063L233.833 111.649L234.78 111.969ZM235.616 108.976L235.503 108.778L234.635 109.273L234.747 109.471L235.616 108.976ZM235.131 108.53L234.014 108.391L233.891 109.383L235.007 109.522L235.131 108.53ZM234.085 108.405L233.774 108.32L233.51 109.284L233.821 109.369L234.085 108.405ZM233.774 108.32C233.884 108.35 233.931 108.417 233.932 108.419C233.935 108.423 233.92 108.401 233.898 108.334C233.853 108.2 233.809 107.977 233.773 107.645L232.778 107.753C232.817 108.11 232.871 108.415 232.949 108.649C232.987 108.766 233.039 108.888 233.115 108.995C233.189 109.101 233.315 109.231 233.51 109.284L233.774 108.32ZM233.758 107.831C233.87 107.42 234.06 107.197 234.293 107.077C234.544 106.949 234.927 106.896 235.499 107.002L235.682 106.019C234.992 105.891 234.358 105.92 233.837 106.187C233.299 106.464 232.962 106.952 232.793 107.567L233.758 107.831ZM235.459 106.993L235.925 107.121L236.189 106.156L235.723 106.028L235.459 106.993ZM236.501 106.868C236.646 106.587 236.758 106.418 236.836 106.332C236.875 106.288 236.885 106.289 236.864 106.299C236.837 106.314 236.754 106.345 236.646 106.316L236.91 105.351C236.515 105.243 236.221 105.52 236.091 105.664C235.928 105.846 235.77 106.104 235.612 106.409L236.501 106.868ZM237.278 105.845L237.293 105.181L236.293 105.158L236.278 105.822L237.278 105.845ZM237.255 105.361L237.747 104.174L236.823 103.791L236.331 104.978L237.255 105.361ZM237.776 104.08L238.216 101.862L237.235 101.667L236.795 103.885L237.776 104.08ZM237.854 102.248L238.755 102.008L238.498 101.042L237.597 101.281L237.854 102.248ZM253.751 109.175L253.883 108.693L253.849 108.683L253.814 108.679L253.751 109.175ZM254.599 109.407L255.034 109.159L254.931 108.979L254.731 108.925L254.599 109.407ZM255.215 110.487L255.697 110.619L255.752 110.419L255.649 110.239L255.215 110.487ZM255.176 110.628L255.628 110.843L255.647 110.803L255.658 110.76L255.176 110.628ZM253.556 111.552L253.297 111.979L253.357 112.015L253.424 112.034L253.556 111.552ZM252.645 110.998L252.904 110.571L252.757 110.481L252.586 110.502L252.645 110.998ZM249.173 113.693L248.691 113.561L248.661 113.671L248.681 113.783L249.173 113.693ZM252.021 118.269L252.465 118.039L252.425 117.963L252.362 117.904L252.021 118.269ZM252.365 120.338L252.774 120.626L252.825 120.554L252.848 120.47L252.365 120.338ZM248.65 122.814L248.753 123.303L248.762 123.301L248.772 123.299L248.65 122.814ZM245.029 121.063L244.547 120.931L244.527 121.004L244.529 121.079L245.029 121.063ZM246.571 120.422L246.703 119.94L246.587 119.908L246.469 119.933L246.571 120.422ZM246.854 120.499L247.053 120.041L247.02 120.027L246.986 120.017L246.854 120.499ZM247.804 120.912L247.605 121.37L247.78 121.446L247.961 121.386L247.804 120.912ZM250.066 119.86L250.442 120.19L250.708 119.886L250.467 119.562L250.066 119.86ZM247.513 116.427L247.914 116.129L247.902 116.113L247.889 116.098L247.513 116.427ZM246.924 114.14L247.407 114.272L247.539 113.79L247.056 113.658L246.924 114.14ZM246.835 113.356L246.353 113.224L246.349 113.239L246.346 113.253L246.835 113.356ZM251.696 108.916L251.759 108.42L251.635 108.404L251.519 108.448L251.696 108.916ZM253.619 109.657L254.467 109.889L254.731 108.925L253.883 108.693L253.619 109.657ZM254.165 109.655L254.78 110.734L255.649 110.239L255.034 109.159L254.165 109.655ZM254.732 110.355L254.694 110.496L255.658 110.76L255.697 110.619L254.732 110.355ZM254.724 110.414C254.558 110.763 254.386 110.944 254.236 111.029C254.1 111.107 253.931 111.136 253.688 111.069L253.424 112.034C253.878 112.158 254.328 112.128 254.732 111.898C255.122 111.676 255.411 111.3 255.628 110.843L254.724 110.414ZM253.816 111.124L252.904 110.571L252.385 111.426L253.297 111.979L253.816 111.124ZM252.586 110.502C250.623 110.734 249.254 111.506 248.846 112.995L249.81 113.26C250.057 112.357 250.899 111.709 252.704 111.495L252.586 110.502ZM248.846 112.995L248.691 113.561L249.655 113.825L249.81 113.26L248.846 112.995ZM248.681 113.783C248.993 115.47 250.019 117.086 251.68 118.635L252.362 117.904C250.796 116.443 249.924 115.008 249.665 113.602L248.681 113.783ZM251.577 118.499C251.965 119.248 252.023 119.694 251.961 119.923L252.925 120.188C253.094 119.569 252.872 118.824 252.465 118.039L251.577 118.499ZM251.961 119.923L251.883 120.206L252.848 120.47L252.925 120.188L251.961 119.923ZM251.957 120.05C251.153 121.192 250.021 121.953 248.528 122.329L248.772 123.299C250.477 122.869 251.821 121.98 252.774 120.626L251.957 120.05ZM248.547 122.324C247.302 122.586 246.478 122.612 246.007 122.483L245.743 123.447C246.459 123.644 247.485 123.569 248.753 123.303L248.547 122.324ZM246.007 122.483L245.583 122.367L245.319 123.331L245.743 123.447L246.007 122.483ZM245.583 122.367C245.7 122.399 245.734 122.475 245.719 122.448C245.706 122.426 245.678 122.363 245.648 122.237C245.59 121.988 245.546 121.598 245.529 121.047L244.529 121.079C244.548 121.652 244.593 122.121 244.675 122.467C244.716 122.639 244.771 122.808 244.855 122.951C244.936 123.091 245.08 123.266 245.319 123.331L245.583 122.367ZM245.511 121.195C245.486 121.288 245.434 121.316 245.463 121.293C245.488 121.274 245.545 121.24 245.653 121.195C245.867 121.106 246.201 121.01 246.673 120.912L246.469 119.933C245.975 120.035 245.569 120.147 245.269 120.271C245.119 120.334 244.976 120.407 244.857 120.498C244.742 120.586 244.603 120.725 244.547 120.931L245.511 121.195ZM246.439 120.904L246.722 120.982L246.986 120.017L246.703 119.94L246.439 120.904ZM246.655 120.958L247.605 121.37L248.003 120.453L247.053 120.041L246.655 120.958ZM247.961 121.386C248.599 121.176 249.122 120.978 249.524 120.791C249.906 120.613 250.243 120.418 250.442 120.19L249.69 119.531C249.64 119.589 249.474 119.711 249.102 119.884C248.75 120.048 248.267 120.232 247.647 120.437L247.961 121.386ZM250.467 119.562L247.914 116.129L247.112 116.726L249.665 120.159L250.467 119.562ZM247.889 116.098C247.37 115.504 247.232 114.911 247.407 114.272L246.442 114.008C246.168 115.008 246.423 115.94 247.137 116.757L247.889 116.098ZM247.056 113.658C247.148 113.683 247.216 113.743 247.253 113.802C247.283 113.849 247.281 113.878 247.279 113.855C247.277 113.835 247.275 113.793 247.282 113.722C247.289 113.653 247.302 113.566 247.325 113.459L246.346 113.253C246.292 113.508 246.261 113.756 246.285 113.968C246.308 114.167 246.411 114.518 246.792 114.622L247.056 113.658ZM247.317 113.488L247.588 112.499L246.624 112.235L246.353 113.224L247.317 113.488ZM247.588 112.499C247.722 112.009 248.1 111.488 248.815 110.95C249.529 110.414 250.541 109.889 251.874 109.383L251.519 108.448C250.139 108.972 249.031 109.537 248.214 110.151C247.399 110.764 246.838 111.454 246.624 112.235L247.588 112.499ZM251.634 109.412L253.689 109.671L253.814 108.679L251.759 108.42L251.634 109.412Z" fill="#66C1EA"/>
</svg>
