<svg width="420" height="140" fill="none" xmlns="http://www.w3.org/2000/svg"><path d="M136.919 24.94c3.258 5.022 5.983 10.416 8.821 15.748a977.69 977.69 0 0 0 8.742 16.085c.713 1.314-.81 3.673-2.384 3.608-5.683-.156-11.311-.45-16.938-.744-5.601-.28-11.421-.173-16.928-.867-2.62-.333-1.447-4.99 1.272-5.026 5.702-.09 11.307.619 16.914.944 5.607.325 11.234.62 16.832 1.067-.965 1.189-1.977 2.393-2.942 3.582-2.632-5.426-5.351-10.774-8.097-16.137-2.719-5.348-5.598-10.619-7.917-16.246-.533-1.422 1.762-3.373 2.625-2.014z" fill="#66C1EA"/><path d="M149.374 59.91c-10.475-10.318-23.121-17.64-35.961-21.03-6.407-1.671-12.836-2.612-19.056-2.34-3.104.105-6.15.48-9.035 1.133-2.589.567-5.742 1.355-7.176 3.745-1.71 2.767.465 6.78 2.179 9.825 1.713 3.044 3.607 6.058 5.82 8.854 4.133 5.258 9.438 10.234 15.452 11.74 2.083.524 4.981 1.002 4.605-1.867-.299-2.309-1.989-4.885-3.735-6.535-5.163-4.986-12.392-6.968-18.38-7.83-8.142-1.168-16.21-.756-24-.122-8.825.729-17.414 2.119-25.768 4.171-3.515.847-5.46-5.498-2.01-6.373 8.907-2.207 18.038-3.687 27.473-4.299 8.195-.535 16.743-.886 25.282.625 7.213 1.271 15.981 4.287 21.76 10.765 4.343 4.854 7.824 13.852 2.422 17.075-5.759 3.46-15.29-2.413-20.71-7.331-6.054-5.502-11.316-13.136-14.618-20.545-8.777-19.85 18.495-19.375 29.977-17.648 16.951 2.546 34.39 11.741 48.116 25.538 1.869 1.948-.636 4.451-2.637 2.448zm74.213 10.92c1.461.193 2.496.627 3.106 1.304.062.316 2.264 1.86 6.607 4.633.119.604.959 1.236 2.52 1.896l3.37 2.655.171-.273-.804-4.111-.528-1.554.216-.042c-.426-.603-.814-1.796-1.162-3.579l-.357-1.826.725-1.097.46-.09c1.558.69 2.602 2.387 3.13 5.09l2.576 8.288c.481 2.463.017 4.136-1.392 5.018l-1.38.27c-2.975-1.777-4.963-3.448-5.966-5.013-.249.049-1.734-1.084-4.455-3.397l-1.88-1.066-.23.045-.185.275-.23.045 1.534 5.402-.185.275.044.23 1.407 3.531c-.041 1.113-.315 1.719-.823 1.818-1.688-.028-2.976-1.757-3.865-5.185l-.627-3.206.039-.948-.351-.648-.141-1.867-.396-.878.036-.963-.348-.633.216-.042c-1.149-1.04-1.813-2.02-1.993-2.94l.51-1.054.186-.275.445-.087zm30.418 3.143c1.074-.21 2.143.347 3.208 1.671l.019.862c.659 2.35 1.464 4.256 2.417 5.722l1.395-.273.329.234.026.13c.095.488-.149.97-.733 1.441l-1.38.27c-1.082-.495-2.003-1.514-2.762-3.057l-.321-.952-.144.028c-1.332 2.858-2.659 4.416-3.982 4.674l-.273.054c-.987.193-2.038-.756-3.153-2.847-.276-1.408.39-3.17 1.996-5.286l.919-1.18 2.439-1.491zm-3.323 7.277c.313.635.781 1.07 1.405 1.307l.417-.081c1.345-1.467 1.94-2.594 1.787-3.38-.143-.728.079-1.299.665-1.712-.266-.903-.495-1.336-.687-1.299-2.744 1.642-3.939 3.363-3.587 5.165zm14.945-15.535c.949-.185 1.556.403 1.822 1.763l.268.605c-.087.624-.024 1.482.19 2.575l.189.127 1.347-.592.822.004c-.049-.25.939-.77 2.963-1.565l.316-.062.756.51.062.316c.124.632-.025.99-.447 1.072l-.189-.127-.158.03c-2.449 1.674-4.225 2.618-5.327 2.834l-.255.378.062.316.334 2.547c.356 1.82 1.102 3.421 2.237 4.801l.633-.123.663.034c.487-.155.837-.606 1.049-1.354l1.223-1.225.475-.092.378.254.062.316c.196 1.007-.817 2.513-3.042 4.52l-.791.155c-1.993.39-3.517-1.272-4.572-4.987l-.371-1.897-.365-2.705-.189-.127-1.061.371-.317.062c-.172.034-.445-.241-.818-.825-.204-1.045.311-1.742 1.546-2.093l.475-.093c.01-.659.107-1.006.289-1.042l-.282-.601-.087-1.282-.591-2.183.701-.615zm14.107 3.003l1.255.845-.054.488c.891 3.537 1.609 5.635 2.156 6.295l.46-.09c1.69-1.485 2.222-3.828 1.596-7.029l-.248-.429c-.116-.594.176-.96.875-1.097l.46-.09c.326-.063.703.54 1.13 1.81l-.116.171.031.159c1.046 2.601 1.809 3.855 2.288 3.761l1.97-.385.352 1.036c-.699.753-1.441 1.207-2.227 1.36-.671.132-1.702-.08-3.094-.633-1.172 2.1-2.304 3.256-3.396 3.47-1.505.294-2.424-.412-2.758-2.118-.124.025-.469-.948-1.033-2.917l.144-.028-.175-.13c-.549-2.808-.474-4.28.226-4.418l.158-.03zm15.061-5.094l.187-.036c.464-.071 1.595 1.44 3.394 4.53l.373-.073.543-3.18c1.042-1.488 1.846-2.287 2.412-2.398 1.83.15 2.794.474 2.891.972-.262.947-.672 1.475-1.228 1.584l-.784-.041c-1.044.204-1.648 2.382-1.812 6.534l.399 2.041-.74 1.1c.098.498-.041.784-.414.857l-.748.146c-.163.032-.723-1.206-1.682-3.716-1.353-2.95-2.63-5.207-3.832-6.773l-.073-.374 1.114-1.173zm19.582-3.426c2.166-.423 4.082.774 5.747 3.593l.096.489c.221 1.13-.505 2-2.178 2.605l-1.135.222c-.547.107-.84.055-.882-.156l-.443.25-1.339.099.284 1.451c1.549 2.175 3.244 3.083 5.084 2.723 1.703-1.318 2.606-2.45 2.71-3.396.469.058.842.263 1.12.617l.031.158c-.665 3.165-2.377 5.017-5.137 5.557-1.758-.184-3.247-.903-4.467-2.156-.75-.988-1.746-2.644-2.986-4.969-.349-.051-.575-.345-.68-.882-.087-.44.098-.925.552-1.451-.326-1.668.881-3.252 3.623-4.754zm-.959 3.725l.031.158c.085.432 1.274.483 3.568.154l-.127-.647c-.506-.657-1.196-1.03-2.069-1.118-.537.105-1.004.59-1.403 1.453zm13.618-8.737l.083-.031c.521.017.877.181 1.067.492l.531 2.643c.008.954.104 1.85.288 2.69l-.172.496-.515.116c-.135-.232-.634-2.224-1.497-5.976l.215-.43zm11.51-.28l.862-.17 1.031.695.029.144c.015.892-.332 1.408-1.041 1.546l-1.063-.09c-1.588 1.037-2.263 2.164-2.025 3.38l.112.576c.943 1.258 2.471 2.203 4.584 2.835.697.51 1.088.981 1.172 1.413l.056.287c-.232 1.508-.975 2.798-2.228 3.869-1.009.794-1.816 1.25-2.419 1.368l-.432.085c-.249.049-.64-.422-1.172-1.413-.045-.23.321-.65 1.098-1.26l.287-.055 1.035-.053c.942-.931 1.462-1.58 1.559-1.947l-3.812-1.941c-.866-.358-1.381-.954-1.544-1.788-.163.032-.306-.19-.428-.663l-.197-1.006c-.253-1.294.607-3.004 2.579-5.131l1.957-.681zm-138.213 51.652c4.61-.902 7.506-.01 8.687 2.674l.107.546c.24 1.227-1.11 3.073-4.051 5.539-1.437 1.047-2.741 1.81-3.911 2.287.165.844 1.853 1.718 5.065 2.622.052.268.639.343 1.76.223l.209.153.036.187.151-.223.187-.037c.632-.124 1.181.088 1.646.633l.07.36c.12.613-.188 1.305-.922 2.076l-1.294.253c-1.969.056-3.854-.525-5.655-1.745l-.36.07-.15.223-.187.037.437 1.243.18.92-1.546.869c-1.074.21-2.332-1.698-3.776-5.724-.163.032-.464-.541-.904-1.719l.151-.224-.981-3.032-.037-.187c-.446-.35-.772-1.048-.976-2.092l-.25-1.28c1.008-1.968 2.245-3.096 3.712-3.382l2.602-1.27zm-3.389 5.035l.437 1.243.027 1.129c.163-.031.695.755 1.596 2.36 1.629-.318 3.94-1.785 6.931-4.4-.077-.393.146-.879.67-1.459-.905-1.216-2.076-1.684-3.513-1.403l-.792-.233c-3.728 1.037-5.513 1.958-5.356 2.763zm22.237-2.213c2.166-.424 4.082.774 5.747 3.593l.096.488c.221 1.131-.505 2-2.177 2.605l-1.136.222c-.546.107-.84.055-.881-.156l-.444.251-1.339.098.284 1.452c1.55 2.175 3.244 3.082 5.085 2.722 1.702-1.318 2.605-2.45 2.709-3.395.469.057.842.263 1.121.617l.03.158c-.664 3.165-2.377 5.017-5.137 5.557-1.757-.184-3.246-.903-4.467-2.157-.75-.988-1.746-2.644-2.986-4.969-.348-.051-.575-.345-.68-.882-.086-.44.098-.924.552-1.451-.326-1.667.882-3.252 3.623-4.753zm-.958 3.725l.031.158c.084.431 1.273.482 3.567.153l-.127-.647c-.506-.657-1.196-1.03-2.069-1.118-.537.105-1.004.59-1.402 1.454zm19.915-5.461c1.073-.21 2.142.347 3.207 1.671l.019.862c.659 2.349 1.464 4.256 2.418 5.722l1.394-.273.329.234.026.129c.095.489-.149.97-.733 1.442l-1.38.27c-1.082-.495-2.003-1.514-2.762-3.057l-.321-.952-.144.028c-1.332 2.857-2.659 4.415-3.981 4.674l-.274.053c-.987.193-2.038-.755-3.153-2.846-.276-1.409.39-3.171 1.996-5.286l.919-1.179 2.44-1.492zm-3.324 7.277c.313.635.782 1.071 1.405 1.307l.417-.082c1.345-1.467 1.941-2.593 1.787-3.379-.142-.728.079-1.299.665-1.712-.266-.903-.495-1.336-.687-1.299-2.743 1.641-3.939 3.363-3.587 5.165zm12.741-16.12l.417-.08c.566-.111 1.012.185 1.338.887l.157 1.566.307.806-.192.471.321.952.354 1.811 1.567 5.037.019.862.335.95-.115.172.025.129c.369 1.38.832 2.016 1.388 1.908l.163.834c-.04.256-.423.764-1.15 1.523l-.273.053c-.652.128-1.096-.412-1.332-1.62l-.327-.22-.008-.729-.517-2.646-1.28-3.645-.056-.288-.551-3.504-.293-.808-.168-1.55c-.092-.469-.229-.686-.411-.651-.147-1.414-.053-2.153.282-2.22zm25.489-5.565c1.485-.141 2.356.445 2.612 1.758l.071.36-.763.91-1.129.026c-1.834 1.563-2.484 3.705-1.952 6.427l-.153.209.036.187 1.981 4.329.073.374 2.102.141c2.017-1.648 3.418-2.548 4.204-2.702l.653.439.136-.22-.675-3.451-1.811.355-.77-.044-.833.551-.036-.187-.151.223-.172.034c-1.217.238-1.922-.132-2.113-1.109l-.327-.682.813-.727 1.163.146c2.777-.762 4.534-1.419 5.272-1.97l.359-.071 1.097.726.214 1.092.941 6.801.588 1.02c-.249.049-.337.568-.263 1.559l-.878 1.306c-.614.12-1.317-.245-2.11-1.095l-.408-4.07-.187.037c-1.711 2.852-3.654 4.491-5.83 4.916-1.888-.447-3.015-1.047-3.382-1.802-1.202-1.008-2.006-2.548-2.41-4.618l.186-.036-.223-.151-.177-.906c-.379-1.935.031-4.344 1.229-7.225 1.231-1.594 2.238-2.547 3.023-2.86zm16.345 2.998c3.558-.227 5.425.114 5.603 1.024.743.492 1.428 1.502 2.056 3.031l.031.158c.442 2.262-.123 4.388-1.694 6.377l-1.474.78c-1.304.255-2.758-.769-4.362-3.072l-1.121-3.214c-.333-2.87-.135-4.377.594-4.52l.367-.564zm1.533 2.805l-.034.664.093.474c1.195 3.468 2.119 5.138 2.771 5.011l.632-.124c.944-1.329 1.319-2.492 1.124-3.489-.979-2.206-2.517-3.104-4.616-2.694l.03.158zm11.877-5.427c3.558-.228 5.425.114 5.603 1.024.743.492 1.428 1.502 2.056 3.031l.031.158c.442 2.262-.123 4.388-1.694 6.377l-1.474.78c-1.304.255-2.758-.769-4.362-3.072l-1.121-3.214c-.333-2.87-.135-4.377.594-4.52l.367-.564zm1.534 2.805l-.035.664.093.474c1.195 3.468 2.119 5.138 2.771 5.011l.632-.124c.944-1.329 1.319-2.492 1.124-3.489-.979-2.206-2.517-3.104-4.616-2.694l.031.158zm18.072-11.22l.302-.06c.268-.052.608.39 1.02 1.324l.075 1.985.458 1.582.115.59.261 2.098c1.481 3.91 2.445 6.219 2.892 6.927.646.71 1.025 1.347 1.135 1.913l-.976 1.265-.144.028c-.757.148-1.375-.139-1.855-.861l-1.222-2.358-.302.059c-1.58 2.249-2.969 3.491-4.167 3.725-1.705.135-2.703-.541-2.994-2.026l-.402-1.295.057-.474-.172-.115-.028-.144c-.27-3.112.021-4.75.874-4.918.509-.805 1.181-1.29 2.014-1.453l3.004-.289.028-.617-.23-1.18-.287-.704-.232-3.477-.172-.116-.028-.144c-.117-.594.209-1.016.976-1.265zm-3.646 14.176c.358.407.679 1.006.963 1.796l.589-.115c.949-.185 1.797-1.067 2.543-2.646l.029-1.379c-.28-1.428-.975-2.108-2.086-2.04-1.667.326-2.338 1.323-2.012 2.99-.134.027-.143.491-.026 1.394zm20.647-11.336c1.368.638 2.152 1.465 2.35 2.48.848 1.178 1.436 2.61 1.766 4.297l-.026.632.29.72-.658 1.367-.446.087-1.051-.57-.234-1.193-.377-1.165-.061-1.078c-.734-2.175-1.303-3.253-1.707-3.234-.944 1.638-1.771 4.023-2.481 7.157-.832.989-1.449 1.523-1.852 1.601l-.158.031-.533-.358-.087-.446c-.208-1.064-1.111-3.574-2.711-7.53.102-.497.254-.786.458-.865l.891-.175c.364-.07 1.231 1.461 2.6 4.596l.144-.028 2.144-4.912c.785-.87 1.365-1.341 1.739-1.414zm12.283-4.566c2.166-.424 4.082.774 5.748 3.593l.095.488c.221 1.131-.504 2-2.177 2.605l-1.136.222c-.546.107-.84.055-.881-.156l-.443.251-1.34.098.284 1.452c1.55 2.175 3.245 3.082 5.085 2.722 1.702-1.318 2.606-2.45 2.709-3.395.469.057.843.263 1.121.617l.031.158c-.665 3.164-2.378 5.017-5.138 5.556-1.757-.183-3.246-.902-4.466-2.156-.751-.988-1.746-2.644-2.987-4.969-.348-.05-.575-.345-.68-.882-.086-.44.098-.924.552-1.45-.326-1.668.882-3.253 3.623-4.754zm-.958 3.725l.031.158c.084.431 1.273.482 3.567.153l-.126-.647c-.507-.657-1.197-1.03-2.07-1.118-.536.105-1.004.59-1.402 1.454zm17.065-7.442l.863-.168 1.031.694.028.143c.015.893-.332 1.409-1.041 1.547l-1.062-.09c-1.589 1.036-2.264 2.163-2.026 3.38l.112.576c.943 1.258 2.471 2.203 4.585 2.835.697.51 1.087.981 1.172 1.413l.056.287c-.233 1.508-.976 2.798-2.229 3.869-1.009.794-1.815 1.25-2.419 1.368l-.431.085c-.25.048-.64-.422-1.172-1.413-.045-.23.321-.65 1.097-1.26l.287-.056 1.035-.053c.942-.93 1.462-1.58 1.56-1.946l-3.813-1.942c-.866-.358-1.38-.954-1.543-1.787-.163.031-.306-.19-.429-.663l-.196-1.006c-.253-1.294.606-3.005 2.579-5.132l1.956-.68zm11.225-2.194l.863-.17 1.031.695.028.144c.015.892-.332 1.408-1.041 1.546l-1.063-.09c-1.588 1.037-2.263 2.164-2.025 3.38l.112.576c.943 1.258 2.471 2.203 4.585 2.835.697.51 1.087.981 1.171 1.413l.057.287c-.233 1.508-.976 2.798-2.229 3.869-1.009.794-1.815 1.25-2.419 1.369l-.431.084c-.25.049-.64-.422-1.172-1.413-.045-.23.321-.65 1.097-1.26l.287-.055 1.035-.053c.942-.93 1.462-1.58 1.56-1.947l-3.813-1.941c-.866-.358-1.381-.954-1.544-1.788-.162.032-.305-.19-.428-.663l-.196-1.006c-.253-1.294.606-3.004 2.579-5.131l1.956-.681z" fill="#66C1EA"/><path d="M223.587 70.83l.065-.495-.081-.01-.08.015.096.49zm3.106 1.304l.491-.096-.027-.136-.093-.103-.371.335zm6.607 4.633l.491-.095-.041-.21-.18-.116-.27.421zm2.52 1.896l.31-.393-.053-.041-.062-.027-.195.46zm3.37 2.655l-.309.392.437.345.296-.472-.424-.265zm.171-.273l.424.266.105-.168-.038-.194-.491.096zm-.804-4.111l.491-.096-.007-.033-.011-.032-.473.16zm-.528-1.554l-.096-.49-.561.11.184.541.473-.16zm.216-.042l.096.49.758-.148-.446-.63-.408.288zm-1.519-5.405l-.417-.275-.113.17.039.201.491-.096zm.725-1.097l-.096-.49-.205.04-.116.174.417.276zm.46-.09l.203-.457-.144-.064-.155.03.096.491zm3.13 5.09l-.491.096.005.027.009.025.477-.148zm2.576 8.288l.49-.096-.005-.027-.008-.026-.477.149zm-1.392 5.018l.096.491.091-.018.078-.049-.265-.424zm-1.38.27l-.257.43.165.098.188-.037-.096-.49zm-5.966-5.013l.421-.27-.183-.286-.334.066.096.49zm-4.455-3.397l.324-.381-.036-.031-.042-.023-.246.435zm-1.88-1.066l.246-.435-.161-.09-.181.035.096.49zm-.23.045l-.096-.49-.203.04-.116.171.415.28zm-.185.275l.096.491.203-.04.116-.171-.415-.28zm-.23.045l-.096-.49-.534.104.149.523.481-.137zm1.534 5.402l.414.28.13-.193-.063-.224-.481.137zm-.185.275l-.415-.28-.116.173.04.203.491-.096zm.044.23l-.49.096.009.046.017.043.464-.185zm1.407 3.531l.5.019.004-.106-.039-.098-.465.185zm-.823 1.818l-.009.5h.053l.052-.01-.096-.49zm-3.865-5.185l-.491.096.003.015.004.015.484-.126zm-.627-3.206l-.499-.02-.003.058.011.058.491-.096zm.039-.948l.499.02.006-.137-.066-.12-.439.237zm-.351-.648l-.498.038.008.107.05.093.44-.238zm-.141-1.867l.498-.038-.006-.088-.036-.08-.456.206zm-.396-.878l-.499-.019-.005.117.048.107.456-.205zm.036-.963l.5.019.005-.138-.067-.121-.438.24zm-.348-.633l-.096-.49-.671.13.329.6.438-.24zm.216-.042l.096.49.98-.191-.741-.67-.335.37zm-1.993-2.94l-.45-.217-.072.15.032.164.49-.096zm.51-1.054l-.414-.28-.02.03-.016.032.45.218zm.186-.275l-.096-.49-.204.039-.115.172.415.279zm.38.408c1.411.186 2.305.595 2.799 1.143l.743-.67c-.726-.805-1.901-1.265-3.412-1.464l-.13.991zm2.68.904a.703.703 0 0 0 .118.265c.041.057.088.112.135.161.095.099.22.21.368.332.298.245.727.562 1.281.95 1.11.78 2.754 1.864 4.927 3.251l.539-.843c-2.17-1.385-3.8-2.46-4.892-3.226a21.379 21.379 0 0 1-1.22-.905 3.493 3.493 0 0 1-.281-.25l-.029-.033-.009-.011.004.006.01.017a.417.417 0 0 1 .031.094l-.982.192zm6.608 4.633c.094.484.454.89.908 1.23.467.352 1.109.693 1.908 1.03l.389-.92c-.763-.323-1.322-.627-1.695-.908-.386-.29-.505-.504-.529-.623l-.981.192zm2.701 2.193l3.37 2.654.619-.785-3.37-2.655-.619.786zm4.103 2.527l.171-.272-.848-.531-.17.272.847.531zm.238-.634l-.804-4.111-.982.192.804 4.111.982-.192zm-.822-4.176l-.527-1.554-.947.322.528 1.554.946-.322zm-.905-.902l.216-.042-.192-.982-.216.043.192.98zm.528-.822c-.357-.506-.73-1.6-1.08-3.386l-.981.192c.348 1.78.75 3.071 1.245 3.772l.816-.578zm-1.08-3.386l-.357-1.825-.981.191.357 1.826.981-.192zm-.43-1.454l.725-1.097-.834-.552-.725 1.098.834.551zm.404-.882l.46-.09-.192-.981-.46.09.192.981zm.162-.123c1.335.591 2.325 2.085 2.841 4.728l.982-.192c-.54-2.762-1.637-4.661-3.418-5.45l-.405.913zm2.855 4.78l2.575 8.288.955-.297-2.576-8.287-.954.296zm2.562 8.236c.466 2.38-.018 3.78-1.167 4.499l.531.847c1.67-1.046 2.115-2.993 1.617-5.538l-.981.192zm-.997 4.432l-1.38.27.192.98 1.38-.269-.192-.981zm-1.028.33c-2.956-1.765-4.862-3.387-5.801-4.852l-.842.539c1.067 1.665 3.137 3.385 6.13 5.172l.513-.858zm-6.318-5.073c.087-.017.148-.002.154 0 .013.003.012.004-.007-.004a1.75 1.75 0 0 1-.204-.115 11.933 11.933 0 0 1-.844-.601c-.732-.558-1.776-1.413-3.134-2.568l-.648.762c1.362 1.158 2.422 2.026 3.175 2.601.376.286.684.507.921.654.117.073.229.137.33.181.05.023.11.046.173.061a.64.64 0 0 0 .276.01l-.192-.981zm-4.113-3.342l-1.88-1.066-.493.87 1.88 1.066.493-.87zm-2.222-1.121l-.23.045.192.981.23-.045-.192-.981zm-.549.256l-.185.275.83.558.185-.275-.83-.558zm.134.064l-.23.045.192.981.23-.045-.192-.981zm-.615.672l1.534 5.402.962-.273-1.534-5.402-.962.273zm1.6 4.986l-.185.275.829.558.185-.275-.829-.558zm-.261.65l.045.23.981-.192-.045-.23-.981.192zm.071.32l1.407 3.53.929-.37-1.407-3.531-.929.37zm1.372 3.327c-.02.529-.095.884-.193 1.1-.092.203-.176.235-.227.245l.192.982c.457-.09.763-.41.946-.814.176-.388.259-.893.281-1.476l-.999-.037zm-.316 1.336c-.647-.01-1.259-.339-1.839-1.116-.589-.79-1.113-2.008-1.55-3.694l-.968.25c.452 1.742 1.016 3.103 1.716 4.041.709.95 1.584 1.501 2.624 1.519l.017-1zm-3.382-4.78l-.627-3.207-.982.192.627 3.206.982-.192zm-.618-3.09l.038-.948-.999-.041-.038.948.999.04zm-.022-1.207l-.35-.648-.88.476.351.648.879-.476zm-.291-.447l-.142-1.868-.997.075.142 1.868.997-.075zm-.184-2.036l-.396-.878-.912.411.396.878.912-.41zm-.352-.654l.036-.962-1-.037-.035.962.999.037zm-.026-1.221l-.347-.634-.877.481.348.634.876-.481zm-.69.097l.216-.042-.192-.981-.216.042.192.981zm.455-.903c-1.116-1.01-1.687-1.9-1.837-2.664l-.981.192c.21 1.075.967 2.145 2.147 3.213l.671-.741zm-1.878-2.35l.511-1.055-.901-.436-.51 1.055.9.436zm.475-.994l.185-.275-.829-.558-.185.275.829.558zm-.134-.063l.446-.088-.192-.981-.445.087.191.981zm30.768 2.564l-.095-.49-.089.016-.076.047.26.427zm3.208 1.671l.5-.01-.004-.17-.106-.133-.39.313zm.019.862l-.5.011.002.064.017.06.481-.135zm2.417 5.722l-.419.272.184.283.331-.064-.096-.491zm1.395-.273l.29-.407-.175-.125-.211.041.096.491zm.329.234l.491-.096-.038-.196-.163-.115-.29.407zm-.707 1.572l.096.49.121-.024.097-.078-.314-.389zm-1.38.27l-.209.454.147.067.157-.03-.095-.492zm-2.762-3.058l-.474.16.01.031.015.03.449-.22zm-.321-.952l.474-.16-.14-.415-.43.084.096.491zm-.144.028l-.096-.49-.249.048-.108.23.453.212zm-7.408 1.881l-.491.096.014.074.036.066.441-.236zm1.996-5.286l-.394-.307-.004.005.398.302zm.919-1.18l-.261-.426-.078.048-.056.072.395.307zm-.884 5.786l-.491.096.013.065.029.06.449-.221zm1.405 1.307l-.177.468.133.05.14-.027-.096-.49zm.417-.081l.096.49.161-.031.111-.121-.368-.338zm2.452-5.092l.288.409.293-.207-.101-.343-.48.141zm-.687-1.299l-.096-.49-.085.017-.075.044.256.43zm-.168-1.621c.803-.157 1.704.227 2.722 1.494l.78-.627c-1.111-1.382-2.349-2.112-3.693-1.849l.191.982zm2.612 1.192l.019.861 1-.022-.019-.862-1 .023zm.038.985c.667 2.38 1.49 4.338 2.479 5.86l.839-.546c-.917-1.41-1.706-3.266-2.355-5.584l-.963.27zm2.994 6.078l1.395-.273-.192-.982-1.394.273.191.982zm1.009-.356l.33.234.579-.815-.329-.234-.58.815zm.129-.078l.025.13.981-.192-.025-.13-.981.192zm.025.13c.044.223-.036.535-.557.957l.629.777c.648-.523 1.057-1.172.909-1.926l-.981.192zm-.338.855l-1.38.27.191.981 1.381-.27-.192-.981zm-1.076.306c-.94-.43-1.791-1.339-2.522-2.823l-.897.441c.788 1.602 1.778 2.73 3.002 3.291l.417-.91zm-2.497-2.762l-.32-.952-.948.319.321.952.947-.32zm-.89-1.284l-.144.028.192.982.144-.028-.192-.982zm-.501.308c-.656 1.407-1.299 2.467-1.922 3.199-.626.735-1.197 1.097-1.702 1.196l.191.981c.817-.16 1.572-.706 2.272-1.529.705-.826 1.392-1.975 2.067-3.425l-.906-.422zm-3.624 4.395l-.274.053.192.981.273-.053-.191-.981zm-.274.053c-.282.055-.638-.033-1.097-.447-.464-.418-.973-1.12-1.519-2.144l-.882.47c.569 1.068 1.143 1.885 1.731 2.416.591.534 1.255.824 1.959.686l-.192-.981zm-2.567-2.451c-.232-1.188.317-2.798 1.904-4.888l-.796-.605c-1.625 2.14-2.408 4.055-2.089 5.684l.981-.191zm1.901-4.883l.918-1.18-.789-.614-.918 1.18.789.614zm.785-1.06l2.439-1.493-.521-.853-2.44 1.492.522.853zm-1.594 5.579c.366.74.927 1.27 1.677 1.554l.354-.935c-.497-.189-.873-.532-1.134-1.061l-.897.442zm1.95 1.577l.417-.082-.192-.981-.417.082.192.98zm.689-.234c.687-.75 1.204-1.434 1.529-2.05.322-.608.489-1.209.381-1.764l-.982.192c.045.232-.009.587-.283 1.105-.27.51-.724 1.123-1.382 1.84l.737.677zm1.91-3.814c-.057-.29-.036-.517.034-.697.07-.179.202-.35.428-.51l-.576-.818c-.359.254-.632.574-.784.966-.152.39-.169.814-.084 1.251l.982-.192zm.654-1.757c-.136-.46-.271-.833-.409-1.095a1.393 1.393 0 0 0-.265-.367.668.668 0 0 0-.589-.186l.192.981a.335.335 0 0 1-.287-.066c-.006-.006.018.017.065.106.09.171.203.466.333.91l.96-.283zm-1.423-1.587c-2.777 1.661-4.24 3.552-3.822 5.69l.982-.192c-.287-1.466.642-3.018 3.353-4.64l-.513-.858zm11.614-9.94l-.096-.491-.132.026-.102.088.33.376zm1.822 1.762l-.49.096.011.055.022.052.457-.203zm.268.605l.495.069.02-.141-.058-.13-.457.202zm.19 2.575l-.491.096.04.203.172.116.279-.415zm.189.127l-.279.415.228.153.252-.11-.201-.458zm1.347-.592l.002-.5h-.106l-.097.042.201.458zm.822.004l-.003.5.61.002-.117-.598-.49.096zm2.963-1.565l-.096-.49-.045.008-.042.017.183.465zm.316-.062l.279-.414-.172-.116-.203.04.096.49zm.756.51l.491-.097-.04-.203-.172-.115-.279.414zm-.385 1.388l-.279.415.172.116.203-.04-.096-.49zm-.189-.127l.279-.415-.172-.115-.203.04.096.49zm-.158.03l-.096-.49-.101.02-.085.058.282.413zm-5.327 2.834l-.096-.491-.203.04-.116.171.415.28zm-.255.378l-.415-.28-.115.172.04.204.49-.096zm.062.316l.496-.065-.002-.016-.003-.015-.491.096zm.334 2.547l-.496.065.002.015.003.016.491-.096zm2.237 4.801l-.386.318.19.23.292-.057-.096-.49zm.633-.123l.026-.5-.062-.003-.06.012.096.49zm.663.034l-.026.5.091.004.087-.028-.152-.476zm1.049-1.354l-.354-.354-.092.092-.035.125.481.137zm1.223-1.225l-.096-.49-.149.029-.108.108.353.353zm.475-.092l.279-.415-.172-.116-.203.04.096.49zm.378.254l.491-.096-.04-.203-.172-.116-.279.415zm-2.98 4.836l.096.491.136-.026.103-.093-.335-.372zm-5.363-4.832l-.491.096.004.02.006.02.481-.136zm-.371-1.897l-.495.066.002.015.002.014.491-.095zm-.365-2.705l.496-.067-.03-.223-.186-.125-.28.415zm-.189-.127l.279-.415-.207-.14-.237.083.165.472zm-1.061.371l.096.491.035-.007.034-.012-.165-.472zm-1.135-.763l-.49.096.018.093.051.08.421-.269zm1.546-2.093l-.096-.491-.02.004-.02.006.136.48zm.475-.093l.096.49.397-.077.007-.405-.5-.008zm.289-1.042l.096.49.628-.122-.272-.58-.452.212zm-.282-.601l-.499.033.006.094.04.085.453-.212zm-.087-1.282l.499-.034-.003-.049-.013-.048-.483.13zm-.591-2.183l-.329-.376-.235.206.082.3.482-.13zm.797-.124c.341-.067.556.008.724.17.196.19.387.56.512 1.198l.981-.192c-.141-.722-.387-1.327-.798-1.724-.44-.426-1.003-.552-1.611-.433l.192.981zm1.269 1.475l.268.604.914-.404-.267-.605-.915.405zm.23.333c-.099.705-.023 1.628.194 2.74l.982-.192c-.21-1.073-.261-1.868-.186-2.41l-.99-.138zm.406 3.059l.189.127.558-.83-.189-.127-.558.83zm.669.17l1.347-.592-.402-.916-1.347.592.402.916zm1.144-.55l.821.004.005-1-.822-.004-.004 1zm1.314-.592c.03.15-.033.25-.043.266-.013.019-.013.011.028-.022a2.98 2.98 0 0 1 .462-.284c.469-.247 1.2-.568 2.208-.963l-.365-.931c-1.016.398-1.79.735-2.31 1.01a3.912 3.912 0 0 0-.63.395 1.129 1.129 0 0 0-.227.242.64.64 0 0 0-.104.479l.981-.192zm2.568-.978l.317-.062-.192-.981-.316.062.191.981zm-.058-.138l.756.51.558-.83-.756-.51-.558.83zm.544.19l.062.317.982-.192-.062-.317-.982.192zm.062.317c.054.277.029.408.01.454-.003.009-.006.012-.006.013-.001 0-.001 0 0 0l-.011.006a.251.251 0 0 1-.045.012l.192.982c.354-.07.647-.277.793-.629.131-.312.118-.675.049-1.03l-.982.192zm.323.561l-.189-.127-.558.83.189.127.558-.83zm-.564-.203l-.158.031.192.981.158-.03-.192-.982zm-.344.109c-1.216.83-2.256 1.474-3.122 1.934-.873.464-1.541.727-2.019.82l.192.982c.623-.122 1.394-.439 2.297-.919.91-.484 1.982-1.149 3.216-1.991l-.564-.826zm-5.46 2.966l-.255.379.83.558.255-.378-.83-.559zm-.33.754l.061.316.982-.192-.062-.316-.981.192zm.056.285l.334 2.547.992-.13-.334-2.547-.992.13zm.339 2.578c.372 1.899 1.152 3.576 2.342 5.023l.772-.636c-1.08-1.313-1.792-2.837-2.132-4.58l-.982.193zm2.824 5.196l.633-.124-.192-.981-.633.123.192.982zm.511-.115l.663.034.052-.998-.663-.035-.052.999zm.841.011c.718-.228 1.145-.873 1.378-1.694l-.962-.273c-.191.675-.464.933-.719 1.014l.303.953zm1.251-1.477l1.223-1.224-.707-.707-1.224 1.224.708.707zm.965-1.087l.475-.093-.192-.981-.475.093.192.981zm.1-.169l.378.255.558-.83-.378-.254-.558.83zm.166-.064l.062.316.981-.192-.061-.316-.982.192zm.062.316c.059.303-.052.788-.537 1.51-.474.705-1.25 1.552-2.349 2.543l.67.743c1.126-1.016 1.969-1.926 2.509-2.728.528-.785.826-1.557.688-2.26l-.981.192zm-2.647 3.934l-.791.154.192.982.791-.155-.192-.981zm-.791.154c-.804.158-1.513-.082-2.173-.801-.685-.747-1.303-2.003-1.822-3.831l-.962.273c.536 1.886 1.207 3.318 2.047 4.234.864.942 1.913 1.34 3.102 1.107l-.192-.982zm-3.985-4.592l-.371-1.897-.982.192.371 1.897.982-.192zm-.366-1.868l-.365-2.705-.991.134.365 2.704.991-.133zm-.581-3.053l-.19-.127-.558.83.189.127.559-.83zm-.634-.184l-1.062.371.331.944 1.062-.372-.331-.943zm-.992.353l-.317.061.192.982.317-.062-.192-.981zm-.317.061c.112-.022.184.018.187.019.003.002-.02-.01-.069-.06-.1-.1-.239-.28-.418-.562l-.843.538c.193.302.377.552.55.727.087.087.188.174.303.236a.719.719 0 0 0 .482.084l-.192-.982zm-.231-.43c-.082-.418-.011-.703.145-.914.167-.226.487-.443 1.047-.603l-.273-.961c-.675.191-1.23.498-1.579.97-.359.487-.444 1.074-.321 1.7l.981-.192zm1.151-1.507l.475-.093-.192-.98-.475.092.192.981zm.879-.575c.005-.316.031-.517.062-.629.015-.056.024-.06.01-.042a.306.306 0 0 1-.187.112l-.192-.981c-.403.078-.543.457-.595.644-.065.235-.093.537-.098.88l1 .016zm.241-1.262l-.281-.602-.906.425.282.601.905-.424zm-.235-.423l-.087-1.282-.997.068.086 1.281.998-.067zM266 68.382l-.591-2.183-.965.262.591 2.183.965-.262zm-.744-1.676l.701-.615-.66-.752-.7.615.659.752zm14.478 2.012l.279-.415-.172-.115-.203.04.096.49zm1.255.845l.497.054.033-.3-.251-.17-.279.416zm-.054.488l-.497-.055-.01.09.022.087.485-.122zm2.156 6.295l-.385.319.19.228.291-.056-.096-.491zm.46-.09l.096.49.133-.025.101-.09-.33-.375zm1.596-7.029l.491-.096-.016-.082-.042-.072-.433.25zm-.248-.429l-.491.096.016.082.042.072.433-.25zm2.465.623l.415.279.138-.205-.079-.234-.474.16zm-.116.171l-.414-.279-.116.172.04.203.49-.096zm.031.159l-.49.096.009.046.018.044.463-.186zm4.258 3.376l.473-.16-.14-.414-.429.084.096.49zm.352 1.036l.366.34.203-.219-.096-.282-.473.16zm-5.321.727l.185-.465-.408-.162-.214.383.437.244zm-6.154 1.352l.491-.096-.096-.49-.491.096.096.49zm-1.033-2.917l-.096-.49-.535.104.15.524.481-.138zm.144-.028l.096.49 1.109-.217-.907-.674-.298.4zm-.175-.13l-.491.096.037.19.156.115.298-.401zm.105-4.034l1.255.844.558-.83-1.255-.844-.558.83zm1.037.375l-.054.488.994.11.054-.489-.994-.11zm-.042.665c.447 1.775.853 3.199 1.219 4.267.357 1.043.698 1.816 1.037 2.225l.77-.638c-.207-.25-.5-.856-.861-1.912-.353-1.03-.751-2.424-1.195-4.186l-.97.244zm2.737 6.663l.46-.09-.192-.98-.46.09.192.98zm.694-.205c1.879-1.65 2.4-4.21 1.757-7.5l-.982.192c.609 3.113.066 5.238-1.435 6.557l.66.751zm1.699-7.654l-.248-.43-.866.501.248.43.866-.501zm-.19-.275c-.039-.198.003-.276.032-.312.041-.052.156-.14.448-.198l-.192-.981c-.407.08-.788.242-1.038.555-.263.33-.309.732-.232 1.128l.982-.192zm.48-.51l.46-.09-.192-.981-.46.09.192.981zm.46-.09c-.102.02-.16-.027-.146-.017.02.016.074.069.153.196.157.251.343.675.553 1.3l.948-.32c-.217-.645-.433-1.158-.653-1.51a1.724 1.724 0 0 0-.392-.459.812.812 0 0 0-.655-.171l.192.981zm.619 1.04l-.115.171.829.559.116-.172-.83-.559zm-.191.546l.031.159.981-.192-.031-.159-.981.192zm.058.25c.525 1.307.99 2.301 1.393 2.964.199.329.4.603.604.793.188.176.486.38.85.308l-.192-.981c.125-.025.148.057.025-.057-.106-.1-.251-.284-.433-.583-.359-.59-.799-1.524-1.32-2.818l-.927.373zm2.847 4.065l1.97-.385-.192-.981-1.97.385.192.981zm1.4-.715l.352 1.036.947-.322-.352-1.036-.947.322zm.459.535c-.647.698-1.3 1.082-1.956 1.21l.192.981c.916-.179 1.747-.702 2.497-1.511l-.733-.68zm-1.956 1.21c-.516.1-1.427-.056-2.813-.608l-.37.93c1.398.555 2.549.82 3.375.66l-.192-.982zm-3.435-.387c-.573 1.028-1.124 1.801-1.648 2.337-.526.537-.996.806-1.407.886l.192.982c.681-.134 1.323-.55 1.929-1.17.609-.62 1.209-1.476 1.807-2.547l-.873-.488zm-3.055 3.223c-.66.13-1.106.025-1.418-.214-.324-.25-.598-.717-.753-1.509l-.982.192c.179.915.532 1.653 1.126 2.11.607.466 1.373.568 2.219.403l-.192-.982zm-2.758-2.117a.464.464 0 0 1 .345.066c.053.034.08.069.085.075.011.014.004.008-.02-.041a4.802 4.802 0 0 1-.194-.488 40.182 40.182 0 0 1-.672-2.177l-.962.276c.283.987.514 1.734.691 2.235a5.9 5.9 0 0 0 .24.597c.035.07.079.151.135.222.028.034.076.089.147.136a.534.534 0 0 0 .397.08l-.192-.981zm-.841-1.936l.144-.029-.192-.981-.144.028.192.981zm.346-.92l-.174-.13-.597.802.174.13.597-.802zm.018.175c-.273-1.394-.381-2.416-.347-3.09.017-.339.07-.547.125-.662a.266.266 0 0 1 .051-.078l.002-.001-.192-.981c-.368.072-.616.323-.762.626-.139.288-.202.649-.223 1.046-.04.799.088 1.918.364 3.332l.982-.192zm-.169-3.831l.158-.031-.192-.981-.158.03.192.982zm15.123-5.616l-.096-.49-.156.03-.11.116.362.344zm.187-.036l-.075-.495-.011.002-.01.002.096.49zm3.394 4.53l-.433.252.179.307.349-.068-.095-.49zm.373-.073l.096.49.339-.065.058-.34-.493-.085zm.543-3.18l-.41-.287-.064.092-.019.11.493.085zm2.412-2.398l.04-.498-.069-.006-.067.014.096.49zm2.891.972l.482.134.032-.114-.023-.116-.491.096zm-1.228 1.584l-.025.5.061.002.06-.012-.096-.49zm-.784-.041l.026-.5-.061-.002-.061.011.096.491zm-1.812 6.534l-.499-.02-.003.058.011.058.491-.096zm.399 2.041l.415.28.116-.173-.04-.203-.491.096zm-.74 1.1l-.415-.28-.115.173.039.203.491-.096zm-2.844-2.713l.467-.178-.005-.015-.007-.015-.455.208zm-3.832-6.773l-.49.096.022.115.072.093.396-.304zm-.073-.374l-.362-.344-.178.187.05.253.49-.096zm1.21-.682l.187-.037-.192-.981-.187.036.192.982zm.167-.033c-.088.013-.13-.018-.099-.002a.855.855 0 0 1 .161.122c.164.148.383.397.658.765.548.731 1.269 1.862 2.165 3.403l.865-.503c-.902-1.55-1.646-2.72-2.229-3.5-.29-.387-.554-.695-.789-.907a1.794 1.794 0 0 0-.374-.27.836.836 0 0 0-.509-.097l.151.989zm3.413 4.527l.374-.073-.192-.981-.373.073.191.981zm.771-.48l.542-3.18-.985-.169-.543 3.181.986.168zm.459-2.978c.513-.732.956-1.277 1.328-1.647.388-.386.641-.52.771-.546l-.192-.981c-.437.085-.868.405-1.284.818-.432.429-.912 1.027-1.442 1.782l.819.574zm1.962-2.185c.901.073 1.552.188 1.977.33.212.072.342.142.413.197.069.053.057.07.052.042l.981-.192a1.075 1.075 0 0 0-.42-.64 2.417 2.417 0 0 0-.707-.354c-.54-.182-1.286-.304-2.215-.38l-.081.997zm2.45.34c-.251.904-.581 1.175-.841 1.226l.191.981c.851-.166 1.34-.95 1.614-1.94l-.964-.267zm-.72 1.217l-.784-.04-.052.998.785.041.051-.999zm-.906-.032c-.429.084-.763.364-1.016.73-.25.362-.447.842-.606 1.414-.318 1.145-.511 2.773-.593 4.861l.999.04c.081-2.064.271-3.6.558-4.634.143-.517.303-.879.465-1.112.159-.23.292-.3.385-.317l-.192-.982zm-2.207 7.12l.4 2.042.981-.192-.399-2.041-.982.192zm.476 1.667l-.741 1.1.83.558.74-1.1-.829-.558zm-.817 1.475a.911.911 0 0 1 .021.212c-.003.047-.011.063-.01.063a.053.053 0 0 1 .015-.018c.004-.003-.006.006-.045.013l.192.982c.306-.06.586-.229.738-.542.137-.283.129-.605.071-.902l-.982.192zm-.019.27l-.748.147.192.981.748-.146-.192-.981zm-.748.147a.45.45 0 0 1 .317.052.309.309 0 0 1 .068.053.757.757 0 0 1-.057-.086 6.913 6.913 0 0 1-.319-.64c-.274-.605-.649-1.53-1.128-2.783l-.934.357c.48 1.257.864 2.205 1.151 2.838.142.315.267.566.373.742.051.085.11.175.177.248a.698.698 0 0 0 .157.13c.068.04.208.105.387.07l-.192-.981zm-1.131-3.434c-1.36-2.965-2.656-5.26-3.89-6.87l-.793.61c1.169 1.523 2.428 3.743 3.774 6.677l.909-.417zm-3.796-6.661l-.073-.374-.981.192.073.374.981-.192zm-.201.066l1.114-1.173-.725-.688-1.114 1.173.725.688zm20.333-4.943l-.096-.49-.076.015-.068.037.24.438zm5.747 3.593l.491-.096-.017-.084-.043-.074-.431.254zm-2.082 3.094l.096.49.038-.007.037-.013-.171-.47zm-2.017.066l.491-.096-.133-.68-.604.34.246.436zm-.443.25l.036.5.112-.009.098-.055-.246-.435zm-1.339.099l-.037-.5-.562.042.108.553.491-.096zm.284 1.451l-.491.096.021.107.062.088.408-.29zm5.084 2.723l.096.49.117-.022.093-.073-.306-.395zm2.71-3.396l.061-.496-.503-.062-.055.504.497.054zm1.12.617l.491-.096-.023-.118-.075-.095-.393.309zm.031.158l.49.103.02-.1-.019-.099-.491.096zm-5.137 5.557l-.052.497.074.008.074-.014-.096-.49zm-4.467-2.156l-.398.302.018.024.022.022.358-.349zm-2.986-4.969l.441-.235-.119-.223-.25-.037-.072.495zm-.128-2.333l.378.326.159-.184-.047-.238-.49.096zm2.664-1.029l-.454-.21-.067.148.031.158.49-.096zm3.599.312l.071.495.52-.075-.101-.516-.49.096zm-.127-.647l.491-.096-.023-.116-.072-.094-.396.306zm-2.069-1.118l.05-.498-.074-.007-.072.014.096.49zm-.348-1.78c.955-.188 1.847-.02 2.7.513.866.541 1.712 1.473 2.521 2.843l.861-.51c-.857-1.449-1.802-2.525-2.852-3.181-1.062-.664-2.212-.884-3.422-.647l.192.981zm5.16 3.197l.096.489.981-.192-.095-.489-.982.192zm.096.489c.082.42-.007.767-.271 1.083-.283.338-.789.667-1.586.956l.341.94c.876-.317 1.569-.725 2.012-1.255.461-.552.624-1.206.485-1.916l-.981.192zm-1.783 2.018l-1.135.222.192.982 1.135-.222-.192-.982zm-1.135.222a2.405 2.405 0 0 1-.299.042.659.659 0 0 1-.148-.002c-.023-.004.005-.004.048.03a.287.287 0 0 1 .104.169l-.981.192a.71.71 0 0 0 .26.426c.127.1.271.145.394.167.24.043.523.014.814-.042l-.192-.982zm-1.032-.1l-.443.25.492.871.444-.25-.493-.871zm-.233.187l-1.34.098.073.997 1.339-.097-.072-.998zm-1.794.692l.284 1.452.981-.191-.284-1.453-.981.192zm.367 1.647c1.608 2.255 3.476 3.335 5.588 2.922l-.192-.98c-1.568.306-3.089-.43-4.581-2.523l-.815.58zm5.798 2.827c.869-.673 1.554-1.313 2.039-1.92.482-.605.795-1.212.862-1.816l-.994-.11c-.038.343-.228.774-.649 1.302-.418.523-1.036 1.108-1.87 1.753l.612.791zm2.343-3.294c.345.042.596.185.788.43l.786-.62a2.117 2.117 0 0 0-1.452-.803l-.122.993zm.691.216l.031.158.981-.192-.031-.158-.981.192zm.032-.04c-.319 1.518-.881 2.682-1.661 3.526-.776.839-1.795 1.39-3.083 1.642l.192.982c1.471-.288 2.689-.932 3.625-1.945.933-1.01 1.56-2.354 1.906-4l-.979-.206zm-4.596 5.162c-1.643-.172-3.023-.839-4.161-2.008l-.716.697c1.303 1.339 2.9 2.11 4.773 2.305l.104-.994zm-4.121-1.962c-.724-.954-1.704-2.58-2.943-4.901l-.882.47c1.242 2.329 2.253 4.015 3.029 5.036l.796-.605zm-3.312-5.16c-.038-.006-.069-.02-.108-.07-.048-.064-.11-.189-.154-.414l-.981.192c.119.61.43 1.182 1.098 1.28l.145-.989zm-.262-.484c-.043-.223.031-.554.44-1.029l-.757-.653c-.499.578-.793 1.215-.664 1.874l.981-.192zm.552-1.451c-.13-.67.035-1.34.569-2.04.544-.714 1.463-1.445 2.804-2.179l-.48-.877c-1.401.767-2.456 1.579-3.12 2.45-.674.884-.949 1.84-.754 2.838l.981-.192zm1.684-.837l.031.158.981-.192-.031-.158-.981.192zm.031.158c.069.357.357.538.584.624.233.088.523.128.84.142.642.027 1.55-.048 2.705-.213l-.142-.99c-1.14.163-1.973.227-2.52.204-.278-.012-.444-.046-.529-.078-.092-.035.015-.022.043.12l-.981.191zm4.548-.038l-.126-.647-.981.192.126.647.981-.192zm-.221-.857c-.596-.772-1.414-1.209-2.415-1.31l-.1.995c.745.075 1.306.385 1.723.926l.792-.61zm-2.561-1.303c-.781.153-1.344.83-1.761 1.735l.909.418c.379-.823.752-1.114 1.044-1.171l-.192-.982zm12.311-6.793l-.175-.468-.185.069-.088.176.448.223zm.083-.031l.017-.5-.099-.004-.093.035.175.469zm1.067.492l.49-.098-.017-.087-.047-.075-.426.26zm.531 2.643l.5-.004v-.048l-.009-.047-.491.099zm.288 2.69l.472.164.046-.133-.03-.138-.488.107zm-.172.496l.11.488.271-.06.092-.264-.473-.164zm-.515.116l-.432.251.184.317.358-.08-.11-.488zm-1.497-5.976l-.447-.223-.08.16.04.175.487-.112zm.39.038l.084-.031-.351-.937-.083.032.35.936zm-.109 0c.431.015.589.143.657.254l.853-.521c-.312-.51-.865-.712-1.476-.732l-.034 1zm.594.092l.531 2.643.981-.198-.532-2.642-.98.197zm.521 2.548c.008.985.107 1.916.299 2.793l.977-.214a12.57 12.57 0 0 1-.276-2.587l-1 .008zm.315 2.523l-.171.496.945.327.171-.496-.945-.327zm.192.172l-.515.115.219.976.515-.116-.219-.975zm.027.352c.012.02.003.01-.026-.078a6.236 6.236 0 0 1-.095-.312c-.077-.27-.178-.653-.302-1.149-.248-.991-.588-2.423-1.019-4.298l-.975.224c.432 1.877.773 3.316 1.024 4.317.125.5.229.894.31 1.18.041.142.077.262.109.357.027.08.063.182.109.261l.865-.502zm-1.482-5.502l.214-.43-.895-.446-.214.43.895.446zm11.277-.933l-.096-.491-.035.007-.034.011.165.473zm.862-.17l.279-.414-.172-.116-.203.04.096.49zm1.031.695l.491-.096-.04-.203-.171-.116-.28.415zm.029.144l.499-.009v-.044l-.009-.043-.49.096zm-1.041 1.546l-.043.499.07.006.069-.014-.096-.49zm-1.063-.09l.043-.498-.172-.015-.144.094.273.419zm-1.913 3.956l-.491.096.022.112.069.092.4-.3zm4.584 2.835l.296-.403-.07-.051-.083-.025-.143.479zm1.228 1.7l.494.076.014-.086-.017-.086-.491.096zm-2.228 3.869l.309.393.008-.006.007-.007-.324-.38zm-4.023.04l-.49.096.014.074.036.067.44-.237zm1.098-1.26l-.096-.49-.119.023-.094.075.309.393zm.287-.055l-.026-.5-.035.002-.035.007.096.49zm1.035-.053l.025.499.19-.01.136-.134-.351-.355zm1.559-1.947l.484.128.103-.39-.36-.184-.227.446zm-3.812-1.941l.227-.446-.018-.009-.018-.008-.191.463zm-1.544-1.788l.491-.096-.096-.49-.491.095.096.49zm-.428-.663l-.491.096.003.015.004.014.484-.125zm2.382-6.137l-.164-.473-.118.041-.084.092.366.34zm2.053-.19l.862-.17-.192-.98-.862.168.192.981zm.487-.245l1.031.694.559-.83-1.032-.694-.558.83zm.82.375l.028.143.981-.191-.028-.144-.981.192zm.019.056c.006.387-.068.625-.164.769-.087.13-.226.23-.473.279l.192.981c.461-.09.851-.316 1.111-.702.25-.373.342-.838.333-1.344l-.999.017zm-.499 1.04l-1.062-.09-.085.996 1.062.09.085-.996zm-1.378-.011c-1.655 1.08-2.539 2.38-2.243 3.896l.981-.192c-.179-.919.287-1.873 1.808-2.867l-.546-.837zm-2.243 3.896l.112.575.982-.192-.113-.575-.981.192zm.203.779c1.028 1.372 2.665 2.364 4.841 3.014l.286-.958c-2.051-.613-3.47-1.512-4.327-2.656l-.8.6zm4.689 2.938c.68.499.931.872.976 1.106l.982-.192c-.123-.63-.654-1.198-1.367-1.72l-.591.806zm.976 1.106l.057.287.981-.192-.056-.287-.982.192zm.053.115c-.213 1.38-.889 2.565-2.059 3.565l.649.76c1.337-1.142 2.146-2.536 2.398-4.173l-.988-.152zm-2.044 3.552c-1 .788-1.727 1.177-2.205 1.27l.191.982c.729-.142 1.615-.665 2.633-1.466l-.619-.786zm-2.205 1.27l-.432.085.192.982.431-.085-.191-.981zm-.432.085c.119-.023.184.03.158.013a.864.864 0 0 1-.157-.158c-.163-.197-.375-.528-.636-1.013l-.881.473c.271.504.52.904.748 1.178.112.136.237.263.375.354a.788.788 0 0 0 .585.135l-.192-.982zm-.585-1.018c.019.095-.015.143.001.11a.903.903 0 0 1 .126-.173c.152-.175.409-.41.788-.707l-.617-.787c-.397.312-.712.592-.925.837a1.89 1.89 0 0 0-.269.387.833.833 0 0 0-.085.525l.981-.192zm.702-.672l.288-.057-.192-.981-.287.056.191.981zm.218-.048l1.034-.053-.051-.999-1.035.053.052.999zm1.36-.197c.478-.472.859-.882 1.136-1.227.263-.33.478-.654.556-.947l-.967-.256c-.02.074-.114.258-.37.577-.243.303-.593.683-1.058 1.142l.703.711zm1.435-2.748l-3.812-1.941-.454.891 3.812 1.941.454-.89zm-3.848-1.958c-.73-.301-1.117-.771-1.244-1.421l-.982.192c.199 1.017.842 1.74 1.844 2.154l.382-.925zm-1.831-1.816a.342.342 0 0 1 .241.042c.047.03.058.055.046.036a.645.645 0 0 1-.056-.12 2.31 2.31 0 0 1-.079-.255l-.968.25c.065.253.147.489.263.667.109.169.357.437.745.361l-.192-.98zm.159-.268l-.197-1.006-.981.192.196 1.006.982-.192zm-.197-1.006c-.098-.499.009-1.133.411-1.933.401-.797 1.075-1.718 2.044-2.762l-.733-.68c-1.004 1.082-1.746 2.08-2.205 2.993-.457.911-.654 1.779-.498 2.574l.981-.192zm2.253-4.563l1.956-.681-.329-.945-1.956.681.329.945zm-136.421 50.499l-.096-.491-.064.012-.059.029.219.45zm8.687 2.674l.491-.096-.011-.054-.022-.051-.458.201zm-3.944 6.085l.294.404.014-.01.013-.011-.321-.383zm-3.911 2.287l-.189-.463-.381.156.079.403.491-.096zm5.065 2.622l.49-.096-.059-.302-.296-.083-.135.481zm1.76.223l.295-.403-.156-.115-.192.021.053.497zm.209.153l.49-.096-.037-.192-.158-.115-.295.403zm.036.187l-.49.096.231 1.185.674-1.002-.415-.279zm.151-.223l-.096-.491-.204.04-.115.171.415.28zm1.833.596l.49-.096-.025-.128-.085-.1-.38.324zm-.852 2.436l.096.49.156-.03.109-.115-.361-.345zm-1.294.253l.014.5.041-.002.041-.008-.096-.49zm-5.655-1.745l.28-.414-.172-.117-.204.04.096.491zm-.36.07l-.095-.491-.204.04-.115.172.414.279zm-.15.223l.096.491.203-.04.116-.172-.415-.279zm-.187.037l-.096-.491-.567.111.192.546.471-.166zm.437 1.243l.491-.096-.007-.036-.012-.034-.472.166zm.18.92l.245.436.315-.177-.069-.355-.491.096zm-1.546.869l.096.491.079-.015.07-.04-.245-.436zm-3.776-5.724l.47-.169-.145-.404-.421.082.096.491zm-.904-1.719l-.414-.279-.144.213.09.241.468-.175zm.151-.224l.415.28.135-.202-.075-.231-.475.153zm-.981-3.032l-.491.096.006.03.009.028.476-.154zm-.037-.187l.491-.096-.036-.182-.146-.115-.309.393zm-1.226-3.372l-.445-.228-.079.154.033.17.491-.096zm3.712-3.382l.096.49.064-.012.059-.029-.219-.449zm-.787 3.765l-.49.096.007.036.012.034.471-.166zm.437 1.243l.5-.012-.002-.079-.026-.075-.472.166zm.027 1.129l-.5.012.014.593.582-.114-.096-.491zm1.596 2.36l-.436.245.177.315.355-.069-.096-.491zm6.931-4.4l.329.377.217-.19-.055-.283-.491.096zm.67-1.459l.371.335.275-.305-.245-.329-.401.299zm-3.513-1.403l-.142.48.118.034.12-.023-.096-.491zm-.792-.233l.141-.48-.137-.04-.138.038.134.482zm-1.871-1.782c2.265-.443 4.049-.432 5.386-.02 1.315.405 2.218 1.201 2.748 2.406l.915-.403c-.651-1.48-1.787-2.472-3.368-2.959-1.559-.479-3.527-.464-5.873-.005l.192.981zm8.101 2.28l.107.546.981-.191-.107-.547-.981.192zm.107.546c.078.399-.091 1.018-.746 1.914-.641.876-1.679 1.924-3.137 3.146l.643.766c1.483-1.244 2.591-2.351 3.301-3.322.695-.95 1.082-1.868.92-2.695l-.981.191zm-3.856 5.039c-1.416 1.032-2.684 1.771-3.805 2.228l.378.926c1.219-.497 2.559-1.284 4.016-2.346l-.589-.808zm-4.107 2.787c.069.354.286.655.56.909.277.257.647.497 1.091.727.888.46 2.151.916 3.769 1.371l.271-.962c-1.594-.449-2.781-.883-3.581-1.297-.4-.207-.684-.399-.87-.572-.189-.175-.245-.299-.259-.368l-.981.192zm5.065 2.622a.743.743 0 0 0 .394.51c.157.084.339.125.513.147.352.045.826.028 1.397-.033l-.106-.994c-.55.059-.931.065-1.165.035a.908.908 0 0 1-.127-.024c-.03-.008-.041-.014-.04-.013a.267.267 0 0 1 .115.18l-.981.192zm1.955.53l.209.153.591-.806-.209-.153-.591.806zm.014-.154l.037.187.981-.192-.037-.187-.981.192zm.942.37l.15-.223-.829-.559-.151.224.83.558zm-.168-.012l.186-.036-.191-.982-.187.037.192.981zm.186-.036c.433-.085.806.039 1.17.467l.761-.649c-.566-.664-1.29-.962-2.122-.8l.191.982zm1.06.238l.07.36.982-.192-.071-.36-.981.192zm.07.36c.072.368-.092.9-.793 1.635l.723.69c.769-.806 1.22-1.659 1.052-2.517l-.982.192zm-.527 1.489l-1.294.253.192.981 1.294-.253-.192-.981zm-1.213.244c-1.853.053-3.636-.492-5.36-1.659l-.561.828c1.879 1.272 3.865 1.891 5.95 1.831l-.029-1zm-5.736-1.736l-.359.07.191.982.36-.071-.192-.981zm-.678.282l-.151.223.83.558.15-.223-.829-.558zm.168.012l-.187.036.192.982.187-.037-.192-.981zm-.562.693l.437 1.243.943-.332-.437-1.243-.943.332zm.418 1.173l.179.92.982-.192-.18-.92-.981.192zm.425.388l-1.546.87.49.871 1.546-.869-.49-.872zm-1.397.815c-.092.018-.233.004-.45-.153-.223-.163-.487-.453-.786-.906-.596-.903-1.256-2.342-1.974-4.344l-.941.338c.726 2.024 1.418 3.552 2.08 4.557.331.501.673.901 1.033 1.163.366.267.785.413 1.23.326l-.192-.981zm-3.776-5.725a.401.401 0 0 1 .287.047c.038.023.051.042.04.029a1.405 1.405 0 0 1-.137-.224c-.135-.257-.311-.671-.529-1.255l-.937.35c.221.594.415 1.055.581 1.371.081.154.168.298.263.409a.852.852 0 0 0 .201.175.6.6 0 0 0 .423.08l-.192-.982zm-.393-.949l.151-.223-.83-.559-.15.224.829.558zm.211-.656l-.981-3.033-.951.308.981 3.032.951-.307zm-.966-2.975l-.036-.187-.981.192.036.187.981-.192zm-.218-.484c-.299-.234-.596-.778-.794-1.795l-.982.192c.21 1.072.564 1.923 1.159 2.39l.617-.787zm-.794-1.795l-.251-1.28-.981.192.25 1.28.982-.192zm-.296-.956c.973-1.899 2.108-2.874 3.363-3.12l-.192-.981c-1.679.328-3.018 1.608-4.061 3.645l.89.456zm3.486-3.161l2.602-1.27-.438-.899-2.603 1.27.439.899zm-1.477 3.482l.437 1.243.943-.332-.437-1.242-.943.331zm.409 1.089l.026 1.129 1-.023-.027-1.13-.999.024zm.622 1.608a.446.446 0 0 1-.221-.013c-.042-.015-.069-.032-.077-.037-.014-.01-.006-.007.026.028.061.066.155.187.283.378.254.375.604.959 1.053 1.758l.872-.49a28.272 28.272 0 0 0-1.096-1.829 4.386 4.386 0 0 0-.377-.495 1.171 1.171 0 0 0-.2-.178.604.604 0 0 0-.455-.103l.192.981zm1.596 2.36c.903-.177 1.949-.66 3.127-1.408 1.184-.751 2.53-1.789 4.037-3.106l-.658-.753c-1.484 1.297-2.789 2.3-3.915 3.015-1.132.719-2.056 1.128-2.783 1.27l.192.982zm7.326-4.987c-.028-.141.04-.463.55-1.028l-.742-.67c-.537.594-.916 1.245-.79 1.89l.982-.192zm.58-1.662c-.496-.667-1.085-1.154-1.772-1.428-.689-.275-1.441-.323-2.238-.167l.192.982c.64-.125 1.192-.079 1.675.113.483.193.932.548 1.341 1.097l.802-.597zm-3.773-1.584l-.792-.233-.282.959.791.234.283-.96zm-1.067-.235c-1.873.521-3.291 1.022-4.23 1.506-.467.241-.849.495-1.109.771-.262.277-.456.642-.373 1.064l.981-.192v-.004c0-.003.001-.01.007-.024a.533.533 0 0 1 .112-.158c.147-.156.415-.348.841-.568.845-.436 2.184-.915 4.039-1.432l-.268-.963zm17.015 1.032l-.096-.491-.076.015-.068.037.24.439zm5.747 3.593l.491-.096-.016-.085-.044-.074-.431.255zm-2.081 3.093l.096.491.038-.007.036-.013-.17-.471zm-2.017.066l.49-.096-.133-.68-.604.341.247.435zm-.444.251l.037.499.112-.008.097-.056-.246-.435zm-1.339.098l-.036-.499-.563.041.108.554.491-.096zm.284 1.452l-.491.096.021.106.063.088.407-.29zm5.085 2.722l.096.491.116-.023.094-.072-.306-.396zm2.709-3.395l.061-.496-.503-.062-.055.503.497.055zm1.121.617l.49-.096-.023-.119-.074-.095-.393.31zm.03.158l.49.102.021-.099-.02-.099-.491.096zm-5.137 5.557l-.052.497.074.008.074-.015-.096-.49zm-4.467-2.157l-.398.302.019.025.021.022.358-.349zm-2.986-4.969l.441-.235-.119-.222-.249-.037-.073.494zm-.128-2.333l.379.327.158-.184-.046-.239-.491.096zm2.665-1.028l-.454-.21-.068.147.031.159.491-.096zm3.598.311l.071.495.521-.075-.101-.516-.491.096zm-.127-.647l.491-.096-.022-.116-.073-.093-.396.305zm-2.069-1.118l.05-.497-.073-.008-.073.015.096.49zm-.348-1.78c.955-.187 1.847-.02 2.7.513.867.542 1.712 1.474 2.521 2.843l.861-.509c-.857-1.449-1.802-2.525-2.852-3.181-1.062-.665-2.211-.885-3.422-.648l.192.982zm5.161 3.198l.095.488.982-.191-.096-.489-.981.192zm.095.488c.083.421-.007.767-.271 1.083-.283.338-.789.668-1.586.956l.341.941c.876-.318 1.569-.725 2.012-1.255a2.213 2.213 0 0 0 .486-1.916l-.982.191zm-1.782 2.019l-1.136.222.192.981 1.136-.222-.192-.981zm-1.136.222a2.365 2.365 0 0 1-.299.042.659.659 0 0 1-.148-.003c-.023-.004.005-.004.049.03a.293.293 0 0 1 .103.169l-.981.192c.033.17.123.318.26.426a.88.88 0 0 0 .395.168c.239.042.522.014.813-.043l-.192-.981zm-1.032-.101l-.443.251.492.87.444-.25-.493-.871zm-.233.188l-1.339.097.072.998 1.34-.098-.073-.997zm-1.794.692l.284 1.452.982-.192-.284-1.452-.982.192zm.368 1.646c1.607 2.256 3.475 3.336 5.588 2.923l-.192-.981c-1.568.306-3.09-.429-4.582-2.522l-.814.58zm5.798 2.828c.869-.673 1.553-1.313 2.039-1.921.482-.604.795-1.212.861-1.816l-.994-.109c-.038.342-.228.773-.649 1.301-.418.524-1.036 1.109-1.87 1.754l.613.791zm2.342-3.295c.345.042.596.185.788.43l.787-.619a2.115 2.115 0 0 0-1.453-.803l-.122.992zm.691.216l.031.159.981-.192-.031-.158-.981.191zm.032-.04c-.319 1.518-.881 2.683-1.661 3.526-.776.839-1.795 1.391-3.083 1.643l.192.981c1.472-.287 2.689-.932 3.626-1.945.932-1.009 1.559-2.353 1.905-4l-.979-.205zm-4.596 5.162c-1.642-.171-3.022-.839-4.16-2.008l-.717.698c1.303 1.338 2.9 2.109 4.773 2.305l.104-.995zm-4.121-1.962c-.724-.953-1.704-2.58-2.943-4.901l-.882.471c1.242 2.328 2.253 4.014 3.029 5.035l.796-.605zm-3.311-5.16c-.039-.006-.069-.019-.108-.07-.049-.063-.11-.188-.154-.413l-.982.191c.12.611.431 1.183 1.098 1.281l.146-.989zm-.262-.483c-.044-.223.03-.554.44-1.029l-.758-.653c-.498.578-.793 1.214-.664 1.873l.982-.191zm.552-1.452c-.131-.669.034-1.34.568-2.04.544-.714 1.464-1.444 2.804-2.179l-.48-.877c-1.401.768-2.456 1.58-3.119 2.45-.674.884-.95 1.84-.755 2.838l.982-.192zm1.683-.836l.031.158.981-.192-.031-.158-.981.192zm.031.158c.07.357.357.538.584.624.233.088.523.128.84.141.642.028 1.55-.047 2.705-.213l-.142-.99c-1.139.164-1.973.228-2.52.204-.277-.012-.443-.045-.529-.078-.091-.034.016-.022.043.12l-.981.192zm4.549-.039l-.127-.647-.981.192.126.647.982-.192zm-.222-.856c-.595-.773-1.414-1.209-2.415-1.31l-.1.995c.745.075 1.306.384 1.723.925l.792-.61zm-2.561-1.303c-.781.152-1.344.83-1.76 1.734l.908.419c.379-.824.752-1.115 1.044-1.172l-.192-.981zm18.609-3.517l-.096-.491-.089.017-.076.047.261.427zm3.207 1.671l.5-.011-.004-.17-.106-.132-.39.313zm.019.862l-.5.011.002.063.017.061.481-.135zm2.418 5.722l-.42.272.184.283.332-.065-.096-.49zm1.394-.273l.29-.408-.175-.124-.211.041.096.491zm.329.234l.491-.096-.038-.196-.163-.116-.29.408zm-.707 1.571l.096.491.122-.024.096-.078-.314-.389zm-1.38.27l-.208.455.146.067.158-.031-.096-.491zm-2.762-3.057l-.474.16.01.031.015.03.449-.221zm-.321-.952l.474-.16-.14-.415-.43.084.096.491zm-.144.028l-.096-.491-.249.049-.108.231.453.211zm-7.408 1.881l-.491.096.015.074.035.066.441-.236zm1.996-5.286l-.394-.307-.004.005.398.302zm.919-1.179l-.261-.427-.078.048-.056.071.395.308zm-.884 5.785l-.491.095.013.066.03.06.448-.221zm1.405 1.307l-.177.467.133.051.14-.027-.096-.491zm.417-.082l.096.491.161-.031.111-.122-.368-.338zm2.452-5.091l.288.408.293-.206-.101-.343-.48.141zm-.687-1.299l-.096-.49-.085.016-.075.045.256.429zm-.167-1.622c.802-.157 1.703.228 2.721 1.494l.78-.626c-1.111-1.382-2.349-2.112-3.693-1.849l.192.981zm2.611 1.192l.019.862 1-.022-.019-.862-1 .022zm.038.986c.667 2.38 1.49 4.338 2.479 5.859l.839-.545c-.917-1.41-1.706-3.266-2.355-5.584l-.963.27zm2.995 6.077l1.394-.272-.192-.982-1.394.273.192.981zm1.008-.356l.33.235.579-.816-.329-.234-.58.815zm.129-.077l.025.129.981-.192-.025-.129-.981.192zm.025.129c.044.224-.036.536-.557.957l.629.778c.648-.524 1.057-1.173.909-1.927l-.981.192zm-.338.856l-1.38.269.192.982 1.38-.27-.192-.981zm-1.076.305c-.94-.429-1.791-1.338-2.522-2.823l-.897.442c.788 1.601 1.778 2.731 3.003 3.291l.416-.91zm-2.496-2.762l-.321-.952-.948.319.321.953.948-.32zm-.891-1.283l-.144.028.192.982.144-.029-.192-.981zm-.501.308c-.656 1.407-1.298 2.467-1.922 3.198-.626.736-1.197 1.097-1.702 1.196l.192.982c.816-.16 1.571-.707 2.272-1.529.704-.827 1.391-1.975 2.067-3.425l-.907-.422zm-3.624 4.394l-.273.054.191.981.274-.053-.192-.982zm-.273.054c-.283.055-.639-.033-1.098-.448-.464-.418-.973-1.119-1.519-2.143l-.882.471c.569 1.066 1.143 1.884 1.731 2.415.591.534 1.255.824 1.959.686l-.191-.981zm-2.567-2.452c-.233-1.188.316-2.797 1.903-4.887l-.796-.605c-1.625 2.14-2.407 4.055-2.089 5.684l.982-.192zm1.9-4.883l.918-1.179-.789-.615-.918 1.18.789.614zm.785-1.06l2.439-1.492-.521-.853-2.44 1.492.522.853zm-1.593 5.58c.365.741.926 1.269 1.676 1.553l.354-.935c-.497-.188-.872-.531-1.134-1.061l-.896.443zm1.949 1.577l.417-.082-.192-.981-.417.081.192.982zm.689-.235c.688-.749 1.204-1.433 1.529-2.049.322-.608.489-1.209.381-1.764l-.982.192c.045.231-.009.586-.283 1.105-.27.51-.724 1.123-1.382 1.841l.737.675zm1.91-3.813c-.057-.291-.036-.517.034-.697.07-.179.202-.351.428-.511l-.576-.817c-.359.254-.631.574-.784.966-.151.39-.169.814-.084 1.251l.982-.192zm.654-1.757c-.136-.461-.271-.833-.409-1.095a1.402 1.402 0 0 0-.264-.367.669.669 0 0 0-.59-.186l.192.981c-.175.034-.281-.061-.287-.066-.006-.006.018.017.065.106.09.171.203.466.334.909l.959-.282zm-1.423-1.587c-2.777 1.661-4.24 3.552-3.822 5.689l.982-.191c-.287-1.466.642-3.018 3.353-4.64l-.513-.858zm11.165-9.719l.498-.05-.009-.084-.035-.077-.454.211zm.157 1.566l-.497.05.006.066.024.062.467-.178zm.307.806l.463.189.074-.183-.07-.184-.467.178zm-.192.471l-.463-.189-.07.172.059.176.474-.159zm.321.952l.491-.096-.007-.032-.01-.032-.474.16zm.354 1.811l-.491.096.005.027.009.026.477-.149zm1.567 5.037l.5-.011-.002-.07-.021-.067-.477.148zm.019.862l-.5.011.002.08.027.076.471-.167zm.335.95l.415.279.14-.209-.083-.237-.472.167zm-.115.172l-.415-.28-.116.172.04.203.491-.095zm.025.129l-.491.096.003.017.005.016.483-.129zm1.388 1.908l.49-.096-.095-.491-.491.096.096.491zm.163.834l.494.075.013-.086-.016-.085-.491.096zm-1.15 1.523l.096.491.155-.031.11-.114-.361-.346zm-1.605-1.567l.491-.096-.04-.203-.172-.116-.279.415zm-.327-.22l-.5.006.003.263.218.146.279-.415zm-.008-.729l.5-.006v-.046l-.009-.044-.491.096zm-.517-2.646l.491-.096-.007-.035-.012-.034-.472.165zm-1.28-3.645l-.491.096.007.035.012.035.472-.166zm-.056-.288l-.494.078.001.009.002.009.491-.096zm-.551-3.504l.494-.078-.008-.047-.016-.045-.47.17zm-.293-.808l-.497.054.007.059.02.057.47-.17zm-.168-1.55l.497-.054-.002-.021-.004-.021-.491.096zm-.411-.651l-.497.052.056.544.537-.105-.096-.491zm.378-1.728l.417-.082-.192-.981-.417.081.192.982zm.417-.082a.481.481 0 0 1 .386.065c.12.08.262.24.403.543l.907-.422c-.186-.4-.43-.737-.757-.954a1.479 1.479 0 0 0-1.131-.213l.192.981zm.745.447l.157 1.566.995-.099-.157-1.567-.995.1zm.187 1.694l.307.806.934-.356-.307-.805-.934.355zm.311.44l-.192.47.926.377.192-.47-.926-.377zm-.203.818l.321.952.948-.319-.321-.952-.948.319zm.304.889l.354 1.811.982-.192-.354-1.811-.982.192zm.368 1.864l1.567 5.037.954-.297-1.567-5.037-.954.297zm1.544 4.899l.019.862 1-.022-.019-.862-1 .022zm.048 1.018l.335.949.943-.333-.335-.949-.943.333zm.391.504l-.115.171.829.559.116-.172-.83-.558zm-.191.546l.025.13.982-.192-.026-.129-.981.191zm.033.163c.19.709.417 1.285.703 1.677.293.404.721.698 1.264.592l-.192-.981c-.014.003-.095.033-.264-.199-.177-.243-.366-.676-.545-1.347l-.966.258zm1.38 1.875l.163.833.982-.191-.164-.834-.981.192zm.16.662c.003-.021.003-.001-.038.073a2.32 2.32 0 0 1-.184.274c-.175.232-.438.533-.795.906l.722.692c.37-.386.662-.719.871-.995.104-.138.193-.27.261-.393.065-.117.128-.257.151-.406l-.988-.151zm-.752 1.108l-.273.054.192.981.273-.053-.192-.982zm-.273.054a.327.327 0 0 1-.178-.007.396.396 0 0 1-.162-.13c-.143-.174-.293-.513-.405-1.089l-.982.192c.124.632.314 1.166.615 1.532.156.19.348.343.582.431.235.088.48.099.722.052l-.192-.981zm-.957-1.545l-.326-.22-.559.83.327.22.558-.83zm-.106.19l-.008-.73-1 .011.008.73 1-.011zm-.017-.82l-.517-2.646-.982.192.517 2.646.982-.192zm-.536-2.715l-1.28-3.646-.944.332 1.28 3.645.944-.331zm-1.261-3.576l-.057-.287-.981.191.056.288.982-.192zm-.053-.269l-.551-3.505-.988.156.551 3.504.988-.155zm-.575-3.597l-.292-.808-.941.34.293.808.94-.34zm-.266-.692l-.168-1.55-.994.109.168 1.549.994-.108zm-.174-1.592c-.05-.252-.121-.497-.24-.685a.837.837 0 0 0-.287-.284.68.68 0 0 0-.471-.076l.192.981a.318.318 0 0 1-.215-.035c-.054-.031-.071-.064-.065-.053.006.01.023.04.043.102.02.06.041.14.061.242l.982-.192zm-.405-.606c-.072-.697-.08-1.19-.041-1.5a.857.857 0 0 1 .061-.257c.008-.016-.029.058-.139.08l-.192-.982a.802.802 0 0 0-.551.431 1.75 1.75 0 0 0-.171.6c-.054.43-.036 1.014.039 1.731l.994-.103zm25.274-7.734l-.047-.498-.072.007-.066.027.185.464zm2.683 2.117l.383.321.153-.182-.046-.235-.49.096zm-.763.91l.012.5.226-.005.146-.173-.384-.321zm-1.129.027l-.012-.5-.177.005-.135.115.324.38zm-1.952 6.427l.403.296.13-.177-.042-.215-.491.096zm-.153.209l-.404-.295-.129.176.042.215.491-.096zm.036.187l-.49.096.011.058.025.054.454-.208zm1.981 4.329l.491-.096-.012-.058-.024-.054-.455.208zm.073.374l-.491.096.074.377.384.026.033-.499zm2.102.141l-.033.499.197.013.153-.125-.317-.387zm4.204-2.702l.279-.415-.172-.116-.203.04.096.491zm.653.439l-.279.415.431.291.273-.443-.425-.263zm.136-.22l.425.262.103-.166-.038-.192-.49.096zm-.675-3.451l.491-.096-.096-.49-.491.096.096.49zm-1.811.355l-.029.499.063.003.062-.012-.096-.49zm-.77-.044l.028-.499-.166-.01-.138.092.276.417zm-.833.551l-.49.096.143.733.623-.412-.276-.417zm-.036-.187l.49-.096-.231-1.185-.674 1.002.415.279zm-.151.223l.096.491.204-.04.115-.171-.415-.28zm-2.285-1.075l.491-.096-.012-.063-.028-.058-.451.217zm-.327-.682l-.333-.373-.281.25.163.339.451-.216zm.813-.727l.062-.496-.225-.028-.17.151.333.373zm1.163.146l-.062.496.098.013.096-.027-.132-.482zm5.272-1.97l-.096-.492-.113.022-.091.069.3.4zm.359-.071l.276-.417-.171-.113-.201.04.096.49zm1.097.726l.491-.096-.04-.206-.175-.115-.276.417zm.214 1.092l.495-.068-.002-.014-.003-.014-.49.096zm.941 6.801l-.495.069.014.096.048.085.433-.25zm.588 1.02l.096.491.686-.135-.349-.606-.433.25zm-.263 1.559l.415.279.097-.144-.013-.173-.499.038zm-.878 1.306l.095.491.204-.04.115-.172-.414-.279zm-2.11-1.095l-.498.05.017.168.115.123.366-.341zm-.408-4.07l.498-.05-.055-.546-.539.106.096.49zm-.187.037l-.096-.491-.218.043-.114.191.428.257zm-5.83 4.916l-.115.486.105.025.106-.02-.096-.491zm-3.382-1.802l.45-.218-.047-.096-.082-.069-.321.383zm-2.41-4.618l-.096-.491-.491.096.096.491.491-.096zm.186-.036l.096.49 1.185-.231-1.001-.674-.28.415zm-.223-.151l-.491.096.04.203.172.116.279-.415zm1.052-8.131l-.396-.306-.04.053-.026.06.462.193zm3.07-2.362c.675-.064 1.135.045 1.441.25.297.2.524.542.634 1.106l.981-.192c-.146-.75-.484-1.357-1.057-1.743-.565-.38-1.283-.494-2.093-.417l.094.996zm2.075 1.356l.07.36.981-.193-.07-.359-.981.192zm.177-.058l-.762.91.767.643.762-.91-.767-.643zm-.39.732l-1.13.027.024 1 1.129-.028-.023-1zm-1.442.146c-1.995 1.7-2.679 4.036-2.119 6.903l.982-.192c-.504-2.577.112-4.524 1.786-5.95l-.649-.761zm-2.031 6.512l-.154.209.807.591.153-.209-.806-.591zm-.241.6l.037.187.981-.192-.037-.187-.981.192zm.073.299l1.98 4.329.91-.416-1.981-4.329-.909.416zm1.944 4.217l.073.374.982-.192-.073-.374-.982.192zm.531.777l2.102.141.067-.998-2.102-.141-.067.998zm2.452.029c1-.817 1.838-1.442 2.517-1.878.692-.445 1.171-.663 1.465-.72l-.191-.982c-.492.096-1.106.405-1.815.861-.723.465-1.593 1.115-2.609 1.945l.633.774zm3.607-2.674l.654.439.558-.83-.653-.439-.559.83zm1.358.287l.136-.221-.851-.525-.136.221.851.525zm.201-.579l-.674-3.451-.982.192.675 3.451.981-.192zm-1.261-3.845l-1.811.354.192.981 1.811-.354-.192-.981zm-1.687.345l-.77-.043-.056.998.769.044.057-.999zm-1.074.039l-.833.551.552.834.833-.551-.552-.834zm-.066.872l-.037-.187-.981.192.037.187.981-.192zm-.942-.37l-.15.223.829.559.151-.224-.83-.558zm.168.012l-.172.034.192.981.172-.034-.192-.981zm-.172.034c-.556.108-.904.058-1.113-.051-.184-.097-.338-.283-.413-.664l-.981.192c.116.596.41 1.084.929 1.357.496.26 1.108.276 1.77.147l-.192-.981zm-1.566-.836l-.327-.682-.902.433.328.682.901-.433zm-.445-.092l.813-.727-.666-.746-.813.727.666.746zm.418-.604l1.163.146.124-.992-1.163-.146-.124.992zm1.357.132c1.396-.383 2.545-.742 3.443-1.078.887-.331 1.567-.654 1.996-.975l-.599-.8c-.309.231-.877.513-1.747.839-.859.321-1.977.671-3.357 1.05l.264.964zm5.235-1.962l.36-.07-.192-.982-.359.07.191.982zm-.012-.144l1.097.726.552-.834-1.097-.726-.552.834zm.882.405l.214 1.092.981-.192-.213-1.092-.982.192zm.209 1.065l.942 6.801.991-.137-.942-6.801-.991.137zm1.004 6.982l.588 1.019.866-.499-.587-1.019-.867.499zm.925.279a.734.734 0 0 0-.491.361 1.393 1.393 0 0 0-.159.473c-.054.321-.053.746-.015 1.253l.997-.075c-.036-.483-.029-.813.004-1.012.017-.101.036-.133.034-.129a.277.277 0 0 1-.178.111l-.192-.982zm-.581 1.771l-.879 1.306.829.558.879-1.306-.829-.558zm-.56 1.094c-.34.067-.875-.116-1.649-.945l-.731.682c.813.871 1.684 1.418 2.571 1.245l-.191-.982zm-1.517-.654l-.407-4.07-.995.1.407 4.07.995-.1zm-1.001-4.51l-.187.036.192.981.187-.036-.192-.981zm-.519.27c-1.675 2.791-3.518 4.295-5.498 4.682l.192.982c2.372-.464 4.416-2.238 6.163-5.15l-.857-.514zm-5.287 4.686c-.921-.218-1.63-.467-2.141-.74-.517-.275-.788-.549-.906-.793l-.9.437c.248.51.724.913 1.335 1.239.616.328 1.415.602 2.382.83l.23-.973zm-3.176-1.698c-1.088-.913-1.85-2.334-2.241-4.331l-.981.192c.419 2.144 1.264 3.801 2.58 4.905l.642-.766zm-2.635-3.744l.186-.037-.191-.981-.187.036.192.982zm.37-.942l-.224-.151-.558.83.223.15.559-.829zm-.012.168l-.177-.905-.982.191.177.906.982-.192zm-.177-.905c-.352-1.798.019-4.1 1.2-6.938l-.924-.384c-1.215 2.923-1.663 5.439-1.258 7.513l.982-.191zm1.134-6.825c.606-.784 1.148-1.4 1.626-1.852.484-.458.878-.726 1.186-.848l-.37-.93c-.477.19-.979.555-1.503 1.051-.529.5-1.106 1.16-1.731 1.968l.792.611zm18.972-.167l-.032-.499-.25.016-.137.21.419.273zm5.603 1.024l-.49.096.04.206.174.115.276-.417zm2.056 3.031l.49-.096-.009-.048-.019-.045-.462.189zm-1.663 6.535l.234.441.093-.049.065-.082-.392-.31zm-1.474.78l.096.491.072-.014.066-.035-.234-.442zm-4.362-3.072l-.472.164.022.065.039.057.411-.286zm-1.121-3.214l-.497.058.006.054.019.053.472-.165zm.594-4.52l.096.492.207-.041.116-.177-.419-.273zm1.9 2.241l.5.026.003-.061-.012-.06-.491.095zm-.034.664l-.499-.026-.003.061.011.06.491-.095zm.093.474l-.491.096.007.034.011.033.473-.163zm3.403 4.887l.096.491.196-.039.116-.162-.408-.29zm1.124-3.489l.491-.095-.011-.056-.023-.051-.457.202zm-4.616-2.694l-.096-.49-.491.095.096.49.491-.095zm-1.471-2.148c1.767-.113 3.074-.081 3.947.078.438.08.731.186.913.298.173.106.21.193.221.245l.981-.192c-.079-.402-.342-.7-.68-.906-.33-.202-.759-.338-1.255-.428-.995-.182-2.4-.207-4.191-.093l.064.998zm5.295.942c.614.407 1.252 1.3 1.869 2.804l.925-.379c-.637-1.554-1.37-2.682-2.242-3.259l-.552.834zm1.841 2.71l.031.158.981-.191-.031-.159-.981.192zm.031.158c.411 2.104-.104 4.083-1.595 5.971l.784.62c1.652-2.091 2.266-4.362 1.792-6.782l-.981.191zm-1.437 5.839l-1.474.781.468.883 1.474-.781-.468-.883zm-1.336.732c-.477.093-1.03-.034-1.684-.495-.66-.465-1.386-1.245-2.172-2.373l-.821.572c.819 1.175 1.623 2.059 2.417 2.618.799.563 1.625.821 2.452.659l-.192-.981zm-3.794-2.747l-1.121-3.214-.944.33 1.121 3.213.944-.329zm-1.097-3.106c-.165-1.424-.192-2.47-.101-3.16.045-.348.116-.568.188-.695.065-.116.106-.116.107-.117l-.192-.98c-.364.07-.621.311-.787.607-.16.286-.254.648-.308 1.054-.107.816-.067 1.96.1 3.406l.993-.115zm.517-4.19l.367-.564-.838-.545-.367.564.838.546zm.982 1.942l-.034.664.998.051.035-.663-.999-.052zm-.026.786l.093.474.982-.192-.093-.474-.982.192zm.111.541c.6 1.741 1.141 3.059 1.625 3.933.239.433.481.788.729 1.03.236.232.577.455.986.375l-.192-.981c.082-.016.063.046-.094-.108-.146-.143-.332-.399-.554-.8-.441-.797-.959-2.048-1.555-3.775l-.945.326zm3.34 5.338l.632-.123-.192-.982-.632.124.192.981zm.944-.324c.977-1.376 1.44-2.681 1.207-3.874l-.982.191c.157.8-.129 1.821-1.04 3.103l.815.58zm1.173-3.981c-.517-1.166-1.206-2.04-2.093-2.558-.895-.522-1.933-.648-3.076-.425l.192.982c.955-.187 1.736-.07 2.38.307.651.38 1.221 1.058 1.683 2.099l.914-.405zm-5.564-2.396l.031.158.981-.192-.031-.158-.981.192zm12.398-5.365l-.032-.499-.25.016-.137.21.419.273zm5.603 1.024l-.49.096.04.206.175.115.275-.417zm2.056 3.031l.491-.096-.01-.048-.019-.045-.462.19zm-1.663 6.535l.234.441.093-.049.065-.082-.392-.31zm-1.474.78l.096.491.072-.014.066-.035-.234-.442zm-4.362-3.072l-.472.164.022.065.04.057.41-.286zm-1.121-3.214l-.497.058.006.054.019.053.472-.165zm.594-4.52l.096.491.207-.04.116-.177-.419-.273zm1.901 2.241l.499.026.003-.061-.012-.06-.49.095zm-.035.664l-.499-.026-.003.061.011.06.491-.095zm.093.474l-.491.096.007.034.011.033.473-.163zm3.403 4.887l.096.491.196-.039.116-.162-.408-.29zm1.124-3.489l.491-.096-.011-.055-.023-.051-.457.202zm-4.616-2.694l-.096-.49-.491.095.096.49.491-.095zm-1.471-2.148c1.767-.113 3.074-.081 3.947.078.438.08.732.186.913.298.173.106.21.193.221.245l.981-.192c-.079-.402-.342-.7-.68-.906-.33-.202-.759-.338-1.255-.428-.995-.182-2.4-.207-4.191-.093l.064.998zm5.296.942c.613.406 1.251 1.3 1.868 2.804l.925-.38c-.637-1.553-1.37-2.68-2.242-3.258l-.551.834zm1.84 2.71l.031.158.981-.192-.03-.158-.982.192zm.031.158c.411 2.104-.104 4.083-1.595 5.971l.784.62c1.652-2.091 2.266-4.362 1.792-6.782l-.981.191zm-1.437 5.839l-1.474.78.468.884 1.474-.781-.468-.883zm-1.336.732c-.477.093-1.03-.034-1.684-.495-.66-.465-1.386-1.245-2.172-2.373l-.82.572c.818 1.175 1.622 2.059 2.416 2.618.799.563 1.626.821 2.452.659l-.192-.981zm-3.794-2.747l-1.121-3.214-.944.33 1.121 3.213.944-.329zm-1.096-3.107c-.165-1.424-.193-2.469-.102-3.16.045-.347.116-.567.188-.694.065-.116.106-.117.107-.117l-.192-.981c-.364.071-.621.312-.787.608-.16.285-.254.648-.308 1.054-.107.816-.067 1.96.1 3.406l.994-.116zm.516-4.189l.367-.564-.838-.545-.367.564.838.546zm.982 1.942l-.034.664.998.051.035-.663-.999-.052zm-.026.785l.093.475.982-.192-.093-.474-.982.192zm.111.542c.6 1.741 1.141 3.059 1.625 3.932.24.434.481.789.729 1.031.236.232.577.455.986.375l-.192-.981c.082-.016.063.046-.094-.108-.146-.143-.332-.399-.554-.8-.441-.797-.959-2.048-1.554-3.775l-.946.326zm3.34 5.338l.632-.123-.192-.982-.632.124.192.981zm.944-.324c.977-1.376 1.44-2.681 1.207-3.874l-.981.191c.156.8-.13 1.821-1.041 3.103l.815.58zm1.173-3.981c-.517-1.166-1.206-2.04-2.093-2.558-.894-.522-1.933-.648-3.076-.425l.192.982c.955-.187 1.736-.07 2.38.307.651.38 1.222 1.058 1.683 2.1l.914-.406zm-5.564-2.396l.031.158.981-.192-.031-.158-.981.192zm18.594-11.158l-.096-.491-.03.006-.029.01.155.475zm1.322 1.264l.499-.02-.003-.095-.039-.087-.457.202zm.075 1.985l-.5.019.002.061.017.06.481-.14zm.458 1.582l.491-.096-.004-.022-.007-.021-.48.14zm.115.59l.497-.062-.003-.017-.003-.017-.491.096zm.261 2.098l-.496.062.008.059.021.056.467-.177zm2.892 6.927l-.423.267.024.037.03.033.369-.337zm1.135 1.913l.396.305.139-.179-.044-.222-.491.096zm-.976 1.265l.096.491.185-.036.115-.149-.396-.306zm-1.999-.833l-.444.23.013.024.015.023.416-.277zm-1.222-2.358l.444-.23-.173-.333-.367.072.096.49zm-.302.059l-.096-.49-.197.038-.116.165.409.287zm-4.167 3.725l.039.499.029-.002.028-.006-.096-.491zm-2.994-2.026l.491-.096-.005-.027-.008-.026-.478.149zm-.402-1.295l-.496-.059-.013.106.032.102.477-.149zm.057-.474l.496.06.036-.304-.253-.17-.279.414zm-.172-.115l-.491.096.04.203.172.115.279-.414zm-.028-.144l-.498.043.002.027.005.026.491-.096zm.874-4.918l.096.491.212-.041.115-.182-.423-.267zm2.014-1.453l-.047-.498-.025.003-.024.004.096.49zm3.004-.289l.048.498.431-.042.02-.433-.499-.023zm.028-.617l.5.023.002-.06-.011-.06-.491.097zm-.23-1.18l.49-.095-.009-.048-.018-.045-.463.189zm-.287-.704l-.499.033.005.08.031.075.463-.188zm-.232-3.477l.498-.034-.016-.244-.203-.137-.279.415zm-.172-.116l-.491.096.04.203.172.116.279-.415zm-2.698 12.767l-.496.064.019.151.101.115.376-.33zm.963 1.796l-.471.17.146.404.421-.083-.096-.491zm3.132-2.761l.452.213.045-.096.003-.107-.5-.01zm.029-1.379l.5.01.001-.053-.011-.053-.49.096zm-2.086-2.04l-.03-.5-.033.003-.033.006.096.49zm-2.012 2.99l.096.491.49-.096-.095-.49-.491.096zm3.716-12.292l.302-.059-.192-.981-.302.059.192.981zm.302-.059c-.095.019-.154-.018-.151-.016a.562.562 0 0 1 .115.122c.133.173.302.473.502.928l.915-.403c-.211-.479-.418-.867-.625-1.135a1.509 1.509 0 0 0-.368-.355.79.79 0 0 0-.58-.122l.192.981zm.424.851l.075 1.986.999-.038-.075-1.985-.999.037zm.094 2.106l.459 1.582.96-.278-.458-1.582-.961.278zm.448 1.539l.116.59.981-.192-.115-.59-.982.192zm.11.555l.261 2.099.993-.124-.261-2.098-.993.123zm.29 2.214a157.322 157.322 0 0 0 1.84 4.68c.479 1.148.847 1.941 1.096 2.337l.846-.534c-.197-.313-.535-1.028-1.02-2.189a161.287 161.287 0 0 1-1.827-4.648l-.935.354zm2.99 7.087c.621.682.929 1.237 1.014 1.672l.981-.192c-.136-.697-.585-1.417-1.256-2.154l-.739.674zm1.109 1.27l-.977 1.266.792.611.976-1.266-.791-.611zm-.677 1.08l-.144.029.192.981.144-.028-.192-.982zm-.144.029c-.289.056-.524.026-.725-.068-.205-.095-.415-.275-.617-.58l-.833.554c.277.417.616.742 1.029.933.417.194.87.233 1.338.142l-.192-.981zm-1.315-.601L324.91 99.4l-.888.46 1.222 2.358.888-.46zm-1.762-2.619l-.302.06.192.981.302-.059-.192-.982zm-.615.263c-.778 1.106-1.495 1.946-2.151 2.533-.66.59-1.227.896-1.703.989l.192.981c.722-.141 1.448-.573 2.177-1.225.733-.655 1.5-1.561 2.303-2.704l-.818-.574zm-3.798 3.514c-.785.062-1.334-.069-1.707-.322-.363-.245-.629-.654-.756-1.302l-.981.192c.163.837.542 1.509 1.176 1.938.625.424 1.428.563 2.347.491l-.079-.997zm-2.476-1.677l-.403-1.294-.954.297.402 1.294.955-.297zm-.384-1.087l.057-.473-.993-.119-.056.474.992.118zm-.16-.948l-.172-.115-.558.83.171.115.559-.83zm.039.204l-.028-.144-.981.192.028.144.981-.192zm-.02-.091c-.134-1.543-.124-2.679.01-3.432.067-.378.16-.625.254-.774.088-.138.159-.168.208-.178l-.192-.981c-.378.074-.662.31-.861.624-.192.303-.315.691-.394 1.133-.157.886-.158 2.126-.021 3.694l.996-.086zm.799-4.607c.445-.706 1.006-1.097 1.687-1.23l-.192-.982c-.986.193-1.768.77-2.341 1.677l.846.535zm1.639-1.223l3.004-.29-.096-.995-3.003.29.095.995zm3.455-.764l.029-.617-.999-.046-.029.617.999.046zm.02-.736l-.231-1.18-.981.193.231 1.179.981-.192zm-.258-1.272l-.287-.705-.926.377.287.705.926-.377zm-.252-.55l-.232-3.477-.997.067.232 3.477.997-.067zm-.451-3.858l-.172-.116-.558.83.171.115.559-.83zm.039.203l-.028-.144-.981.192.028.144.981-.192zm-.028-.144c-.034-.177 0-.28.062-.36.078-.1.245-.225.579-.334l-.31-.95c-.433.14-.812.35-1.06.673-.263.34-.334.746-.252 1.163l.981-.192zm-3.536 13.337c.301.342.595.876.868 1.636l.942-.339c-.295-.82-.643-1.484-1.059-1.957l-.751.66zm1.435 1.957l.589-.115-.192-.981-.589.115.192.981zm.589-.115c1.196-.234 2.137-1.312 2.899-2.924l-.904-.427c-.731 1.546-1.484 2.232-2.187 2.37l.192.981zm2.947-3.127l.029-1.379-1-.02-.029 1.378 1 .021zm.019-1.485c-.15-.767-.424-1.405-.871-1.843-.464-.453-1.061-.641-1.735-.6l.061.998c.437-.027.743.09.974.317.248.242.461.659.59 1.32l.981-.192zm-2.672-2.435c-.909.178-1.637.557-2.072 1.204-.436.647-.513 1.464-.335 2.373l.982-.192c-.149-.758-.053-1.273.182-1.623.235-.35.677-.632 1.435-.78l-.192-.982zm-2.012 2.99c-.335.066-.437.369-.461.454a1.511 1.511 0 0 0-.05.396c-.005.27.026.642.085 1.099l.992-.129a7.028 7.028 0 0 1-.077-.951.627.627 0 0 1 .01-.136c-.001.002-.011.041-.049.09a.427.427 0 0 1-.258.16l-.192-.982zm20.717-9.451l.211-.453-.148-.069-.159.031.096.49zm2.35 2.48l-.49.097.021.107.064.089.405-.292zm1.766 4.297l.5.02.002-.058-.011-.058-.491.096zm-.026.632l-.499-.02-.005.107.04.1.464-.187zm.29.72l.451.216.095-.198-.082-.205-.464.187zm-.658 1.367l.096.491.246-.048.109-.226-.451-.217zm-.446.087l-.238.44.158.086.176-.035-.096-.49zm-1.051-.57l-.491.096.045.231.207.112.239-.44zm-.234-1.193l.491-.096-.006-.03-.009-.028-.476.154zm-.377-1.165l-.499.028.004.064.02.061.475-.153zm-.061-1.078l.499-.029-.004-.067-.021-.064-.474.16zm-1.707-3.234l-.024-.499-.273.013-.136.237.433.25zm-2.481 7.157l.382.322.078-.093.027-.118-.487-.11zm-2.01 1.632l-.279.415.172.116.203-.04-.096-.49zm-.533-.358l-.49.096.039.203.172.115.279-.414zm-2.798-7.976l-.49-.1-.03.148.057.14.463-.188zm.458-.865l-.096-.491-.044.008-.042.017.182.466zm3.491 4.421l-.458.2.161.368.393-.077-.096-.49zm.144-.028l.096.491.257-.05.105-.24-.458-.2zm2.144-4.912l-.371-.334-.054.06-.033.074.458.2zm1.527-.96c1.294.602 1.916 1.326 2.072 2.123l.981-.192c-.242-1.236-1.187-2.165-2.63-2.838l-.423.906zm2.157 2.319c.798 1.109 1.362 2.471 1.68 4.1l.982-.192c-.341-1.744-.954-3.246-1.851-4.492l-.811.584zm1.671 3.984l-.025.632.999.04.026-.631-1-.04zm.01.84l.29.719.928-.374-.29-.72-.928.374zm.304.315l-.658 1.367.901.434.658-1.368-.901-.433zm-.304 1.094l-.445.087.191.981.446-.087-.192-.981zm-.111.138l-1.052-.57-.477.878 1.052.57.477-.878zm-.8-.227l-.233-1.193-.981.192.233 1.193.981-.192zm-.248-1.251l-.377-1.165-.951.308.377 1.165.951-.308zm-.354-1.04l-.061-1.078-.998.058.061 1.077.998-.057zm-.086-1.209c-.37-1.095-.706-1.938-1.009-2.513a3.44 3.44 0 0 0-.47-.708c-.148-.161-.395-.368-.726-.352l.048.999c-.129.006-.153-.073-.058.03.079.086.188.244.322.498.265.503.581 1.286.945 2.366l.948-.32zm-2.614-3.323c-.98 1.7-1.821 4.142-2.536 7.296l.975.221c.706-3.114 1.52-5.444 2.427-7.018l-.866-.5zm-2.431 7.085c-.407.484-.75.842-1.031 1.085-.296.256-.467.334-.534.347l.192.981c.337-.066.675-.294.996-.572.337-.29.718-.693 1.142-1.198l-.765-.643zm-1.565 1.432l-.158.03.192.982.158-.031-.192-.981zm.217.106l-.532-.358-.559.83.533.358.558-.83zm-.321-.04l-.087-.445-.981.192.087.446.981-.192zm-.087-.445c-.219-1.121-1.146-3.681-2.738-7.621l-.927.375c1.606 3.972 2.487 6.432 2.684 7.438l.981-.192zm-2.712-7.334c.046-.225.098-.37.143-.456.047-.089.061-.065.007-.044l-.364-.931c-.258.1-.422.308-.527.508-.107.203-.183.45-.239.723l.98.2zm.064-.475l.891-.174-.192-.981-.891.174.192.981zm.891-.174a.35.35 0 0 1-.204-.021.039.039 0 0 1-.008-.005l-.003-.001.002.001.007.005.022.02c.019.019.043.044.073.08.124.147.291.398.503.772.42.743.971 1.89 1.654 3.455l.917-.4c-.687-1.572-1.254-2.758-1.701-3.547-.221-.392-.424-.706-.608-.925a1.569 1.569 0 0 0-.311-.291.712.712 0 0 0-.535-.124l.192.981zm2.6 4.596l.144-.028-.192-.981-.144.028.192.981zm.506-.319l2.144-4.912-.916-.4-2.144 4.912.916.4zm2.057-4.776c.384-.426.706-.74.968-.954.276-.224.435-.293.496-.305l-.192-.982c-.313.061-.632.265-.935.511-.317.259-.678.615-1.079 1.06l.742.67zm13.651-6.316l-.096-.49-.076.014-.068.037.24.439zm5.748 3.593l.49-.096-.016-.085-.044-.074-.43.255zm-2.082 3.093l.096.491.038-.007.036-.014-.17-.47zm-2.017.066l.491-.096-.133-.68-.604.341.246.435zm-.443.251l.036.499.112-.008.098-.056-.246-.435zm-1.34.098l-.036-.499-.563.041.109.554.49-.096zm.284 1.452l-.49.096.02.106.063.088.407-.29zm5.085 2.722l.096.49.116-.022.094-.072-.306-.396zm2.709-3.395l.061-.497-.503-.061-.055.503.497.055zm1.121.617l.491-.097-.024-.118-.074-.095-.393.31zm.031.158l.489.102.021-.099-.019-.1-.491.097zm-5.138 5.556l-.052.498.075.008.073-.015-.096-.49zm-4.466-2.156l-.398.302.018.025.021.022.359-.35zm-2.987-4.969l.441-.235-.118-.222-.25-.037-.073.494zm-.128-2.333l.379.327.159-.184-.047-.239-.491.096zm2.665-1.028l-.454-.21-.068.147.031.159.491-.096zm3.598.311l.071.495.521-.075-.101-.516-.491.096zm-.126-.647l.491-.096-.023-.116-.072-.093-.396.305zm-2.07-1.118l.051-.497-.074-.008-.072.015.095.49zm-.348-1.78c.956-.187 1.847-.02 2.701.513.866.542 1.711 1.474 2.52 2.843l.861-.509c-.856-1.45-1.802-2.525-2.851-3.182-1.063-.664-2.212-.884-3.423-.647l.192.982zm5.161 3.198l.096.488.981-.191-.096-.49-.981.193zm.096.488c.082.421-.008.767-.272 1.083-.282.338-.789.668-1.585.956l.34.94c.876-.317 1.569-.724 2.012-1.254.462-.553.625-1.206.486-1.916l-.981.191zm-1.783 2.019l-1.136.222.192.981 1.136-.222-.192-.981zm-1.136.222c-.122.023-.22.037-.299.042a.66.66 0 0 1-.148-.003c-.023-.004.006-.004.049.03a.297.297 0 0 1 .104.17l-.982.191c.033.17.123.318.261.426.127.1.27.146.394.168.239.042.523.014.813-.043l-.192-.981zm-1.031-.1l-.444.25.493.87.443-.25-.492-.87zm-.234.187l-1.339.097.073.998 1.339-.098-.073-.997zm-1.793.692l.284 1.452.981-.192-.284-1.452-.981.192zm.367 1.646c1.607 2.256 3.476 3.336 5.588 2.923l-.192-.981c-1.568.306-3.09-.429-4.582-2.522l-.814.58zm5.798 2.828c.869-.673 1.554-1.313 2.039-1.921.482-.604.795-1.212.861-1.816l-.994-.109c-.037.342-.228.773-.649 1.301-.418.524-1.036 1.109-1.869 1.754l.612.79zm2.342-3.295c.346.042.597.185.789.43l.786-.619a2.117 2.117 0 0 0-1.453-.804l-.122.993zm.691.216l.031.159.982-.192-.031-.159-.982.192zm.032-.04c-.318 1.518-.88 2.683-1.66 3.526-.776.84-1.795 1.39-3.084 1.643l.192.981c1.472-.288 2.689-.932 3.626-1.945.933-1.009 1.559-2.353 1.905-4l-.979-.205zm-4.596 5.162c-1.642-.172-3.022-.839-4.16-2.008l-.717.698c1.303 1.338 2.901 2.109 4.773 2.305l.104-.995zm-4.12-1.962c-.725-.954-1.705-2.58-2.944-4.901l-.882.47c1.243 2.329 2.254 4.015 3.03 5.036l.796-.605zm-3.312-5.16c-.038-.006-.069-.02-.108-.07-.049-.063-.11-.188-.154-.413l-.981.191c.119.61.43 1.183 1.097 1.281l.146-.99zm-.262-.484c-.044-.222.03-.553.44-1.028l-.757-.653c-.499.578-.793 1.214-.664 1.873l.981-.192zm.552-1.45c-.131-.67.035-1.34.568-2.04.544-.715 1.464-1.445 2.805-2.18l-.481-.877c-1.401.767-2.456 1.58-3.119 2.45-.674.884-.95 1.84-.754 2.838l.981-.192zm1.683-.837l.031.158.982-.192-.031-.158-.982.192zm.031.158c.07.357.357.538.584.624.233.088.524.127.841.141.642.028 1.55-.047 2.704-.213l-.142-.99c-1.139.164-1.973.228-2.52.204-.277-.012-.443-.045-.529-.078-.091-.034.016-.022.044.12l-.982.192zm4.549-.039l-.126-.647-.982.192.127.647.981-.192zm-.221-.856c-.596-.773-1.414-1.21-2.415-1.31l-.101.995c.745.075 1.306.384 1.724.925l.792-.61zm-2.561-1.303c-.782.152-1.344.83-1.761 1.734l.908.419c.38-.824.752-1.115 1.044-1.172l-.191-.981zm15.758-5.498l-.096-.49-.035.007-.033.011.164.472zm.863-.168l.279-.415-.172-.116-.203.04.096.49zm1.031.694l.491-.096-.04-.204-.172-.115-.279.415zm.028.143l.5-.008-.001-.044-.008-.044-.491.096zm-1.041 1.547l-.042.498.069.006.069-.013-.096-.49zm-1.062-.09l.042-.499-.172-.014-.144.094.274.418zm-1.914 3.956l-.49.096.022.112.068.091.4-.3zm4.585 2.835l.295-.404-.069-.05-.083-.025-.143.479zm1.228 1.7l.494.076.013-.086-.017-.086-.49.096zm-2.229 3.869l.309.393.008-.007.008-.006-.325-.38zm-4.022.04l-.491.096.015.074.035.066.441-.236zm1.097-1.26l-.096-.49-.118.023-.095.074.309.394zm.287-.056l-.025-.499-.036.002-.034.007.095.49zm1.035-.053l.026.5.19-.01.135-.134-.351-.356zm1.56-1.946l.483.128.103-.39-.359-.184-.227.446zm-3.813-1.942l.227-.445-.018-.01-.018-.007-.191.462zm-1.543-1.787l.49-.096-.096-.491-.49.096.096.49zm-.429-.663l-.49.096.003.015.003.014.484-.125zm2.383-6.138l-.165-.472-.117.041-.085.091.367.34zm2.052-.19l.863-.169-.192-.981-.863.169.192.981zm.487-.245l1.032.695.558-.83-1.031-.694-.559.83zm.82.376l.028.143.982-.192-.028-.143-.982.192zm.019.056c.007.387-.067.625-.164.768-.087.13-.226.231-.473.28l.192.98c.462-.09.851-.316 1.111-.701.251-.373.343-.838.334-1.344l-1 .017zm-.498 1.04l-1.063-.09-.085.996 1.063.09.085-.996zm-1.379-.011c-1.655 1.08-2.539 2.38-2.243 3.896l.982-.192c-.18-.919.286-1.873 1.808-2.867l-.547-.837zm-2.243 3.896l.113.575.981-.192-.112-.575-.982.192zm.203.778c1.028 1.373 2.666 2.365 4.842 3.015l.286-.958c-2.051-.613-3.47-1.512-4.327-2.656l-.801.6zm4.689 2.94c.68.498.931.87.977 1.105l.981-.192c-.123-.63-.653-1.198-1.367-1.72l-.591.806zm.977 1.105l.056.287.981-.192-.056-.287-.981.192zm.053.115c-.213 1.38-.89 2.565-2.06 3.565l.65.76c1.336-1.142 2.146-2.536 2.398-4.173l-.988-.152zm-2.044 3.552c-1.001.787-1.727 1.177-2.206 1.27l.192.982c.729-.142 1.615-.665 2.632-1.466l-.618-.786zm-2.206 1.27l-.431.085.192.981.431-.084-.192-.981zm-.431.085c.119-.023.183.03.158.013a.834.834 0 0 1-.157-.158c-.164-.197-.376-.528-.637-1.014l-.881.473c.271.505.521.905.748 1.18.113.135.238.262.376.353a.785.785 0 0 0 .585.134l-.192-.981zm-.585-1.018c.018.095-.016.143.001.11a.878.878 0 0 1 .125-.173c.153-.175.409-.41.789-.707l-.618-.787c-.397.312-.711.592-.925.837a1.845 1.845 0 0 0-.268.387.826.826 0 0 0-.086.525l.982-.192zm.702-.673l.287-.056-.191-.981-.288.056.192.981zm.217-.047l1.035-.053-.052-.999-1.034.053.051.999zm1.36-.197c.478-.472.859-.882 1.136-1.228.264-.329.478-.653.556-.946l-.967-.257c-.019.075-.113.258-.37.578-.242.303-.593.683-1.057 1.142l.702.711zm1.436-2.748l-3.813-1.941-.454.891 3.813 1.941.454-.891zm-3.849-1.958c-.73-.301-1.117-.771-1.244-1.421l-.981.192c.199 1.017.841 1.74 1.843 2.154l.382-.925zm-1.83-1.816a.34.34 0 0 1 .24.042c.047.03.059.055.046.035a.722.722 0 0 1-.056-.12 2.34 2.34 0 0 1-.078-.254l-.969.25c.066.252.148.488.263.667.109.169.357.437.745.361l-.191-.981zm.158-.268l-.197-1.006-.981.192.197 1.006.981-.192zm-.197-1.006c-.097-.499.01-1.133.411-1.933.401-.797 1.075-1.718 2.044-2.763l-.733-.68c-1.004 1.083-1.745 2.081-2.204 2.994-.458.91-.655 1.779-.499 2.574l.981-.192zm2.253-4.563l1.956-.681-.328-.945-1.957.681.329.945zm13.017-3.348l-.096-.491-.035.007-.033.011.164.473zm.863-.17l.279-.414-.172-.115-.203.04.096.49zm1.031.695l.49-.096-.039-.203-.172-.116-.279.415zm.028.144l.5-.009-.001-.044-.008-.043-.491.096zm-1.041 1.546l-.043.499.07.006.069-.014-.096-.49zm-1.063-.09l.043-.499-.172-.014-.144.094.273.419zm-1.913 3.956l-.49.096.022.112.068.092.4-.3zm4.585 2.835l.295-.403-.069-.051-.083-.025-.143.48zm1.228 1.7l.494.076.013-.086-.017-.086-.49.096zm-2.229 3.869l.309.393.008-.006.008-.007-.325-.38zm-4.022.04l-.491.096.015.074.035.067.441-.237zm1.097-1.26l-.096-.49-.118.023-.095.075.309.393zm.287-.055l-.025-.5-.036.002-.035.007.096.49zm1.035-.053l.025.499.191-.01.135-.134-.351-.355zm1.56-1.947l.483.128.103-.39-.36-.184-.226.446zm-3.813-1.941l.227-.446-.018-.009-.018-.007-.191.462zm-1.544-1.788l.491-.096-.096-.49-.49.095.095.49zm-.428-.663l-.49.096.003.015.003.014.484-.125zm2.383-6.137l-.165-.473-.117.041-.085.092.367.34zm2.052-.19l.862-.17-.191-.98-.863.168.192.981zm.487-.245l1.032.694.558-.83-1.031-.694-.559.83zm.82.375l.028.144.982-.192-.029-.144-.981.192zm.019.056c.007.387-.067.625-.164.769-.087.13-.226.23-.473.279l.192.981c.462-.09.851-.316 1.111-.702.251-.373.342-.838.334-1.344l-1 .017zm-.498 1.04l-1.063-.09-.085.996 1.062.09.086-.996zm-1.379-.011c-1.655 1.08-2.539 2.38-2.243 3.896l.982-.192c-.18-.919.286-1.873 1.808-2.867l-.547-.837zm-2.243 3.896l.113.575.981-.192-.112-.575-.982.192zm.203.779c1.028 1.372 2.666 2.364 4.842 3.014l.286-.958c-2.051-.613-3.47-1.511-4.327-2.656l-.801.6zm4.689 2.938c.68.499.931.872.977 1.106l.981-.192c-.123-.63-.653-1.198-1.367-1.72l-.591.806zm.977 1.106l.056.287.981-.192-.056-.287-.981.192zm.052.115c-.212 1.38-.889 2.565-2.059 3.565l.65.76c1.336-1.142 2.146-2.536 2.398-4.172l-.989-.153zm-2.043 3.552c-1.001.788-1.727 1.177-2.206 1.27l.192.982c.729-.142 1.615-.665 2.632-1.466l-.618-.786zm-2.206 1.27l-.431.085.192.982.431-.085-.192-.981zm-.431.085c.119-.023.183.03.158.013a.834.834 0 0 1-.157-.158c-.164-.197-.376-.527-.637-1.013l-.881.473c.271.504.521.904.748 1.178.113.136.238.263.376.354a.785.785 0 0 0 .585.135l-.192-.982zm-.585-1.018c.018.095-.016.143 0 .11a.95.95 0 0 1 .126-.173c.153-.175.409-.41.789-.707l-.618-.786c-.397.311-.711.591-.925.836a1.845 1.845 0 0 0-.268.387.826.826 0 0 0-.086.525l.982-.192zm.702-.672l.287-.057-.192-.981-.287.056.192.982zm.217-.048l1.034-.053-.051-.999-1.034.053.051.999zm1.36-.197a14.92 14.92 0 0 0 1.136-1.227c.264-.33.478-.654.556-.947l-.967-.256c-.019.074-.113.258-.37.577a13.86 13.86 0 0 1-1.057 1.142l.702.711zm1.435-2.748l-3.812-1.941-.454.891 3.813 1.941.453-.89zm-3.848-1.957c-.73-.302-1.117-.772-1.244-1.422l-.981.192c.199 1.017.841 1.74 1.843 2.154l.382-.924zm-1.83-1.817a.34.34 0 0 1 .24.042c.047.03.059.055.046.036a.718.718 0 0 1-.056-.12 2.554 2.554 0 0 1-.079-.255l-.968.25c.065.252.148.489.263.667.109.169.357.437.745.361l-.191-.98zm.158-.268l-.197-1.006-.981.192.197 1.006.981-.192zm-.197-1.006c-.097-.499.01-1.133.411-1.933.401-.797 1.075-1.718 2.044-2.762l-.733-.68c-1.004 1.082-1.745 2.08-2.204 2.993-.458.911-.655 1.779-.499 2.574l.981-.192zm2.253-4.563l1.956-.681-.328-.945-1.957.681.329.945zm16.838-36.25c1.772 2.312 2.359 5.224 1.944 8.087-.352 2.52-1.67 5.716-4.078 6.97-1.386.724-.969 2.77.68 2.68 5.822-.288 9.824 5.655 12.622 9.93.792 1.227 2.739.322 2.576-1.032-.713-6.064.58-12.139 3.626-17.417.584-1.005-.545-2.004-1.484-1.966-4.956.225-9.874-2.665-12.081-7.118-.768-1.621-3.357-.607-2.572 1.002 2.738 5.69 8.712 9.231 15.009 8.933l-1.484-1.966c-3.273 5.691-4.602 12.357-3.845 18.87.86-.353 1.733-.69 2.576-1.03-3.465-5.303-8.243-11.384-15.26-10.973.329.826.67 1.669.998 2.495 2.61-2.48 4.495-5.245 4.946-8.914.418-3.428-.523-6.986-2.754-9.622-.735-.867-2.116.148-1.419 1.071zm-36.004-1.107c3.769-2.105 5.799-6.005 6.235-10.212.463-4.642-.959-9.194-2.324-13.552l-2.521 1.015c3.171 7.613 12.248 11.715 20.094 9.168-.338-.84-.676-1.68-.995-2.535-4.947 2.076-5.519 7.985-5.197 12.686.44 6.506 1.438 13.005 2.158 19.45a82.53 82.53 0 0 0 2.468-1.005 91.93 91.93 0 0 0-7.002-10.376c-2.501-3.234-5.205-6.58-8.393-9.118-1.094-.862-2.635.627-1.743 1.73 2.576 3.177 5.514 6.05 8.015 9.285a92.479 92.479 0 0 1 6.898 10.158c.722 1.232 2.609.28 2.468-1.004-.679-5.882-1.373-11.782-2.034-17.678-.409-3.718-.886-9.841 3.343-11.612 1.614-.686.647-3.065-.995-2.535-6.402 2.108-13.955-1.427-16.564-7.629-.667-1.628-3.032-.642-2.521 1.015 2.086 6.685 4.511 16.134-2.364 21.028-.896.617-.031 2.273.974 1.721z" fill="#66C1EA"/></svg>