<svg width="397" height="397" viewBox="0 0 397 397" fill="none" xmlns="http://www.w3.org/2000/svg">
<path fill-rule="evenodd" clip-rule="evenodd" d="M198.715 198.916V198.915V198.915L239.405 128.432C233.323 124.912 226.733 122.152 219.778 120.294L198.715 198.915V117.549C191.435 117.549 184.367 118.506 177.651 120.308L198.707 198.889L158.024 128.432C151.857 132.008 146.183 136.359 141.185 141.371L198.709 198.896L198.715 198.915L198.715 198.916ZM198.715 198.916L256.258 141.386C261.271 146.384 265.621 152.059 269.198 158.225L198.715 198.916ZM198.715 198.916L198.715 198.916L198.715 198.916L198.715 198.916ZM198.715 198.916L198.715 198.916L198.715 198.916L198.715 198.916ZM198.715 198.916L198.714 198.916L198.714 198.916L198.715 198.916ZM198.714 198.916L198.715 198.916L198.716 198.916L277.322 177.853C279.124 184.569 280.081 191.637 280.081 198.916H198.717L277.336 219.979C275.477 226.934 272.718 233.524 269.198 239.606L198.716 198.916H198.715L256.244 256.46C251.246 261.472 245.572 265.823 239.405 269.399L198.715 198.916L219.778 277.523C213.062 279.325 205.994 280.283 198.715 280.283V198.916L177.651 277.537C170.696 275.678 164.107 272.919 158.024 269.399L198.714 198.916L141.171 256.446C136.158 251.447 131.808 245.773 128.231 239.606L198.714 198.916L198.714 198.916L120.107 219.979C118.305 213.263 117.348 206.195 117.348 198.916H198.713L120.093 177.853C121.952 170.898 124.711 164.308 128.231 158.226L198.714 198.916Z" fill="url(#paint0_radial_2531_2034)" fill-opacity="0.35"/>
<path fill-rule="evenodd" clip-rule="evenodd" d="M198.714 198.921L240.548 42.7965C226.581 39.054 212.526 37.2572 198.713 37.2622L198.714 198.867L156.876 42.7587C143.204 46.4501 130.08 51.8808 117.913 58.9286L198.714 198.881L198.714 198.921L198.709 198.92L84.3927 84.6101C74.5115 94.4712 65.8286 105.696 58.6865 118.086L198.704 198.918L42.5892 157.087C38.8467 171.054 37.0499 185.109 37.055 198.922L198.708 198.921L198.714 198.924L42.5522 240.762C46.2436 254.433 51.6742 267.558 58.7221 279.725L198.714 198.924L84.4004 313.245C94.2615 323.126 105.486 331.809 117.876 338.951L198.714 198.924L156.88 355.048C170.848 358.791 184.902 360.587 198.715 360.582L198.714 198.924L240.552 355.085C254.224 351.394 267.348 345.963 279.516 338.915L198.714 198.924L313.035 313.237C322.916 303.376 331.599 292.151 338.741 279.761L198.714 198.924L198.711 198.921L198.714 198.921L198.714 198.921ZM198.714 198.921L338.706 118.12C345.754 130.288 351.184 143.412 354.876 157.084L198.714 198.921ZM198.714 198.921L279.552 58.8938C291.942 66.036 303.167 74.7189 313.028 84.6L198.714 198.921ZM198.714 198.923L354.838 240.757C358.581 226.789 360.378 212.735 360.373 198.922L198.714 198.923Z" fill="url(#paint1_radial_2531_2034)" fill-opacity="0.35"/>
<defs>
<radialGradient id="paint0_radial_2531_2034" cx="0" cy="0" r="1" gradientUnits="userSpaceOnUse" gradientTransform="translate(198.715 198.916) rotate(90) scale(81.3669 81.3668)">
<stop stop-color="white"/>
<stop offset="0.3125" stop-color="white" stop-opacity="0.75"/>
<stop offset="1" stop-color="white" stop-opacity="0"/>
</radialGradient>
<radialGradient id="paint1_radial_2531_2034" cx="0" cy="0" r="1" gradientUnits="userSpaceOnUse" gradientTransform="translate(198.714 198.922) rotate(105) scale(161.633 161.632)">
<stop stop-color="white"/>
<stop offset="1" stop-color="white" stop-opacity="0"/>
</radialGradient>
</defs>
</svg>
