<svg width="308" height="305" viewBox="0 0 308 305" fill="none" xmlns="http://www.w3.org/2000/svg">
<path fill-rule="evenodd" clip-rule="evenodd" d="M153.777 153.999L127.152 2.99834C135.801 1.51383 144.708 0.707031 153.777 0.707031C162.845 0.707031 171.752 1.51383 180.401 2.99834L153.777 153.999ZM153.777 153.999L36.3387 55.4725C47.7953 41.8214 61.6077 30.2035 77.0983 21.2319L153.777 153.999ZM153.777 153.999L9.68207 206.441C15.846 223.384 24.9467 238.971 36.3387 252.525L153.777 153.999ZM153.777 153.999L9.68204 101.557C3.74399 117.919 0.484528 135.572 0.484528 153.999L153.777 153.999ZM153.777 153.999L77.1305 286.798C92.3306 295.609 109.209 301.869 127.152 305L153.777 153.999ZM153.777 153.999L230.422 286.766C215.19 295.576 198.344 301.837 180.401 304.967L153.777 153.999ZM153.777 153.999L230.423 21.2319C245.945 30.2035 259.725 41.8214 271.182 55.4725L153.777 153.999ZM153.777 153.999L271.214 252.525C282.606 238.971 291.707 223.416 297.871 206.441L153.777 153.999ZM153.777 153.999L297.871 101.557C303.809 117.919 307.068 135.572 307.068 153.999L153.777 153.999Z" fill="url(#paint0_radial_2531_1992)" fill-opacity="0.35"/>
<path fill-rule="evenodd" clip-rule="evenodd" d="M205.516 64.3541C195.302 58.2226 183.954 53.7873 171.86 51.4379L153.776 154L135.572 50.7734C123.212 52.7032 111.57 56.7995 101.047 62.6617L153.776 154L72.5892 85.8866C64.5865 95.1871 58.1934 105.912 53.8422 117.63L153.776 154L250.254 118.888C246.186 107.485 240.193 96.9966 232.667 87.8135L153.776 154L205.516 64.3541ZM256.299 154H153.776H47.3385C47.3388 166.791 49.6373 179.044 53.8436 190.37L153.776 154L72.6005 222.123C80.6146 231.434 90.242 239.316 101.049 245.336L153.776 154L135.576 257.224C140.869 258.05 146.294 258.479 151.819 258.479C158.673 258.479 165.374 257.819 171.86 256.559L153.776 154L205.54 243.628C215.88 237.417 225.056 229.468 232.665 220.185L153.776 154L250.252 189.112C254.167 178.138 256.299 166.318 256.299 154Z" fill="url(#paint1_radial_2531_1992)" fill-opacity="0.35"/>
<defs>
<radialGradient id="paint0_radial_2531_1992" cx="0" cy="0" r="1" gradientUnits="userSpaceOnUse" gradientTransform="translate(153.777 152.853) rotate(90) scale(152.146 153.292)">
<stop stop-color="white"/>
<stop offset="1" stop-color="white" stop-opacity="0"/>
</radialGradient>
<radialGradient id="paint1_radial_2531_1992" cx="0" cy="0" r="1" gradientUnits="userSpaceOnUse" gradientTransform="translate(151.819 154.537) rotate(90) scale(91.8497 92.3878)">
<stop stop-color="white"/>
<stop offset="0.3125" stop-color="white" stop-opacity="0.75"/>
<stop offset="1" stop-color="white" stop-opacity="0"/>
</radialGradient>
</defs>
</svg>
