<svg width="36" height="35" viewBox="0 0 36 35" fill="none" xmlns="http://www.w3.org/2000/svg">
<path d="M18.1522 35C8.4943 34.992 0.696126 27.1637 0.704108 17.508C0.712089 7.8762 8.52623 0 18.0644 0C27.882 0 35.6961 7.76448 35.7041 17.508C35.7041 27.2116 27.882 35.008 18.1522 35ZM14.0336 13.9489C14.0336 15.1619 14.0336 16.319 14.0336 17.5C14.6402 17.5399 15.167 17.5798 15.8056 17.6197C15.8056 20.5882 15.8056 23.5009 15.8056 26.4455C17.0827 26.4455 18.24 26.4455 19.4612 26.4455C19.4612 24.8974 19.4612 23.4291 19.4612 21.9688C19.4612 20.5164 19.4612 19.0641 19.4612 17.5559C20.2514 17.5559 20.89 17.5878 21.5205 17.5399C21.736 17.5239 22.0872 17.2925 22.1112 17.1249C22.2469 16.0955 22.2947 15.0581 22.3905 13.8771C21.4088 13.8771 20.5388 13.8771 19.6528 13.8771C19.6209 13.526 19.5889 13.3026 19.5889 13.0871C19.565 11.8183 19.7166 11.6746 21.0097 11.6667C21.4407 11.6667 21.8717 11.6667 22.2868 11.6667C22.2868 10.5335 22.2868 9.56794 22.2868 8.53055C21.2811 8.53055 20.3632 8.51459 19.4453 8.53055C17.1705 8.58641 15.8455 9.91108 15.7737 12.1854C15.7577 12.72 15.7737 13.2467 15.7737 13.8212C15.1351 13.8691 14.6003 13.909 14.0336 13.9489Z" fill="white"/>
</svg>
