<svg width="32" height="32" viewBox="0 0 32 32" fill="none" xmlns="http://www.w3.org/2000/svg">
<path d="M15.7646 31.79C7.21044 31.783 0.303483 24.8493 0.310552 16.2971C0.317622 7.7661 7.23871 0.790039 15.6868 0.790039C24.3824 0.790039 31.3035 7.66715 31.3105 16.2971C31.3105 24.8917 24.3824 31.7971 15.7646 31.79ZM12.1167 13.1448C12.1167 14.2191 12.1167 15.244 12.1167 16.29C12.654 16.3254 13.1206 16.3607 13.6861 16.3961C13.6861 19.0253 13.6861 21.6051 13.6861 24.2132C14.8173 24.2132 15.8424 24.2132 16.924 24.2132C16.924 22.842 16.924 21.5415 16.924 20.2481C16.924 18.9617 16.924 17.6754 16.924 16.3395C17.6239 16.3395 18.1895 16.3678 18.7479 16.3254C18.9388 16.3112 19.2499 16.1063 19.2711 15.9578C19.3913 15.0461 19.4337 14.1272 19.5185 13.0812C18.649 13.0812 17.8784 13.0812 17.0937 13.0812C17.0654 12.7702 17.0371 12.5723 17.0371 12.3815C17.0159 11.2577 17.1502 11.1304 18.2955 11.1234C18.6773 11.1234 19.059 11.1234 19.4266 11.1234C19.4266 10.1197 19.4266 9.2645 19.4266 8.34567C18.5359 8.34567 17.7229 8.33153 16.9099 8.34567C14.895 8.39514 13.7215 9.56842 13.6579 11.5828C13.6437 12.0563 13.6579 12.5228 13.6579 13.0317C13.0923 13.0741 12.6186 13.1095 12.1167 13.1448Z" fill="#175BA7"/>
</svg>
