<svg width="37" height="36" viewBox="0 0 37 36" fill="none" xmlns="http://www.w3.org/2000/svg">
<path d="M18.451 35.413C8.6006 35.4211 0.687978 27.5246 0.704126 17.7065C0.720274 7.83189 8.62483 -0.00806788 18.556 6.23081e-06C28.1642 0.00808034 36.1091 7.9853 36.1091 17.6177C36.101 27.5004 28.253 35.405 18.451 35.413ZM28.2449 17.7711C28.253 17.7711 28.253 17.7711 28.2449 17.7711C28.253 16.4147 28.2772 15.0582 28.2449 13.7098C28.1642 10.3106 25.7258 7.88841 22.3266 7.85611C19.7106 7.83189 17.1026 7.83189 14.4866 7.85611C11.1036 7.88033 8.60868 10.3106 8.55216 13.7018C8.50371 16.4066 8.51179 19.1195 8.56023 21.8324C8.62482 25.054 11.0471 27.5166 14.2767 27.5973C17.0138 27.6619 19.759 27.6538 22.5042 27.5973C25.7096 27.5327 28.1561 25.054 28.2368 21.8405C28.2772 20.4759 28.2449 19.1195 28.2449 17.7711Z" fill="white"/>
<path d="M18.3704 25.9174C17.24 25.9174 16.1096 25.9335 14.9793 25.9174C12.3229 25.869 10.2478 23.8424 10.1994 21.194C10.159 18.8687 10.1509 16.5434 10.1994 14.2261C10.2559 11.5778 12.339 9.53503 14.9873 9.50274C17.2481 9.47044 19.5088 9.47044 21.7615 9.50274C24.4583 9.53503 26.5495 11.602 26.5898 14.2907C26.6221 16.5837 26.6221 18.8768 26.5898 21.1617C26.5575 23.802 24.4825 25.8609 21.8342 25.9255C20.6957 25.9416 19.5331 25.9174 18.3704 25.9174ZM23.9738 17.6737C23.9577 14.5733 21.4466 12.1026 18.3381 12.1268C15.2942 12.151 12.8235 14.654 12.8315 17.706C12.8396 20.8388 15.2861 23.2852 18.4188 23.2933C21.5112 23.3014 23.99 20.7984 23.9738 17.6737ZM23.4248 10.9399C22.7466 10.948 22.1814 11.5132 22.1975 12.1833C22.2137 12.8373 22.8111 13.4106 23.4571 13.4025C24.1111 13.3945 24.6924 12.797 24.6843 12.151C24.6763 11.489 24.0949 10.9319 23.4248 10.9399Z" fill="white"/>
<path d="M22.2217 17.8192C22.149 19.9427 20.4212 21.5979 18.3138 21.5494C16.1742 21.501 14.5029 19.7085 14.5755 17.5527C14.6482 15.4454 16.4083 13.8144 18.5318 13.8871C20.6553 13.9598 22.2944 15.7038 22.2217 17.8192Z" fill="white"/>
</svg>
