<svg width="31" height="31" viewBox="0 0 31 31" fill="none" xmlns="http://www.w3.org/2000/svg">
<mask id="mask0_1369_4169" style="mask-type:alpha" maskUnits="userSpaceOnUse" x="0" y="0" width="31" height="31">
<path fill-rule="evenodd" clip-rule="evenodd" d="M15.5354 31C6.91247 31.0071 -0.0141143 24.0946 2.1598e-05 15.5C0.0141575 6.85591 6.93367 -0.00706249 15.6272 5.45435e-06C24.0381 0.00707339 30.9929 6.9902 30.9929 15.4223C30.9859 24.0734 24.1158 30.9929 15.5354 31ZM24.1088 15.5565C24.1103 15.2924 24.1126 15.0283 24.1149 14.7642V14.764C24.1228 13.841 24.1307 12.9191 24.1088 12.0014C24.0381 9.02577 21.9036 6.90538 18.928 6.87711C16.638 6.85591 14.355 6.85591 12.065 6.87711C9.10353 6.89832 6.91954 9.02577 6.87006 11.9943C6.82765 14.3621 6.83472 16.7369 6.87713 19.1117C6.93367 21.9318 9.05405 24.0875 11.8812 24.1582C14.2773 24.2148 16.6804 24.2077 19.0835 24.1582C21.8894 24.1017 24.031 21.9318 24.1017 19.1188C24.1262 18.2911 24.1201 17.4669 24.1141 16.6461L24.1141 16.6456C24.1114 16.2819 24.1088 15.9189 24.1088 15.5565ZM15.4652 22.6882C15.1353 22.6882 14.8055 22.6898 14.4757 22.6913C13.816 22.6945 13.1563 22.6976 12.4966 22.6882C10.1713 22.6458 8.35483 20.8717 8.31242 18.5534C8.27708 16.5179 8.27001 14.4823 8.31242 12.4538C8.36189 10.1355 10.1854 8.34733 12.5037 8.31906C14.4827 8.29078 16.4618 8.29078 18.4337 8.31906C20.7944 8.34733 22.625 10.1567 22.6603 12.5103C22.6886 14.5176 22.6886 16.5249 22.6603 18.5252C22.6321 20.8364 20.8156 22.6387 18.4973 22.6952C17.8756 22.7041 17.2455 22.6991 16.6124 22.6942H16.6122C16.2306 22.6912 15.8479 22.6882 15.4652 22.6882ZM20.3703 15.4718C20.3562 12.7577 18.1581 10.5949 15.4369 10.6161C12.7723 10.6373 10.6095 12.8284 10.6166 15.5001C10.6236 18.2424 12.7652 20.384 15.5076 20.3911C18.2146 20.3982 20.3845 18.2071 20.3703 15.4718ZM19.8897 9.57715C19.296 9.58422 18.8012 10.079 18.8154 10.6656C18.8295 11.2381 19.3525 11.7399 19.918 11.7329C20.4905 11.7258 20.9994 11.2028 20.9923 10.6373C20.9852 10.0578 20.4763 9.57008 19.8897 9.57715ZM15.4156 18.8643C17.2603 18.9067 18.7728 17.4578 18.8365 15.5989C18.9001 13.7471 17.4653 12.2204 15.6064 12.1568C13.7475 12.0932 12.2067 13.5209 12.1431 15.3657C12.0795 17.2528 13.5426 18.8219 15.4156 18.8643Z" fill="white"/>
</mask>
<g mask="url(#mask0_1369_4169)">
<rect width="36.5859" height="36.5859" rx="16" transform="matrix(-1 0 0 1 33.6919 -2.56152)" fill="url(#paint0_radial_1369_4169)"/>
<rect width="36.5859" height="36.5859" rx="16" transform="matrix(-1 0 0 1 33.6919 -2.56152)" fill="url(#paint1_radial_1369_4169)"/>
<rect width="36.5859" height="36.5859" rx="16" transform="matrix(-1 0 0 1 33.6919 -2.56152)" fill="url(#paint2_radial_1369_4169)"/>
</g>
<defs>
<radialGradient id="paint0_radial_1369_4169" cx="0" cy="0" r="1" gradientUnits="userSpaceOnUse" gradientTransform="translate(13.0664 27.4394) rotate(-55.3758) scale(33.3449)">
<stop stop-color="#B13589"/>
<stop offset="0.79309" stop-color="#C62F94"/>
<stop offset="1" stop-color="#8A3AC8"/>
</radialGradient>
<radialGradient id="paint1_radial_1369_4169" cx="0" cy="0" r="1" gradientUnits="userSpaceOnUse" gradientTransform="translate(11.7598 37.8925) rotate(-65.1363) scale(29.5225)">
<stop stop-color="#E0E8B7"/>
<stop offset="0.444662" stop-color="#FB8A2E"/>
<stop offset="0.71474" stop-color="#E2425C"/>
<stop offset="1" stop-color="#E2425C" stop-opacity="0"/>
</radialGradient>
<radialGradient id="paint2_radial_1369_4169" cx="0" cy="0" r="1" gradientUnits="userSpaceOnUse" gradientTransform="translate(-1.95996 1.30664) rotate(-8.1301) scale(50.8163 10.8691)">
<stop offset="0.156701" stop-color="#406ADC"/>
<stop offset="0.467799" stop-color="#6A45BE"/>
<stop offset="1" stop-color="#6A45BE" stop-opacity="0"/>
</radialGradient>
</defs>
</svg>
