<svg width="271" height="271" viewBox="0 0 271 271" fill="none" xmlns="http://www.w3.org/2000/svg">
<path d="M141.414 61.8344L135.451 135.256L129.488 61.8344H141.414Z" fill="url(#paint0_radial_2532_2117)" fill-opacity="0.35"/>
<path d="M135.451 135.256L148.681 62.7971L160.204 65.8719L135.451 135.256Z" fill="url(#paint1_radial_2532_2117)" fill-opacity="0.35"/>
<path d="M135.451 135.256L177.317 74.6613L166.975 68.6982L135.451 135.256Z" fill="url(#paint2_radial_2532_2117)" fill-opacity="0.35"/>
<path d="M135.451 135.256L196.045 177.122L202.008 166.78L135.451 135.256Z" fill="url(#paint3_radial_2532_2117)" fill-opacity="0.35"/>
<path d="M135.451 135.256L183.125 79.1337L191.573 87.5505L135.451 135.256Z" fill="url(#paint4_radial_2532_2117)" fill-opacity="0.35"/>
<path d="M135.451 135.256L202.008 103.701L196.045 93.3894L135.451 135.256Z" fill="url(#paint5_radial_2532_2117)" fill-opacity="0.35"/>
<path d="M135.451 135.256L129.488 208.677H141.414L135.451 135.257L148.681 207.714L160.204 204.609L135.451 135.256Z" fill="url(#paint6_radial_2532_2117)" fill-opacity="0.35"/>
<path d="M135.451 135.256L204.803 110.471L207.909 122.025L135.451 135.256Z" fill="url(#paint7_radial_2532_2117)" fill-opacity="0.35"/>
<path d="M135.451 135.256L208.872 141.219V129.293L135.451 135.256Z" fill="url(#paint8_radial_2532_2117)" fill-opacity="0.35"/>
<path d="M135.451 135.256L166.975 201.813L177.317 195.85L135.451 135.256Z" fill="url(#paint9_radial_2532_2117)" fill-opacity="0.35"/>
<path d="M135.451 135.256L207.909 148.487L204.803 160.009L135.451 135.256Z" fill="url(#paint10_radial_2532_2117)" fill-opacity="0.35"/>
<path d="M135.451 135.256L183.125 191.378L191.573 182.93L135.451 135.256Z" fill="url(#paint11_radial_2532_2117)" fill-opacity="0.35"/>
<path d="M135.451 135.256L110.666 204.609L122.22 207.714L135.451 135.256Z" fill="url(#paint12_radial_2532_2117)" fill-opacity="0.35"/>
<path d="M135.451 135.256L87.7455 191.378L79.2976 182.93L135.451 135.256Z" fill="url(#paint13_radial_2532_2117)" fill-opacity="0.35"/>
<path d="M135.451 135.256L103.896 201.813L93.5844 195.85L135.451 135.256Z" fill="url(#paint14_radial_2532_2117)" fill-opacity="0.35"/>
<path d="M135.451 135.256L68.8932 166.78L74.8563 177.122L135.451 135.256Z" fill="url(#paint15_radial_2532_2117)" fill-opacity="0.35"/>
<path d="M135.451 135.256L66.0669 160.009L62.9921 148.487L135.451 135.256Z" fill="url(#paint16_radial_2532_2117)" fill-opacity="0.35"/>
<path d="M135.451 135.256L62.0293 129.293V141.219L135.451 135.256Z" fill="url(#paint17_radial_2532_2117)" fill-opacity="0.35"/>
<path d="M135.451 135.256L66.0669 110.471L62.9921 122.025L135.451 135.256Z" fill="url(#paint18_radial_2532_2117)" fill-opacity="0.35"/>
<path d="M122.22 62.7971L135.451 135.256L110.666 65.8719L122.22 62.7971Z" fill="url(#paint19_radial_2532_2117)" fill-opacity="0.35"/>
<path d="M135.451 135.256L103.896 68.6982L93.5844 74.6613L135.451 135.256Z" fill="url(#paint20_radial_2532_2117)" fill-opacity="0.35"/>
<path d="M135.451 135.256L87.7454 79.1337L79.3287 87.5505L135.451 135.256Z" fill="url(#paint21_radial_2532_2117)" fill-opacity="0.35"/>
<path d="M135.451 135.256L74.8563 93.3894L68.8932 103.701L135.451 135.256Z" fill="url(#paint22_radial_2532_2117)" fill-opacity="0.35"/>
<path d="M124.479 0.167969C119.954 0.530495 115.491 1.11531 111.102 1.91149L135.45 135.255L89.8487 7.59351C85.5895 9.11505 81.4287 10.8437 77.3785 12.7673L135.45 135.255L58.4051 23.7456C54.6891 26.3179 51.1079 29.0713 47.6742 31.9928L135.45 135.255L32.1877 47.4793C29.2662 50.913 26.5128 54.4942 23.9405 58.2102L135.45 135.255L12.9622 77.1836C11.0386 81.2338 9.30993 85.3945 7.78838 89.6537L135.45 135.255L2.10633 110.907C1.31015 115.296 0.725325 119.759 0.362794 124.284L135.45 135.255L0.362793 146.227C0.725323 150.752 1.31014 155.215 2.10633 159.604L135.45 135.255L7.77027 180.806C9.29038 185.067 11.0177 189.229 12.94 193.281L135.45 135.255L23.9405 212.301C26.4975 215.995 29.2334 219.555 32.1355 222.97L135.45 135.255L47.6743 238.518C51.1079 241.44 54.6891 244.193 58.4051 246.765L135.45 135.255L77.3785 257.744C81.423 259.664 85.5777 261.391 89.8305 262.911L135.45 135.255L111.102 268.599C115.491 269.396 119.954 269.98 124.479 270.343L135.45 135.255L181.019 262.929C185.274 261.41 189.43 259.685 193.475 257.766L135.45 135.255L212.495 246.765C216.199 244.201 219.77 241.457 223.193 238.546L135.45 135.255L238.741 222.998C241.652 219.575 244.396 216.005 246.96 212.301L135.45 135.255L257.96 193.281C259.88 189.235 261.605 185.079 263.124 180.825L135.45 135.255L268.794 159.604C269.59 155.215 270.175 150.752 270.538 146.227L135.45 135.255L270.538 124.284C270.175 119.759 269.59 115.296 268.794 110.907L135.45 135.255L263.106 89.6356C261.586 85.3827 259.859 81.2281 257.938 77.1836L135.45 135.255L246.96 58.2102C244.388 54.4942 241.634 50.913 238.713 47.4794L135.45 135.255L223.193 31.9646C219.77 29.0536 216.199 26.3097 212.495 23.7456L135.45 135.255L193.475 12.7452C189.424 10.8228 185.262 9.09555 181.001 7.57545L135.45 135.255L159.799 1.91151C155.41 1.11534 150.947 0.530526 146.422 0.167995L135.45 135.255L124.479 0.167969Z" fill="url(#paint23_radial_2532_2117)" fill-opacity="0.35"/>
<path d="M159.799 268.599L135.451 135.257L146.422 270.343C150.947 269.98 155.41 269.396 159.799 268.599Z" fill="url(#paint24_radial_2532_2117)" fill-opacity="0.35"/>
<defs>
<radialGradient id="paint0_radial_2532_2117" cx="0" cy="0" r="1" gradientUnits="userSpaceOnUse" gradientTransform="translate(135.451 135.256) rotate(90) scale(73.4214)">
<stop stop-color="white"/>
<stop offset="0.3125" stop-color="white" stop-opacity="0.75"/>
<stop offset="1" stop-color="white" stop-opacity="0"/>
</radialGradient>
<radialGradient id="paint1_radial_2532_2117" cx="0" cy="0" r="1" gradientUnits="userSpaceOnUse" gradientTransform="translate(135.451 135.256) rotate(90) scale(73.4214)">
<stop stop-color="white"/>
<stop offset="0.3125" stop-color="white" stop-opacity="0.75"/>
<stop offset="1" stop-color="white" stop-opacity="0"/>
</radialGradient>
<radialGradient id="paint2_radial_2532_2117" cx="0" cy="0" r="1" gradientUnits="userSpaceOnUse" gradientTransform="translate(135.451 135.256) rotate(90) scale(73.4214)">
<stop stop-color="white"/>
<stop offset="0.3125" stop-color="white" stop-opacity="0.75"/>
<stop offset="1" stop-color="white" stop-opacity="0"/>
</radialGradient>
<radialGradient id="paint3_radial_2532_2117" cx="0" cy="0" r="1" gradientUnits="userSpaceOnUse" gradientTransform="translate(135.451 135.256) rotate(90) scale(73.4214)">
<stop stop-color="white"/>
<stop offset="0.3125" stop-color="white" stop-opacity="0.75"/>
<stop offset="1" stop-color="white" stop-opacity="0"/>
</radialGradient>
<radialGradient id="paint4_radial_2532_2117" cx="0" cy="0" r="1" gradientUnits="userSpaceOnUse" gradientTransform="translate(135.451 135.256) rotate(90) scale(73.4214)">
<stop stop-color="white"/>
<stop offset="0.3125" stop-color="white" stop-opacity="0.75"/>
<stop offset="1" stop-color="white" stop-opacity="0"/>
</radialGradient>
<radialGradient id="paint5_radial_2532_2117" cx="0" cy="0" r="1" gradientUnits="userSpaceOnUse" gradientTransform="translate(135.451 135.256) rotate(90) scale(73.4214)">
<stop stop-color="white"/>
<stop offset="0.3125" stop-color="white" stop-opacity="0.75"/>
<stop offset="1" stop-color="white" stop-opacity="0"/>
</radialGradient>
<radialGradient id="paint6_radial_2532_2117" cx="0" cy="0" r="1" gradientUnits="userSpaceOnUse" gradientTransform="translate(135.451 135.256) rotate(90) scale(73.4214)">
<stop stop-color="white"/>
<stop offset="0.3125" stop-color="white" stop-opacity="0.75"/>
<stop offset="1" stop-color="white" stop-opacity="0"/>
</radialGradient>
<radialGradient id="paint7_radial_2532_2117" cx="0" cy="0" r="1" gradientUnits="userSpaceOnUse" gradientTransform="translate(135.451 135.256) rotate(90) scale(73.4214)">
<stop stop-color="white"/>
<stop offset="0.3125" stop-color="white" stop-opacity="0.75"/>
<stop offset="1" stop-color="white" stop-opacity="0"/>
</radialGradient>
<radialGradient id="paint8_radial_2532_2117" cx="0" cy="0" r="1" gradientUnits="userSpaceOnUse" gradientTransform="translate(135.451 135.256) rotate(90) scale(73.4214)">
<stop stop-color="white"/>
<stop offset="0.3125" stop-color="white" stop-opacity="0.75"/>
<stop offset="1" stop-color="white" stop-opacity="0"/>
</radialGradient>
<radialGradient id="paint9_radial_2532_2117" cx="0" cy="0" r="1" gradientUnits="userSpaceOnUse" gradientTransform="translate(135.451 135.256) rotate(90) scale(73.4214)">
<stop stop-color="white"/>
<stop offset="0.3125" stop-color="white" stop-opacity="0.75"/>
<stop offset="1" stop-color="white" stop-opacity="0"/>
</radialGradient>
<radialGradient id="paint10_radial_2532_2117" cx="0" cy="0" r="1" gradientUnits="userSpaceOnUse" gradientTransform="translate(135.451 135.256) rotate(90) scale(73.4214)">
<stop stop-color="white"/>
<stop offset="0.3125" stop-color="white" stop-opacity="0.75"/>
<stop offset="1" stop-color="white" stop-opacity="0"/>
</radialGradient>
<radialGradient id="paint11_radial_2532_2117" cx="0" cy="0" r="1" gradientUnits="userSpaceOnUse" gradientTransform="translate(135.451 135.256) rotate(90) scale(73.4214)">
<stop stop-color="white"/>
<stop offset="0.3125" stop-color="white" stop-opacity="0.75"/>
<stop offset="1" stop-color="white" stop-opacity="0"/>
</radialGradient>
<radialGradient id="paint12_radial_2532_2117" cx="0" cy="0" r="1" gradientUnits="userSpaceOnUse" gradientTransform="translate(135.451 135.256) rotate(90) scale(73.4214)">
<stop stop-color="white"/>
<stop offset="0.3125" stop-color="white" stop-opacity="0.75"/>
<stop offset="1" stop-color="white" stop-opacity="0"/>
</radialGradient>
<radialGradient id="paint13_radial_2532_2117" cx="0" cy="0" r="1" gradientUnits="userSpaceOnUse" gradientTransform="translate(135.451 135.256) rotate(90) scale(73.4214)">
<stop stop-color="white"/>
<stop offset="0.3125" stop-color="white" stop-opacity="0.75"/>
<stop offset="1" stop-color="white" stop-opacity="0"/>
</radialGradient>
<radialGradient id="paint14_radial_2532_2117" cx="0" cy="0" r="1" gradientUnits="userSpaceOnUse" gradientTransform="translate(135.451 135.256) rotate(90) scale(73.4214)">
<stop stop-color="white"/>
<stop offset="0.3125" stop-color="white" stop-opacity="0.75"/>
<stop offset="1" stop-color="white" stop-opacity="0"/>
</radialGradient>
<radialGradient id="paint15_radial_2532_2117" cx="0" cy="0" r="1" gradientUnits="userSpaceOnUse" gradientTransform="translate(135.451 135.256) rotate(90) scale(73.4214)">
<stop stop-color="white"/>
<stop offset="0.3125" stop-color="white" stop-opacity="0.75"/>
<stop offset="1" stop-color="white" stop-opacity="0"/>
</radialGradient>
<radialGradient id="paint16_radial_2532_2117" cx="0" cy="0" r="1" gradientUnits="userSpaceOnUse" gradientTransform="translate(135.451 135.256) rotate(90) scale(73.4214)">
<stop stop-color="white"/>
<stop offset="0.3125" stop-color="white" stop-opacity="0.75"/>
<stop offset="1" stop-color="white" stop-opacity="0"/>
</radialGradient>
<radialGradient id="paint17_radial_2532_2117" cx="0" cy="0" r="1" gradientUnits="userSpaceOnUse" gradientTransform="translate(135.451 135.256) rotate(90) scale(73.4214)">
<stop stop-color="white"/>
<stop offset="0.3125" stop-color="white" stop-opacity="0.75"/>
<stop offset="1" stop-color="white" stop-opacity="0"/>
</radialGradient>
<radialGradient id="paint18_radial_2532_2117" cx="0" cy="0" r="1" gradientUnits="userSpaceOnUse" gradientTransform="translate(135.451 135.256) rotate(90) scale(73.4214)">
<stop stop-color="white"/>
<stop offset="0.3125" stop-color="white" stop-opacity="0.75"/>
<stop offset="1" stop-color="white" stop-opacity="0"/>
</radialGradient>
<radialGradient id="paint19_radial_2532_2117" cx="0" cy="0" r="1" gradientUnits="userSpaceOnUse" gradientTransform="translate(135.451 135.256) rotate(90) scale(73.4214)">
<stop stop-color="white"/>
<stop offset="0.3125" stop-color="white" stop-opacity="0.75"/>
<stop offset="1" stop-color="white" stop-opacity="0"/>
</radialGradient>
<radialGradient id="paint20_radial_2532_2117" cx="0" cy="0" r="1" gradientUnits="userSpaceOnUse" gradientTransform="translate(135.451 135.256) rotate(90) scale(73.4214)">
<stop stop-color="white"/>
<stop offset="0.3125" stop-color="white" stop-opacity="0.75"/>
<stop offset="1" stop-color="white" stop-opacity="0"/>
</radialGradient>
<radialGradient id="paint21_radial_2532_2117" cx="0" cy="0" r="1" gradientUnits="userSpaceOnUse" gradientTransform="translate(135.451 135.256) rotate(90) scale(73.4214)">
<stop stop-color="white"/>
<stop offset="0.3125" stop-color="white" stop-opacity="0.75"/>
<stop offset="1" stop-color="white" stop-opacity="0"/>
</radialGradient>
<radialGradient id="paint22_radial_2532_2117" cx="0" cy="0" r="1" gradientUnits="userSpaceOnUse" gradientTransform="translate(135.451 135.256) rotate(90) scale(73.4214)">
<stop stop-color="white"/>
<stop offset="0.3125" stop-color="white" stop-opacity="0.75"/>
<stop offset="1" stop-color="white" stop-opacity="0"/>
</radialGradient>
<radialGradient id="paint23_radial_2532_2117" cx="0" cy="0" r="1" gradientUnits="userSpaceOnUse" gradientTransform="translate(135.45 135.255) rotate(90) scale(135.087)">
<stop stop-color="white"/>
<stop offset="1" stop-color="white" stop-opacity="0"/>
</radialGradient>
<radialGradient id="paint24_radial_2532_2117" cx="0" cy="0" r="1" gradientUnits="userSpaceOnUse" gradientTransform="translate(135.45 135.255) rotate(90) scale(135.087)">
<stop stop-color="white"/>
<stop offset="1" stop-color="white" stop-opacity="0"/>
</radialGradient>
</defs>
</svg>
