<svg width="283" height="283" viewBox="0 0 283 283" fill="none" xmlns="http://www.w3.org/2000/svg">
<g opacity="0.5">
<path fill-rule="evenodd" clip-rule="evenodd" d="M116.175 2.27433C120.724 1.47524 125.334 0.860555 130.005 0.491745L141.531 141.125L153.056 0.491745C157.728 0.860555 162.338 1.47524 166.886 2.27433L141.542 141.268L141.55 141.36L189.138 8.23676C193.564 9.83493 197.866 11.6175 202.046 13.5845L141.552 141.389L141.555 141.421L222.023 25.1405C225.835 27.7837 229.523 30.6112 233.088 33.6232L141.556 141.434L141.557 141.451L249.377 49.9122C252.389 53.4159 255.216 57.1655 257.859 60.9765L141.558 141.46L141.559 141.472L269.415 80.9537C271.382 85.1336 273.165 89.4364 274.763 93.8621L141.56 141.479L141.561 141.5L141.558 141.479L141.5 141.5L141.557 141.473L141.555 141.462L141.5 141.5L141.553 141.455L141.551 141.44L141.5 141.5L141.549 141.43L141.544 141.406L141.5 141.5L141.541 141.386L141.531 141.332L141.5 141.5L141.519 141.268L116.175 2.27433ZM141.5 141.5L141.583 141.558L141.611 141.552L141.5 141.5ZM141.5 141.5L141.699 141.536L141.635 141.548L141.5 141.5ZM141.5 141.5L60.9766 257.859C57.1655 255.216 53.4774 252.389 49.9123 249.377L141.5 141.5ZM141.5 141.5L141.775 141.523L280.787 116.175C281.586 120.724 282.201 125.334 282.57 130.005L141.906 141.533L282.508 153.056C282.139 157.728 281.525 162.338 280.726 166.886L141.752 141.546L141.651 141.554L274.763 189.138C273.165 193.564 271.382 197.866 269.415 202.046L141.62 141.557L141.586 141.559L257.859 222.023C255.216 225.834 252.389 229.523 249.377 233.088L141.571 141.561L141.561 141.561L141.57 141.56L141.5 141.5ZM141.5 141.5L233.088 249.377C229.584 252.389 225.835 255.216 222.023 257.859L141.5 141.5ZM141.5 141.5L202.046 269.416C197.866 271.382 193.564 273.165 189.138 274.763L141.5 141.5ZM141.5 141.5L129.944 282.508C125.272 282.139 120.662 281.525 116.114 280.726L141.5 141.5ZM141.5 141.5L93.8621 274.763C89.4364 273.165 85.1336 271.382 80.9537 269.416L141.5 141.5ZM141.5 141.5L33.6232 233.088C30.6112 229.584 27.7837 225.834 25.1405 222.023L141.5 141.5ZM141.5 141.5L13.5845 202.046C11.6175 197.866 9.83493 193.564 8.23676 189.138L141.5 141.5ZM141.5 141.5L2.27434 166.886C1.47525 162.338 0.86057 157.728 0.49176 153.056L141.5 141.5ZM141.5 141.5L0.49176 129.944C0.86057 125.272 1.47525 120.662 2.27434 116.114L141.5 141.5ZM141.5 141.5L8.23676 93.8621C9.83493 89.4364 11.6175 85.1336 13.5845 80.9537L141.5 141.5ZM141.5 141.5L25.1405 60.9765C27.7837 57.1655 30.6112 53.4774 33.6232 49.9122L141.5 141.5ZM141.5 141.5L49.9737 33.6232C53.4774 30.6112 57.227 27.7837 61.038 25.1405L141.5 141.5ZM141.5 141.5L80.9537 13.5845C85.1336 11.6175 89.4364 9.83493 93.8621 8.23676L141.5 141.5ZM153.056 282.57C157.728 282.201 162.338 281.586 166.886 280.787L141.5 141.561L153.056 282.57Z" fill="url(#paint0_radial_2721_1595)"/>
<path fill-rule="evenodd" clip-rule="evenodd" d="M141.51 141.51L149.281 46.6905C146.718 46.4838 144.114 46.3598 141.51 46.3598C138.906 46.3598 136.302 46.4838 133.781 46.6905L141.51 141.51ZM141.51 141.51L173.544 51.8985C168.749 50.1625 163.748 48.8398 158.581 47.8891L141.51 141.51ZM141.51 141.51L235.131 158.581C234.18 163.706 232.858 168.708 231.122 173.544L141.51 141.51ZM141.51 141.51L182.224 55.4945C186.936 57.7266 191.441 60.3306 195.657 63.2653L141.51 141.51ZM141.51 141.51L214.051 79.9228C210.703 75.9961 207.024 72.3174 203.097 68.9693L141.51 141.51ZM141.51 141.51L236.371 133.822C236.578 136.343 236.702 138.947 236.702 141.551C236.702 144.155 236.578 146.718 236.371 149.281L141.51 141.51ZM141.51 141.51L219.755 87.3629C222.69 91.6202 225.294 96.0843 227.526 100.796L141.51 141.51ZM141.51 141.51L235.131 124.439C234.18 119.273 232.858 114.271 231.122 109.476L141.51 141.51ZM141.51 141.51L227.526 182.224C225.294 186.936 222.69 191.441 219.755 195.657L141.51 141.51ZM141.51 141.51L63.2653 195.657C60.3306 191.4 57.7266 186.936 55.4945 182.224L141.51 141.51ZM141.51 141.51L214.051 203.097C210.703 207.024 207.024 210.703 203.097 214.051L141.51 141.51ZM141.51 141.51L182.224 227.526C186.936 225.294 191.4 222.69 195.657 219.755L141.51 141.51ZM141.51 141.51L133.781 236.371C136.343 236.578 138.906 236.702 141.51 236.702C144.114 236.702 146.718 236.578 149.239 236.371L141.51 141.51ZM141.51 141.51L173.544 231.122C168.749 232.858 163.748 234.18 158.581 235.131L141.51 141.51ZM141.51 141.51L100.796 227.526C96.0843 225.294 91.5789 222.69 87.3628 219.755L141.51 141.51ZM141.51 141.51L124.439 235.131C119.314 234.18 114.312 232.858 109.476 231.122L141.51 141.51ZM141.51 141.51L47.8891 158.581C48.8398 163.748 50.1625 168.749 51.8985 173.544L141.51 141.51ZM141.51 141.51L79.9228 214.051C75.9961 210.703 72.3174 207.024 68.9693 203.097L141.51 141.51ZM141.51 141.51L100.796 55.4945C96.0843 57.7266 91.6202 60.3306 87.3628 63.2653L141.51 141.51ZM141.51 141.51L46.6904 133.781C46.4838 136.343 46.3598 138.906 46.3598 141.51C46.3598 144.114 46.4838 146.718 46.6904 149.239L141.51 141.51ZM141.51 141.51L124.439 47.8891C119.272 48.8398 114.271 50.1625 109.476 51.8985L141.51 141.51ZM141.51 141.51L47.8891 124.439C48.8398 119.314 50.1625 114.312 51.8985 109.476L141.51 141.51ZM79.9228 68.9693L141.51 141.51L68.9693 79.9228C72.3174 75.9961 75.9961 72.3174 79.9228 68.9693ZM141.51 141.51L63.2653 87.4042C60.3306 91.6202 57.7266 96.1256 55.4945 100.838L141.51 141.51Z" fill="url(#paint1_radial_2721_1595)"/>
</g>
<defs>
<radialGradient id="paint0_radial_2721_1595" cx="0" cy="0" r="1" gradientUnits="userSpaceOnUse" gradientTransform="translate(141.531 141.531) rotate(90) scale(141.039)">
<stop stop-color="white"/>
<stop offset="1" stop-color="white" stop-opacity="0"/>
</radialGradient>
<radialGradient id="paint1_radial_2721_1595" cx="0" cy="0" r="1" gradientUnits="userSpaceOnUse" gradientTransform="translate(141.531 141.531) rotate(90) scale(95.1709)">
<stop stop-color="white"/>
<stop offset="0.3125" stop-color="white" stop-opacity="0.75"/>
<stop offset="1" stop-color="white" stop-opacity="0"/>
</radialGradient>
</defs>
</svg>
