<svg width="36" height="35" viewBox="0 0 36 35" fill="none" xmlns="http://www.w3.org/2000/svg">
<path d="M35.704 17.516C35.6801 27.2515 27.8784 35.0159 18.1442 35C8.40205 34.984 0.680201 27.1477 0.704157 17.3005C0.712143 7.7725 8.62564 -0.0238848 18.264 5.49856e-05C27.9103 0.0239947 35.728 7.86825 35.704 17.516ZM26.9601 12.1774C26.457 12.2811 26.0577 12.353 25.5946 12.4487C26.0018 11.8343 26.3292 11.3475 26.6486 10.8687C26.3132 10.7969 26.1136 10.8527 25.9299 10.9485C25.0915 11.3555 24.3808 11.4193 23.4784 10.8288C21.1627 9.33656 18.0803 11.0522 17.9526 13.7973C17.9366 14.0766 17.9526 14.3559 17.9526 14.707C14.8862 14.5395 12.5225 13.1829 10.4703 10.9884C9.55993 12.8158 9.9592 14.2921 11.3167 15.7444C10.7737 15.6487 10.3984 15.5769 9.95122 15.4971C9.99913 17.2207 11.0213 18.1943 12.4187 19.0082C11.9316 19.0641 11.6441 19.104 11.2928 19.1439C11.8118 20.6441 12.9777 21.2346 14.3991 21.6815C12.9058 22.7747 11.3167 23.078 9.50403 23.1179C9.71165 23.3094 9.78352 23.4131 9.87935 23.461C15.6767 26.4694 23.4625 23.9877 25.0995 16.5265C25.4349 15.0103 25.4588 13.4462 26.8962 12.4567C26.9281 12.4248 26.9201 12.337 26.9601 12.1774Z" fill="white"/>
</svg>
