<svg width="31" height="32" viewBox="0 0 31 32" fill="none" xmlns="http://www.w3.org/2000/svg">
<path d="M30.6053 16.3042C30.5846 24.9271 23.8473 31.8042 15.4411 31.79C7.0281 31.7759 0.359731 24.8352 0.380419 16.1134C0.387315 7.67425 7.22119 0.768884 15.5446 0.790088C23.8749 0.811292 30.626 7.75906 30.6053 16.3042ZM23.0543 11.5757C22.6198 11.6676 22.275 11.7312 21.8751 11.8161C22.2268 11.2718 22.5095 10.8407 22.7853 10.4166C22.4957 10.353 22.3233 10.4025 22.1647 10.4873C21.4406 10.8477 20.8269 10.9043 20.0476 10.3813C18.0478 9.05956 15.386 10.5792 15.2756 13.0105C15.2619 13.2579 15.2756 13.5053 15.2756 13.8163C12.6276 13.6679 10.5864 12.4663 8.81415 10.5226C8.02801 12.1412 8.37281 13.4487 9.54512 14.7351C9.0762 14.6503 8.75209 14.5867 8.36592 14.516C8.40729 16.0427 9.28997 16.905 10.4968 17.6259C10.0761 17.6754 9.82786 17.7107 9.52444 17.746C9.97267 19.0748 10.9795 19.5978 12.207 19.9936C10.9174 20.962 9.54512 21.2305 7.97974 21.2659C8.15904 21.4355 8.2211 21.5274 8.30385 21.5698C13.3103 24.2344 20.0338 22.0363 21.4475 15.4278C21.7371 14.0849 21.7578 12.6995 22.9991 11.8231C23.0267 11.7949 23.0198 11.7171 23.0543 11.5757Z" fill="#66C1EA"/>
</svg>
