<svg width="124" height="103" fill="none" xmlns="http://www.w3.org/2000/svg"><path d="M5.161 100.538c.891-16.212 6.797-31.912 16.6-44.802 4.909-6.417 10.527-12.301 17.077-17.1a73.743 73.743 0 0 1 10.207-6.418c3.152-1.655 7.083-3.6 10.783-2.95 4.333.71 5.907 5.489 7.037 9.164s2.05 7.473 2.442 11.363c.766 7.292.08 15.314-4.588 21.29-1.615 2.072-4.096 4.765-6.415 2.297-1.87-1.981-2.584-5.285-2.369-7.934.532-7.916 5.981-15.229 11.228-20.697 7.139-7.434 15.689-13.616 24.168-19.408a255.644 255.644 0 0 1 29.993-17.59c4.352-2.19.35-8.541-3.962-6.425-11.088 5.503-21.718 11.735-31.84 18.867-8.794 6.191-17.772 12.806-24.99 20.817-6.101 6.764-12.134 16.094-11.887 25.632.172 7.156 5.115 16.744 13.612 14.828 9.082-2.024 13.201-14.125 14.057-22.196.949-9.023-.91-19.015-4.54-27.26-9.794-22.038-36.938.269-46.93 10.812C10.09 58.39 1.097 79.36.19 100.813c-.059 2.974 4.831 2.845 4.971-.275z" fill="#fff"/></svg>