<svg width="44" height="71" fill="none" xmlns="http://www.w3.org/2000/svg"><path d="M2.395 33.692c6.642-.506 12.01-4.653 15.346-10.262 3.656-6.2 4.612-13.495 5.524-20.481l-4.187-.212c-.491 12.714 9.562 24.338 22.2 25.853.07-1.395.14-2.79.247-4.194-8.27-.297-12.9 7.606-15.495 14.398-3.597 9.396-6.41 19.144-9.577 28.633 1.36.078 2.72.157 4.108.192-.602-6.397-1.612-12.781-3.085-19.064-1.406-6.149-3.025-12.587-5.846-18.206-.974-1.915-4.096-.829-3.562 1.294 1.55 6.118 3.803 12.045 5.21 18.194a142.688 142.688 0 0 1 3.078 18.693c.214 2.192 3.473 2.082 4.108.192 2.858-8.676 5.708-17.388 8.602-26.072 1.837-5.471 5.135-14.355 12.204-14.095 2.704.085 2.891-3.872.247-4.194C31.187 23.166 22.9 13.323 23.265 2.949c.12-2.712-3.829-2.864-4.187-.212-1.41 10.712-4.135 25.514-16.932 27.913-1.654.284-1.515 3.163.249 3.042z" fill="#fff"/></svg>