<svg width="39" height="55" fill="none" xmlns="http://www.w3.org/2000/svg"><path d="M17.506 2.3c1.086 4.838-.087 9.754-2.775 13.88-2.344 3.641-6.664 7.636-11.28 7.852-2.658.128-3.475 3.588-.863 4.626 9.197 3.715 11.134 15.755 12.4 24.358.347 2.461 4 2.453 4.716.247 3.233-9.877 9.57-18.337 18.048-24.313 1.62-1.134.588-3.485-.888-4.098-7.816-3.193-13.349-11.171-13.576-19.627-.027-3.053-4.751-3.335-4.688-.29.163 10.745 6.861 20.485 16.8 24.524l-.887-4.098c-9.122 6.452-15.938 15.8-19.423 26.402 1.581.068 3.17.171 4.716.247-1.564-10.666-4.6-23.474-15.73-27.852-.084 1.51-.16 3.056-.243 4.566 5.804-1.966 10.691-4.89 14.01-10.234 3.095-4.997 4.184-11.164 2.62-16.83-.515-1.866-3.373-1.284-2.957.64z" fill="#fff"/></svg>