<svg width="1280" height="800" fill="none" xmlns="http://www.w3.org/2000/svg"><path d="M952.933 435.931c4.822-.236 8.69-3.218 11.071-7.337 2.608-4.554 3.246-9.984 3.854-15.184a3117.42 3117.42 0 0 1-3.043-.248c-.259 9.488 7.135 18.389 16.329 19.793.041-1.041.081-2.082.148-3.128-6.012-.4-9.314 5.405-11.147 10.423-2.541 6.943-4.509 14.165-6.736 21.187.988.088 1.977.175 2.985.232a110.881 110.881 0 0 0-2.388-14.31c-1.07-4.624-2.296-9.469-4.389-13.728-.722-1.451-2.982-.707-2.578.89 1.173 4.604 2.857 9.082 3.926 13.706a111.656 111.656 0 0 1 2.382 14.031c.172 1.643 2.539 1.631 2.986.232 2.009-6.42 4.013-12.868 6.048-19.294 1.292-4.047 3.619-10.613 8.757-10.268 1.966.123 2.071-2.83.148-3.128-7.515-1.114-13.612-8.647-13.428-16.39.067-2.023-2.803-2.221-3.043-.248-.942 7.973-2.807 18.973-12.086 20.49-1.2.177-1.077 2.331.204 2.279zm-13.145 23.875c.828 3.642.013 7.293-1.911 10.32-1.677 2.672-4.789 5.566-8.147 5.628-1.933.039-2.5 2.608-.591 3.441 6.721 2.977 8.224 12.021 9.213 18.482.272 1.848 2.93 1.921 3.434.286 2.275-7.315 6.82-13.505 12.943-17.791 1.169-.813.4-2.593-.678-3.083-5.713-2.557-9.801-8.642-10.033-14.97-.043-2.284-3.483-2.597-3.414-.318.204 8.038 5.153 15.466 12.417 18.701l-.677-3.083c-6.588 4.628-11.474 11.47-13.928 19.323 1.152.085 2.309.197 3.434.287-1.221-8.009-3.53-17.653-11.664-21.167-.049 1.127-.092 2.282-.141 3.409 4.208-1.345 7.741-3.425 10.115-7.35 2.213-3.67 2.957-8.258 1.775-12.53-.39-1.406-2.465-1.032-2.147.415zm-552.813-24.533c.592 2.603.009 5.212-1.365 7.376-1.2 1.91-3.424 3.978-5.823 4.023-1.382.027-1.788 1.864-.423 2.459 4.804 2.127 5.878 8.592 6.585 13.21.194 1.321 2.094 1.373 2.454.204 1.626-5.228 4.874-9.652 9.251-12.716.836-.581.286-1.853-.485-2.204-4.083-1.827-7.005-6.176-7.17-10.699-.032-1.632-2.49-1.856-2.44-.228.145 5.746 3.683 11.055 8.875 13.367l-.485-2.204c-4.708 3.308-8.201 8.199-9.954 13.812.823.06 1.65.14 2.454.204-.873-5.724-2.523-12.617-8.337-15.128-.035.805-.066 1.63-.1 2.436 3.007-.961 5.533-2.448 7.229-5.253 1.582-2.624 2.114-5.903 1.269-8.956-.279-1.005-1.762-.738-1.535.297zm-11.477-198.012c1.261 8.166-3.054 16.097-10.301 19.115-1.469.613-.413 2.943 1.049 2.656 1.426-.255 2.606 1.861 3.225 2.902a48.549 48.549 0 0 1 3.205 6.171c1.837 4.191 3.055 8.661 3.704 13.168.213 1.55 2.81 1.352 2.66-.212-.651-7.865 2.264-15.524 7.932-20.567.835-.746.149-2.142-.881-2.255-2.323-.212-4.53-1.376-6.217-3.123-1.778-1.841-2.568-4-3.161-6.436-.299-1.275-2.143-1.087-2.154.19-.071 2.98 1.631 6.02 3.691 8.099 2.151 2.173 4.91 3.583 7.877 3.879-.299-.742-.577-1.49-.881-2.254-6.143 5.36-9.545 13.825-8.871 22.31.896-.065 1.786-.152 2.661-.213a54.385 54.385 0 0 0-4.648-15.408c-1.081-2.255-2.263-4.556-3.789-6.548-1.259-1.635-3.008-2.835-5.05-2.462.359.891.691 1.765 1.049 2.656 8.014-3.331 12.833-13.23 10.736-22.063-.3-1.275-2.035-.833-1.836.395zm364.805 59.517c.506-12.312 4.726-24.116 11.854-33.691 3.57-4.766 7.67-9.11 12.468-12.607a51.175 51.175 0 0 1 7.488-4.641c2.316-1.186 5.204-2.572 7.946-1.991 3.212.643 4.421 4.314 5.291 7.137.871 2.822 1.586 5.733 1.913 8.701.634 5.565.203 11.652-3.193 16.088-1.175 1.538-2.984 3.528-4.722 1.597-1.402-1.552-1.961-4.082-1.827-6.092.319-6.009 4.28-11.444 8.109-15.48 5.209-5.488 11.474-9.989 17.69-14.195a177.318 177.318 0 0 1 22.015-12.676c3.198-1.563.178-6.489-2.991-4.98-8.148 3.925-15.95 8.416-23.368 13.603-6.445 4.503-13.023 9.323-18.285 15.248-4.449 5.001-8.823 11.957-8.55 19.218.195 5.448 3.941 12.858 10.206 11.601 6.697-1.327 9.63-10.435 10.187-16.555.617-6.841-.852-14.486-3.614-20.844-7.451-16.994-27.314-.664-34.604 7.121-10.765 11.491-17.218 27.232-17.687 43.53-.015 2.261 3.6 2.278 3.674-.092zM390.836 400.76c-8.232-2.885-17.273-3.158-25.748-.905-4.224 1.137-8.335 2.737-12.106 5.026a40.61 40.61 0 0 0-5.349 3.785c-1.49 1.236-3.288 2.802-3.751 4.785-.567 2.313 1.469 4.081 3.053 5.401 1.583 1.32 3.272 2.56 5.119 3.555 3.455 1.881 7.58 3.186 11.535 2.08 1.371-.382 3.233-1.07 2.501-2.736-.587-1.342-2.074-2.377-3.434-2.814-4.04-1.36-8.824-.138-12.649 1.362-5.203 2.042-10.084 5.047-14.756 8.097a140.738 140.738 0 0 0-15.089 11.382c-2.01 1.726-4.312-1.58-2.347-3.301 5.082-4.413 10.429-8.447 16.115-12.043 4.937-3.125 10.123-6.255 15.629-8.218 4.65-1.661 10.558-2.761 15.237-.678 3.514 1.556 7.222 5.997 4.468 9.852-2.931 4.124-9.807 3.698-13.993 2.468-4.677-1.379-9.24-4.361-12.561-7.869-8.854-9.424 7.971-18.414 15.321-21.243 10.85-4.18 23.161-4.368 33.996-.415 1.488.581.387 3-1.191 2.429zm506.354 56.441c-11.157-1.738-22.105-3.619-33.466-5.148a978.942 978.942 0 0 0-34.26-3.954 1152.599 1152.599 0 0 0-71.139-4.707c-48.133-1.73-97.327-.842-146.198 2.747a1277.511 1277.511 0 0 0-40.299 3.578c-6.853.73-13.704 1.493-20.55 2.321-7.064.84-14.213 1.489-21.112 2.615-6.827 1.122-5.173 6.367 2.038 5.55 11.897-1.353 23.54-3.249 35.439-4.57 11.897-1.354 23.806-2.512 35.797-3.543a1358.234 1358.234 0 0 1 72.004-4.194 1326.305 1326.305 0 0 1 142.093 3.295c12.851.983 25.497 2.175 38.152 3.497 13.168 1.39 26.406 2.743 39.102 4.686 3.008.446 5.481-1.699 2.399-2.173zM856.688 244.07c.428-4.872.45-10.077 1.571-14.858 1.098-4.735 1.277-9.912 1.739-14.795.909-9.913 1.84-19.872 2.75-29.785-1.452-.163-2.87-.336-4.321-.499 2.71 16.554 8.311 32.519 16.461 47.313l3.406-3.003a364.062 364.062 0 0 1-31.611-25.579c-.239 1.373-.511 2.757-.75 4.131 11.795-2.655 23.731-4.665 35.8-5.951-.653-1.403-1.34-2.796-1.994-4.199l-14.372 19.008c-4.702 6.27-9.987 12.338-14.002 19.123-1.299 2.16 1.972 4.244 3.578 2.562 2.695-2.821 4.928-6.034 7.296-9.174 2.368-3.141 4.714-6.236 7.082-9.377 4.714-6.236 9.428-12.471 14.13-18.742 1.151-1.503.199-4.457-1.994-4.199a329.288 329.288 0 0 0-37.056 6.262c-1.779.397-2.069 2.934-.75 4.131a364.9 364.9 0 0 0 31.701 25.514c2.171 1.545 4.798-.491 3.406-3.003-7.772-13.994-13.13-29.232-15.906-44.886-.193-1.125-.862-2.026-2.046-2.157-.993-.113-2.2.566-2.275 1.659-.786 9.952-1.528 19.928-2.314 29.88-.192 2.391-.318 4.762-.477 7.143-.159 2.38-.518 4.823-.409 7.235.179 5.258-.434 10.455-.858 15.67-.159 1.501 2.101 2.102 2.215.576zm267.702 71.913c2.23-1.945 4.45-3.908 6.64-5.904 2.18-1.973 4.54-3.853 6.57-5.965 1.35-1.401-.62-3.262-2.1-2.107-2.29 1.823-4.38 3.992-6.54 5.978-2.17 2.01-4.34 4.02-6.48 6.062-1.27 1.224.59 3.071 1.91 1.936zm5.1 12.229c3.18-.407 6.37-.795 9.57-1.009a97.93 97.93 0 0 1 4.83-.191c1.47-.022 3.25.288 4.63-.248.95-.368.61-1.637-.14-1.976-.78-.334-1.65-.257-2.47-.248-.74.013-1.47.022-2.21.054-1.64.056-3.29.154-4.93.308-3.25.283-6.48.739-9.65 1.497-1.18.259-.82 1.955.37 1.813z" fill="#fff"/></svg>