<svg width="836" height="325" fill="none" xmlns="http://www.w3.org/2000/svg"><path d="M639.66 259.622c4.822-.235 8.691-3.218 11.071-7.337 2.608-4.554 3.246-9.983 3.854-15.183l-3.043-.249c-.259 9.489 7.135 18.39 16.329 19.794.041-1.042.081-2.083.148-3.129-6.012-.4-9.314 5.405-11.147 10.424-2.541 6.942-4.509 14.165-6.736 21.186.988.088 1.977.176 2.986.232a111.057 111.057 0 0 0-2.389-14.31c-1.07-4.624-2.296-9.469-4.389-13.727-.722-1.452-2.982-.707-2.578.89 1.173 4.604 2.857 9.081 3.926 13.705a111.49 111.49 0 0 1 2.382 14.032c.172 1.642 2.539 1.631 2.986.232 2.009-6.421 4.013-12.868 6.048-19.294 1.292-4.048 3.619-10.614 8.757-10.268 1.966.122 2.071-2.831.148-3.128-7.515-1.115-13.612-8.647-13.428-16.39.068-2.024-2.803-2.222-3.043-.249-.941 7.973-2.807 18.974-12.086 20.491-1.2.176-1.077 2.33.204 2.278zm-13.145 23.876c.828 3.641.013 7.292-1.911 10.32-1.677 2.672-4.789 5.566-8.146 5.628-1.934.038-2.501 2.608-.592 3.44 6.721 2.977 8.224 12.022 9.213 18.483.272 1.848 2.931 1.921 3.434.286 2.275-7.316 6.82-13.505 12.943-17.792 1.169-.813.4-2.593-.678-3.083-5.713-2.557-9.801-8.642-10.033-14.97-.043-2.283-3.483-2.596-3.414-.318.204 8.039 5.153 15.466 12.417 18.702l-.677-3.084c-6.587 4.628-11.474 11.471-13.927 19.324 1.151.085 2.308.196 3.433.286-1.221-8.009-3.53-17.653-11.664-21.167-.049 1.128-.092 2.282-.141 3.41 4.208-1.345 7.742-3.426 10.115-7.351 2.213-3.67 2.957-8.258 1.775-12.529-.39-1.406-2.465-1.033-2.147.415zM73.702 258.964c.592 2.603.01 5.213-1.365 7.376-1.2 1.91-3.424 3.979-5.823 4.023-1.382.028-1.788 1.864-.423 2.459 4.804 2.128 5.878 8.592 6.585 13.21.194 1.321 2.094 1.373 2.454.205 1.626-5.229 4.875-9.653 9.25-12.717.837-.581.287-1.853-.484-2.203-4.083-1.828-7.005-6.177-7.17-10.7-.031-1.632-2.49-1.856-2.44-.227.145 5.745 3.683 11.054 8.875 13.366l-.485-2.203c-4.708 3.307-8.2 8.198-9.954 13.811.823.061 1.65.14 2.454.205-.873-5.725-2.523-12.617-8.337-15.129-.035.806-.066 1.631-.1 2.437 3.007-.961 5.533-2.449 7.229-5.254 1.582-2.623 2.114-5.902 1.269-8.955-.279-1.005-1.762-.738-1.534.296zM62.225 60.952c1.261 8.166-3.054 16.098-10.3 19.115-1.47.613-.414 2.943 1.048 2.657 1.426-.256 2.606 1.86 3.225 2.901a48.322 48.322 0 0 1 3.205 6.172c1.837 4.19 3.055 8.66 3.704 13.168.213 1.549 2.81 1.351 2.66-.213-.651-7.865 2.264-15.524 7.932-20.567.835-.746.149-2.141-.881-2.254-2.323-.212-4.53-1.377-6.217-3.123-1.778-1.842-2.568-4-3.16-6.437-.3-1.274-2.144-1.086-2.155.19-.07 2.98 1.631 6.02 3.692 8.1 2.15 2.172 4.909 3.582 7.876 3.879-.299-.743-.576-1.49-.88-2.255-6.144 5.36-9.546 13.825-8.872 22.31.896-.065 1.786-.152 2.66-.212a54.361 54.361 0 0 0-4.647-15.408c-1.081-2.255-2.263-4.557-3.79-6.548-1.258-1.636-3.007-2.836-5.049-2.463.359.891.69 1.765 1.05 2.656 8.013-3.331 12.832-13.23 10.735-22.063-.3-1.275-2.035-.833-1.836.395zM427.03 120.47c.506-12.312 4.726-24.116 11.854-33.691 3.57-4.766 7.67-9.11 12.468-12.606a51.169 51.169 0 0 1 7.488-4.642c2.316-1.185 5.204-2.571 7.946-1.99 3.212.642 4.421 4.314 5.291 7.136.871 2.823 1.586 5.733 1.913 8.701.634 5.566.203 11.652-3.193 16.089-1.175 1.537-2.984 3.527-4.722 1.596-1.402-1.552-1.961-4.081-1.827-6.092.319-6.009 4.28-11.444 8.109-15.48 5.209-5.487 11.474-9.989 17.69-14.195a177.317 177.317 0 0 1 22.015-12.676c3.198-1.563.178-6.488-2.991-4.98-8.148 3.926-15.95 8.416-23.368 13.603-6.445 4.503-13.023 9.323-18.285 15.248-4.449 5.002-8.823 11.958-8.55 19.218.195 5.449 3.941 12.859 10.207 11.601 6.696-1.327 9.629-10.434 10.186-16.554.617-6.841-.852-14.487-3.613-20.845-7.452-16.993-27.315-.664-34.605 7.121-10.765 11.491-17.218 27.232-17.686 43.53-.016 2.261 3.599 2.278 3.673-.092zM77.563 224.451c-8.232-2.885-17.273-3.157-25.748-.904-4.224 1.136-8.335 2.737-12.106 5.026a40.606 40.606 0 0 0-5.349 3.784c-1.49 1.236-3.288 2.802-3.751 4.785-.567 2.313 1.47 4.082 3.053 5.402 1.583 1.32 3.272 2.56 5.119 3.555 3.455 1.88 7.58 3.185 11.535 2.079 1.37-.382 3.233-1.069 2.5-2.735-.586-1.342-2.073-2.378-3.433-2.815-4.04-1.36-8.824-.137-12.65 1.363-5.202 2.042-10.083 5.047-14.755 8.096a140.85 140.85 0 0 0-15.09 11.382c-2.009 1.727-4.31-1.579-2.346-3.3 5.083-4.414 10.43-8.448 16.115-12.044 4.937-3.125 10.123-6.255 15.629-8.217 4.65-1.662 10.558-2.762 15.237-.679 3.514 1.556 7.222 5.998 4.468 9.852-2.93 4.125-9.807 3.699-13.993 2.468-4.677-1.379-9.24-4.36-12.56-7.869-8.855-9.424 7.97-18.413 15.32-21.243 10.85-4.18 23.161-4.368 33.996-.415 1.488.582.387 3-1.191 2.429zm506.354 56.441c-11.157-1.738-22.105-3.619-33.466-5.148a983.988 983.988 0 0 0-34.259-3.954 1152.689 1152.689 0 0 0-71.14-4.706c-48.133-1.731-97.327-.843-146.198 2.747a1274.538 1274.538 0 0 0-40.299 3.577c-6.853.73-13.704 1.493-20.55 2.321-7.064.841-14.213 1.49-21.112 2.616-6.827 1.121-5.173 6.366 2.038 5.55 11.897-1.354 23.54-3.25 35.439-4.571 11.897-1.354 23.806-2.512 35.797-3.543a1359.296 1359.296 0 0 1 72.004-4.193 1326.044 1326.044 0 0 1 142.093 3.295c12.851.983 25.497 2.174 38.152 3.496 13.168 1.39 26.406 2.744 39.102 4.686 3.008.446 5.481-1.698 2.399-2.173zm-40.502-213.13c.428-4.873.45-10.078 1.571-14.858 1.098-4.736 1.277-9.913 1.739-14.795.909-9.914 1.84-19.872 2.75-29.786-1.452-.163-2.87-.336-4.321-.498 2.71 16.553 8.311 32.518 16.461 47.313l3.406-3.003a364.215 364.215 0 0 1-31.611-25.58c-.239 1.374-.511 2.758-.75 4.131 11.795-2.654 23.731-4.664 35.8-5.95-.653-1.404-1.34-2.797-1.994-4.2l-14.372 19.008c-4.702 6.27-9.987 12.339-14.002 19.123-1.299 2.16 1.972 4.245 3.578 2.563 2.695-2.821 4.928-6.035 7.296-9.175 2.368-3.14 4.714-6.236 7.082-9.376 4.714-6.236 9.428-12.472 14.13-18.743 1.151-1.502.199-4.457-1.994-4.199A329.448 329.448 0 0 0 531.128 26c-1.779.397-2.069 2.933-.75 4.13a364.86 364.86 0 0 0 31.701 25.514c2.171 1.545 4.798-.49 3.406-3.003-7.772-13.994-13.13-29.231-15.906-44.885-.193-1.126-.862-2.027-2.046-2.158-.993-.113-2.2.566-2.275 1.66-.786 9.951-1.528 19.928-2.314 29.88-.192 2.39-.318 4.761-.477 7.142-.159 2.38-.518 4.823-.409 7.236.179 5.258-.434 10.454-.858 15.67-.159 1.5 2.101 2.101 2.215.575zm267.706 71.912a437.637 437.637 0 0 0 6.639-5.904c2.179-1.972 4.54-3.853 6.564-5.964 1.35-1.402-.62-3.263-2.094-2.108-2.296 1.824-4.385 3.992-6.54 5.978a617.505 617.505 0 0 0-6.479 6.062c-1.277 1.224.59 3.071 1.91 1.936zm5.096 12.23c3.181-.407 6.366-.795 9.566-1.01a99.164 99.164 0 0 1 4.837-.191c1.47-.022 3.243.288 4.628-.247.948-.369.613-1.638-.143-1.976-.776-.335-1.645-.258-2.468-.248-.745.012-1.47.021-2.211.053-1.64.056-3.291.154-4.931.309-3.245.282-6.475.738-9.644 1.497-1.186.259-.824 1.955.366 1.813z" fill="#fff"/></svg>