<svg width="159" height="190" viewBox="0 0 159 190" fill="none" xmlns="http://www.w3.org/2000/svg">
<path d="M109.002 5.40704C110.087 10.245 108.914 15.1619 106.227 19.2876C103.882 22.9288 99.5624 26.9232 94.9466 27.1397C92.2886 27.2678 91.4713 30.7274 94.0834 31.7655C103.281 35.4805 105.217 47.5199 106.484 56.1234C106.831 58.5849 110.484 58.5768 111.2 56.3702C114.432 46.4938 120.769 38.034 129.248 32.057C130.867 30.9229 129.836 28.5725 128.36 27.9595C120.544 24.766 115.011 16.7882 114.783 8.33262C114.756 5.27975 110.032 4.99737 110.095 8.04253C110.259 18.7873 116.957 28.5271 126.896 32.5664C126.603 31.2124 126.302 29.8228 126.008 28.4689C116.887 34.9208 110.071 44.2679 106.586 54.8704C108.167 54.9382 109.756 55.0417 111.302 55.1172C109.738 44.4519 106.702 31.6434 95.5707 27.2656C95.4874 28.7757 95.4119 30.3214 95.3287 31.8315C101.132 29.8657 106.02 26.942 109.338 21.5978C112.434 16.6003 113.523 10.4335 111.959 4.7665C111.444 2.90125 108.585 3.48301 109.002 5.40704Z" fill="white"/>
<path d="M23.1611 186.538C24.052 170.326 29.9579 154.626 39.7602 141.736C44.6697 135.319 50.2882 129.435 56.8382 124.635C60.0765 122.216 63.511 120.047 67.0446 118.218C70.1971 116.563 74.1281 114.619 77.8276 115.268C82.1611 115.979 83.7352 120.757 84.8654 124.432C85.9956 128.107 86.9152 131.905 87.3072 135.795C88.0725 143.087 87.387 151.109 82.7192 157.086C81.1041 159.157 78.6226 161.85 76.3038 159.382C74.4341 157.401 73.7199 154.097 73.935 151.448C74.4666 143.532 79.9162 136.219 85.1631 130.751C92.3019 123.317 100.852 117.135 109.331 111.343C118.943 104.791 128.941 98.9272 139.324 93.7523C143.676 91.5628 139.674 85.2119 135.362 87.3281C124.274 92.8312 113.644 99.0634 103.522 106.195C94.7285 112.386 85.7499 119.001 78.5326 127.012C72.4306 133.776 66.3975 143.107 66.6452 152.643C66.8168 159.8 71.7605 169.389 80.2574 167.472C89.3388 165.448 93.458 153.347 94.3139 145.276C95.2628 136.253 93.4043 126.261 89.7749 118.015C79.9797 95.9785 52.8358 118.285 42.8438 128.828C28.0901 144.39 19.0975 165.36 18.1905 186.813C18.1313 189.787 23.0214 189.658 23.1611 186.538Z" fill="white"/>
</svg>
