<svg width="115" height="151" viewBox="0 0 115 151" fill="none" xmlns="http://www.w3.org/2000/svg">
<path d="M16.7991 148.002C17.4466 136.219 21.7391 124.808 28.8636 115.439C32.4319 110.775 36.5156 106.499 41.2762 103.01C43.6299 101.251 46.1262 99.6749 48.6944 98.3461C50.9857 97.1427 53.8429 95.7299 56.5317 96.2016C59.6814 96.7184 60.8255 100.191 61.647 102.862C62.4684 105.533 63.1368 108.294 63.4216 111.121C63.9779 116.421 63.4797 122.252 60.087 126.596C58.9131 128.101 57.1095 130.058 55.4242 128.265C54.0653 126.825 53.5462 124.424 53.7025 122.498C54.0889 116.745 58.0497 111.429 61.8633 107.455C67.0519 102.052 73.2663 97.5586 79.4288 93.3492C86.4155 88.5868 93.682 84.3249 101.228 80.5638C104.392 78.9724 101.483 74.3564 98.3487 75.8945C90.2897 79.8943 82.5638 84.424 75.2071 89.6074C68.8156 94.1072 62.2898 98.9147 57.0441 104.738C52.609 109.654 48.2241 116.435 48.4041 123.367C48.5289 128.569 52.122 135.538 58.2978 134.145C64.8983 132.673 67.8922 123.879 68.5142 118.012C69.2039 111.454 67.8532 104.191 65.2152 98.1984C58.0959 82.1818 38.3672 98.3942 31.1048 106.057C20.3816 117.368 13.8455 132.61 13.1863 148.202C13.1433 150.363 16.6975 150.27 16.7991 148.002Z" fill="white"/>
<path d="M7.39481 36.6924C14.0368 36.1863 19.4053 32.0394 22.7412 26.4303C26.3966 20.2298 27.3532 12.9352 28.2646 5.94891C26.8691 5.87815 25.4736 5.8074 24.0781 5.73664C23.5867 18.4511 33.6395 30.0753 46.2773 31.5904C46.348 30.1949 46.4188 28.7994 46.5252 27.3962C38.2543 27.0988 33.6249 35.0023 31.03 41.7938C27.4326 51.1897 24.6202 60.9378 21.4533 70.427C22.8131 70.5055 24.173 70.5839 25.5608 70.6191C24.9585 64.2217 23.9488 57.838 22.4759 51.5546C21.0695 45.406 19.4512 38.9676 16.6303 33.3492C15.6559 31.434 12.5341 32.5205 13.0684 34.6429C14.6173 40.7606 16.8711 46.6884 18.2774 52.837C19.7195 58.9779 20.7416 65.247 21.3564 71.5297C21.5701 73.7216 24.829 73.6125 25.4639 71.7218C28.322 63.0456 31.1723 54.3337 34.066 45.6497C35.9025 40.1789 39.2006 31.2954 46.2695 31.5548C48.9738 31.6405 49.1612 27.6832 46.5174 27.3606C36.1873 26.1663 27.9005 16.3231 28.2646 5.94891C28.3859 3.2369 24.4363 3.08522 24.0781 5.73664C22.6682 16.4492 19.9434 31.2514 7.14619 33.6502C5.49177 33.934 5.63054 36.8135 7.39481 36.6924Z" fill="white"/>
</svg>
